/* XPM */
static char * 23HPGRN_xpm[] = {
"110 85 60 1",
" 	c #71C671C671C6",
".	c #000049240000",
"X	c #000071C60000",
"o	c #00008A280000",
"O	c #00009A690000",
"+	c #0000AAAA0000",
"@	c #0000BAEA0000",
"#	c #000092480000",
"$	c #000069A60000",
"%	c #000014510000",
"&	c #000082070000",
"*	c #0000CB2B0000",
"=	c #0000D34C0000",
"-	c #000079E70000",
";	c #0000B2CA0000",
":	c #0000DB6C0000",
">	c #0000EBAD0000",
",	c #0000E38D0000",
"<	c #0000FFFF0000",
"1	c #0000F3CE0000",
"2	c #08209A690000",
"3	c #000051440820",
"4	c #000004101040",
"5	c #082059650000",
"6	c #082071C60000",
"7	c #082010401040",
"8	c #000014510820",
"9	c #104082071040",
"0	c #1040B6DA1040",
"q	c #08208A280000",
"w	c #6185AEBA6185",
"e	c #000020811040",
"r	c #492475D64924",
"t	c #000014511861",
"y	c #000020812081",
"u	c #0000208128A2",
"i	c #41034D344103",
"p	c #71C675D679E7",
"a	c #861782078617",
"s	c #8E388A288E38",
"d	c #8E388E388E38",
"f	c #96588E389658",
"g	c #9E799A699E79",
"h	c #9E79A2899E79",
"j	c #A699A699A699",
"k	c #B6DAB2CAB6DA",
"l	c #AEBAAAAAAEBA",
"z	c #B6DAAEBABEFB",
"x	c #C71BC30BC71B",
"c	c #BEFBBAEAC71B",
"v	c #AEBABEFBAEBA",
"b	c #79E77DF78617",
"n	c #BEFBBAEABEFB",
"m	c #CF3CCB2BCF3C",
"M	c #D75CCF3CD75C",
"N	c #DF7DDB6CDF7D",
"B	c #D75CE79DD75C",
"V	c #F7DEF3CEF7DE",
"C	c #E79DEBADE79D",
"Z	c #FFFFFBEEFFFF",
"              .XoO+@@@@+##$.                                                                                  ",
"             %$&#+@*==@@+#-.%                                                                                 ",
"             %%&O;*:>,:*;O&%%                                                                                 ",
"             %%&O;*,<<1=;O&%%                                                                                 ",
"             %%&O;*,<<>=@O&%                                                                                  ",
"               X2;*,<<1=;O3                                                                                   ",
"               %$#@:<<:@#$%                                                                                   ",
"               %.#@,<<:@O$%                                                                                   ",
"               45#@,<<:@O$%                                                                                   ",
"               %$O@:<<:@O5%                                                                                   ",
"              6%3O@:<<:@O$%%                                                                                  ",
"            6&X%5O@,<1,@O$%78%                                                                                ",
"           9o9&%-O@:>>=@O-%%%8%%                                                                              ",
"          9ooooo-#;@==*0O$..@;+;;;                                                                            ",
"          9####ooo&oooX55O@@@;0+OO2O                                                                          ",
"         2OOOOO###oo&&-0@@@@;;++0O0##                                                                         ",
"        OOOOOOOOOO##o&*@*@@;;+0++OOO9                                                                         ",
"       O+;+;+;+OOOO#O=*@@@@@;++@OOO##q                                                                        ",
"      +;+;;;+;+;+OO+=@*@@544%%4$OOO##o                                                                        ",
"      ;;;@@@;;;;++;=*@@5%%%%%%%%%O##oo&                                                                       ",
"     ;@@@@@@@@@@;+==@@748744%%%48%#9oo&                                                                       ",
"    w@@@*@***@@@@==@*4484787744%%e%oo&&r                                                                      ",
"    ;@@**==*=**@=00*t88484848747%..9&&&X                                                                      ",
"   w@*=*==:===*==@=t8tttttt48847%33$&&-r             -&&&-&                                                   ",
"   @@===:::::==0==44ttttttttt4845.55&--r         9X--&-&&&&&&9                                                ",
"  w@=*=:,,,,,:==*tetyytyyyttett85$$$---r        X---&&&oooooo#o9                                              ",
"  0===:1>>>>,,=0$tteyyyyyyyyttttX$----X9       9--&&&&ooooo#o#oq#qw                                           ",
"  ==::11>11>1:=@ttyyyyuyyyyyyttt-&-&-X$$      --&&&&ooooo######O#OO#w                                         ",
"  =:,>111>11,=*5ytyyyu3y3uuyyyet9&o&-$$5     --&&&&oooo#####OOOOOO#OO#2                                       ",
" 00>>11>111:*=*4yyyu3u337iiiyyyt$oooX$$i    --&&&oooo####OOOOOOOOOOOOOOO2w                                    ",
" =:>>111111*=*=tuyuy333iiiirpitu9o##X$59   X-&&&oooo###O#OOOOOOOO+O+OO+OOOOw                                  ",
" =:>111>111=**7tuyu3u3iiirpasddi99O#$$5r  X&&&&ooo###OOOOOOOO+O++O++O++O+O+OOO                                ",
" =,,>11111=*=*tuyy3u33iirpsfghhhhw0O$5.  X&&&&ooo###OOOOOO++O+++++++++++++OO+OOO                              ",
"=*::,1111=*=*@tyyy3337iipdghjkkkljgfi53  -&&&ooo###OOOOO++O++++++++;+++++++++O+OOO2                           ",
"*@==:=:===***8ttyuu337iiaghkzxxxcvlgdbr -&&&ooo##OOOOO+O++++;+;;;;;;;;;+;+;+++O+2+O9O                         ",
"@@*=====*****7tyyy33u3iipdjnmMMMMxnjwsp--&&ooo##OOOOO++++++;;;;;@;@;@;@;;;+;+;+++OOOOO##                      ",
"@@@**=**@@=@@7ttyyu33iiradhlMNBBNmxkgfp-9o&oo###OOOO+O+++;+;;;;@;@@@@;@;@;;;;++++O+OOOO#99                    ",
";;@@@@@@@@*=@8ttyyyuu7iipsgjxMBVBMxkgd--&o&o###OOOO++++;+;;@;@@@@@@@@@@@@@;;;;;++++O+OOO##o9                  ",
"++;;;@@@;;*@;8tttyyy33iipaglnxMBBMmzha-&&ooo##OOOO+O;++;;;@@@@@@@@@@@@@@@@@@@;;;++++OOOOO###o9                ",
"OO+++;++++*@+4tttytyyuu3isfhlcmmMMmkh-&&o&o###OOO+O;+;;;;@@@@@@*@***@**@*@@@@@@;;++++O+OOO#oooo9-             ",
"OOOO+O+OO;*@O884ttyyyyyuyy3ghkncxxnkj$-&ooo##OOO+O+;+;;@@@@@@*@***@***@*@*@@@@@@;;++++OOOO###ooo&&6           ",
"##OOOOOOO@@@;748ttttytyyy7t;@wjlkljhrXX&&o##OOOO++++;;@@@@@*******=**=*****@*@@@@;;++++OOOO#o#o&---$Xr        ",
"ooo##O###*@@@47484tttttttt++@@@rwggfXX-&&oo#OOO+O++;;;@@@@*@****=*===*=*****@@@@@;;;+++O+OO##oooo2@2oo0-      ",
"w&&o&oo&o@@@@%7748tttttet+2;@@X5.3rsX-&&&o###OO+++;;;@@@@*****===========****@*@@@;;;++OOOOO##o+@@@@;+;O+w    ",
" --&-&&--O@@05%474884tttO++;@$$53.  XX&&ooo#OOO+++;;@@@*@***=====:=:=:=:==****@@@@@;;++++OOOO+**@@@@;+++O@2   ",
" $$$XX$X$$@;;O%%47748tt2O++;9$..3   X-&&oo##OOO+++;;@@@****====::::::::=:===***@@@@@;;+O+OOO=@*@@@@;;+O+OO#2  ",
" r.555$55.@;++%4%%7489#OOO;6$5.3   XX&&&o###OO+O+;;;@@*@**===::::,:,:,:::====***@@@@;;;++O;==*@@@@;;++OOOOO#0 ",
"  .3.33.33+;++O%%%4oooOOO;X95535   $-&&oo##OOOO++;;;@@****==::::,,,,,,,:,:=:=****@@@@;+++0:**@*@@@;;++OOOO#O9 ",
"   %..%.%%5++O22XX&o&##O#X$$5.3    X-&&oo##OOO+++;;@@@***===::,,,,>>,>,,:::===**@@@@@;;++==**@@@@;;++O+OOO##qr",
"    %%%%%%8+2+OOO#o&o&o--$$$53     $&&&oo#OOOO+++;;@@@*@===:::,,>>>>>>,,,,::==***@@@@@+;==**@*@@@;+++OOOO##oo&",
"      %%%%%%+OOOO##o&&--X$$5.      X-&ooo#OOO+O+;;@@@***===::,,>>>>1>>>,>::::==**@*@@;;:==**@@@@;;++O+OO##ooo&",
"        %%%4.0OOO#oo&&--$$$.       X&&&o###OO+++;;@@@@**===:,,>>>11111>>,,,:=:*=*@@@@;=:=**@*@@;;++O+OOO##oo&&",
"          %%4.####o&&&-X$$         --&oo##OOO+O;;;@@@***==::,,>>1111111>>,:::==***@@@@:=**@*@@@;;++O+OO##oo&&-",
"            4442qoo&&--$           X&&&o##OOO+++;;@@@***==::,,>>111111>>>,,::===*@*@*:==**@@@@;;+++OOO##ooo&--",
"                                   X&&oo##OOO+++;;@@*@*===::,>>11111111>>,,::==**@*@===***@@@@;+++OOOO##oo&&--",
"                                   X&&&o##OOO+++;;@@@**===::,>>>111111>>>,:::==***@@:=***@*@@;;++O+OOO##o&&&-X",
"                                   --&oo##OOO+++;;@@@***==::,,>>11111>>>,,:::==**@@:==**@@@@@;+++OOOO##oo&&-XX",
"                                   X&&oooO92OO++;;@@@***==::,,>>>111>1>,,:::===*@*@:==**@@@@;;++O+OO##oo&&&-X$",
"                                   X-&oo##2O2+++;;@@@*@====::,,>>>>>>>,,::===*=**@:==**@*@@@;++O+OOO##o&&&-X$$",
"                                    -&ooo#902O+++;@@@@***==::,,,,>>>,,,,::==***@*@==***@@@@;+++OOOO##ooo&--X$$",
"                                    -&&o#9hghh++;0;@@*@*===:::,,,,,,,,,::===**@*@*==**@*@@@;++O+OOO##o&&&-X$$5",
"                                    -9&&9jhlllljw+@@@@****==::::,,,,:,::===***@@@==***@@@@;+++OOOOO#oo&&--X$$.",
"                                     -&9llklvzkkllw@@@@*@=*===:::::::::=:=***@*@@:***@*@@;;++O+OOO##oo&&-X$$5.",
"                                      9lkkznknznknljjw0*@@**===:=:::=:===***@*@@@==*@*@@@;+++OOOO##oo&&--$$5.5",
"                                      klnnncnxncnnvlljjw@00=*==========****@*@@@=***@@@@;;++O+OOO#ooo&--X$$55 ",
"                                     znnncxxxxxxxccnzjljhhw*@*=======*=**@*@@@@@=**@*@@@;+++OOOO#ooo&&-X$$553 ",
"                                    znnnxxxmmmmmxxxnnzkjjhgww0*********@*@*@@@@;=*@*@@@;;++O+OO##ooo&--X$$535 ",
"                                   kznxxxmmMMMMMMmxxcnkkjjgwddsw@**@**@*@@@@@@;@**@@@@;;++O+OOO##oo&--X$$5..  ",
"                                  kkncxmmmMMMMMMMMmmxnnkljhgfdsapr00@*@@*@@@@;+@*@*@@@;;++OOOO##oo&&--X$$.33  ",
"                                 lkznxxmMMNNBBBNMMMmxxnzkjjggddabpii0@@@@@@;;;+**@@@@@;++O+OO##ooo&&-X$$5.3r  ",
"                                 slnxxmMMNNCBCBBNNMMmxcnkljhgddsappii@0@@;;;;++@*@@@@;+++OOOO##oo&&-XX$553.   ",
"                                 sfgkxMMNNCBBCBBCNMMmxxnzjjhggdsbprid@@;;;;+++++@@@@;;++O+OO###o&&&-X$$5..r   ",
"                                 dggjlnMNCBCVVVCBBNMMmxnnkjhgddsbprds@;+;++++O++@@@@;;++OOOO##oo&&-XX$5.33    ",
"                                 dggjknxmCBVVZVVBCMMMmxczkjhgwdsbpdds@+++++O+OO+@@@;;+O+OOOO#ooo&--X$$5..r    ",
"                                  ghjkcxMMBCZZVVBCBMMmxcnkjjggddbdssap++O+O+OOO0@@@;;++O+OO##oo&&-X$$5..3     ",
"                                    mznxMMBBVVVCCBNMMmxckkjhgddadssbbprO+OOOOOO+@@;+++OOOO##oo&&--X$$533      ",
"                                      BxmMNBCVCVCBMMMmxnzkjhgddddsabppr2O+OOOOOO@;;++O+OOO##o&&&-X$$5.3       ",
"                                        VmMBBCBBNMMMmxxnzjjhgfddsabpprrrr2OOO###@;+++OOOO##oo&&-XX$5.3r       ",
"                                           CMBMNMMmxxxcnklhhgfdssbpprrriiO####ooO;++O+OOO#ooo&--X$$..r        ",
"                                             BMMmmxxzlknljjggdssbprrrrif  ##o#ooo;++OOOO##oo&&--$$5.3         ",
"                                               Vmxczkjhggjhgddsbpprrrf       o9&9O+O+OOO#ooo&--X$$.r          ",
"                                                  xkjjggdbbddsbpprd            &--+OOOO#ooo&&-X$$$r           ",
"                                                    kggfsbrdsspps                $-22OO#oo&&--X$$             ",
"                                                       gabisdb                     9OOo#o&&-&X9               ",
"                                                         iia                          9ooo&-9                 "};
