/* XPM */
static char * 23HPMAG_xpm[] = {
"110 85 60 1",
" 	c #71C671C671C6",
".	c #2081000028A2",
"X	c #38E300005965",
"o	c #5144000071C6",
"O	c #6185000079E7",
"+	c #618500008E38",
"@	c #69A600009658",
"#	c #71C600009E79",
"$	c #69A600008E38",
"%	c #618500008617",
"&	c #38E318614103",
"*	c #082000000820",
"=	c #28A200004103",
"-	c #5965000069A6",
";	c #5965000079E7",
":	c #79E700009E79",
">	c #86170000AEBA",
",	c #79E70000A699",
"<	c #5144082069A6",
"1	c #4924000069A6",
"2	c #082000000000",
"3	c #186104101861",
"4	c #86170000B6DA",
"5	c #8E380000BEFB",
"6	c #96580000CF3C",
"7	c #96580000BEFB",
"8	c #71C60000A699",
"9	c #38E300004103",
"0	c #38E300004924",
"q	c #410300006185",
"w	c #514430C25965",
"e	c #514400005965",
"r	c #79E734D39658",
"t	c #69A64D3471C6",
"y	c #69A600008617",
"u	c #596500008617",
"i	c #618500009658",
"p	c #30C2104030C2",
"a	c #410300004924",
"s	c #79E70000B6DA",
"d	c #8E3875D69658",
"f	c #492400005144",
"g	c #8E3882078E38",
"h	c #96588E388E38",
"j	c #9E799A699E79",
"k	c #AEBAA699A699",
"l	c #AEBAAEBAB6DA",
"z	c #BEFBBAEABEFB",
"x	c #C71BBEFBC71B",
"c	c #CF3CC30BCF3C",
"v	c #CF3CC71BD75C",
"b	c #BEFB9A69C71B",
"n	c #DF7DD75CDF7D",
"m	c #EFBEE38DEFBE",
"M	c #EFBEEFBEEFBE",
"N	c #71C600008617",
"B	c #6185000071C6",
"V	c #861700009E79",
"C	c #F7DEF7DEFFFF",
"Z	c #FFFFFBEEFFFF",
"              .XoO+@##$%OoX&                                                                                  ",
"             *=-;+#:>,:@%<1=2                                                                                 ",
"             231O@:4554:@%132                                                                                 ",
"             231O@:56754@%132                                                                                 ",
"             231O@,5777>@O13                                                                                  ",
"               X;@84767,@%X                                                                                   ",
"               2=<@5774#oX2                                                                                   ",
"               2=O@4674@O=*                                                                                   ",
"               29O@4674#OX2                                                                                   ",
"               20<#4764#O=2                                                                                   ",
"              q2=O@4774@OX2*                                                                                  ",
"            w-q20O#4774#O0****                                                                                ",
"           <Ow-.e%@>55>#Oq.332223r                                                                            ",
"          tooo-1-o@#,>8$;X..@@%.**r                                                                           ",
"         r%oOo;ooo--o-q=0y#@@@%+$%OO                                                                          ",
"        r<;O%O;O;oooo-q+:8@@@@%%%%%ou                                                                         ",
"        O%%%%%%O%oOo-o8:8#@@$$%@%O%Oor                                                                        ",
"       y$+$%+%+%%%;;%,:8:@@$$$i%O%;;o-r                                                                       ",
"      +i$$@$$@$$%%%+:,:8#.222220%O;;-ot                                                                       ",
"      @$@@@@@@@$$+$,,::=*22222223oOoo-o                                                                       ",
"     @@#######@@@$4>883******222**u-o1-                                                                       ",
"    r@##::::::8@@>::83333.33***2333o-11t                                                                      ",
"    $:#:,,,,,,:8:,,:........33**3..o1-1w                                                                      ",
"   r@:,,4>4,4>:,4#,....p..p...33.&&a-11t            X1111q1                                                   ",
"   #:,>4>444444s:4..pppp9pp.....==0011Xt         wqq11e1-1-o-w                                                ",
"  r#:,>4445454>,>..9p9papp9ppp..0Xaa1w1t       dX1X1e1-1o-o-1O-<                                              ",
"  r:4,44557554,:-0&paaaaaaaapp..awq1w1at      dqX1e-1-o-oooo<o;ooOr                                           ",
"  4>454557777>8:.paaa&a&&a&aa9pp11111Xa0     dqq1e1-o1ooo<<Oo;;<O;OOr                                         ",
"  44555445765,:Xppa&a&&&ff&&aapp1e--XXX=    dq111-1o-o<o<OoO;O;O;O;;%O;                                       ",
" r45777554>4:>8p0a&&&ffep&&&&a9p1-ooqXa&    q11e1o-oo<<O;;O;O;%O%%%%%O%O%                                     ",
" >45767754>:>,,ppa&fffe&&&wtdw9p<;o;Xa0t   X11e--oo<oO;oOO;%O%%%%%%%%%%%%%Or                                  ",
" ,45776754>,>:39a&&ffe&&wtddghhtr<o%X00&  X-1eo1oo<O;;OO;%%%%%%%%+%%%%%%%+%%%%                                ",
" 4>4777554>:,,=pa&&fee&&tdghjjkkjjrOX0=  1e1-1o-o<OoO;O%O%%%%%+y+y+$$+y++y+O%%OO                              ",
"s:>455544>:,>8=pa&ffep&tthjkkllllljhw==  w1-1-ooOoO;O%%%%%%++$$+$$$$+$$+$+$%$%%%%Oo                           ",
"@:,>444>>,,>#.p9a&&fe3&wghjlzxxxxlkjhtw 11e1o-o<O;;O%O%%+%$$$+$$$@@@$$$$$$$$+%$%%+;;t                         ",
"##:,,>>,,:,#:.ppa&&&f&&wdhlzcvvvvxbkjgt1<1-o-oOoO;O%%%%+$$+$@$@@@@@@@@@@@@$$@$$%%%%%OO;;                      ",
"@##::,,::8:,:=.paa&&fp&wghjlvnmnnvxljht1-1-o-o;;OO%%%%$+$$$@@@@@@@@@@@@@@@@@$$+$$%%%%;O;1<                    ",
"$@###8#8#@,,@=.p9a&ff&&wdgjlzvnMnvxljhqq1-1ooOoO;%%%+$+$$@@@@@#@########@#@@@$@$+$%%%%;Oo<<<r                 ",
"%$$@@@@@@@:#$..p09a&&f&wtgjlzxvnmnxzkdq1-1o<oOO;%%%%+$$$@@@@######:##:#####@@@@$$$+%y%%;O;;ooer               ",
"%%+y+$$$+$:#$...ppaaa&&&wgjjlxcvvvxbj111-oo<O;O%%%%$+$@@@@####:#::8::8:##:###@@@$$$+y%%%;Oo<o-o-q             ",
"OO%%%+%%%@:#$...pp09aa&a&a&jkkzxxxzlkqX-1o<<;O%%%%+$$@@@@##:#:8:8:::,::::8:#:#@@@@$$+%%%O;O;ooo-1qqr          ",
"oO;OOO%O;#8:@3...ppp909aa09+$rkllkljrX11-ooO;;%%%+$$@$@@####::::,,,,,,,,::8:###@@@+$$%%%%O;;oo-1-1qaXr        ",
"-ooooOooo#:@@**....pppppp9+$@#@thjjhXX11eooO;O%%+y+$@@@##:#:,,,,,>,4,,,,,,:::8##@@@$@$%%%O;Oo<o-1O@Ooo+1      ",
"r1-1-o-o-@#@@**3.....pppp%y+##X==.tga1e1--o<O;%%+$$@@@###::,:,,>>>>>>4>,4,,,,:###@@@$$+y%%O;Ooo+#8@@@@+$yr    ",
" X1111111O#@$=2**.3.....%%+@@w=0=. dX11-1o<;;O%%+$$@@##:8::,,4,>>4>>>>4,>>,,,::###@@$$$%%%%oO@::###@$$$%%O;   ",
" aaXaXXaXX@@$O22**3.33.<%%$@wa==&   X1e1o<oOO%O%+$@@#@#::,,s>,4>4444444>4>,,,,,8##@@@$$+%%O%#:88:#@@$$+%O;O<  ",
" t0=0000=&@$$$*2*****<;O%%@wX0=.   Xq1e-oo<O;%%%$+@@@#::,,>,4>4444444444>4>4,,::8:@@@$$+%%+,,::##@@@$%%%%O;Ot ",
"  .&&=&&.&%+$+N**2*1<<;O%+1aX=p&   Xw1-o-oO;;%%+$$@@##:,,,>>4>44454545444>>>>,,,8:#@@@$$+$4,,8:#@@@$$+%%O;;1- ",
"   ......3.i$%y$qX-1-o;O;XXX0=.    X11-1o;oOO%%+$$@@##:,,>,4>44445555544444>,,,::8##@@$$$4:,:8##@@@$+%%%O;o<<t",
"    333333*@@$%OO;11-o111XaX==     X11-ooO;Ou%%+$@@@##::,>,444455757555544444>,,:8#@@@$@,,>::8#@@@$$%%%O;;oo-1",
"      **2*23$+%O;;ooo-1wqX00=      1w-1o<;o%O%+$$@@@##:,,>444455577775555444>>,,::8#@@@>>,,::8@#$$$+%%%O;o<o-1",
"        2222.%O;Ooo-1111aa00       w11-o<;OO%%+$$@@##:,,>,4>4555777777755544>>>,,:###$>,,,,:8##@@$$+%%O;o<o-o1",
"          222.%;Ooo-1-wXXX         w1eo-o;;O%%+$$@@##:,,>,444557776767755544>>,>,8:#@#4>,,:8#@@@$$$%%O;Oooo-11",
"            2*2%oo-111XX           q1-1o<;O%%%+$$@@##:,,>4>45575767777775544>>>,::###>>,,::8#@@@$%%%%O;;o<-11w",
"              2<<o-11X             X11o-;oOu%%%$@@@##:,,>>444577777677775544>>,,,:8#>,>,,:8#@@@$$+%%O;;oo-o11w",
"                                   11--ooO;O%%+$$@@#8:,,>>4445756767677555444>>,,8:#>>,,::8@@@$$+y%%O;o<o-11wq",
"                                   q11-o<;;%%%+$@@@##:,,>,445557776777554444>>,,::#,>,>,:8##@@$$+%%O;;oo-1-qXX",
"                                   q11-oo<<O%%+$$@@##:,,>>44455757777574544>>,>,:8#>4,:,8##@@$$+%%O%o<oo-11wXX",
"                                   X1e-o<uB;O%%$$@@##8:,,>>444557577575444>>>,,,::,4:,,:##@@@$y%%%O;;o<-111XXX",
"                                    11-oo;tto%+$$@@##:8:>,>444455755754444>,>:,88:s>>:,8:#@@$$+%%O%o<oo-11wXa0",
"                                    111-twjkkj++$y@@##:,,>,4>445455554444>,>,,:#::,>:,:8@@@@$+y%%O;;oo-11wqXX0",
"                                    1e-1rklkkllkr$@@##:8:,>,4>4444444444>>,,,:8:#,>,,:8##@@$+$%%%;Oo<-1-1XXa0=",
"                                     11tkllklkllllhr##:8:,>,>4>44444444>>,,,::8#@4,,,8:#@@@$$%%%O;;oo-111XXX0=",
"                                      tkblzbzzzblblkkr##,:,,,>,4>4>4>>>,,>,,,8:##>,,:8##@@$$+%%O;Oo<o1-1Xaa0=&",
"                                      kblzzxzxzxzzzlbkkdr>:,:,>,>,>,>,>,,,::8#@@:,,::8@@@$$+%%OO;ooo-11wXXX00 ",
"                                     kzzzxxxxxxxxxzzlbkkkjr::,>,4,,>,>,,,:8:8#@@,>8:8#@@@$$%%%O;;o<-11wqX00== ",
"                                    lzzxxxxccvvccxxzzblkkjjhrr,:,:,,,,,:::8##@@@>::8:#@@$$+%%O;Ooooo-1wXaX0=& ",
"                                   lzzxxxcvvvvvvcccxxzllkkjhhhgr:#:,::888###@@@@,:8##@@@$+y%%O;;o<o-1qXXX0==  ",
"                                  llzzxccvvvnvnvvvccxzzllkjjhhgdtrr@#:#:##@@@@$#::8##@@$$+%%O;;ooo-11XXX0==&  ",
"                                 llzzxxvvvnnnnnnnvvccxzzlkkjhhggtttwr@#@#@@@@$$:,:##@@$$$%%%O;o<o-11wqaX0=&t  ",
"                                 glzxxvvnnnmnmnnnnvvcxxzllkjjhhggttw&V:@@@@$$$+8:8##@@$$+%%OO;ooo-11XXX0=&.   ",
"                                 ghjlcvvnnmmmmmmnnnvvxxzzkkjjhhgddtwh@@$@@$i$$%$:##@@$$+y%%;;o<o-1-XXaX0=.t   ",
"                                 hjjkkzvnmnmMMMmnnnvvcxzblkkjhhgdtthg@i$$$$+y%%$##@@@$$+%%OO;ooo-11wXa0=.&    ",
"                                 hjjklzxvnmMMCMMmnnvvcxxzlkjjhhggdhhg++$+$+y+%%+##@@@$+y%%;;o<o-11wqX00=.t    ",
"                                  jjllxxvnnmZZCMmnnvvcxxblkkjhhgdhggdt@%$%%%%%O##@@@$$%%%OO;oo-1e1XXX0==.     ",
"                                    vlzxvvnmMMMMmnnvvcxxllkkjhhghhgddtt%%%%%OO;%#@$@$%%%%O;o<-o11wXX00=&      ",
"                                      nxcvnnmMmmmnnvvcxzzlkjjhhhhgddtttrO%O%;O;%@@$$+y%%O;o<o1-11XX00=&       ",
"                                        ZcnnnmmnnnvvvxxzbkkkjhhhggdtttttwO;;O;o<@@$$+%%%;Oooo-11XXa0==t       ",
"                                           nnnnnvvxxxxxzllkjjhhggdtttttww%;o;o<o%$$+$%OO;o<o-11wXXX0=t        ",
"                                             mvvvccxbklzlkkjjhggddttttw  roo<ooo-@$%%%O;;oo-111wXa0=&         ",
"                                               Cvxzblkjjjkkjhhgddtttt       r--11O+%%%O;o<o-11wXaX0t          ",
"                                                  xlkkjjhgdhhgddtt            r1eq%%%O;Oooo-11XXa0w           ",
"                                                    ljjhggthggttg                1w+<;Oo<o-11XwX0             ",
"                                                       jgdwghd                     w%11<-o1e1XX               ",
"                                                         w&g                          1Oo111a                 "};
