/* XPM */
static char * 23CVYEL_xpm[] = {
"75 100 63 1",
" 	c #71C671C671C6",
".	c #B6DAB2CA0000",
"X	c #BEFBBAEA0000",
"o	c #BEFBBAEA0820",
"O	c #C71BC30B0000",
"+	c #C71BC71B5144",
"@	c #C71BC30B0820",
"#	c #D75CCB2B0000",
"$	c #CF3CCB2B0000",
"%	c #CF3CC71B0820",
"&	c #AEBAAAAA0000",
"*	c #BEFBB2CA0000",
"=	c #B6DAB6DA0820",
"-	c #A699A2890000",
";	c #9E799A690000",
":	c #D75CD34C0000",
">	c #D75CDB6C0000",
",	c #9E799E790000",
"<	c #A6999A690000",
"1	c #A699A69938E3",
"2	c #A699A2890820",
"3	c #AEBAA2890000",
"4	c #965892480000",
"5	c #DF7DD34C0820",
"6	c #DF7DDB6C0000",
"7	c #79E779E70820",
"8	c #8E388A280000",
"9	c #79E77DF74924",
"0	c #A699A289AEBA",
"q	c #D75CD34CB6DA",
"w	c #D75CD34CCF3C",
"e	c #E79DE38DDF7D",
"r	c #9E79A2899E79",
"t	c #86177DF70000",
"y	c #96589A690000",
"u	c #69A669A60820",
"i	c #71C671C60000",
"p	c #596555554103",
"a	c #F7DEF7DEEFBE",
"s	c #861782070000",
"d	c #618561850820",
"f	c #69A669A60000",
"g	c #79E775D60000",
"h	c #596559650000",
"j	c #96588A280000",
"k	c #CF3CD34C0000",
"l	c #41033CF328A2",
"z	c #514451440000",
"x	c #FFFFFBEEFFFF",
"c	c #E79DE38D0820",
"v	c #49244D340000",
"b	c #EFBEE38D0000",
"n	c #F7DEF3CE0000",
"m	c #EFBEEBAD0000",
"M	c #38E338E30000",
"N	c #DF7DE38D0000",
"B	c #30C230C20000",
"V	c #38E330C20000",
"C	c #410341030000",
"Z	c #28A228A20000",
"A	c #FFFFFBEE0000",
"S	c #FFFFF3CEF7DE",
"D	c #C71BC71B0000",
"                       .XoXO+@@#$#####$#$@@@%OXXX.                         ",
"                   &&*.oOX@@@#$XXX&&&&&&OXO@%OOXOX=*&&                     ",
"                -&&&*.XoXO;-.O+O#$::#>:##@OOX&,<XO=&*&1&2                  ",
"              ;--3&&.X,4&&*XXO$%$>+56>5+#$@@OX&&&442.&&3-,;                ",
"            4;--3&&.78<-2&XXOO@#90qweewqr9#@OXX&&--8t7&&--;,4              ",
"          t4y;<-&&ui8;,3&*.OX%#p90qeaeeq099@@OX*&3<;8ti7&;-;;8s            ",
"         7t4;,--2dfi8;<2&XXX@#$p90qeeeeqr99#@OX&&&-;47ifd&;<y4ti           ",
"        ig84;<--hhdij;-2&X*O@#kl9rqweewqr9l#@OO*&&<;47hihh-,;jtgi          ",
"       hf784<,-ddizg4;-&&*XO@#>ll9qexxeq9ll#$OX*&&-;47hzfhh-448iih         ",
"      9zi78;;<-zddz78;-3&*XX$#kcl9qexxeq9l##@OXX&&-;47hiidz-;4s7iz         ",
"      vdi78;;--zdfif4;<2&XXOO#:kccbnnmmcc>>#$OX*&&<;4gh7ihz;;4s7iz         ",
"      Mdit8;;-2zdi778;--&*.OO$#>6cNmmmbc6#5$@OX*&&<;87s7ihz<;,87fh         ",
"      Bhi78;;<-hdi7844;2&&XXO@#>5>ccccc>>5$@@O*&&3,;j4s7iiz,;487iz         ",
"      Bzi78;;<--uit84,<-&&XXX@$#>56>6>6>5%#@@X*&&-<-;487id-;;4t7dB         ",
"      VBi784;<--&itsy;-&&&&XXO@###k6>55##@@@O*&X&&&-44ttf&-;;4sgCV         ",
"      VBB7s4;---&2&t4;-3&*OOO%@@$$#####$$OO>@@OX*&-<;4s&&--;;48iBB         ",
"      BVBBs44;--&&&X;,-3&*XXO##>ccNmnmmNc>>5%OOX&&&<;;&&&-<;;49BBB         ",
"      9BBVMl;;--&&&**XX-&&XXO@#>56cNNbN6c5##@OXX&&3..&&&3-;;yvMVBB         ",
"       ZBBMCzu---&&&XXXOO@@XO@##>>6>cc66>##$@OXOOXOX.o&&--;hzvMVBB         ",
"        BVMCzuit23&&*.XOX@%%%5#k6>5>6>>5>5k##@@OOXX*&&&&<sihzCMVB          ",
"        9VMCzii784;&&XoXXOO@#$#k>55>555####$$$@OXXX*&&<;8sfdzvMV9          ",
"         9Mvzhfs84--&&X*OXO@@#$###k5##kkk#$$@@OOXXX&&&;;8tidzCM9           ",
"           Czii784;-&&*XO@556NNnnAn#k>5AAnmN66##OO*.&3,;8tidzv             ",
"             hi78;;-&&XXO@#kc6bmnAAAAAAAnnNN66k#OO.&&3,48tih9              ",
"               s8;;-3&*XO@#>>cbmAAAAnAAAnnbN6>5@@OX&&&;;4s                 ",
"                  ;-3&XXO@#5>ccmnAAnnnnnAnbNck##@XX&&3,1                   ",
"                     +.oo@#k6ccnmAAnnnnnnnnc>6#kOoX=+                      ",
"                          qq>ccbAAAnnnnnnAcc6kqq                           ",
"                                  rexxwrp                                  ",
"                                 prwxxw1l                                  ",
"                                 prwxxwrl                                  ",
"                                 prwxxw1l                                  ",
"                                 prwxaw1l                                  ",
"                                 p0wxxw1l                                  ",
"                                 prwxaw1l                                  ",
"                                 p0wxSw1l                                  ",
"                                 prwxxw1l                                  ",
"                                 prwxaw1l                                  ",
"                                 p0wxxw1l                                  ",
"                                 prwxaw1l                                  ",
"                                 p0wxSw1l                                  ",
"                                 prwxxw1l                                  ",
"                                 prwxaw1l                                  ",
"                                 p0wxxw1l                                  ",
"                                 prwxaw1l                                  ",
"                                 p0wxSw1l            BMCCzhhf              ",
"                                 prwxxw1l         9BBMCzzhii7tt            ",
"                                 prwxaw1l        BV&Cvzzii7t8j441          ",
"                                 p0wxxw1l       1*XXOO%@&t8jy;<,21         ",
"                                 prwxaw1l      &&X*XXOO%#k4;-<-&32+        ",
"                                 p0wxSw1l     <&&&XXXOO%##$o-&&&&*&+       ",
"                                 prwxxw1l    ;&3&&*XXXOO@#k>O&*XXXX*       ",
"                             ;-&sp0wxaw1l33,+;--&&&X*XOO@##>5@XXOXXO=      ",
"                         zit4-&Xsp0wxSw1l*&;47hd&3&&XXXOO@##k6OOO@%O@%     ",
"                       VCzij,3&Osp0wxxw1lX&&;tfzCV&&X=XX@@#$>5>%#####O+    ",
"                      BBChg4;&XOsp0wxaw1lX*3;8izCBBMCzhd-O$##k>6k>>>>#%    ",
"                      BBCh74-&XO9p0wxxw1lX*2<8izMBBBdhiig7@#$>5>66c6>>#+   ",
"                      VBCh7j-&XO@p0qxSqr1X*&;sizMBBBu7t8848D##k6>cccc6#$   ",
"                      BVMhg4;&*O%>cbmcc5@O&&48izMBVB88;;<,<,@#k5>6nbb66k+  ",
"                      BBMzi8;3&XO5#6c>5@@X&-;tuzMMBB4;--&32&&@5#>6mnbNcc5  ",
"                      VBvhi74-&&OO##k5@@X&&;4tigzCBB-3&&&*&X&%##k>6cccbN6  ",
"                      BVCi7;-&OOXOOO@@#@O5OX&<47dMBB2&XXXOOXX*@#>5>6cnnnb+ ",
"                      BVvht;3&O@6cnAAAAmc#@X&-4gdMBV&XXO%@%%OX@##k6>mnAnmN ",
"                      BVCi7;-&O#kbnAAAAbck@O&-4gdMBMXX@##>55OO*$$>5>cnnnb6 ",
"         BMCzzddf     BVCht;&&O@6NmAAAAbck%X&-47dMVBXO#kcnc>%X*O###>6bbbN> ",
"       BVMCzhiiitt9   BVCi7;-&O%>cnAAAAbck%X&-4gdMBBO@cnAnc6#O*O$$k>5c6ck> ",
"     BB2Mvzdii7884;4  BVzht;-*X#>cnAAnAmc5@X&-4gdCBBO>cbmnc5@O&+D##5#k>5k# ",
"   &&X*Oo@:%7tj4;<;2; BMCi7;-&O@>cnAAnAmc#@O&<47dMBVO$>6Nc#k@O&OO@#k>%%%DO ",
"  +&X*XX@@%%5#y;-,3-&&hzphi42.O%6cmAnnAmck@O&-4gdMBMX@#k>5$#O&&OO@$##OOOXX ",
" +&&&&XXOOO%%#>3-&&&&&*u777t2&O@>cnAnnAmc5@X&-47dMBB.XO@%@@O&&3XOO@##.XX*& ",
" 2,3&*.XXOOO%#5k*&XXXXX*t4444*X#>cmAnnnnc#@O&-4gdMBB&.XXOXX*&&;XX@@$$&&&&& ",
" ---&&&XXXOO%%#>6XXOXOOXO;-<-,O@6cnAnnnn>>%X&<47dCBB32&&&&&&-;*XXOO@#2&--, ",
"y-;32&X&XXOOO%##kcOO%%O%O*&&&3.#>cnAnnnnc5OX&-4gdMBB;;-3&---42.XXXOO@;;;;4 ",
"4;--2&&*XXXXD@#k>56$##5#$@X&X&&#>cnAnnnmc#@O&-4gdMVBt844y4442&&X*XOO#88881 ",
"4;;<2&&&*XXXO@###k>>>6k>5#@@OOX@>cmAnnnm6>@X&-47dMBBiiitss,-&&&*.XXO7igi7  ",
"44;---3&&X*XOO@##>:6c6c6>5$#$@@X5bnAnnnmNk%X&-4gdCBBvzd7j;<--&&&*XXXdzdh9  ",
"844;--3&&*XXXO@$##k6>bNNc>5$>5OX#bnAnnnmN>OX&-47dMBBVit844;---&&*&XoCvCv   ",
"884;<--3&&*XXOO@#$>5>mnbb6>5c#@XoNnAnnnmc#@O&-4gzCBB  7t84;;<-&&&X=VBMM    ",
"t844;,-3&&&XXXOO@##k6>nnNc66ck$O&bnAnnnmN>@X&-4ghMBV   st44;<--&&&BBM      ",
"7884;<,-&&&X*XOO@#$>5>6>cbmN6>@Xocnnnnnmck%X&-4ghMBM     sy4,<-&&BB        ",
"7tsjy;<-3&&*.XXOO@##k6>6nnnnc%O*ocnAnnnmN>OX&-47zCBV       1;423l          ",
" 7t84;;--&&&*.XOOO$#k>:cmnAncOX&3cmAnnnmc#@O&-4ghMBB                       ",
" its8;;;--&&&XXXX@@##k>6mnnmb@*&&cnAnnnmN>@X&-4ghMVM                       ",
" i7t844;--3&&&XXXO@$##>6cbbbN:&-kbnAnnnmck%X&-47dMBB                       ",
" 9itsj4;-<-&&&X*XOO@#$5#>c6ck5,<>cnAnnnmN>OX&-4gzCBV                       ",
"  fgts4y;<-2&&*.XXOO@##k>5>5#$8@6cmAAnnmc#@O&-4ghMBB                       ",
"  if7sj4;<,3&&&X&OXO@#$>%%%%@@X%$>cnAnnck#O&&<87dMBV                       ",
"   fgts44;;--&&.XXXOO@##OOOOXX*X$>6bnnc6#@O&&<8idCMB                       ",
"   ii7t84;<;32&&*.XXO@#$#XX*X&XX@5>ccc6k#OX&&ysizCB                        ",
"    iits8;;<,&&&&X*OX@%#O&&&&&&XO@#>6#>#@XX&-4sivMV                        ",
"    if7t84;;<--&&&XXXO@%&-3---&&XO@%%#@@OX&-;4ihC                          ",
"     f77884;<--&&&X*XOOO;;;;4y<&&*OXOOOX*&2-4tud                           ",
"      fgts4;;,-3&&&XXXO+8888ss-2-&&X***&&,-;s9                             ",
"      9igt84;<<-2&&X*XOXgg7ii  1131+1+11,1                                 ",
"       i7t88;;;-&&&&XXX-dhhh                                               ",
"        i7t84;<,-3&&*XXCCvvC                                               ",
"         gst8;;;--&&&X7BVVv                                                ",
"           s844<,-3&&&BBV                                                  ",
"            s84;;--2hBV                                                    ",
"                                                                           "};
