/* XPM */
static char * 23CVRED_xpm[] = {
"75 100 60 1",
" 	c #71C671C671C6",
".	c #965800000000",
"X	c #9E7900000820",
"o	c #AEBA00000000",
"O	c #B6DA00000000",
"+	c #BEFB00000000",
"@	c #AEBA00000820",
"#	c #8E3800000000",
"$	c #8E3818611861",
"%	c #861700000820",
"&	c #79E700000000",
"*	c #C71B00000000",
"=	c #CF3C00000000",
"-	c #69A6249228A2",
";	c #69A600000000",
":	c #D75C00000000",
">	c #B6DA1C712081",
",	c #71C600000000",
"<	c #861769A669A6",
"1	c #596500000000",
"2	c #96588E388E38",
"3	c #A699A289A699",
"4	c #BEFBB6DABEFB",
"5	c #D75CD34CD75C",
"6	c #E79DDF7DDF7D",
"7	c #AEBAA289A699",
"8	c #492400000000",
"9	c #514400000000",
"0	c #514451445144",
"q	c #F7DEEFBEF7DE",
"w	c #A6999A69A699",
"e	c #38E308200820",
"r	c #38E300000000",
"t	c #208118611861",
"y	c #DF7DC71BC71B",
"u	c #410320811861",
"i	c #28A200000000",
"p	c #492449244924",
"a	c #FFFFFBEEFFFF",
"s	c #186100000000",
"d	c #DF7D00000000",
"f	c #E79D00000000",
"g	c #EFBE00000000",
"h	c #C71B00000820",
"j	c #410300000000",
"k	c #082000000000",
"l	c #000000000000",
"z	c #618500000820",
"x	c #208108200820",
"c	c #FFFF00000000",
"v	c #BEFB00000820",
"b	c #F7DEFBEEF7DE",
"n	c #596559655965",
"m	c #FFFFF3CEFFFF",
"M	c #CF3CCB2BCF3C",
"N	c #9E799A699E79",
"B	c #A6999A699E79",
"V	c #C71B61856185",
"C	c #28A200000820",
"Z	c #9E79AAAAAEBA",
"                       .XXooooO+++++++++++OO@oXoX.                         ",
"                   #..XXOOoooO+oXoXXXXXXoXOOOOooXX..#$                     ",
"               $%&##..X.Oo##oOO+*+====***++OO.##oX...##%&                  ",
"             -;&%###..%&..XoO++++:>=:::>**++OoXX.#,%..%#&&;                ",
"           <1;;&%##.1,#..XoOO++=234566547<+++OoX..#&;1##%&;;1              ",
"          891;,%##99,%#.XoX+O+=02746qq54w2-++OoXX..%&191&&,;19e            ",
"         r89;;&&.e81&%..XooO+*=<2746qq6472-*++OXo..%&;19r%,;118r           ",
"        er911;&%e8e1&%#..XOO+*:t2w4566y4w<u*++Oo..##&;r1re,;;98re          ",
"       ier91;;&rrr81%%..XoOO+*=tp246aa642tu*++OXX..#&;8i9e9;118rii         ",
"      -ier91;;%er1e1&##.Xoo++*::-246aa54<-=**+OoX..#&;898ei,;18rri         ",
"      sir891;;%i8881&%..XooO+**d:ffggggf:dh*++ooX.##&;r18re;;18jei         ",
"      kir891;,,rr91;,%#..XOO++*::ffffgff:==*++oXX.#%&;;19re;119rei         ",
"      leer91;,%er11;&%#..XoOO+*=:::fff:::=*++OoXX.#%&&;19re;;18rei         ",
"      lse881;;&%89;;&%#..XooO+**=:::::f==**++ooX..###&;;98,;;98rel         ",
"      ller911,&%#91;%%...XoXO++**==d=:===+++OXoXo..#%&;z1%,,118rsl         ",
"      lll881;;&%#%#;&%#.Xoo++++++=**=***+++++++O....%&;%%%,;;18ell         ",
"      llll811;&&##..%%..XoXO++*::ffgggfff:=**+OXo..#%%##%&,;11illl         ",
"      ukllki;;,&%#....X...oOO+*=::fdfff::==*++ooX.....##%&,;1sslll         ",
"       lllsxi9;&%##..XoXOOoOO++*==dddd=::=h++OooOXXX..#%&&;8iiklll         ",
"        llssee91&%#...XoooOO+***======dh***+++OooXo..##%&;9ressll          ",
"        0lsser11,&##..XXoXOO+++**h*=h*h***+++OooXXX.###&,;9ressl<          ",
"         0sii891,&##..ooOoooO++++*+****+++++OooXOoO...#&,118iik<           ",
"           ii891,&##..XOO++==ffggcg*h*+ccggf:=**+ooX..%%;;9res             ",
"             r11,&##..ooO+*=:ffggccccccccggd:d*++OoX..#&,118-              ",
"               1,&%#..XOO+*=::fggcccccccgggd:==++Oo...%%;;                 ",
"                  .#.XooO+*=:ffggccccccccggdd=h*+Oo...%$                   ",
"                      oo@+*==f:ggccccccccggdd==+vO@.                       ",
"                            :ffggccccccccgg=::                             ",
"                                 <36bay20                                  ",
"                                 n3yamMw0                                  ",
"                                 n35amMw0                                  ",
"                                 n35maMNp                                  ",
"                                 035amMw0                                  ",
"                                 075amMNp                                  ",
"                                 n35maMNp                                  ",
"                                 075aqMwp                                  ",
"                                 035amMw0                                  ",
"                                 n75amMNp                                  ",
"                                 035amMNp                                  ",
"                                 n7yaqMwp                                  ",
"                                 nw5aaMNp                                  ",
"                                 n75amMBp                                  ",
"                                 nw5amMNp                                  ",
"                                 n35aaMNp                                  ",
"                                 n7MamMwp                                  ",
"                                 nw5aaMNp            lksiie88              ",
"                                 n75amMNp         <klksie8891;1            ",
"                                 nw5aaMwp        ll.ksir891;;,,-$          ",
"                                 n35amMNp      >XoooOO+h.1,,&#%##$         ",
"                                 n7MaaMNp      X.XooOvvv+=%%%#....>        ",
"                                 nw5amMwp     ..XXoooOvv***o.....X.$       ",
"                                 n35aaMNp    -#..XXooovvv**=O.XooXoo       ",
"                             #..-n7MaaMwp..- &....XoXOOOv+*==+oOOOOOo      ",
"                         i9;&..X-nw5aa4wpX.#&;rr...XOoXOv+**==++O+++O>     ",
"                       lse9;#.X+-n7yamMNpO..&;9iklX.XooOvv+**==******+V    ",
"                      llsr1,#.oO$0w5aa4NpoX.%;9Csllssiee%O++==::=::==*+    ",
"                      llir1&#.oO$035amMN0OX.%,1islllr88111v+**=::f:f=:*V   ",
"                      llsr1&#.X+*0Z6aaM2$OX.%;1islll911;,,&++==::ff:f==*   ",
"                      llsr1,#.X+h=:fff:=+oX.%;9iklllz&%%#%#%+**==:ggff==>  ",
"                      llxe9;%.XO+*=:::=*+XX.%;rissll%%##.....+*==:ggff::=  ",
"                      llie9;,..XO+**=*++oX.#,;11esll#..XoXXo.+*h=::ffffff  ",
"                      llir;&..OOo++h++++O*+O.#&1esll..XOoOOooo+*==::ffcffV ",
"                      lli81%.XO+=ffccccff*+o.#&1esllXoO++++++o+**=::fcccff ",
"                      lls8;&.XO*=fgccccg:=+O.#&1rslloo++*===+Oo+**=:fgggff ",
"         lssier8r     llir;&.XO+:fgccccgf=+o.#&1rsllo++=fgf:*O.++*==fffff= ",
"      <lksser8911;$   lli81%.XO*=fgccccgd*+oX#&1rsllO+fgccf=*+X++*===:f::= ",
"    $ll#kiee911;&&%&  lls8;&.XO*=fgccccgd=ho.#&1rsll+=:fgff=+OX++**=====*+ ",
"   XOoOvO+O*,;;&%#%## lkie;&.XO*=fgccccgdh+o.#&1esllv*:f:f=*+O.++++*=+h*++ ",
"  VXXoXOO+++*+%%##...#eier9%.XO*=fgccccgd=+oX#&1rsllO++==**++X.OO++**++OOO ",
" >...XooOO++*==....XXXX9911;#XO+:fgccccgd=ho.#&1rslloo+++++Oo.#oO+++*ooXo. ",
" %...XoXOOO+*h==.XoXOooo;&&&&XO*=fgccccgdh+o.#&1rsll..ooOooX..#oo+++*.XX.. ",
" %#..XXooOO++**==OOOOOOOo%###.O+:ffccccgd=+oX.&1rsll#...XXX.#%XooO++*..#.# ",
"%%#..XXoXOo+++*===+++++++X....X*=fgccccgd=ho.#&1esll&%##..##&.XoooO++%%%%% ",
"#,##..XXooOO++**=::+****++oXoXX*=fgccccgdh+o.#&1rsll;;&&%&&&..XoXOOOv;,;;< ",
"&%%#...XXooOO++*==:::::==*++OOO+=fgccccgd=+oX#&1rsll9911;;##...XoooO191u1  ",
",&%##..XoXoOO+++*==::f:f==*+++OX=fgccccgd=ho.#&1rslliir1&%###..XoXOOeerru  ",
",&&#%....oXoOO++*==:ffff::==:*+O=fgccccgdh+o.#&1esllku;;,&%##..XXoo>ssis   ",
";,&%##...XoooOO+**===fgff:=*f=+oOffccccgd=ho.#&1rsll  1;,&%%#....Xolslk    ",
";;&%%%#...XoooO+++h=::cgff:f==+O.fgccccgdh+o.#&1rsll   1;,&%##...Xkll      ",
"1;,&%%#...XXooO+++*==:::fffff*+ooffccccgd=+o.#&1esll     ;%%%%...ll        ",
"1;;,&%##..XXoooO++**==:ffgcff++XO=gccccgd=ho.#&1rsll       $###.t          ",
" 1;;&%%#...XoXOo+++**=ddgccgf+o.#fgccccgdh+o.#-1esll                       ",
" 11;,%%%#...XoooOO+*h==dggggf+X.Xfgccccgd=ho.#&1rsll                       ",
" 91;;,%%##...XoooO++**==ffgf:*..=ffccccgd=vo.#&1rsll                       ",
" -11;,&%###..XoXOo+++*==d=dd=*#&=fgccccgdh+o.#&1rsll                       ",
"  91;;,%%##...XooOO++*h=====h*,+=ffccccgdh+oX#&1rsll                       ",
"  811;;&%%#...XXooOO++*=h*h++OoO*:fgccgd=*Oo.%&1rsll                       ",
"  <911,,&%##..XXoooO++**+O+OOoX++=fgggf==vO..%,1esll                       ",
"   891;,&%%#...XoXOo++h+*oooXXoo+*=fddd=h+o..%;9isl                        ",
"    911;,&%##..XXoXOOO+++...X..oO+*====h+OX.#&;rekl                        ",
"    891;;&%%##..XXooOO++#...##.Xo+++h**+OXX.%,1ri<                         ",
"     911;,&%%#..XXoXOo++#%%%%&#.Xoo++OOoo..%&;9i                           ",
"     <8z1;,%%##...XooOOO-;,,;,&#...oXoX...#&;-                             ",
"      u11;;&%%##..XXooo+91111  $$#$>>$>$$$                                 ",
"       j1z;,%%##...XoXO#errr                                               ",
"        u;;;&&%#...XoXOsCiis                                               ",
"         z1,,%%%#...Xo1lkkt                                                ",
"          <;;&%%##....lkl                                                  ",
"            ;,&%###.ekl                                                    ",
"               &%##.l                                                      "};
