/* XPM */
static char * 23CVCYN_xpm[] = {
"75 100 61 1",
" 	c #71C671C671C6",
".	c #0000A289C71B",
"X	c #0820AAAAC71B",
"o	c #0000B2CACF3C",
"O	c #0000B2CAD75C",
"+	c #0820BAEADF7D",
"@	c #0820BAEAD75C",
"#	c #0000C30BDF7D",
"$	c #0000BAEADF7D",
"%	c #0000AAAACF3C",
"&	c #0000AAAABEFB",
"*	c #00009248B6DA",
"=	c #08209A69C71B",
"-	c #0820AAAACF3C",
";	c #00009248BEFB",
":	c #0000A289CF3C",
">	c #38E38A28B6DA",
",	c #00008A28B6DA",
"<	c #00008207B6DA",
"1	c #0000BEFBD75C",
"2	c #0820A289D75C",
"3	c #08209248BEFB",
"4	c #00008207BEFB",
"5	c #000071C6AEBA",
"6	c #71C6AAAAC71B",
"7	c #0000D34CE79D",
"8	c #000079E7B6DA",
"9	c #000059659658",
"0	c #00006DB69E79",
"q	c #38E369A69658",
"w	c #B6DAB6DAB6DA",
"e	c #BEFBCB2BD75C",
"r	c #A699DB6CE79D",
"t	c #51445D755965",
"y	c #00005D759E79",
"u	c #00006595AEBA",
"i	c #00003CF38617",
"p	c #000041038E38",
"a	c #F7DEF3CEF7DE",
"s	c #A699A699AEBA",
"d	c #1861410371C6",
"f	c #000051449E79",
"g	c #E79DEBADEFBE",
"h	c #00008207AEBA",
"j	c #000071C6B6DA",
"k	c #00002CB28617",
"l	c #0000CB2BDF7D",
"z	c #08200C3038E3",
"x	c #FFFFFBEEFFFF",
"c	c #0000DB6CF7DE",
"v	c #0000D75CE79D",
"b	c #0000EBADF7DE",
"n	c #0000E38DEFBE",
"m	c #00000C3069A6",
"M	c #000004106185",
"N	c #00001C7171C6",
"B	c #000000006185",
"V	c #0000EFBEF7DE",
"C	c #0000FBEEFFFF",
"Z	c #FFFFF7DEEFBE",
"A	c #28A2A289C71B",
"                       .XoOO+@@###########@$+O%O.&                         ",
"                   *=..--@O@$@#-.-==.==;-.O@@@O-%:..=;                     ",
"               >;;*=..--OO,<.O@$#$11##1##O@--;,<Oo2=.=;;3                  ",
"             >4,;;=.=-<5;=..OO@$##677776##@Oo-.=;85;===;,,4                ",
"            8<,,;===904;;=.-O@$1qwwerrew6t#@O-.==,,5y9=;;,4<q              ",
"          u5<<;;=;ipu<<;;..%O$#tqwwraarwsqd#Oo..;;,<u9pf;,,<85q            ",
"         y05<<,;;iqpu<,;;=%O@#1tqwwragrwwqd#@O-.=;,<59fpd;,4h5y9           ",
"        qf0j<,,;kiif5<,;=.-O@#lzq6werrew6qd#@O-.=;,459ipid>,<50fi          ",
"       ppfuq4,,dkqdfq<,;=.-O@#+ztqwrxxrwqdd@$@-.=;;<89ikikp4<5y9qp         ",
"       dp908<,,kdpkf5<,;=.-o$#lct6wrxxrwqd+1#O-.=;,<q9ifpik;<q0yid         ",
"      kiq9u<<,;idppp5<,;;=-O@##7vrrbbbnnc7l1$@-.=;,459d9pdk4h8q9pk         ",
"      mdpy08<;;kpp995<4;=..OO##l77nbnbn777+#$--.;;,40f09pdk,<80qpi         ",
"      Mqq958<,;kqpy058,,==.%@$##777ncv7n71##Oo..;;,8q50ypdk,<80fpi         ",
"      MNpy08<,,;ifyuq4,,;=.-OO11#77777771##OO-.=;;4,,j09pd,,<q0fqB         ",
"      MMq90j<,;;;py5q,;;==..-O@###7#77#7#$@Oo..=.=;,4qyyp;,4<5yqNM         ",
"      MBBy054,,;;=,0j<,;=.-O@#O@###1####@@O#$@O-==;,45033;<,8q0qMm         ",
"      MzMByq<,,,;;=.<<,;=.--@$177vnnbbbn77#1#Oo-=;;,8,;;;,,4h5dMMB         ",
"      dBBMmd<<4;;==..2-,==--@@##777nrncv77##$@-.==,-..=;;,,4qdmBMB         ",
"       MBMmNkd,;,;=..%%OO@@--$117777c77v####@--OOo--.=;;;,4ikNmMBB         ",
"        BBmNkppy,;;=..%%O@@$#17#7#7777777#7##@@OOo...==;<ypdkNmMM          ",
"        qBmNkdpyu8,;=.%%OO@@@#1#7#7#7171#7#1$@OOo-:.=;,85ypqkNmBq          ",
"           Nkdf958,,;=.%OoOO@######71#####1#@OOo---.;;,85yfikNmq           ",
"           Nkdpy58,,==.%$@#17nnbVCb+7+7CCbn7n###Oo..;;,85qpqkN             ",
"            qdpyuq,;;=.%O$##77nbbCCCCCCCVbbn771#OO-==,,<uyfiq              ",
"               90<,,==.%$@##77bnVCCCCCCCVbrn77##O--==;,8q9                 ",
"                  <,;=.%O@#777nbbCCCCCCCVbnn77#$@--=;,,>                   ",
"                     6..+o##77bnbCCCCCCVCbb777#$-O&=6                      ",
"                            vvnbbCCCCCVCCbrnv+                             ",
"                                 tsrZxwst                                  ",
"                                 tsexxwst                                  ",
"                                 twwxxw6t                                  ",
"                                 tsexxw6t                                  ",
"                                 tsexxwst                                  ",
"                                 twexxw6t                                  ",
"                                 tsexxw6t                                  ",
"                                 t6exxw6t                                  ",
"                                 twexZw6t                                  ",
"                                 tsexxwst                                  ",
"                                 tsexxw6t                                  ",
"                                 tsexae6t                                  ",
"                                 tsexxw6t                                  ",
"                                 tsexae6t                                  ",
"                                 tsexxe6t                                  ",
"                                 tsexae6t                                  ",
"                                 tsexxw6t                                  ",
"                                 tsexaest            zmNNddii              ",
"                                 tsexxe6t         qmBmNNikppy9q            ",
"                                 tsexae6t        Mz2mNkdif9y05q<>          ",
"                                 tsexxw6t      A=.%%@@$#=y55<<,,,>         ",
"                                 tsexae6t      ;;.:%OOO###8<,,,;;;A        ",
"                                 tsexxe6t     ;;=..:%O@@$1#-;;====.A       ",
"                                 tsexae6t    ;*;;=..%%O@$1#7o=...---       ",
"                             4;.dtsexxwst;;8 4<;===.%%OO@###7O-%%OOO-      ",
"                         kqy<,=-qtsexaw6t.;,89id;;==.%OoO$#1#7@$@$@@+@     ",
"                       zmkf0<;.oqtsexxw6t-=,40ikNz;=o-.-O@##177@##1##1     ",
"                      BMmip5,=.Oqtwexaw6t-.;<0pkmMBmNkki,O@###77#77#7#1    ",
"                      BMNi98,=-Oqt6exxw6t%.;<upkmBMMkppfq9+$#177777n7#1r   ",
"                      mMNi95,=.@1tsrZxwsA%.;<0pkmBMBq9y0u50#@##77nncvv#+   ",
"                      MBNkfq4;.O@7vnnn7#+%=;<0qkmBMB0u<<<,4>11#7#7Vnn77lr  ",
"                      MBmkpu<;=-o17777##+-=,8yikmmBB8<,;;;;;=###77Vbb7777  ",
"                      MBNpp9q,=.-$###1#O-.;4qy9qimBM,,==..=.=O#1#77nvbbrn  ",
"                      BBNiyq;.-@-O@o@+1@o#$-=,89kmMm;=.-%O-%-.##1777nbbbn6 ",
"                      MBNq9<,.%##nbCCCCnn1$-;,89kmBB=--O$1#@OOO###77nVCbbb ",
"                      BBNiy8;.%#77bCCCCn77$-=,89kmMB.%$#171##--@##77nbbbbv ",
"         MmNkkdid     MBNiyq;=O$7nbCCCVbn#@-=,89kmmB-$177Vnv#%.$$1#77bnbv7 ",
"      >mMmNkidp9yy>   BBNq9<;=O$1nbCCCCb7#$-=,89kmBBO@vbCVn7#O.O##17#77777 ",
"    ABB;mNkdi9yy5q<h  BBNdy8;.%#7cbCCCCb77@-=,q9imBB@7vnbbv7@O=O@$1#7#77+# ",
"   ;---o@$@#y00q<<<;h MBNiy<,.%##nbCCCCrn#@-=,89kmMB@##7n771$-=O@@##7$+@$o ",
"   ;.=-%OO@###8<,,;;=;kddkp8;.%#lnbCCCVb7#$-=,89kmmB-$17#7#$o.;oO@$##OooO- ",
"  ;==..%OO@@#17;;;==.==pf9yy,.%#77VCCCCb77@-=,89kmBB.OO$1#Oo.=,%OO@##.-... ",
"  ;;;=.%-OO@###73...---.05q8q.%+7nbCCCCrn#$-=,q9imBM;=--o.-.;;<-Oo$@#===;3 ",
" <,;;=..-%OO$1#+7O-%OOoO-<,,,;%##nbCCCCr7#$-=,89kmMB,;;==.;;,4.--Oo$1;,,;, ",
"q4,;;;=.:%OO@1#7#7@@$@$@@.;=;;.#7cbCCCCb77@-=,q9imMB8<,,;,,,4=..-%O@@8,4<8 ",
"h<<,;;=..%%O@1#17#7###1##$....=##nbCCCCrn#$-=,89kmmBy5q8888q3==.-%OO$0u0y> ",
"q<<,,;;=..%%@@$#177#77#7#1$OOO.$77VCCCCr7#$-=,q9imMBip990y,,;;==.%%Oppfqp  ",
"58<,;;;==.%%OO$1##777n7n7####@O.#bbCCCCb77@-=,89kmMBkkdfq<,,;;==.:%2dkidd  ",
"55<4,,;;=.:%OO@1#17#nnncv7##l#$-+nbCCCCrn#$-=,q9imMzzpyu58<,;;;=..-%mNNN   ",
"0uq<4,;;==..%OO@###77nbncv#+n#1-OnbCCCVbv1$-=,89kmMB  yy5q<4,,;;=..MMmm    ",
"y058<,,;;=..%%O@@###77Vbn7n7n##-;nbCCCCbvl$-;,89kmBM   q0u8<,,;;;=BBB      ",
"9y5q<4,;;;=.:%O@O1##7777nnnn7#$-o7VCCVCbv+$-=,89kmmB     0q<<4;;;MM        ",
"9y05q<,,;;=...O-@@##1777bbVbn#O&2nbCVCCr77@-=,89kmBM       ><4*;d          ",
" 9y0j<<,,;;=.:-OO@$###77bVCbn@-=,7VCCCCbv1$-=,89kmMB                       ",
" 9yy5q<;,;;==.-%OO@#17lnnbCbn@.;.nbCCCVbr#$-=,89kmBB                       ",
" p9y05<4,;;;=..%%O@$#17#nnnn7+=,#nbCCCCbv1#-=,q9imBM                       ",
" qpyy5q<4,;;==.-%OO@$1#777v77#,477VCCCVrr#$-=,89kmmB                       ",
"  p9y058<,,;;=..--O@$#1#7#771+q$7nbCCVCbv#$&=,89kmBM                       ",
"  pf9y5q44,;;;.=--OO@$###+#$@O-O17rbCVbv7@O.;,59kmMB                       ",
"  >p99058<,,;;=...%O@@##@OoO--.O17vnbbr7+1o=;,upimMB                       ",
"   qf9y5q<<,;;;=.:%OO@$##.-.-=.o$#77r7v7#o-=;80pkmM                        ",
"    pfy0u8<4,;;;=.%%OO@#O====;=.O@1777#1$o.;,qyikmB                        ",
"    qpfy55<<,,;;==---O@@,;,;,,;=-O@####Oo.=,,5pdN                          ",
"     qfy05q<4,;;;=..%OO@<<4<88,==.-OoO--.=;,8qdk                           ",
"     >p9y058<,,;;==-:OoO50u0u5,4;;.....==,,<0q                             ",
"      df9q08<4,;;;.=---@fp9pf  >A3AAAAAA;>                                 ",
"       q9y0u8<,,,=;...O4ddid                                               ",
"        pqy5q<<,;;;=..%NNNkm                                               ",
"         y9u58<,;,;==-fBmmN                                                ",
"           u05<<,;;;=;BBB                                                  ",
"            y588,,;3dBB                                                    ",
"                                                                           "};
