/* XPM */
static char * 23CVGRN_xpm[] = {
"75 100 64 1",
" 	c #71C671C671C6",
".	c #0000AAAA1040",
"X	c #0820A2891861",
"o	c #0000B2CA1861",
"O	c #0000B2CA1040",
"+	c #0000BAEA1040",
"@	c #0000BAEA0000",
"#	c #0000C30B1040",
"$	c #0000C30B0820",
"%	c #0820BAEA1040",
"&	c #0000AAAA1861",
"*	c #00009A691861",
"=	c #0000A2891861",
"-	c #0000A2891040",
";	c #082096582081",
":	c #000092481861",
">	c #00008A281040",
",	c #0000D34C1040",
"<	c #0820CB2B0820",
"1	c #28A292484103",
"2	c #00008A282081",
"3	c #0000D34C0820",
"4	c #0000DB6C0000",
"5	c #0000DB6C0820",
"6	c #00009A690820",
"7	c #000079E71040",
"8	c #082071C62081",
"9	c #00007DF72081",
"0	c #71C686178617",
"q	c #8E38C30B9658",
"w	c #BEFBC71BBEFB",
"e	c #CF3CD34CCF3C",
"r	c #DF7DE38DDF7D",
"t	c #8E389E799658",
"y	c #000069A628A2",
"u	c #0000659528A2",
"i	c #000079E72081",
"p	c #000069A61861",
"a	c #514451445144",
"s	c #F7DEF3CEF7DE",
"d	c #000059651040",
"f	c #0000596528A2",
"g	c #0000618528A2",
"h	c #082028A22081",
"j	c #000049242081",
"k	c #2081410338E3",
"l	c #FFFFFBEEFFFF",
"z	c #0000514430C2",
"x	c #0820DB6C1861",
"c	c #28A2596528A2",
"v	c #082069A628A2",
"b	c #00003CF330C2",
"n	c #0820EBAD0000",
"m	c #0000EBAD0820",
"M	c #0000EBAD0000",
"N	c #0000E38D0820",
"B	c #000030C238E3",
"V	c #0000CB2B0820",
"C	c #0000FBEE0000",
"Z	c #1040CB2B1861",
"A	c #0820D34C0000",
"S	c #F7DEF7DEF7DE",
"D	c #0000B2CA0820",
"F	c #0000E38D0000",
"                       .XoO+@@#$$%%#$%$%####@+oOO&                         ",
"                   *=.&ooO#O##@OO+.oo.XoOO+##OOOoO.--=                     ",
"               ;:X*-=.ooO#>&O#%%,,,<,,<,<,##O%=-%o..==*:;                  ",
"             12:**=-&&::&.++O$$%<3133451%,$$#++.&62;--=**:7                ",
"            8926**=.8:;-Xoo##$%30qwerrrwt0,$##oo.==:98=-*2279              ",
"          yui226*-p92*=&.oO##,3a0qwrssrwt01,#O#O..=*:ipi*:27i8             ",
"         dupi2:6-f88:*=-X++#$,,a0qwrsrrwq01$$$#oo-=*:97yg*:9i88d           ",
"        fgup92:*fygi**=&oo##$,<h0twrrrwwt0j,,#++.&==:9gpgd2278ygf          ",
"       jfgp892:gggu72==..+O#$,<hk0wrllrq0kd<%$#o%.=**9ydufu>98udfz         ",
"       jfgu8726fg8f9:==&.++#$,3x10qrllrw0c5,$%@oo.=**9uvudz27iugdf         ",
"      bffyu7926fg8u7:*=.&++#$,,,4xnmMMMN53<,%#++o-=**igiugd278ugdz         ",
"      hffyup22:dy8ii2===.X#+$,<45Nmmmmm455,,$#++..=**i7i8gd279ugdf         ",
"      Bjdg8i722ggp92:**&.+o##$,,345m4m345,,<$#+o.==*2:278gg798ugdj         ",
"      Bjdyu89266y8i2:*==&.++#$,<,4555555,,<$%+oO.===*:2i8g:278udgB         ",
"      hBfg8892:*=892:*=.&ooO##@,<,,355,33<$$#+oOo.==*:7ii6:998udjB         ",
"      BBBuup92:*==:2:*==ooO#$%$,$3333333<V$%%$#OoO-=*22*=2:2i8yfBB         ",
"      hBhBp897:**==.*:-&XOO#$,,<4Nmmmmmm4,,,,#O#o.X-*;-***22i8fBBh         ",
"       BhBbfi92***=&.Xo.-oO##$,<555m4m4454,<$$#oO--X&&=***27ijbBBB         ",
"       hBhjjfu2:*=-=&ooO#+#O$%$,3345N5555,,,$#+O++Xo.-=*::9yfbbhkh         ",
"        Bhjjfgpi:*==..oO+O#$$%%,,,,3,4,,,<<$%#O#+oo.===*298gfjbkB          ",
"         Bjjfg892**==.ooo#O#$%$,V<,3,,3<<,$$%+#+oo..-=**298yfjbh           ",
"         0jjfg892:6=&.oO#O#O#$%#$%,,<,$,$$%##++OOOOo.&6*298gfjk            ",
"           bdg872**=.X++#$,<4NmMCCMZ,$3CCMMm33,$$##o.=**298yfj             ",
"             u8i::*=&ooO#$,<55mmMCCCCCCCMCNm4,,,##%o.X=*298g1              ",
"               72*==-oO##$,345mmMCCCCCCCCMM554,$<++o.-=:27                 ",
"                  6-=ooO#$,,3m4MCCCCMCCCmMmN5,<,#OOo.=;;                   ",
"                     q+O#<$,45MmMCCCCCCMCCm4N4,%##OXq                      ",
"                          qq3m4MCCCCCCCCCMMmA5qq                           ",
"                                 aqelsetk                                  ",
"                                 atelle0a                                  ",
"                                 aqrlse0k                                  ",
"                                 atellw0k                                  ",
"                                 aqelse0a                                  ",
"                                 atrllw0k                                  ",
"                                 atrlse0a                                  ",
"                                 aqrslwtk                                  ",
"                                 atellw0a                                  ",
"                                 atrlse0a                                  ",
"                                 atellw0k                                  ",
"                                 atrlse0a                                  ",
"                                 atellw0k                                  ",
"                                 atelse0a                                  ",
"                                 atellw0a                                  ",
"                                 atellw0k                                  ",
"                                 atelSe0k                                  ",
"                                 atellw0k            Bjbjfggp              ",
"                                 atellw0a          hhbbfdgu88i2            ",
"                                 atwllwtk        hh.jjjfuu772:>21          ",
"                                 atellw0k      1.X++###,.722:**==;         ",
"                                 atellwtk      ..+oO###V$,6*===-&X1        ",
"                                 atelSwtk     =.&ooO#OV$,,<+-=.Xoo.%       ",
"                                 atellwtk    =;...+++###V$,,#.o+oO#o       ",
"                             6X.7atelSwtk=-  ;6.=&ooOO###,<33<++#O#@O      ",
"                         ju7*=&+7aqwllwtko.6:7gg.X.o++###V$,3,V#$$%$$Z     ",
"                       Bjfp2-=o#>atelswtk+.=*99zbh.OOO@+#$,$,34,,,,$%,q    ",
"                      hBbdi:*.o#7atellw0k+X&*2ufbBhjjfff-#$,,<3,3333,<A    ",
"                      BBjgi:=.+#>atrlswtk#o.*2ufbhBhzgu889%$,,3454N553<1   ",
"                      Bhjfi2-&+#%aqelswtXOO.*2pfkBBB8i722::#$,<55NNmm33,   ",
"                      BBbg72=.o#$,4MNN5<ZOo.:2ufbhBh22***=*=$%,,45MMN4,<x  ",
"                      hBbd82*&.O$,355x,$#OO-:9gfhjBb:6==.=&=.,,<,4CmnNNm<  ",
"                      Bhjg87**.+##,,<,V$+o.*:798gjBh-=.ooOoO.%$,,,3m4NMmm  ",
"                      hBfg9*=o+#+#$<##,#O3#Oo6:igbBb-X++O#O#Oo,V<455NMCMmq ",
"                      BBjg7*-oO,<NMCCCMMN,$#.=:ifjhBoOO$%$,$%O$,,,35mCCmm5 ",
"                      hBjg9*=o#V3mMCCCCM5,$+o6:igjBBO#$,<,3,$#O$,,34NMCMNx ",
"         Bbjjfdyg     BBjg9*=oO,3mMCCCCm4,<+o62igjBh+#,<mMm3,#%%$,<,mmmm4x ",
"      0BBbjffyup971   hBjg7*=o@,<4MCCCCm4,$#.X:igjBh#$5CCMm5,Oo#$,,334545, ",
"    1BhXkjddyi722:**  Bhjg9*=oO,3mMCCCMMN,,OO*:igbBh$,4mMM4,<#O#$,$,33,,,, ",
"   .OD@##%+3>22:6*=*; hBjg9*-o#$,mMCCCCmN,$#.=:ifjBB$,,4N55,$#.#%#,<,,,V$# ",
"  1..+oO##$%,<**X=-=&.uzzuu:-oO,3mMCCCCm45<oO6:igjBB##<,4,,$#o.+##$,<@##O# ",
" 1-&ooO#O$%%$,%.-.&o.X+yi8i7&.#$45CCCCnmN,$+o>*8gjBhoO$$%$%++.X+O$%,<OOO+o ",
" -=...oO####,<,3OO+oO#+O>::::o#$5NMCCCCM5,$#.=:igbBh.+++#++o.=*####V,oOo.X ",
" *-=&.o++@+#$,,33#+##O$##*===6#%,mMCCCCNm,<+.=:ifjhB==&.oo.==*o++###<-=-=; ",
";**=.&oOo+##$$,<33V#$%%$%o.&&&o$3mMCCCCN4,$+o62igjBB:=*=-==**XooO#@#$***** ",
"6:===..%oO#+%$,,335,,<,,$$+ooOo<3mMCCCCNN,$#.X:igjBB72262*::Xo.O#+O$,2229  ",
":**=-X.ooOO##$$,,34,333,3,##O#O$,mMCCCCxm<$+o6:igjBhuu7792==-.ooOO##788ip  ",
"::*=*&&.o+++##$,,<,45Nm4,3,$,$%X3mmCCCnM4,,+.=:ifjhBjffi:**===.o%+++dggg1  ",
"2::*===.ooO@###$,,355MNNm3<,3,$+,5MCCCCmN,$+o6:igjBBh8722***=&-o.+%Okjjb   ",
"22:*=*=&.%o++O$%$,,34mMMN5,,m<,O$xCCCCCm4,$#.=:ifjBh  772:**===.XooBhkb    ",
"72::*=-=&.ooO###$,<,35CMm4N44,$#%5MCCCmMN,,Oo>;8gjhB   7226**=-&.OhBk      ",
"i22:**==-&oO++O$%$,<,455NmMNN,$++NmCCCCM5,<OO-:ifjBB     2:*=;--.hB        ",
"ii226;6==&.oO+###$%,3555mMCMN,#o+mMCCCCNm3$#.=:ifjBh       ;*-*&1          ",
" i2>:**==-&ooOO###,V,,4NMCCMM#OoX4CCCnCn5,$+o6:igjBB                       ",
" 879:2*===-oOoO####V,<,4mmCmm<o-+5mCCCCmm,$#.=:ifjBh                       ",
" pi92:**=*.&.oO#O##$,,35Nmmm3%.6,nmCCCCN4,<+.X:ifjhB                       ",
"  8i22:**==..ooO#OV$$,,345555,-:,5CCCCmMN,$+o62igjBB                       ",
"  8i722**===&.oOO###$,,<,34,3<:%,mmCnCCmx3$#.=:igbBB                       ",
"  upi92:**==-XoOO#O$%$,,<,,$$#+o,3mMCCMm<,#O.*:8gbhB                       ",
"   up97::;===..o++###$%,@$###+o#V3FNMnN5,VOo-=98fjBk                       ",
"   uu792:**===XoO+++#%%$,+++ooOO$,3n5N5,,#OO-*28fjB                        ",
"    88992***=-&.oO++O$%,#o.....+#$,,45,3$#o.=:9yfkh                        ",
"    y8i92::*==-&oOoO###$.-===*&oO#$,$%,##Oo-*27gj0                         ",
"     y8992***==...++++#Z:****:=.o%#+%#OOOo6=:9vf                           ",
"      u892::*==-&.X+++##22>2>>6*X6o+oO+%.-X*91                             ",
"      g8i22:***=&.oooO#@7piii  11&111111X1                                 ",
"       y9i22***--&.oOO#6gggg                                               ",
"        u892:*=*=&..++@zfjjj                                               ",
"         9722:*=*-&&oOihBhk                                                ",
"           92:6*===...hBB                                                  ",
"            7>***==Xyhh                                                    ",
"                                                                           "};
