/* XPM */
static char * 23CVWHT_xpm[] = {
"75 100 55 1",
" 	c #71C671C671C6",
".	c #AEBAA699AEBA",
"X	c #AEBAAEBAAEBA",
"o	c #B6DAAEBAB6DA",
"O	c #BEFBBEFBBEFB",
"+	c #C71BBEFBC71B",
"@	c #C71BC71BC71B",
"#	c #BEFBB6DABEFB",
"$	c #9E799E799E79",
"%	c #A699A699A699",
"&	c #B6DAB6DAB6DA",
"*	c #A6999E79A699",
"=	c #965896589658",
"-	c #96588E389658",
";	c #8E388E388E38",
":	c #9E7996589E79",
">	c #CF3CCF3CCF3C",
",	c #861786178617",
"<	c #8E3886178E38",
"1	c #D75CD75CD75C",
"2	c #DF7DDF7DDF7D",
"3	c #861779E78617",
"4	c #79E779E779E7",
"5	c #69A669A669A6",
"6	c #618561856185",
"7	c #79E771C679E7",
"8	c #596559655965",
"9	c #514451445144",
"0	c #FFFFF7DEFFFF",
"q	c #F7DEF7DEF7DE",
"w	c #69A6618569A6",
"e	c #492449244924",
"r	c #186118611861",
"t	c #514449245144",
"y	c #492441034924",
"u	c #38E338E338E3",
"i	c #71C669A671C6",
"p	c #FFFFFFFFFFFF",
"a	c #410338E34103",
"s	c #38E330C238E3",
"d	c #30C228A230C2",
"f	c #E79DE79DE79D",
"g	c #EFBEE79DEFBE",
"h	c #EFBEEFBEEFBE",
"j	c #D75CCF3CD75C",
"k	c #596551445965",
"l	c #208120812081",
"z	c #208118612081",
"x	c #E79DDF7DE79D",
"c	c #28A228A228A2",
"v	c #DF7DD75CDF7D",
"b	c #618559656185",
"n	c #410341034103",
"m	c #30C230C230C2",
"M	c #F7DEEFBEF7DE",
"                       .XXooOO+++@+@@@@@++OOOooXX.                         ",
"                  #$$%%XXoOOO++XX&%%%.%.XX&+OO&oXX%%*=                     ",
"               -;=:$%%.oo&==XO+@@>>>>>>>>+OOoX;=oXX%*$=:=                  ",
"             -,;==$*%%;<$%XXOO+@>>>12>2+>>+OOoX%%;,:%$$=;;3                ",
"            4,;-==*$53==%%X#O+@>;X#>22>+%,>+O&o%%:=4 5$:=;<,4              ",
"          67,,;-=:864;=$%XX#O@>9=.+20q1+%; @+&oX%$=;356w=;<,3 6            ",
"         857,<;;=9663;:$%X##O>>9;X+2qq1+%;4>+O&X%$:;,w589-;,, w9           ",
"        e854,;;-e8e63;=*%XoO+>>r-%O>22>O%;t>+O&o%$$-,5e6te;,,759y          ",
"       ue8i4,<;ee8tw,==$.XoO@@>re=#2pp2X-u9>@+&X%%:;;59a8e9<,468es         ",
"      8ut8i3,;;et6e6,;:$.X&OO>>28;#2pp1#;9>>+O&o%$$;<5968ty,,458eu         ",
"      dut65,,<;e96963;:$%XoO+>>12fggqhh222>>+OOX%*==,we569y,,458eu         ",
"      ra96 3,;-y96i64-=$%XoOO>>>22fgggf221>@+OoX%$$;,w456ty,,3i8tu         ",
"      rae65,,<;e86i4;;=$*XXOO+>>122f2f222>>@+&oX%$-;,,4569e<,458eu         ",
"      rse653,;;=96 4;-=:$XXXO++>>1122221j>@+OoXX$$=:;;7 6k;,,458er         ",
"      rre8i4,<;=:w 4;-$$X%.X#&+@>>1111>>>@++&oX%X%$:;;456=;<,758dr         ",
"      rrr8w4,<;=:$=4,=:$.Xo++>O+@>@>>jj@++O>>OOoX%$:;<4:==<<, 59rl         ",
"      rrrz57,<;;=$*%-;=*%XoOO>>122fghgff211>++&oX%$=-;$$=-;,, errr         ",
"      trrrdu,,;-=$$*%XX$%Xo&+@>>>22fffx221>@@+&o%%$.%%$:=;;,7uczrr         ",
"       rrzdsee=;=:$%%XXoOOOoOO@>1212222v11>@+Oo&&oXX%*$=-;,9eucrrr         ",
"        rrduy96 -=$*%%XX#&O+@>>>>111111j1>@@@+O&&o%X$$:=; b9yslzr          ",
"        6zdse965,<=$$.XXX#OO+O>@>>>jj>j>>@@++OOoXXX%*$=;,i69esdr           ",
"          dun96 4;=:%%X##o&OO+O>@@>j@>@@@@++O#o&X&oX$$=;3 69esc            ",
"           my965,<=$*XXoO@>>22fhqpM>>j@p00f222>@+OXX%$:;3 69yu             ",
"            596i,;-$%%XOO+>>12ggqpp0p0pp0gh22>>>OOoX%$-;,568               ",
"                3;=$*XX#O+>>222qq0ppppppqqg2f1>@+Oo%%$=-,i                 ",
"                  -$$.XoO+>>22ghqpppppp0phg221>@+&oX$$==                   ",
"                     +XOO@>>12fhq0ppp0ppqqg221>@+OoX+                      ",
"                          gh22fhMpp0ppp0pgh221hh                           ",
"                                 8*>pp>$e                                  ",
"                                 8.>pp>$e                                  ",
"                                 8%>pp>*e                                  ",
"                                 8%1p0>$e                                  ",
"                                 8.>pp>*e                                  ",
"                                 8.>pp@*e                                  ",
"                                 8.>pp>*e                                  ",
"                                 8.>pp>*e                                  ",
"                                 8.>pp>$e                                  ",
"                                 8%>pp@*e                                  ",
"                                 8.>pp>*e                                  ",
"                                 8.>pp>*e                                  ",
"                                 8.>pp>$e                                  ",
"                                 8.>pp>*e                                  ",
"                                 8%>pp>*e                                  ",
"                                 8.>pp@*e                                  ",
"                                 8.>pp>*e                                  ",
"                                 8.>pp>$e            rlsuy998              ",
"                                 8.>ppj$e          rrcdue986i              ",
"                                 8%>pp@*e        rrXcdye965 4<,-=          ",
"                                 8.>pp>*e      oXX#oO++>X54<;;==$$         ",
"                                 8.>pp>$e      %.XX#&+O@>><-=:$$*$X        ",
"                                 8.>ppj$e     $*%XXoOOO@@>>+=%%%.X%X       ",
"                                 8%>pp@*e    ;$$%%XXoOO++>>>OXXXXXoo       ",
"                             =$. 8.>pp>*e%$- =:$%*XXX#OO+@>>>+o#O#OO&      ",
"                         u8 ;$%o48.>pp@*eX%-;599$%%.oo&O+@@>>2OO+++O+O     ",
"                       rde6,-%XO48.>pp>*eoX$; 8acr*o%X&O+O>>>>>>>>>>>O2    ",
"                      rrdew,=%XO,8.>pp@*eoX$=76ylrrdmnne=+@+>111>>2>>>@    ",
"                      rrut5<=%X+,8.>ppj:eOX%;,6ydrrre98555+@>>11222221>>   ",
"                      rrd95,=%X+>8%1p0>$X#X$-46nlrrr6574,,,+@>>1vfff211@   ",
"                      rrde5,=*XO@>ffg22>@#%*;46adrrr7,;;==;;+>>112hgf21j>  ",
"                      rrcy83;*%#+>>222>>OX.=; 8uldrr;-=$*$%*$+>>110qff221  ",
"                      rzut8 <=%XO+>>>>@+XX*=, w5ecrr-$%.XXX.%>>>>11f2fgg2  ",
"                      rru9 -$XoO#OO++O>+o>+o%$<5edrr*%XooO#&oX+>>112fM0hhf ",
"                      rzu8i;$X#@>fqppp0g2>@O%$,5edrrXX#O@@@++&O>>>12g0pqh2 ",
"                      rrut -$%O+22qppppg21+o%$<5edrrX#+@>>2>@&o+>>11fhhqf2 ",
"         rdsuee88     rru8i-$%O+12qpp0ph2>@&X=;wedrro+@12p22+OX@@>>12fgfx1 ",
"      -rrdsne866i -   rru8i;$X#@1gqppppg22+&%$,5edrrO@2qpqf2>OX+@>>j122211 ",
"     rr duee86i4,,;   rruki;$.&>>2qppp0h2>+&%$<5edrr+>2ghg22+OXO+@>>1j1j1@ ",
"   %XXoO+O@>  ,<;-=== rzu8i;$X#@22qppppg2>@oX=;wemrr+>12222>+oXOO+>>>@j+@+ ",
"  o.XXoOO++@>>;==:$%$%eyet6;$.&>>fqp0ppg22+&%$,5edrr&+>>2>>@OX%o+O>@>+#OOo ",
" X*$.XXoOOO>+>1$$*%%X.X8655 :X#+22qppppg2>+&%$<5edrro&O+@@+OX%:&O++>>XooXX ",
" :$$%XXo&OO+@>>>.XXXoooO <,;<%O@>fq0pppg2>@&.=;wedrr%%o&OooX%:=oOO+@>%%%%% ",
" =:$%%.Xo&O+@>>>2oO#OOOo&:===$o>>fqppppg22+o%$;6esrr$$%%X%%%==Xo&OO+@$:$:= ",
";=:$$%.XXOOO++>>>2O+++@@OX%%*%X>>fhppp0q2>+&%$<5edrr;-=$$:==;.%oo&O+@;=;;; ",
"<===*$%XXoOOO@>>>12@>>>@>+XXXXX+220ppppf2>@&X=;6tdrri,,;;;,3%$XXXOOO@4,44  ",
",;==:%%%XXoOO+@>>>11>2>2>>+OOoo+>fqppp0g21+&%$<5emrr885i  =:$%%.Xo&O5666w  ",
",;-=:$$.%XoOOO+@>>1v22222>>+>+Oo12qpp0ph2>@#%$,5edrruet5;--=$$%.XX&Oet9t8  ",
"3,;==:$%%XXoOO+@>>j12hffv2>@2>+&1fqppppg21+&%$<5edrrl6i4,;;=:$%%XXoOsuud   ",
"43;;=:$$%XXo&OO+@>>11hMh221>2>+&O2qpp0pg2>@oX=<5edrr  5i4<;=:$$%.%orrll    ",
" 4,;-=$$%%.XoOOO+>>>1v0hg22221+&X2qpppph21+&.=;wedrr   54,;-==$*%%rrr      ",
"i ,<;=:$$%.Xo&OO+@>>11>22ggf2>+&O2qppp0h21+&X=;wemrr     4;;-=$*$rr        ",
"5 7,;;=:$%%.Xo&OO+>>>1v2hq0gg>OXO2qpp0ph21+o%$<5edrr       =;=:$y          ",
" 5 3,-==$*$XXXoOO+@>>>1fhMpq2+o%$fhpppph2>+&X=;6edrr                       ",
" w 4,<;=$$*%%XoOOO++>>12gqqhf>X$X20ppp0g21+&.=;5esrr                       ",
" 85 4,;==:$%.XXo&OO@>>11ffff2j$:>fhppppg2>@#%$,5edrr                       ",
"  w57,<;=:$*%%Xo&OO+@>>j12x21>:;220ppp0h21+&%$<5edrr                       ",
"  65i4,-;=$$%%XXo&O++>>>j11j>@<>>fhp0p0h21+&%$,5tdrr                       ",
"  86543,===$*%%XooOO+@>>@@@@@+X+>12hp0g2>>O.$=,wesrr                       ",
"   66 4,;-=$$*%XXo&OO@@>+O+#OoXO+22fhq22>+oX$=36emrr                       ",
"   86w73,;==:*%%XXoOO+@>>XooXXXo+>12fx21>+o%$-48edr                        ",
"    85i4,;;=:$%%.Xo&OO++@%X%%*%XO+>1111>+&X%$;58acr                        ",
"    865 4<;-=$$*%XX&&O+@$$:=$=$XoO+>@>@+OX%$=359s;                         ",
"     86i44;;=:$*%%Xo&OO@;;=;;;:$XXOOO+#oX%$=; 8y                           ",
"      65 4<;;=$$*%XXoOOO,4,473=$$%XXXXXX%:$<43                             ",
"      66w7,,-==$*%%Xo&OO6w566  $$:XXooXX:$                                 ",
"       6w  ,;-==$%%.Xo&$et9e                                               ",
"        6574;;-:$$*%XX&uuuuu                                               ",
"         5  3;;=:$$%XXwrlzs                                                ",
"            4<;==:$%%*rrr                                                  ",
"             ,<;==$%trr                                                    ",
"                                                                           "};
