/* XPM */
static char * 23MVMAG_xpm[] = {
"80 107 58 1",
" 	c #71C675D671C6",
".	c #69A66DB669A6",
"X	c #AEBAA699AEBA",
"o	c #E79DE38DDF7D",
"O	c #FFFFFBEEFFFF",
"+	c #C71BC30BC71B",
"@	c #9E799A699E79",
"#	c #69A6410379E7",
"$	c #B6DAB2CAB6DA",
"%	c #96585555AEBA",
"&	c #8E3886178E38",
"*	c #E79DC71BF7DE",
"=	c #38E330C238E3",
"-	c #28A228A228A2",
";	c #F7DEF3CEF7DE",
":	c #BEFB75D6DF7D",
">	c #BEFB4514E79D",
",	c #79E710409E79",
"<	c #B6DA4103E79D",
"1	c #BEFB38E3E79D",
"2	c #B6DA38E3E79D",
"3	c #B6DA4103EFBE",
"4	c #C71B4924F7DE",
"5	c #BEFB4924EFBE",
"6	c #AEBA28A2DF7D",
"7	c #AEBA30C2E79D",
"8	c #B6DA30C2EFBE",
"9	c #B6DA30C2DF7D",
"0	c #BEFB5144F7DE",
"q	c #AEBA30C2DF7D",
"w	c #BEFB38E3EFBE",
"e	c #BEFB5144EFBE",
"r	c #C71B5144F7DE",
"t	c #AEBA28A2E79D",
"y	c #AEBA2081DF7D",
"u	c #A6991861D75C",
"i	c #C71B5965F7DE",
"p	c #BEFB4103F7DE",
"a	c #96580820CF3C",
"s	c #9E791040D75C",
"d	c #A6992081DF7D",
"f	c #B6DA38E3EFBE",
"g	c #BEFB4D34EFBE",
"h	c #9E790000CF3C",
"j	c #B6DA28A2E79D",
"k	c #9E791451CF3C",
"l	c #B6DA4924FFFF",
"z	c #A6991C71D75C",
"x	c #C71B6185FFFF",
"c	c #C71B5965FFFF",
"v	c #CF3C6185FFFF",
"b	c #AEBA38E3EFBE",
"n	c #A69928A2DF7D",
"m	c #96580000D75C",
"M	c #AEBA1861E79D",
"N	c #B6DA30C2D75C",
"B	c #C71B5144FFFF",
"V	c #8E380000CF3C",
"                                    .XoO+.                                      ",
"                             o@o@ooo#@oO$%ooooo@                                ",
"                          ..&@@XX$$+#@*O$%+Xoooooo.                             ",
"                       &%..&&=.&    -@oO$%    @.##..#                           ",
"                      =#%..   %&X+  -@oO$%   $&.  ..%#=                         ",
"                     ...X       X+oO=XoO$%%oo$.     ...=                        ",
"                    ...           oO#@*O$%Oo@        ..--                       ",
"                    ..              -@oO$%            ..-                       ",
"                    .....#.&&@X$$+oo#+oOo&o+$XX@&..#....=                       ",
"                    .....##%.....&&ooO..O;o+&....%#.....-                       ",
"                    -..          X+o;o$+$Oo+$         ..-                       ",
"                     ...       .&X+& @o;$% +X@&      #..                        ",
"                     ..#%     #.&.   @o*$%   .&%    %#.                         ",
"                       .%..& ...     @+$$%    ..#&..%.                          ",
"                          .&&@@X..%..%%&..%.&X@&&....                           ",
"                             X..................                                ",
"                                 %:>,XoO$#                                      ",
"                              <1213<,@oO$%45                                    ",
"              677<         :89213135=:oO$%54500                                 ",
"            %77277q7     %772731325w=XoO+%504e4e4:                              ",
"           r222222289tq66722722<13<4=:oO$%r5r040e4e:                            ",
"          e2<5252222qy6qq77222313555,@oO$%rr0rr0%r0450                          ",
"          13<5w355uu6yy7q772213<5w55,@*O$%r0ririr0rr00>p:                       ",
"          <p<55pasuu6dtq78722525f5p<,@oO$%grii0iri0r0re555r                     ",
"         we<g455hahudyqqj721225f555g,XoO+%%riiiiirirr04555e2p                   ",
"         w5rr0r0hhaks6jq87222w3<5wlg=XoO$%:iiiiiiiir0rer55553jh                 ",
"         35giiiiahhkszut7222w3<5w5e4e@++Xigixcvixciirr0r55lzuss                 ",
"         <5r0riihahksu6d677215f5555pegrriiixcvxviciiir0r58qt6sz                 ",
"         p<5rr0rhhhusuut97222w<5w555rr0riiivxvvxviiiir522876zus                 ",
"         1<55550hhkkus66678225w5555pr0ririxcvvxvxixre<5f27766ss                 ",
"          253555hhaksu6uq77213<555555rrriiivxvxiive4ew51227t6us                 ",
"          ef135wahhskuut9q8225w5wl5r5r0iriixcvxiii043e1f28766sz                 ",
"           :8122hhasku6uq8722f<555l0rr0riiiiviicir0e91b7227tzus                 ",
"             222ahahkuuyt972213535540r0iriiriiiirr0772727779uus                 ",
"               7hh,kukuyt677225f5554e4err0r0rirr0r222212277t6ss                 ",
"                ahahkuuyd7q22225255555r0re5rr0r002232<12222779z                 ",
"                ah,akusuy677722w3w555le4e555lr50<15155f5f<127766uk              ",
"                hahhkkuuyt672722<51355555w55555515355555<5222866uukk,           ",
"                hhaahsuuud6qq821f13515555w35555w555554555w5f227tzuxxxx          ",
"                ahhhahkuud6y77222325f515f<<51w35555gr04l555w22q9nxxxxxx         ",
"                hha,ahskuuyytq78222125f5f1fw33135griir0i543<582qxxxxxxx         ",
"                hahhahkkuuuy6tq72822f212<221222555riiiii00e5122xxxxxxxxx        ",
"                ahhh,ahkusud666t772222f2w87b728<5p0rii0r0ep<5w2xxxxxxxxx        ",
"                hha,hhhahsuuuut6qq7782222tq77772535405r55<<131xxxxxxxxxx        ",
"                hahhahahh,kusyu66y77q8772d6t6qy7255555555w2f86xxxxxxxxxx        ",
"                hhah,ha,ahahhuud6ut69tq77z6u6uyd12w355w52f2276xxxxxxxxx         ",
"                ahh,ahhah,hhhaksuyd666yt6usuuuuud82213222287q6xxxxxxxxx         ",
"                hh,hahhkkkhhahahsyuuu6d66kssszsks,d7232228q6uzxxxxxxx:x         ",
"                hahhkkssuuukkahhqssuuuuuukhkshkk,q   787t66uszxxxxxxxx          ",
"                ahkksuuu6uuuuhhaj15psssuuhha,hhk,      zddsushxxxxxxxx          ",
"                kkssuu6u7t6duuuht<5rxgsuua,h,6zs,    shmhskkhakxxxxxx           ",
"                msku66d67q76nuukqw5rivvvk,,<17dsh   ,w55<r7uh,akkxky7           ",
"                kuu6ut67222776uu7w5rivvxcgp52t6kkuuM31<5p54e46dz8,Nw21          ",
"                zuN6t727<122776y2w50ivvvvrew27dshyuk,u55355540>72221f2f         ",
"                   77222e<<12uut83e4ivvvxr5527dsayukkau2555p05r072<5252<        ",
"                     #b2555skms97<5rivvvxi5587dkhyuumhhw5w555r5r0<w5f5<52       ",
"                       55aks,hut2<p0ivxvvr5527dsa6ukhahpw555550grr<55p55<l      ",
"                        hahsuuu62<5rivvvxi5587ukj6sshh,<5w53l40rrr0<4e55pe      ",
"                        ahhsz67215550iii0ie5<<21tzusah,<w555555r50rr545le55     ",
"                        hkuku6772255550ie0<p<1276dsskhahsksu5555rr0rr0rr04>5    ",
"                        aksut7q722<55554555<w2277qjskhhskuuyut5gr5rriri0rr%4    ",
"                        ahs66723e5gBivvvvxirr552876ush,uuj6ytt2e5r0r0iiiir0r5   ",
"                        hhsut92<54rrxvvvxvir05w3776sshauqjt7727255r0rrixiir0%   ",
"                        aks66725w50icvvxvxii5552276usahtq8722227<45r0riviiir0   ",
"                        hksut72<55rixvvvvxii555w876ukhaq822132<12040errxiiiigr  ",
"                        mhsu9713540rxvvvxvii5l<1276ukka8213<<5w53<540rrriiiixr  ",
"                        hhs6672535riivvxvxxr0<p377dukka8<135p5555w5040r0iivvxi  ",
"                       :aksuqq12540iivvvvxii543>876usm,2<555540555f5r5rriixvxii ",
"           %ahku        ahsyj72355rrxvxvxxir0e13276ukaa1555lrr0r552r50r0iiiviir ",
"         ahhkusuuy#     hhsu6725555iivvvvxii5551876ukkh3<g4ixvr0453545rr0iiiiir ",
"      %amhksuuuyjy6q   :khsy972f5lrixvvvxvii5552276ukk,<4rixvxire<5w5504r0rir0% ",
"     m,7<4kuud666t972k  hhs66q1355rrxxvvvxiil55f876ukka<4r0viii555155le40r0r04r ",
"   w13<55eep<666q77722k:hksuq71255riivvvxvi0re12276umm,55rriri0r55f5555r0e<455< ",
"   13<55p<4e451872222228kusu6j255lerxvvxxixr555f27yukha15500re4e<w25555454e5555 ",
"  bw3135155555r07221313<8z66uq1f55riivvvvxii5552876ukka15555555w52f55555r5513w5 ",
" 2123w<w55555grr02<1351532qjqq7<545ixvvvxviil55f2qyuska225w552521f7<55pleg13f32 ",
" 22225f5w535p405rr3<<435<p777811340iivvxvxii55<w27ydmha8212f5f132225w555p222127 ",
" 78221313555555r0rre5555p5522222550iivvvxiiilew<87yusah77222222287<w55w5528287b ",
"1q7222<525f555540rer5g4055553<1325rixvvvxvii555w27yukkayt777777q8<135f555tqqqqk ",
"77222wf135w555le40rr0r00r045555f555icvvxvxiile1227yushhu6d6676721f5w35555yyyqy  ",
"77722223135w35545040irrr0ir05p55520icvvvvxii555w27yukkasss6u7772212w3<w55uuuuu  ",
"t777222f<5w35555540%riiiir0r04e555givxvxxiiil5<w286uskVhhsyqq827222<155wsskus   ",
"67q7222212<55w55504r0riiiiir0%rr55wiivvvxvii555w2t6ukkhz y6jt972222w3f<wkhkk    ",
"6t7772223w5f5555545r0r0vxiir0ri0552ixxvvvxic555227yusha   d667772222<<wahah     ",
"66797822122<w5w55550rrrixiriiir055fiivvvxvic555f876ukm,    dy777722f5wa,k       ",
"6yt772722f5w35555p5r5r0iriiiiii5552iivvvxiiil5<w276ushh      tq772222mk         ",
"6ytq772222w2<w5w35g5r0rr0ixvxci55w2ixxvvxvice552876ukka                         ",
" d6677727225w3535pe55r5r0civvxi5132rxvvvvxir555f276ukka                         ",
" u6yq772222231355555l5r0iiivxii5322iixvvxvx0r51227yusm,                         ",
" u6yt77772212525w555540r0riiii0r224ixvvvvxii555f2qydmh,                         ",
" ydyt6772722fw313555555r0ri0irr52triixvvxvxr0552886usa,                         ",
"  6d6679722223135w5w5l504rer0re574eiivvvxiir0<5w276ukha                         ",
"  uy6yt977222231355555540re555555<4rixxvxiir55128quukka                         ",
"   ud66t7722221313w5355540<45555f55r0ixivi0r535f7t6ukka                         ",
"   ud66tq77272252<5f555le4<55w3w3<400iiiirr55322766ukk,                         ",
"    u6ut9t72222fw5f555555431313225555rri0r553<1276uumh                          ",
"    uyy6tq777221f135w55555122222w3<5540re555158776uum                           ",
"     s6666t72222252135w55l822877215w5555555f5827zduk                            ",
"      uyytq777222w335w5555t777q7722<5w3551212879dd                              ",
"      yM666t7272221f<55w55yt6dn 91b11b<<wffff7q                                 ",
"       zuj6t772822315w355tudzdu                                                 ",
"        yM6qt722222583<55sssuz                                                  ",
"         yuqqq877222<15ftkkks                                                   ",
"          yM6qq82221f5f5ha,m                                                    ",
"           ky77j7222f13hah                                                      ",
"             y77722222m,                                                        ",
"                                                                                "};
