/* XPM */
static char * 23MVWHT_xpm[] = {
"80 107 54 1",
" 	c #71C675D671C6",
".	c #69A669A669A6",
"X	c #B6DAAEBAB6DA",
"o	c #E79DE79DE79D",
"O	c #FFFFFFFFFFFF",
"+	c #C71BC71BC71B",
"@	c #79E779E779E7",
"#	c #71C669A671C6",
"$	c #410341034103",
"%	c #A699A699A699",
"&	c #BEFBBEFBBEFB",
"*	c #596551445965",
"=	c #F7DEEFBEF7DE",
"-	c #BEFBB6DABEFB",
";	c #514451445144",
":	c #861779E78617",
">	c #8E3886178E38",
",	c #965896589658",
"<	c #38E330C238E3",
"1	c #618561856185",
"2	c #000000000000",
"3	c #30C230C230C2",
"4	c #A6999E79A699",
"5	c #AEBAAAAAAEBA",
"6	c #96588E389658",
"7	c #410338E34103",
"8	c #514449245144",
"9	c #596559655965",
"0	c #79E771C679E7",
"q	c #9E7996589E79",
"w	c #AEBAAEBAAEBA",
"e	c #CF3CC71BCF3C",
"r	c #28A228A228A2",
"t	c #492441034924",
"y	c #38E338E338E3",
"u	c #CF3CCF3CCF3C",
"i	c #DF7DDF7DDF7D",
"p	c #AEBAA699AEBA",
"a	c #69A661856185",
"s	c #D75CD75CD75C",
"d	c #C71BBEFBC71B",
"f	c #861786178617",
"g	c #B6DAB6DAB6DA",
"h	c #9E799E799E79",
"j	c #208120812081",
"k	c #492449244924",
"l	c #F7DEF7DEF7DE",
"z	c #186118611861",
"x	c #082008200820",
"c	c #D75CCF3CD75C",
"v	c #E79DDF7DE79D",
"b	c #EFBEE79DEFBE",
"n	c #DF7DD75CDF7D",
"m	c #EFBEEFBEEFBE",
"                                    .XoO+@                                      ",
"                              ######$%oO&*#####                                 ",
"                          ##########$%=O-;########.                             ",
"                       :*.@>,<1,22  34oO&*5526%.7$@18                           ",
"                      <$9.02 2;qwe  r%oO&*552&q.  ..;t<                         ",
"                     3y8*     22wuiOypoO&a;os-@2   2;8<3                        ",
"                    3372        22iO7%=O&;Oop2       2y33                       ",
"                    y322222222222222<%oOd9-2222222222223r                       ",
"                   33<3<y8.f,%ww+esi8&oOs>s+&gwh,@18733<<                       ",
"                    <<j#r7k;1.@@:f6slO0@Oliu@@#.1*$7rrj<3                       ",
"                    33<        22w+s=s&+-Osu&22      2<33                       ",
"                     3y7      2.hwdf2pil&25u-%@2    27y<                        ",
"                      y$9r 222k0,.255%il&2522.f97  r;k<                         ",
"                       .8.0f7zjx22552%&&&855222r8@@1;                           ",
"                          #########################                             ",
"                             w##################                                ",
"                                iu+s$%oO&*i                                     ",
"                              csscss$%oO&*iio                                   ",
"              ueeu         ocucsscsit%=O&;oooio                                 ",
"            ccuuuuees    ccucusscsii$%oOd;oooooov                               ",
"           csscscucuu++deuuuuscssiiit4oO&*oo=obooov                             ",
"          cscscsscssd&&++euucsscsiiit%oO&9o=oo=o=ooooo                          ",
"          sisiissiww&&d++uucscssiiiot%oOd;=o=olo=ooooooo                        ",
"         lnioiio%Xw-gd&ueuucssssiivi$poO&9o=mlolol=o=oooivi                     ",
"         iiivoooqhh-&&++uuucussiiiivt%oO&*lol=l==olo=ooooiiii                   ",
"         iobob=oqqhhw&++uucsssciiioo34oO&*olll=mllolo=oooviiidp                 ",
"         noo=lolq,4%%w-&uucusciiiioiiquu-llllllll=l=o=oooiidwwp                 ",
"         iioo=l=,hh%wXw+duusscsiiovooo=olollllllll=lo=oooced&X%                 ",
"         cioobo=,hh%pwd&+uucsciiiiooobo=l=lllOOllll==oiscc++-ww                 ",
"         ciioooohqh%ww&d+uuussiiivovo=o=ollllOOllll=iiiscsu&&ww                 ",
"         lciiivihqh%wX&&+eucscsioioooo=olllllOlllloooinscuu+&Xw                 ",
"          csciiiqqh%pw-&+euussiivoooobo=ol=lllll==ooiiiccse+-ww                 ",
"           scscchqh%www+d+uscssiiooob=o=ml=llll==ooocccssu++-ww                 ",
"            lcsuh,h%pw-&&uuucssiiiovoo=ololol===olocucuu+e++-ww                 ",
"              le,hq4%ww&++eucscsiiooob=oooo=olo=oocscusucuu+dw%                 ",
"                qh,h%ww&&duuusssiivioooo=ioo=oooocscsscsscuu++&u                ",
"                qhqh%pw-&++eussciiivoiooooooooooicsiiissscscu+dgX%c             ",
"                hq,h4%Xw&&duuucscsiiivioiiivioviiiiiioioisssuue&wwwhq           ",
"                qhq,%%ww-&&euuuscsiiniiiviniiiiiiiooooviiiicsc++dwOOOO          ",
"                qq,hh4%ww&&++eucssccisiiicsiniinovooooboooicssue&OOOOOO         ",
"                q,hhqh%wXw&dd+uuusscsininccscsciio=l==o=oviiscc+OOOOOOOO        ",
"                hhqh,h%%wXw&&+euuucsssscssssccsiio=oll==oooiicsOOOOOOOOO        ",
"                qhq,hqh%%ww&&&d+ueuuscssseuucuscioo=o=oooooincsOOOOOOOOO        ",
"                qq,hhq,hhpXww&&+++uueucuc++euu+ciioooooooiccssOOOOOOOOOO        ",
"                q,hhq,hqh,%wXw&&dd++ueuuu&d&++d+siiiooviiiccs+OOOOOOOOOO        ",
"                hqhq,hh,h,qhhww&-&+d+++e+-g&&w&&sciiniiiccss+&OOOOOOOOOO        ",
"                qhq,hh,hqhq,hh4Xw&-g&+d&+www-w-wwssccsccssue&OOOOOOOOOO         ",
"                q,hhqh%4%%hhqq,hwww&-g&&&%wpwwpwwpwcssssuu+dw+OOOOOOOOl         ",
"                qhqh%%pwwwp%%hq,+wwww-w-w%4h%4h%hw555ueu+d&ww&OOOOOOOO          ",
"                qh%%%wwX&-www%hh+cooXwwwwhq,,hhhq555555d&-www4OOOOOOOO          ",
"                4%%pww&&+++&wX%4+so=loXww,h,q+ww,55554,qh%w%q,%OOOOOO           ",
"                %pww&&dduu++dwww+ciolOOl4qhssu&pq555hssiiiuwqh,hOOOdu           ",
"                pXw&d+++scue++-wesoolOlOlooscu-%hwXwcsiioiioo++we,cusu=         ",
"                Xg+d++uucsscu+&&usi=llOOl=iicu-%h&wp,wiiiovooonucsuscsso        ",
"                  iueuussiscsww+ccoolOOll=oicu-%h&X%hhwiivioooo=usssscss        ",
"                    lsssoiiX,4w+usi=llOOl=iicu&%,&wwhqqciiovooooocssiiiii       ",
"                      lciq%Xhhw+csiolOOll=iicu-%h&-%qh,iiiivooob=oiiiiioii      ",
"                        hqhwwww+cco=llOOl=oisewwe&wwq,hciiiiovooo=oovooviol     ",
"                        q,%p&+cussioo=o==ooiiscs+&X%hh,sisioiooobo=iooooovo     ",
"                        ,4%ww&eussiiooo=ooiocssudwww%q,%pppXsovooo=o=o=ooooo    ",
"                        qhwweu+eucsiiooioiiiscc++c&wp,qwwww&-eioobo=o=olo=iol   ",
"                        ,4w&&ussio=oOOOOOll=oisss+dw%hqwwd&+d+uoooo=ol=ol=o=i   ",
"                        ,hwweucsioolllOOOl==oiiscu&wp,h&++euueusio=i=oOll=ooo   ",
"                        qhw&dussioo=lOOlOlloooics+dw%h,+euuuucuscooooloO=lo=ol  ",
"                        ,%pw+ucsioblllOOOll=ovicse&w%hquuucssscssooo=o=ll=l=lo  ",
"                        ,hw&dussioo=lOOOlO==iiics+dwp,hucsscssisssooooo=ollll=  ",
"                        qhw-+uucioblllOOOl==ooicse&w%hqssciiooioiivoo=o=lllllll ",
"                        ,%pw+ussioo=lOOOlllooonsc+&wp,hssiioooooviioooool=OlO== ",
"           -4%%pi       qhw&+escio=oOlOOOll=oiicsu&wp,hcsioo=o=ooinvoob=ollll=o ",
"         qh4%wwXw-+     ,4ww+ucsioollOOlOll=ioics+dwp,hsio=oOl=ooicioooo=ol==ol ",
"      -h,4%%ww-g+&d+s   ,hw-+ucsio=olOOOOl==oiicse&w%hhii=oOOl=ooiiiooobo=olo=i ",
"     q,uiiwwX&&&d++uuc  hhpg+essioolllOOlO=oooicc+&wp,hioolll=looicovoooooooooo ",
"   csisiiovos&++euuuucs hhw-+uusio=olOOOOll=oiicsu&wph,ioo=o=o=ioiniioooooooooi ",
"  icsiiiiviooocuuuuccusu%Xww&ucsioolllOOlO=oooics+dwp,hsiooo=oooincioiovovioiii ",
"  csssiiiiovi=oocscsssscsw&&&dssio=olOOOOll=ovics+&w%hqsiiovioiiicsiivovooininc ",
" sssciciiiioooooosscsisisce+e+ucioolllOOOl==iiicse&wphqsciniiiicscuiiivooocscsc ",
" uccscsiiiivioobo=siiiiiiisuuuucio==lOOOlO=o=iiss+dwp,husscsicsccssciiiovcccssc ",
" cussssiniivvooooo=iioooviiscssuioo=llOOOll=ioicc++X%,heuuscsccsuuciiioiocusuu+ ",
"cuucsscsiniiiovoo=o=iooooooicscscoollOOlOl==oiicse&w%hq&+euuuuu+csssiiiii+e++de ",
"uuuucsscsiiiivoooob=ooo=ooooiiiiio=olOlOOll=ioics+&wp,hw&&d&+ducusssiiivi-&d&&  ",
"e+ucussssiniiiovooool=o=o=ooovoiicolllOOOll=oiicse&w%hhpww&wuuuuscsssiniiw-w&w  ",
"+ueuucsscsiiiviooob=ooll=olooooooi==lOOOOl=oooics+&wph,h%p&e+uuuccscsiciXpww4   ",
"++uuucuscsiniiivoooo=ollll=o=o=oviclllOOlOl=oiicse&wp,h4 &&d+ueucusssiic%4h%    ",
"d++eucusssciiiiiovooo=oOl===i=o=iislllOOOl==ioics+dww,h   &d++uuuusscsihq,,     ",
"&+euuuuscsssiiivvooobo==O=ollolooiclllOOOll=oiicse&w%hq    &d+euuucsschqw       ",
"&+++euucusssiniiiovoo=ooollllloooiclllOOOl=oooics+&wp,h      ++euuucsh%         ",
"&d&e+uuuscsciciiiiooooo=ollllllviss=lOOOOll=oiicse&wph,        sssscl           ",
" &d&ueuuccsssiiiiviooobol=llOl=iics=llOOOl==ovics+dwp,h                         ",
" -&+++uucusscsinivovooo=ol=Oll=icscoOlOOOll=iiisse&w%hq                         ",
" wd&++euuussscsiiiiioooob=oll==ocsollOOOlO=o=iics+dw%h,                         ",
" -&&d++uucusscisiiivovoboolo=ooos+olllOOOll=ioics+&wwq,                         ",
"  -&&++euuucssciiiiiioooo=o=ooooui=olOOlOll=oiicse&wp,h                         ",
"  w&&&+euuucssscsiivvioooooioooiiio==lOOll=ooicsue&wwh,                         ",
"   wd&+++eucusscsiiiivovo=iviiiiniooollll=ooiiscu+&X%q,                         ",
"   -g&d++uuucssssiciiiiooociiiincioo=ol==o=ionsse+-w%hq                         ",
"    w&&d++uucucscsiiivovioiciccssiioo=o=o=ioicsse&-w%,                          ",
"    -wd&++euucusssiniiiovocccscscsiioooooiiiiccue&wwh                           ",
"     w&d&+euuucsscsiiiiivocusuuusciiiivoviiicsse&&wp                            ",
"      &&&++euuucssssiniiioeu+u+euscciiiiiinccse+&w                              ",
"      Xwd&+euuucuscsiiiivid&+&&  escccscscscsu+                                 ",
"       --&+++euussscsiiiiew&w-w                                                 ",
"        w&d++euucusssiniiXwXww                                                  ",
"         -&&+euuuscscsind%4%4                                                   ",
"          &d++euuucssssshqh,                                                    ",
"           d&++ueuscscshqh                                                      ",
"             +dueuususqq                                                        ",
"                                                                                "};
