/* XPM */
static char * key_xpm[] = {
"20 20 3 1",
" 	c #CECECBCBCECE",
".	c #000000000000",
"X	c #FFFFFFFF0000",
"                    ",
"                    ",
"                    ",
"                    ",
"                    ",
"    ...             ",
"   .XXX.            ",
"  .XXXXX.           ",
" .XXXXXXX.........  ",
" .X..XXXXXXXXXXXXX. ",
" .X..XXXX.XX..X.XX. ",
" .XXXXXX. ..  . ..  ",
"  .XXXXX.           ",
"   .XXX.            ",
"    ...             ",
"                    ",
"                    ",
"                    ",
"                    ",
"                    "};
