/* XPM */
static char * Man_xpm[] = {
"20 20 3 1",
" 	c #FFFFFFFFFFFF",
".	c #000000000000",
"X	c #FFFFFFFF0000",
"                    ",
"                    ",
"       .            ",
"      .X.           ",
"     ..X..          ",
"    .X.X.X.         ",
"   ..X.X.X.         ",
"  .X.X.X.X.         ",
"  .X.X.X.X.         ",
"  .X.X.X.X.   ..    ",
"  .XXXXXXX.  .XX.   ",
"  .XXXXXXXX..XX.    ",
"  .XXXXXXXXXXX.     ",
"  .XXXXXXXXXX.      ",
"  .XXXXXXXXX.       ",
"  ..XXXXXXX.        ",
"   .XXXXXX.         ",
"    .XXXXX.         ",
"    ......          ",
"                    "};
