/* XPM */
static char * M&RLOGO_XPM[] = {
"95 22 109 2",
"  	c #C4C4C4C4C4C4",
". 	c #BFBFBFBFBFBF",
"X 	c #C3C3C3C3C3C3",
"o 	c #ABABABABABAB",
"O 	c #BCBCBCBCBCBC",
"+ 	c #B5B5B5B5D9D9",
"@ 	c #BCBCBCBCDDDD",
"# 	c #B8B8B8B8DBDB",
"$ 	c #B1B1B1B1D8D8",
"% 	c #B2B2B2B2B2B2",
"& 	c #CDCDCDCDCDCD",
"* 	c #D3D3D3D3D3D3",
"= 	c #C6C6C6C6C6C6",
"- 	c #B9B9B9B9B9B9",
"; 	c #B5B5B5B5B5B5",
": 	c #D0D0D0D0D0D0",
"> 	c #C9C9C9C9C9C9",
", 	c #AAAAAAAAD4D4",
"< 	c #C3C3C3C3E1E1",
"1 	c #CBCBCBCBE5E5",
"2 	c #CECECECEE6E6",
"3 	c #C0C0C0C0DFDF",
"4 	c #A6A6A6A6D2D2",
"5 	c #DADADADADADA",
"6 	c #E1E1E1E1E1E1",
"7 	c #AFAFAFAFAFAF",
"8 	c #D7D7D7D7D7D7",
"9 	c #A8A8A8A8A8A8",
"0 	c #93939393C9C9",
"q 	c #ADADADADD6D6",
"w 	c #D2D2D2D2E8E8",
"e 	c #DADADADAECEC",
"r 	c #DDDDDDDDEEEE",
"t 	c #9B9B9B9BCCCC",
"y 	c #A1A1A1A1A1A1",
"u 	c #E4E4E4E4E4E4",
"i 	c #EEEEEEEEEEEE",
"p 	c #F1F1F1F1F1F1",
"a 	c #A5A5A5A5A5A5",
"s 	c #FFFFFFFFFFFF",
"d 	c #9E9E9E9E9E9E",
"f 	c #A2A2A2A2D0D0",
"g 	c #C7C7C7C7E3E3",
"h 	c #ECECECECF5F5",
"j 	c #F0F0F0F0F7F7",
"k 	c #E8E8E8E8F3F3",
"l 	c #D6D6D6D6EAEA",
"z 	c #9E9E9E9ECECE",
"x 	c #E7E7E7E7E7E7",
"c 	c #F8F8F8F8F8F8",
"v 	c #FBFBFBFBFBFB",
"b 	c #EBEBEBEBEBEB",
"n 	c #949494949494",
"m 	c #000000000000",
"M 	c #919191919191",
"N 	c #979797979797",
"B 	c #E1E1E1E1F0F0",
"V 	c #F3F3F3F3F9F9",
"C 	c #90909090C7C7",
"Z 	c #808080808080",
"A 	c #8D8D8D8D8D8D",
"S 	c #8C8C8C8CC5C5",
"D 	c #DDDDDDDDDDDD",
"F 	c #9B9B9B9B9B9B",
"G 	c #8A8A8A8A8A8A",
"H 	c #79797979BCBC",
"J 	c #88888888C3C3",
"K 	c #76767676BABA",
"L 	c #878787878787",
"P 	c #97979797CBCB",
"I 	c #85858585C1C1",
"U 	c #72727272B8B8",
"Y 	c #838383838383",
"T 	c #767676767676",
"R 	c #737373737373",
"E 	c #6E6E6E6EB6B6",
"W 	c #81818181BFBF",
"Q 	c #7D7D7D7DBEBE",
"! 	c #6B6B6B6BB4B4",
"~ 	c #797979797979",
"^ 	c #7D7D7D7D7D7D",
"/ 	c #67676767B2B2",
"( 	c #63636363B1B1",
") 	c #6F6F6F6F6F6F",
"_ 	c #5C5C5C5CADAD",
"` 	c #696969696969",
"' 	c #656565656565",
"] 	c #6C6C6C6C6C6C",
"[ 	c #626262626262",
"{ 	c #60606060AFAF",
"} 	c #5B5B5B5B5B5B",
"| 	c #5F5F5F5F5F5F",
" .	c #51515151A7A7",
"..	c #58585858ABAB",
"X.	c #4D4D4D4DA5A5",
"o.	c #585858585858",
"O.	c #555555555555",
"+.	c #49494949A4A4",
"@.	c #515151515151",
"#.	c #46464646A2A2",
"$.	c #55555555A9A9",
"%.	c #3B3B3B3B9C9C",
"&.	c #4B4B4B4B4B4B",
"*.	c #4E4E4E4E4E4E",
"=.	c #474747474747",
"-.	c #373737379A9A",
";.	c #42424242A0A0",
":.	c #444444444444",
">.	c #333333339898",
"                                                                                                                                                                                              ",
"                                                                                                                                                                                              ",
"                                                                                                                                                                                              ",
"                              . X X . o                     . X X . o                   o . X X O o                   o . X X O o                                 + @ @ # $                   ",
"                          % X & * * & = - o             ; X & * * & X - o             ; = & * * & X ; o             - = : * * > . %                           , # < 1 2 1 3 + 4               ",
"                        o - > 5 6 6 5 & . % o         7 O > 5 6 6 5 & . %           % . : 5 6 6 5 > . 7           % . * 5 6 6 8 > O 9                       0 q 3 w e r e 2 3 q t             ",
"                      y % X : u i p u 8 = ; a       y % X * u i i u 8 = ; y       a ; = 5 s s s u * X % y       9 ;         i 6 : . 7 d                     f + g e h j k l g + z 0           ",
"                      y % = 8 x c v b 5 > - a n     a m m m o       m m m a n   o 9 - > m m m m x 8 = ; y M   N 9 -   m m m m m   X 7 d o                 0 4 # 1 B V s j r 1 # f C           ",
"                    Z y % X * u p p x 8 = ; a n   M y m m m m     m m m m y M   n a ; = m m     u * X % y A   N 9 -   m m   m m m . 7 d A                 C f + g r h V k e g + z S 0         ",
"                    A d o O > 5 u u D & X % y M Z A d m m m m   u m   m m d A Z M y % . m m     m m m n d A n n a ;   m m u   m m O 9 F G               H S z $ 3 w r B e 2 3 $ t J K         ",
"                    G N 9 ; X & * * & = - o F A Z G F m m   m   m m   m m F G Z A F o -   m m * & m n n N L Z M d 7   m m   m m m ; a n L               K J P , # g 2 w 2 < # , P I U         ",
"                    Z M d o ; . X = X - 7 y n Y T Y n m m ; m m m m ; m m n Y R L n y 7 m m m m   m n n M Y Z L N a   m m m m m ; o F A Z               E W C z , + @ 3 @ + , z S Q !         ",
"                    ~ L n d 9 7 % % 7 o y N G ~ Z ~ L m m o m m m m o m m L ~ Z ^ G N m m     m m m n n L ~ Z Z A N   m m a m m 9 d M Y T               / K I C z 4 , q , f t C W U (         ",
"                    ) Z G n F y a a a d n G Z R Z R Z m m d m m m n d m m Z R Z R Z G m m   a n m m n G ^ ) n T Y A   m m a m m   n L ^ )               _ ! K I C P t t t P C I K / _         ",
"                    Z ) ~ Y A n n n n A L Z R `   ` R m m A n m m n A m m R `   ` R ^ L m m m m m m m Z ) '   ] R Z   m m n m m m Y ~ ) [                 { / K Q I J J J I Q K / _ 0         ",
"                      ' ) T Z Y L L L Z ~ R ` }     ` m m Z L m m Y Z m m ` }   Z ` R ~ o m m m n n m Z ' Z   | ` R n m m L o m m o ) [                    ._ / U K H H H U E / ..X.          ",
"                      o.[ ` ) T T T T ) ] ' }       } [ ` ) T T T T ) ] [ o.      } [ ] ) T T T T ) ` [ o.      } ' ] ) T T T R ) ` | O.                    X..._ ( / / / { _ ..+.0           ",
"                        @.} | ' ' ' ' | } O.Z         @.} | ' ' ' ' | } O.          O.} | ' ' ' ' | } @.          O.} [ ' ' ' ' | } @.                      0 #.+.$.$.$.$. .+.#.%.            ",
"                          &.@.o.o.o.o.O.*.=.            &.@.o.o.o.o.@.*.=.            *.O.o.o.o.o.@.&.Z             *.O.o.o.o.o.@.&.                          -.%.#.#.#.#.;.%.-.              ",
"                              =.=.=.=.:.                    =.=.=.=.m                   Z =.=.=.=.Z                   o =.=.=.=.m                                 >.>.>.>.>.                  ",
"                                                                                                                                                                                              ",
"                                                                                                                                                                                              "};
