/* XPM */
static char * 23CHKV2_xpm[] = {
"75 65 60 1",
" 	c #71C671C671C6",
".	c #0000A2890000",
"X	c #00006DB60000",
"o	c #00008E380000",
"O	c #4103CF3C4103",
"+	c #000038E30820",
"@	c #0000BAEA0000",
"#	c #0000C71B0000",
"$	c #08200C300820",
"%	c #0000D34C0000",
"&	c #00001C711040",
"*	c #000008200000",
"=	c #0000E79D0000",
"-	c #000049242081",
";	c #0820618528A2",
":	c #208120812081",
">	c #30C230C230C2",
",	c #38E338E338E3",
"<	c #41033CF34103",
"1	c #492449244924",
"2	c #49244D344924",
"3	c #596561855965",
"4	c #186118611861",
"5	c #69A6659569A6",
"6	c #618571C669A6",
"7	c #8E388A288E38",
"8	c #A699A289A699",
"9	c #AEBAAAAAAEBA",
"0	c #BEFBB2CABEFB",
"q	c #BEFBBAEABEFB",
"w	c #596555555965",
"e	c #79E779E779E7",
"r	c #861782078617",
"t	c #9E799A699E79",
"y	c #AEBAA289AEBA",
"u	c #B6DAB2CAB6DA",
"i	c #C71BC30BC71B",
"p	c #8E3882078E38",
"a	c #96588E388E38",
"s	c #A6999A69A699",
"d	c #CF3CC30BCF3C",
"f	c #CF3CCB2BCF3C",
"g	c #965892489658",
"h	c #9E7992489E79",
"j	c #79E771C679E7",
"k	c #CF3CD34CD75C",
"l	c #D75CCB2BD75C",
"z	c #B6DAAAAAB6DA",
"x	c #DF7DD34CDF7D",
"c	c #DF7DDB6CDF7D",
"v	c #E79DE38DE79D",
"b	c #B6DABEFBBEFB",
"n	c #EFBEEBADEFBE",
"m	c #EFBEF3CEEFBE",
"M	c #FFFFFBEEFFFF",
"N	c #E79DDB6CE79D",
"B	c #514459655144",
"V	c #FFFFF3CEFFFF",
"C	c #8E3892489658",
"Z	c #E79DEBADE79D",
"                                        .XoXXX                             ",
"                                     O..oooXXX++                           ",
"                                   @O....oooXXX++                          ",
"                                 ##@@@@...ooXXX+$                          ",
"                              O%%%%#@@@....oo+&$*                          ",
"                o           O====%%%@@@@..o+++$                            ",
"                oo.O      %=======%%##@@o+-+                               ",
"               Xoo..@O O#%=======%O#%O----                                 ",
"               Xoo..@.@##%========%@----                                   ",
"              XXXo..@.@###=======;---;                                     ",
"              XXoo..@.@@%%%O===;;;;                                        ",
"             XXXXoo..@@@##%%==#;;                 $$::>,                   ",
"             XXXXoo...@@@##%%#%=#               *$$:>,<123                 ",
"            ++XXXoo..@.@@@##%%#%##@          3**$4:>11235567               ",
"            +++XXoooo..@@@@@O#;;;--         87990q8<1w56errrr              ",
"           $+++XXXoooo;-----;;-----        t88y90uqqieeerp7a77             ",
"           *&&+&+++-++----6     s8y999yyt attsy99q0qdifr7gghttt            ",
"                           rj7g989u0qq0u9st7resyuuuqqfqkgts888s8           ",
"                          26ras890qfifqq098gpe51hu9qdqffl8y99999z          ",
"                        :,3j7g890ilkkxlfquytgr61>>90qqdilf9u0q009          ",
"                       *:15e7s8uqfccvvcffq98g7j3,44uqqbfilk0qiqqqq         ",
"                      *$:15egs80ikcnmnvxf0u8h7jw<4*gq00qfflfffffdq         ",
"                      *$>16rgt9qdlvmMmncfiuyh7e3<:**160fqlfcflcllfi        ",
"                      *$:15ras90qcNnmmvcfbu8gpeB,4*$55rqfiffxcccclfq       ",
"                      **:<3ra8uqkcVMVMMvcfqyt7jB,$**rrprqfqllvvvNkff       ",
"                      **:<3rasuilvVMMMVncf09tpeB,&**a7gauqffllVncccln      ",
"                      **:<5eC89ilcVMMMMncfq9hpeB,&**ststtqdilklncncvx      ",
"                      *$:<5rCtuqkcnMMMVnxf08tpew,4**9z9y9tqqflkccnVnv      ",
"                      **:<5rC89ilcmMMMVncf09hrew>$**0000u9qdfflknVMnnN     ",
"         *$:::,1r     **:<3ra89qkvnVMMVncf08t7e2,4**qffqq9qqdillvnVnnc     ",
"       *$$:>,11ww3g   *$415rgtuilNnMMMVncf08tpew,$**xNcld9sqqffkcVnnNl     ",
"     **<$:>,12356jee  **:<3e78uilcnMMMMncdq9h7j2,4*$MnNfiu80qfffxcNclf     ",
"    ty990qqqw56eerr7r *$415r789ffcnMMMVncf08t7jB,$**nnvlqqsuqdqlfllkff     ",
"   gt899uqqdqfer77agtg::,<1r7suqlvnMVVMvcf09h7jw,$**nNlfqusuqqdffqfqfq     ",
"  htt8z9900qqfqaghtttts12w33as9ffcnMMMVnNf09hrjB,4**fllqq8t9qqqdfqquuu     ",
" 7ggts889uuqqfffts8899y95e6ee89qfvnMMMVncf08tpeB,$**dqqq8sauu0qdi99998     ",
" 7aagt89y90qqdqlf899uuuu97p777uqlNnMMMMncf08t7jB,4**u0988gp9uqqqdtssth     ",
"rr7agtt899u0qqffflqq0qqqqhttgh9flcnMMMVnxfq8t7jB,$**88sgg78y9uqqqgggg7     ",
"epr7ghtsyy9uq0qfflliifiqdq8888sqfvnMMMMvcf09h7jB,4**agaar78y990qqpprrr     ",
"erp7agh8s8990qiqffkfffxffqquuu99fNnMMMVncf0ytpe2,4**pereght8yuuu0jej65     ",
"6eep7agt8889uuqqfdflkNkcxlqfqq08lcVMVMMvcf09hrjw,$**6577gh8s89905w3ww      ",
"6eer77ght88yuuqbdqlkccnNclfdffq9lcnMMMVvcf09h7jB,4**erra7ttt899u,<1,,      ",
"56erp7agt8899u00qfflkVnvckxqvf0u9vnMMMMncfq9h7j2>$**jerragtts895::::       ",
"35eer7aggss899uqqdqllkmnZcclNfb98NnMMVVvNf0yt7eB,4**6erp7Cgts88$$$$        ",
"w56err7agtt8y990qqdfflkkNcnccfq9yNnMMMVncf08t7jw>4**6eerp7ggt8***$         ",
"w36jerr7ghtt889u0qqdffcccmmnvq08uNnMMMMvcf09h7j2,$**56jrr77gh**5           ",
" 356err77htss89uuqqdqllknmMVv09s9cnMMMVncfq9tpe2,4**  7rrr7g,              ",
" w356erp7ggt88y99qqqfflknmVnNqygpcnMMMMvNf08t7jB,$**                       ",
" 2w55jrrp7gtt8yy900qifflNcnNNlt7fNnMMMVncf09tpjB,4**                       ",
"  2356err77gt88y9u0qqdffxkNcffpefcnMMMMncf08t7eB,$**                       ",
"  2w35jrrp7ght888uuqqidfflffiqeqlvnMMMMvNfq9hrjB,4**                       ",
"  1ww56err7aghts9890qqqfqdqbqq9ffNnMMVVvcf09h7jB,$**                       ",
"   2w35jerraagtty89uuqdqq000u99dfcVMMMVncf08tre2,4**                       ",
"   12w56jrr77gtt88990qqddy898s9qlvnMMVMncqq9t7eB,&**                       ",
"    2w356err77hts899u0qqq8ttthuqlNVMMVMvNf09t7jB,$**                       ",
"    12w36jer77atsty99uqqd77gp790ilkncnccf0u8t7e3<:*$                       ",
"     1ww56ee777htt8y990q8erree8uqflccccfqq9sg7jw,4*3                       ",
"      2w36jre77ags88990q656567890qilllliq99tar52>4*                        ",
"      jww36err7Cgtts9990w2wBB7h89qqqfqqqu9sg7e51:$                         ",
"       pww66er777gsty99a>,<>wp7t8y9qu0u9ysg7r62>r                          ",
"        2335eep7agtst9944:::3e77ts889888tg7rjwp                            ",
"         g266eerargtt8w$*$$   er7ggtthggaprj                               ",
"           35err77atsB***                                                  ",
"            g6jerrggh**                                                    ",
"               erp7g*                                                      "};
