/* XPM */
static char * 23CHKV1_xpm[] = {
"75 65 61 1",
" 	c #71C671C671C6",
".	c #5965BAEA6185",
"X	c #0000C30B0000",
"o	c #0000B6DA0000",
"O	c #0000AAAA0000",
"+	c #000092480000",
"@	c #000082070820",
"#	c #000069A60000",
"$	c #000041031861",
"%	c #000014510820",
"&	c #0000D75C0820",
"*	c #0000A2890820",
"=	c #082069A62081",
"-	c #0000E38D0000",
";	c #0000EBAD0000",
":	c #4924861769A6",
">	c #38E341034103",
",	c #79E779E779E7",
"<	c #000000000000",
"1	c #208120812081",
"2	c #38E338E338E3",
"3	c #492449244924",
"4	c #965892489658",
"5	c #596551445965",
"6	c #596559655965",
"7	c #61855D756185",
"8	c #69A669A669A6",
"9	c #B6DAB2CAB6DA",
"0	c #BEFBBAEABEFB",
"q	c #861779E78617",
"w	c #A699A289A699",
"e	c #AEBAA289AEBA",
"r	c #AEBAAAAAAEBA",
"t	c #BEFBB2CABEFB",
"y	c #C71BC30BC71B",
"u	c #71C669A671C6",
"i	c #861782078617",
"p	c #8E388A288E38",
"a	c #8E3882078E38",
"s	c #082018611040",
"d	c #9E799A699E79",
"f	c #C71BBAEAC71B",
"g	c #96588A289658",
"h	c #9E7992489E79",
"j	c #B6DAAAAAB6DA",
"k	c #CF3CC30BCF3C",
"l	c #A6999A69A699",
"z	c #D75CCB2BD75C",
"x	c #CF3CCB2BCF3C",
"c	c #CF3CDB6CD75C",
"v	c #79E771C679E7",
"b	c #E79DE38DE79D",
"n	c #EFBEEBADEFBE",
"m	c #D75CD34CD75C",
"M	c #F7DEFBEEEFBE",
"N	c #F7DEF3CEF7DE",
"B	c #FFFFF3CEFFFF",
"V	c #EFBEE38DEFBE",
"C	c #FFFFFBEEFFFF",
"Z	c #E79DDB6CE79D",
"A	c #514451445144",
"                                                                           ",
"                               ..XXXXoOOO++++@###$$%                       ",
"                            XXXXX&XXXXoOOO*+++###$$%                       ",
"                            $$X&&X&XXXXoOO**++@###$                        ",
"                              ==*-&&XXXooOO+++@@##%                        ",
"                                .---&&XXoOO*++@@#$                         ",
"                              .-;;;--XXXooO*+++@#$                         ",
"                            &&-;;;;--&XXooO**+@@#                          ",
"                         .XX&--;;;;--&XX=oOO+++#$                          ",
"                       .ooXX&&-;;;;;&&$$ $$+*++$                           ",
"                     +*OooXXX&-----*$:     =$$+>                           ",
"                   #++*OOOXXX&&&-==.          $ ,<%1112>3                  ",
"                =#@@=+**OOoXXX&=$             4<<%112>35678                ",
"              %$$###@++*OOoX*$=              99909123567  q,               ",
"              %$$###@+++Oo=$:               wwer9t0y 7u,,ipai              ",
"               %s$##@@++$$                 4dwer990fyyqippg44h             ",
"                 %$$@=$$      p4dwr9j9rewh4idewwj9t0yykpg4ddldd            ",
"                   $$$    ,7,p4wrj00f00trwdgi 6qr9900ykz0dwwewrw           ",
"                        ,26 a4de90yxxxky0rwhpi731r9t0yykz9rr99j9r          ",
"                       71>7qpwwj0kxccczxy9ed4iu521j900ykxx0t0000tt         ",
"                      v%138q4dwtykcbnbbmk0rw4pv621<990fykxzyyykyy0         ",
"                      <%$38igdrtymbnMNbcx09whp,6>1<<g00yykmmxzxkky0        ",
"                      <%$38q4drtyzbNBNVcx09whpv6>1<<659yykxzmcccmxy        ",
"                      <<1>8q4lrykbnCCCCnck0rdp,52s<<v ,0yykmmbbccmky       ",
"                      <%1>8,gd9yxbnCCBCnmk0rda,521<<piap0ykxzcnbbczy       ",
"                      <<1>8q4wryxbnCBCCVcx0rda 62s<<h444dfykxmNnVcccz      ",
"                      <%1>8qpwjfzcNBCCCnmk0rdp,52s<<wwlwd9yyzzmnmbncc      ",
"                      <<1>8,gwryxbnCCCBncx0rda 62s<<rjrrrwfykxmcbnNnn      ",
"          i%11        <<1>8qpwj0zbnCCCCVcy0rdpv62s<<f0y09e0yyxzcbNCNbZ     ",
"        1%s112>33     <<1>8qpw9fxbnCCBCnmk0rda,521<<kxkk09lyykxmbnNnVz     ",
"      <<%112235678u   <%1>8,4lryzcNBCCCVcx0rda 62s<<zNcmy9dy0ykzcbnbcm     ",
"     <> 36223678v,qi  <<1>8qpw90zbnCCCBnmk0rdp,52s<<CNbzy9w00ykxmccmmx     ",
"   4lrr99t0k,8 ,iaipg <%1>7igwryzcNCCBCncx0rda 62s<<Nncxyjdt0yykxxxzky     ",
"  gwlwer9t00kkiapp4h4d72233,gwryxbnCBCCnmk0rda,521<<bmmk0rw900ykxyy0y9     ",
" a44dwwer900yyk4dhddwwwv5678gwrfzcNBCCCVcy0rdpv62s<<xzyyrw4j90fyy9099r     ",
" aphddwrrj90fykxydrerrre ,,q,wjyxbnCCCBnmx0rda,52s<<yf99wdgr9t0yyrewew     ",
" pp4hdwwer9t0yykz99j99t99appppj0zbnCCCCnck0rda 62s<<9rrldgijr00fydddd4     ",
",app4hdwerrt00ykxx000f0ytrddhdwyzcNCBCBnmk0rdp,521<<wdd4parwr9t0ypggpg     ",
",iap4hdwwer990yykxzykykyy0wrwwwfxbnCCCCVcx0rda 62s<<gppai4ewrj900qiii,     ",
",qipg44dwwe99tfyyxzmzmzzxyy9t9rlzcNBCCBnmk0rdpv62s<<ii,v4dwlw9j90   8i     ",
" iiipgddlwrrj90yykxmccccmkyyy00wzbnCCCCncx0rda 62s<<86pg4hdwwr9955665      ",
"u qipp4hdwwert90yyxzmbnccmkyzk0rkcNCCCBnmk0rdp,521<<,qap44hdwer922>>2      ",
"8 ,qipg4dlwwr990fyyzznNncczxcx099bnBCCCVcy0rda,52s<<,qipp44dwww81111       ",
"78v,aip4hdwwer9t0yyxzmMnbccmcz0rdZnCCCBnmx0rda,52s<< ,iipg4dllw<%%%        ",
"68u,iipg4ddwerrt9yfyzzzmbbbbck0r9cNCCCBnck0rda 621<<8v,iap4h4w<<<2         ",
"678v,ipp4hddwrr900fyxxmcbNNnb09erbnCCCBnmx0rdp,52s<< 8qiipg44<<            ",
" 67 v,app4dlwwe99t0yyxmcnNCnV0rdrcNCCBCncy0rda,521<<   q,ppg2              ",
" 578u,iapg4ddwer990fykxmVnnnbfd4pbnCBCCnmk0rda,52s<<                       ",
" 3678,,app4hdwwer9t0yxkxbbVbmzppzbnCCCBncx0rdp 62s<<                       ",
"  568 ,iipg4ddwer990fyxkzcmcxkpixbnCBCCncy0rda,52s<<                       ",
"  3678vqippgddlwrr9t0yykxxxxx0 0xbnBCCCVcx0rda 62s<<                       ",
"  65688,iipp4hdwwe99t0yk00y0f990xZNCCCBncy0rdp,521<<                       ",
"   >678v,iap44dlwer99fyy0909rrryxbnBCCCnck0rda 62s<<                       ",
"   5567 ,qipp4hdwwrj900yywrwwlryxZnCCCBncy0rdpv62s<<                       ",
"    >668 ,iapg4dlwwr9t00kddhd4jfzcNCCBCnmk0rdpv52s<<                       ",
"    >567u qipp4hdwwe99t0ypgppaw0ykcbnnZzx09whp,721<<                       ",
"     3568 ,iapp4ddwerrt04iiiq,w90kzcccmzy9rw4a 621<                        ",
"      3578v,ippgdhwwer908u 884lr90kxxzxy0rrhpi 511<                        ",
"       3688,qipg44ldrrj95A5A5p4wr90yyy009ww4a,7>11                         ",
"        678v,ippg4dwwer,22226igddrj9999rwdhp, 52                           ",
"        367 viiap4ddlwr111118,apddwwewwwdhpi 5                             ",
"          58u,iipg4dlw5<%%1   qii44hdd44giqi                               ",
"           78,,ippgdd3<<<                                                  ",
"             8,qipg4h<<                                                    ",
"                                                                           "};
