/* XPM */
static char * 23VPGRN_xpm[] = {
"75 152 62 1",
" 	c #71C671C671C6",
".	c #000092481040",
"X	c #00009A691040",
"o	c #0000A2891861",
"O	c #0000A2891040",
"+	c #0000AAAA1040",
"@	c #0000B2CA1040",
"#	c #08209A691861",
"$	c #000092481861",
"%	c #28A2924838E3",
"&	c #00008A281861",
"*	c #00009A691861",
"=	c #000069A62081",
"-	c #000079E72081",
";	c #000082072081",
":	c #0820BEFB1861",
">	c #000071C62081",
",	c #1040659530C2",
"<	c #492475D669A6",
"1	c #0000618528A2",
"2	c #0000BAEA1040",
"3	c #000065951040",
"4	c #000059652081",
"5	c #0000596528A2",
"6	c #082075D62081",
"7	c #0820CB2B0820",
"8	c #0000C30B1040",
"9	c #000082071861",
"0	c #0820618528A2",
"q	c #000049242081",
"w	c #0820410338E3",
"e	c #0000514428A2",
"r	c #0000C30B0820",
"t	c #082038E330C2",
"y	c #0000AAAA1861",
"u	c #0000CB2B0820",
"i	c #0000451430C2",
"p	c #000034D328A2",
"a	c #000030C230C2",
"s	c #0000DB6C0820",
"d	c #0000E38D0820",
"f	c #0000EBAD0000",
"g	c #0000F3CE0000",
"h	c #0000FBEE0000",
"j	c #000028A230C2",
"k	c #2081410338E3",
"l	c #6185861779E7",
"z	c #000061852081",
"x	c #28A2BEFB38E3",
"c	c #0820DB6C1040",
"v	c #9E79D75CA699",
"b	c #0000BAEA0820",
"n	c #8E38B6DAA699",
"m	c #86179A699E79",
"M	c #AEBABAEAB6DA",
"N	c #C71BDB6CCF3C",
"B	c #D75CDB6CDF7D",
"V	c #F7DEF7DEF7DE",
"C	c #E79DEBADEFBE",
"Z	c #F7DEF3CEF7DE",
"A	c #0820C30B0820",
"S	c #0820BAEA1040",
"                         .XoooOo++++++@+@@+@+@+++ooOooX#$                  ",
"                    %&.#X##ooOo+++@+@@@@@@@@@+@++++o+OooX*#$&%             ",
"                =--;&$###ooOo+++@@@@:@@@@@@@@@@:@++++ooooX##$&&->,         ",
"            <,1=>-;&$$#X*oOo+++@@@@@@2@2222222@@@@@@+o+oOX###$$;-3=1,      ",
"          ,,45=6-;&&.##ooo++++@@@@22222722822222@@@:+@o+ooX##$$;93>05q,    ",
"         we441=>-&&$##ooOO++@:@@22228r888r88r82222@@@@++ooooX#$&&->=05qqe  ",
"        tqqq5=6-;9$##X*o+++y@@@2288r8r8r8u8u8r8r2222@@:++oooX*#$;;-==55eqww",
"       wie450=>;;.$##*+o++@@@@2288r8uuuuuuuuu8888r222@@@y+ooo#$#&;;3=054qip",
"       wqeq5==-;&&###*+++y@@@2728r8uuuu7u7u7uuuu888222@@@+o+oX##$&-->054eqa",
"       wie50=3-&&#$*o+*@y@@@2228ruuuuusususuu7uu8r8r222@@+++o#*#$&;-3=1qeqa",
"       wqe40=-;&$$#ooo+@+@@2288uuuusususssussu7uuu88r222@+@*+**##$$--=04eqa",
"       waq503-;&$#X*o+++:@@282uuuusussssssssssusu78r8r22@@@+yoo##$$;3>15qta",
"       waqq4=-9$$#*oo++@@@2288uuusussssssssssssuuuuu82222@++yoX*#$&$-=5epaa",
"       waaae5=;$##oXo++@@@2728uu7usssssdddddssssu7uu72822@@++***##$;>0qqaaa",
"       wwatq40=;.#ooo+@@:2228uuususssdddddddddssusu788r22@@+y+***#$;=5eqaaa",
"       wawaiq13;$$#oo++@@272uususssdddfffffdddsdssuuu8r2r2@@@y+y*#$;>0qaawa",
"       wwaae50>;&##oo+@@@228uuusssddddfffffffddddsssusr82r2@@+y**#$;=5eqaaa",
"       waatqq1>;$$#oo++@@288u7usssdddfgggggggggffdddsusr8222@+*+**$;>54tawa",
"       wtaai51>;$$#oo+@@@288uu7ssdddfggggggggggggfddsuuuu822@+y**#$;=0qiaaa",
"       waatqq1>;$##oO++@2288uusssdddggggggggggggffddusuu8822@yy*y*$;=0eqawa",
"       waaai503;&##X+*@@2272u7usssdffgggggggggggffdsdusu8822@y+**#$->5qtaaa",
"       <aaae41>;&##*y+@@:228uusssdddfghgggggggghfddsssuu8822@y*y**$;>5qtaaw",
"        ,jtqq1>;$##o+o@@@288u7usssdfghfghhhhhghhffddsus88822@+y*y#$;=1eqak ",
"         <kwq03;$$X*+++@:228uusssdddffhhhhhhhhhffddsssuu8822@y+**#$;>54w   ",
"           l,5>;&##oo+@@@288u7ussdddfhhhhhghhhfhdffsssuu7222@+*y*#$-35q    ",
"            ke5-&X#oo++:@2888ussssdffhfhhfhhhfhhfdddsus78822@++**#$-5eq    ",
"            wqa5=;.#o+@@@272usussdddfhhhfhhhhhhfdfdsss8u8222@yyoX$-5qta    ",
"            waaiq0-.#X+@:228uusudsdffhfhhhhghghhfdfdssuu882@@oo.$-5qtaa    ",
"            kaatez3;$#*y+@@28uusssdffhfhhhhhghdhdfdduuu822@+Oo$$-35eqaa    ",
"            kaaie0=$$#*++@@288usudddffhhhhhhhghddds7uu8222++OX#$->5eaaw    ",
"            kaawe03$$#*+y@@28uusssddfhhhhdhhhdhfddssuu8822@+oX#$->5eqja    ",
"            waate0=$$**y+@@278uussddffhhhhhhhhdfdsssu78222++o*#$;>5etaw    ",
"            kaaiez>$$#o++:@228sussddfhfhhhhhfhhffdssuu8822++oo#$->5eqaa    ",
"            waaie03$$#*+y+@2778susddfhhhhdhhhhddfdssu78222@+o##$;=5epaa    ",
"            kaaie0=$$#*++@@228usssddffhhhhhhhdhfddss788822++o*#$;=5eqaj    ",
"            kaawe0=$$#*yy@:28u7ussddfhhfhhhhhhdhdsssuuu222@+o*#$;35etaw    ",
"            kaatez3$$#*++@@227usssddfhfhhhhdhhhdddss788822++**#$;=5eqaa    ",
"            waaie0=$$#*y+:@278uussddfhhhhdhhhhdfddssuu7222++y*#$->5etaw    ",
"            kaawez>$$*+*@@@228u7ssddffhhhhhhhfhfddssu72222@+**o$;=5eqaa    ",
"            kaate03$$#*+y@@277ususddfhhdhhhhhhdfddssuu7222++y**$;>5etaw    ",
"            kaatq5>$$#*++:@228usssddfhfhhhhfhhdhddss788222@+***$;=5eqaa    ",
"            waaie03$$**y+@@277uussddfhhhhhghhhdfddssuu8822@yy*#$;=5etaw    ",
"            kaawe03$$o*+y@:228u7ssddffhhdhhghhhfddssu78222++**#$;35eqja    ",
"            kaate0=$$#*+y@@278ususdffhhhhhhhghdfddssuu7222@+y*#$;=5etaw    ",
"            kaatq5>$$#*y+@@22u7ussddfhfhhhhhhghdfdss788822@+***$->5eqja    ",
"            waaie03$$*yo+@@272usssddffhhhhdhhdgdddssuu8822++y**$;>5eaaw    ",
"            kaaie0=$$**++:@2277ussddfhhhhhhhhhhgddssu78222@+**#$;=5eqaa    ",
"            kaawe0=$$#*y+@@272ususdffdhhhdhhhdhdddss788822++y**$->5etaw    ",
"            kaate03$$#*+y@:22u7ussddfhhhhhhhhhdhdsssuuu222@+***$;35eqja    ",
"            waaie0=$$**++@@272usssddfhfhhhhhhhdfddssu77222++y**$;=5etwa    ",
"            kaawq5>$$#*+y@@22u7ussddffhhhdhhhdhffdss788822@+***$;=5eqaa    ",
"            kaate03$$#*y+:@272usssddhfhhhhhhhhdfddssuu8222++y**$;>5etaw    ",
"            kaawe0=$$*o++@@2277ussddffhhhhhhdhhdfdssu78822@+***$;=5eqaa    ",
"            waatez>$$#*+y@:288ususddfhhhhdhhhhdhdss7s88222++y**$->5eaaw    ",
"            kaaie03$$**+y@@22u7ussddffhhhhhhhfhdddssuuu222@y**#$;35eqja    ",
"            kaawe0=$$#*y+@@2778sssddfhhdhhhhhhdhdsssu77222@+*y#$->5etwa    ",
"            kaatez>$$**++:@228ususddffhhhhhdhhdfddss788822++y#*$->5eqaa    ",
"            waaie0=$$*yo+@@278usssddghhhhhhhhhhdfsssuu8222@+***$;>5eaaw    ",
"            kaawez3$$#*+y@@227uussddffhhdhghhdhdfdssu78822++y*#$;=5eqaa    ",
"            kaate0>$$#*++:@278usssddfhhhhhgghhhdddss788222@+***$->5etaw    ",
"            kaatq53$$#*y+@@227u7ssddffhhhhhgghdffdssuuu822++y**$;35eqja    ",
"            waaie0>$$**+y@@227ususddfhhdhhhhgghddsss788222@+**#$;=5etwa    ",
"            kaawe0=$$#*++:@278usssddffhhhhhhhggdfdssuu7222++y**$->5eqaa    ",
"            kaate03$$**y+@@2277ussddfhhhhhdhhhggdds7s78222@+**o$;=5etaw    ",
"            kaatq5>$$**+y@@272ususddfhfhhhhhhdh:fdssuu7222@+y*#$;=5eqaa    ",
"            waaie03$$**++:@22u7ussdfffhhhhhhhhdhdsssu72822@*y##$->5etaw    ",
"            kaaie0=$$#*y+@@2778sssddfhhhdhhhdhhdddss78u222@+**#$;35eqja    ",
"            kaawe53$$#*+y@@227ususddffhhhhhhhhdffdssuu722@@+y**$;=5etaw    ",
"            kaate03$$*yo+@:@78usssddfhhhhhghhdhfddssu78822@+***$->5eqja    ",
"            waaie03$$#oo+@@228uussddffhhdhgghhhdddss788222@+y**$;>5etaw    ",
"            kaawq5>$$##++:@278s7ssddghhhhhhgghdffdssuu8822@oo*#$;=5eqaa    ",
"            kaate0=$$#*+y@@228uussddffhhhhhhgghddsssu78222+++**$->5eaaw    ",
"            kaawe03$$#*++@@278sussddfhhdhhhhhghdfdss788822@+***$;35eqja    ",
"            kaate0=&$#*yy@@227ususddffhhhhghhhgdddssuuu222++y**$;=5etwa    ",
"            waaiez>;$#*++:@278uussdffhhhhhgghhdhddss788822@+***$;>5eqaa    ",
"            waaie0=&$**+y@@228s7ssddfdhhhdhgghddfdssuu7222++y*#$;=5etaw    ",
"            ppate03;$**++@@2778sudddfhhhhhhhgghdfds7u72822++*y$$;=5eqaa    ",
"          $>paatq5>&$*yo+:@228usssddfhfhhhhhhggdddssuu7222@+**$$;>5epaa    ",
"        x*o3taatq1>;$#oo+@@277uussddffhhhdghhhggddss7u7222+yy*$$;=5eqaj    ",
"       x@++-qaawe0=&$##++@@227ususddfhhhhhgghh:hdsssu72822@+**$$;=5eqjw    ",
"      x22@@;qaate03;$#*+y@:288usssddffhhdhggghhdddssu78222++y**$;>5epaa    ",
"     x8r222&taaie0=&$#*y+@@@78u7ssddghhhhhhgghdhddss788822@+***$;=5eqaa    ",
"    x7uuuu7:iaaie03;$#*++:@228ususddffhhhhhhgghdddssuu8822++y*o$;=5eqjw    ",
"   xsusss7uXiati50-;.**+y+@228uusssddffhdhdhhgdddssu78822@@ooo.$;-z4ita    ",
"   xssssss8.qtqq0=-&$**+*@@@2878uusdddffhfhfdgcdssuu88r22@+ooX#$;-=5qqw    ",
"  xcsddfdu2&qqiq5=-&.#*y++@@228uussssddffhfdhddsssuu88222++ooo$$;3=5qiw    ",
"  xcddffd2+o&eqq5>-;.#*+*@+@2728uusuddddffffddsssuu788r2@+++oX#&;-=5eel    ",
"  ddfffsu2+++;qe4=-;$#*y++@@@278uussssddddfdddsdusu8r222@++oX##$;3=5ql     ",
" vfgffss2+++@+&54=3;&X*oo+y@@288uuuusssdddddddssuuu88r22@+ooo#$&;>05l      ",
" xfggfdu+$#@@@@+%0>;&$#oo++@@228ruususssssdsssusuuu8822@@+OooX$;-3,        ",
" sfffddr.&$#+@@2b2O;&.X*o++y@@28r8uuususssssussruu88r22@++o+##$;,          ",
" 7sddsu2&&$#*@@22r822+#ooo++@@222r88uusuususuuuuu72222@+++*%%              ",
" rsu7su*;;#*+:@2r8uuu8822+@@@@@228rru8uuuuuuuuu888r28::xxxx                ",
" r8ruuuy-;X#o+@28uusususuu822228rb@8x:xx::::::8::xxx$                      ",
" @2228uo;9##o+@22usudsdusussuuuu2.k%%nvvvvvvnx%,%                          ",
" ++@228@&&$X*+@@88ussdddsdussusu83kkmMNBVVCNMmlkl                          ",
" #ooO222.-$#o+y@2ruusudsdssususuu3kklMNBZZCNMmlkk                          ",
" x$.$o22X;&#X*@@@88uusussusuuuus83kklMNBZZCNMmlkk##%$                      ",
"  ;--;+@:&&$#*y@@228uuuuuuurr822A3kklMNBVZCNMmlkkX#.%;%l                   ",
"  %,0z%+@o.&#oo++@228r8uuurr2r2@O3kklMNBZZCNMmlkkOX$$;;3%l                 ",
"   %,qq;++o###X*@+@222r22r22@+++X3kklMNBVZCNMmlkkOX#$$;--3,<               ",
"     ,t4$+oX#$##x*@+++@++oOoOo+oOekklMNBZZCNMmlkk$ooXX#$&;;3,<l            ",
"       k6X**#$%$x%.$$$$##oX*o+o+O3kklMNBZZCNMmlkk++O+ooX##$$&-6,%          ",
"             %%%%6;&&$$#oXo+oO++o3kklMNBZZCNMmlkk@@+ooooX##$$&;-=,<l       ",
"           <,,,66-&&$$##X#&&$#y++3kklMNBVZCNMmlkk2@ooX$&.####$&;-==,,<     ",
"          ,w55=6-9&&$$&5e5>-.#*@+3kklMNBZZCNMmlkk8++oX&-04i6**&;;3>055qw   ",
"         we440=3-&&$&0aai40-$#y+:3kklMNBVZCNMmlkk:@+##;30qaaw>$$;-3=054qq  ",
"        weqq00=-;&&;5paatq=-&$$..ekklMNBZZCNMmlkkXX&&&$>5eqjwp=&&;3>=5qeqq ",
"       kiqq50=3;9&&0paapqe5=>>1,qkkklMNBZZCNMmlkk,i,q105qqawaaq>$;->=054qta",
"       wqe55==-;&$-qaaaaaqqiiiiiipkklMNBZZCNMmlkk,iiiiatttaawaa1&&;->054qit",
"       wqq50z3;;&.;4aaaaaaaatiiiipkklMNBZZCNMmlkk,iiiittaaaaaat=%&;-3=04eqa",
"       wtq50=--&$#$-eaaaaaaatiiiiewklMNBZZCNMmlkk,iiiittaaaawa0;X$;;>=04eqa",
"       wqqq03>;&$###-5qaaaaatiiii,e,lmNBZZCNnl<e,iiiiittaaaaa0&X#$&;3>04qaa",
"       waaq5=-;$$#*oXX-=qattwtiii,i,,<lmmnml%,,,i,iiiittti1=-X###$&;->qqaaa",
"       wtaai53;$.#*+*@++$;-0qi,iei,,155,,,5,5,15,e,i,ee0-&*@yooo.#$&>0qttaa",
"       wwatq503;$#oo+++:@@2+X*&;66&&&;-6666>;&&&-66XXoX+@@@@+ooX##&;=5qtawa",
"       wawaiq0=;&#X##+y+@@2228u828uss78uu78u7uds2A888r8222@@@o+**#&->5qtaaa",
"       wwatqq0=;;9&&$#ooo@@2288ussdsddffgffdssdddssusuur8222++yo*#$->0eqaaa",
"       wawaiq0=z3>-;$##oo++@@b2rru8uussssss8rr8sddddusuu8r22@y+**#$;=5qtawa",
"       wwatqq05003;&$#X*+++@@222rrrur8uu8r822S@:2rsdsuuu8222@y*+*#$;>5eqaaa",
"       waatiq4ez=-&$$*o+++@@228ruuuusuuuu8r8r22@@+@rusuuu822@+y**#$;=0qtawa",
"       wwatiqq503-$$*oo+@@@228uuuususus8uuu82222@+OoO@rr8222@+o+**$;>5eqaaa",
"       wawaeq50z-9.##o+++@@28uuusussssussuuu882b@++OoXo+222@@y#$*$$->54awaa",
"       wtaae4403-;$#X*+@@@288uususdsssdsusuuu8222@++oX#$&.X**$>0=---=0qtaaw",
"       kaaaiq5=>-&.$*++:@228uususdsdddsdssuuu72r2@++*o#$;;-&&>05qeeq55qtaaa",
"       <wate45=-;&$#*y+@@288uussdsdddddddsss8u8222++yX#$$&$$&;-30055qqeqaak",
"        <wqt50=-;.$**+y@@288ususdddffffdddsus8rr22@++**##**oX$&;$$+X;=;4qk ",
"          wq403;;.##o++@@28uusssddffggffddsuuuu822@+y**+++++**y@@222@o+&,  ",
"            ,=>;&$##o++@@288uusdddfggggfdddssu88r@@@o++@@@@@@@2888r2@+oo   ",
"              %;;.#oo++@228ususdddgggggfddssuu8r22@+++@282222us8r222++oO$  ",
"                %%##o+@@288uussdddfggggfdddusr8r22@+@28uuu88su8r822@++oX%  ",
"                   %y+@@228uusssdfgggghdddsuuuu222@@2rssususuuu82b@@+oX##  ",
"                     x+@28rususdddggggffddsus88822+@rsssddusuu7222@+oooX$  ",
"                       x2r2russdddffghffddusru8r2@@2ssddddsuu8822@@OoOX$&  ",
"                         x78sussdddffffdddsus8r22@@usddffduuu88r@@+oOX$$&  ",
"                           x:usssddffddddssuuu222@2ddddfdsuuu222@@+oX##&;  ",
"                              7ssddsddddsusru88r@@rdfffdsuuu8222++ooX#$&-  ",
"                                x:cdssssusru88r2@2sfggfssuu8822@+ooX#$$;,  ",
"                                  xx:cusuuuu8822@@uffgdduu8822@@+oO#$$;-%  ",
"                                     x:7uuu88222@2udddduuu8r22@+oOX#$&;>l  ",
"                                       xx728r22++@8ssdusur822@@+ooX$$;-%   ",
"                                         xx22@@@++2ruuuu8r222@+ooX#$;--%   ",
"                                           xx%@+O+@288uu88r2@++ooX$$;-%    ",
"                                              $$:o+@2@28r22@@+ooX#&&-3%    ",
"                                                 xoo+O@2r22@+ooX#$$;-%     ",
"                                                 $$X$Xo222@@+ooX$$;;6l     ",
"                                                  $%;&&+22+++oX#$;;-       ",
"                                                   %6=>X@@@OoX#$$;-%       ",
"                                                    <q4=++++o##$;;%        ",
"                                                     <pq-O+oX#$&&%         ",
"                                                      <aq=#oX#$;%          ",
"                                                                           "};
