/* XPM */
static char * 23VPRED_xpm[] = {
"75 152 62 1",
" 	c #71C671C671C6",
".	c #861700000000",
"X	c #79E700000820",
"o	c #8E3800000820",
"O	c #965800000000",
"+	c #9E7900000000",
"@	c #9E7924922081",
"#	c #492400000820",
"$	c #596500000000",
"%	c #71C600000000",
"&	c #79E700000000",
"*	c #71C618611861",
"=	c #AEBA00000000",
"-	c #8E3808200000",
";	c #69A600000820",
":	c #514400000000",
">	c #618538E338E3",
",	c #410300000000",
"<	c #618500000000",
"1	c #514449244924",
"2	c #28A20C301040",
"3	c #38E300000000",
"4	c #B6DA00000000",
"5	c #208100000820",
"6	c #104008200820",
"7	c #28A200000000",
"8	c #30C200000000",
"9	c #186100000000",
"0	c #28A228A228A2",
"q	c #BEFB00000820",
"w	c #082000000000",
"e	c #082000000820",
"r	c #BEFB00000000",
"t	c #C71B00000000",
"y	c #CF3C00000000",
"u	c #D75C00000000",
"i	c #DF7D00000820",
"p	c #E79D00000000",
"a	c #EFBE00000000",
"s	c #F7DE00000000",
"d	c #F7DE0C300820",
"f	c #69A661856185",
"g	c #000008200000",
"h	c #C71B00000820",
"j	c #A69900000820",
"k	c #CF3C28A228A2",
"l	c #410320812081",
"z	c #208118611861",
"x	c #8E3871C671C6",
"c	c #AEBAAAAAAEBA",
"v	c #C71B82078617",
"b	c #DF7DB6DAB6DA",
"n	c #D75CCF3CCF3C",
"m	c #EFBEE79DE79D",
"M	c #FFFFFBEEFFFF",
"N	c #B6DAAEBAB6DA",
"B	c #96589A699E79",
"V	c #CF3CCB2BCF3C",
"C	c #E79DD75CD75C",
"Z	c #F7DEF3CEF7DE",
"A	c #186108200000",
"S	c #EFBEF7DEFFFF",
"                        .X.ooOOOO++++++++++++++++OOOOooo.@                 ",
"                  #$%%&o*ooOOO++++++=+====+==+++++++OOO-..&%&%;:           ",
"              >,:$<<%&..oO-O+O+++=+====+====+===+++++-Ooo...&&;$$,:1       ",
"            233:$$;%&..oooO+++++===+4==4==4=4==+4+=+++OOOoo.&&%;<$,335     ",
"         26783,$$<;&...oOOO+++==+4=4=4444444=4=4==+=++++Oooo..&%<$:,38592  ",
"        09578,:$$;&&.oooO++++====4444q4qqq4q44444=4+=+++OOOo...%;$$:38759w ",
"       e9958,,$$<%&.oooOO+++====444qqqqqrrrrqqqq44===+=++OOooo&&%;$:,38799w",
"       w9973,:$$;&...oOO+++====44qqqrrrtrttrrrrqq44=4=++++OOoo.&%;<$:33799w",
"       w9573::$;%&..oOO+++====4qqqqrtttytttytttrrqq4====+++OOo..&%<$$33859w",
"       w9583::$%%..ooOO+++===44qqrtttytyyyyytyttrrqq4===++++ooo..%%$$,3859w",
"       w973,:$<%&&oooO+++===44qqrttyyyuyuuyyyyytttrq44===+++OO.o&&%<$:3875w",
"       ww93,:$;%..ooOO++====q4rrttyyuuuuuuiuuuyyttrrq44===+++Ooo.&%;$:#39ww",
"       www93$<;&&.ooO+++===4qqrtyyuyuuiiiiiiiuuuytttrq4==++++Oo..&&;$$39www",
"       wwwe98$<.&oooO++=+=44qqttyyuuiiipipiiiuuuyyttrq44==+++OOo..&;$87ewww",
"       wwwe983$<&.oOO++===4qqrttyuuiipppppppiiiuuyyttqq4==+=+OOo..%<:359www",
"       wwww97,$<%.ooO+++4=4qqrytuuuippppaaaappiiuuytrrq4===++++oo.&<:85ewww",
"       wwww97,$<&&oOO++===4qrtyyuuipiaaaaaappppiuuyyuttrq4=+=+OOo.%<:879wew",
"       wwww97,:#&.ooO+++4=4qrtyuuippaassssssssssaapiuuttq44=++OOo&&<:85ewww",
"       ewww92,$<%.ooO++===4qrtyuuipaasssssssssssappiuyyrrq=++++Oo.%<:359www",
"       wwww97,:<&.ooO++=+44rryyuuippasssssssssssaaiiuyytr44=+++oo.%<:85ewww",
"       wwww97,$#%.ooO++===qqrtyuuipaasssssssssssappiuyyrrq=+=++oo.&<:87ewww",
"       wwwe97#:<&.ooO+++4=4qrtyuuippassssssddsssaapiuyytr44=+++Oo.%<:859www",
"        www67,:<&..OO++===4qrtyuiipaasssdddddddsapiiuyyrrq=+=+OO..&$:35ewwf",
"         6e97,$<%.ooO++=+44qrtyuuippasssdddddddsaapiuyytr44=+++oo.&<:879w  ",
"           17,$#&..OOO+===4qryyuuipaasssdddddddssipiuuttqq=++++oo.%<:85e   ",
"            w9#<&.ooO++===4rrtyuuiipasssdddddddsappiuyyrr44=+++O.o%<:5ww   ",
"            wwee$..OOO+=+44qrtyuuppaassddddddddsaaiiuyytrq==++OOo.;7egww   ",
"            wwwe53$;oO++=44rryyuuippassddddddddsaaiiuyyrr44+++O.;:85ewww   ",
"            wwwe53$<&.o+++=4rthyuiiaassddddddddaaiiiuytr4=+++oo&<:85ewww   ",
"            wwwe53$<&ooO++=44rryuiipassdddddddaaipuuttrq4+++Oo.&<:85wwww   ",
"            wwwe53$<&.oO++==qqtyyuipassdddddddasiiuuttqq==++Oo.&<:85wwww   ",
"            wwwe53$<..oO++=44qtyyiiaassdddddddasipuuyrrq=+++Oo.&<:85wwww   ",
"            wewe53$<&.oO++=44qtyyiupassdddddddasiiuyytq4==++Ooo&<:85wwww   ",
"            wwwe53$<&ooO++4=4rtyyiiaassdddddddasipuuyrrq=+=OOo.&<:85wwww   ",
"            wwwe53$<&.oO++=44rtyuuipasssddddddasiiuyytq44+++Ooo&<:85wwww   ",
"            wwwe53$<..oO++4=4rtyyiipasssddddddsapiuuyrrq==++Oo.&<:85wwww   ",
"            wewe53$<&.OO++=44rtyuuiaasssddddddsaipuuhtq4==++Oo.&<:85wwww   ",
"            wwwe53$<&ooO++=4jrtyyiupassdddddddsaiiuyttqq=+++Oo.&<:85wwww   ",
"            wwwe53$<&.oO++=44rtyuuiaasssddddddaapiiuyrr4==+-Ooo&<:85wwww   ",
"            wwwe53$<..oO++4=4rtyyiipasssddddddsaiiuuttrq=+=OOo.&<:85wwww   ",
"            wwwe53$<&.oO++=44qtyuuiaasssddddddsapiuuytq44+++Ooo&<:85wwww   ",
"            wewe53$<&ooO++4=4rtyyiupassdddddddsaiiuuttqq==++Oo.&<:85wwww   ",
"            wwwe53$<&ooO++=4jrtyuuiaasssddddddaapiuuttq4==++Ooo&<:85wwww   ",
"            wwwe53$<&.oO++4=4rtyyiipasssddddddsaipuuyrrq=+++Oo.&<:85wwww   ",
"            wwwe53$<..oO++=44rtyuuiaasssddddddsaiiuuttr4==+-Oo.&<:85wwww   ",
"            wwwe53$<&.OO++4=4qtyyiipasssddddddsaipuuhtqq=+=OOoo&<:85wwww   ",
"            wewe53$<&ooO++=44rtyuuipasssddddddsaiiuuttq44+++Oo.&<:85wwww   ",
"            wwwe53$<&.oO++=4jrtyyiipssssddddddsapiuuttq4==++Ooo&<:85wwww   ",
"            wwwe53$<..oO++4=4rtyuuipasssddddddsaipuuyrrq=+=OOo.&<:85wwww   ",
"            wwwe53$<&.oO++=44rtyyiipasssddddddsaiiuuttr44+++Ooo&<:85wwww   ",
"            wwwe53$<&ooO++4=4qtyuuiaasssddddddsaipuuytqq==++Oo.&<:85wwww   ",
"            wewe53$<&ooO++=44rtyyiupassdddddddsaiiuyyrq4==+-Ooo&<:85wwww   ",
"            wwwe53$<&.oO++4=jrtyuuiaasssddddddaapiuuytqq=+++Oo.&<:85wwww   ",
"            wwwe53$<..oO++=44rtyyiipasssddddddsaipuuttq4==++Oo.&<:85wwww   ",
"            wwwe53$<&.OO++4=4rtyuuiaasssddddddsaiiuuttqq=+=OOoo&<:85wwww   ",
"            wwwe53$<&ooO++=44qtyyiipasssddddddsaipuuhrr44+++Oo.&<:85wwww   ",
"            wewe53$<&.oO++=44rtyuuipasssddddddsaiiuyytqq==++Ooo&<:85wwww   ",
"            wwwe53$<..oO++4=jrtyyiipssssddddddsaipuuttq4==+-Oo.&<:85wwww   ",
"            wwwe53$<&.oO++=44rtyuuipasssddddddsaiiuuttqq=+++Oo.&<:85wwww   ",
"            wwwe53$<&ooO++4=4rtyyiipasssddddddsaipuuyrr4==++Ooo&<:85wwww   ",
"            wwwe53$<&ooO++=44qtyuuiaasssddddddsaiiuuttrq=+=OOo.&<:85wwww   ",
"            wewe53$<&.oO++4=4rtyyiupassdddddddsaipuuytq44+++Ooo&<:85wwww   ",
"            wwwe53$<..oO++=4jrtyuuiaasssddddddasiiuuttqq==++Oo.&<:85wwww   ",
"            wwwe53$<&.OO++4=4rtyyiipasssddddddsaipuuhrr4==+-Oo.&<:85wwww   ",
"            wwwe53$<&ooO++=44rtyuuiaasssddddddsaiiuyytqq=+++Oo.&<:85wwww   ",
"            wwwe53$<&.oO++=4jrtyyiipasssddddddsaipuuttq4==++Ooo&<:85wwww   ",
"            wewe53$<..oO++4=4rhtuuipasssddddddsaiiuuttqq=+=OOo.&<:85wwww   ",
"            wwwe53$<&.oO++=44rtyyiipssssddddddsaipuuyrr44+++Ooo&<:85wwww   ",
"            wwwe53$<&ooO++4=4rtyuuipasssddddddsaiiuuttrq==++Oo.&<:85wwww   ",
"            wwwe53$<&ooO++=4jrtyyiipasssddddddsaipuuytq4==+-Oo.&<:85wwww   ",
"            wwwe53$<&.oO++4=4rhyyuiaasssddddddsaiiuuttqq=+++Ooo&<:85wwww   ",
"            wewe53$<..oO++=44rtyuiipasssddddddsaipuuhrr4==++Oo.&<:85wwww   ",
"            wwwe53$<&.OO++4=4rtyyuipasssddddddsaiiuyytqq=+=OOoo&<:85wwww   ",
"            wwwe53$<&ooO++=4jrtyyiipssssddddddsaipuuttq44+++Oo.&<:85wwww   ",
"            ewwe53$<&.oO++=44rtyuuipasssddddddsaiiuuttqq==++Ooo&<:85wwww   ",
"            wwwe53$<..oO++4=4rhtyiipasssddddddsaipuuyrr4==+-Oo.&<:85wwww   ",
"          <;wwwe53$<&.oO++=4jrtyuuiaasssddddddsaiiuuttrq=+++Oo.&<:85wwww   ",
"         ...wwwe53$<&ooO++4=4rtyyiipasssddddddsaipuuytq4==++Ooo&<:85wwww   ",
"        OOoowwwe53$<&ooO++=44rtyuuipasssddddddsaiiuuttqq=+=OOo.&<:85wwww   ",
"       =+++Owwwe53$<&.oO++4=4qtyyiipssssddddddsaipuuhrr44+++Ooo&<:85wwww   ",
"      ====++wwwe53$<..oO++=44rtyuuipasssddddddsaiiuyytqq==++Oo.&<:85wwww   ",
"     qqqq44qwwwe53$<&.OO++4=jrtyyiipasssddddddsaipuuttq4==+-Oo.&<:85wwww   ",
"    qqrtrrr+wwwe53$<&ooO++=44rtyyuiaasssddddddsaiiuuttqq=+++Oo.&<:85wwww   ",
"   ktyuuuyu%ew98,$$%.ooo++===qrttuuuppadsddssaiiiuyttq44+=++Oo..%$:3796w   ",
"   ruuipiuu-ww973:<;..oO+++=44qrtyuuipaadsdsaipiuuytrq44=+++oo.&;$:859ww   ",
"  hyupaapy-Oww973:$%&.oO+++4=4qrtyuuippassaaaaiiuuytrq4=+=+OO...;$:879wl   ",
"  yuiasaurO+Ow96,:$;&.oo+++==4qrttyuiippaaaaiipuuyttrq=4=++OO..&;$,3596    ",
"  papaaiy+O++%973:$;&.ooO++==4qqryyuuiippaippiiuuyttr44=+++OO..&;$,851     ",
"  issauuy+++++@78,$<&..oO++===4qqttyuiuiiipiiiuuyytrq4==+++Oo..%<$,3z      ",
" dpssaiy.%O-====;,$<%..oO+++==44qrtyyuuuuiuiuuuyttrrq===++-oO.&%$$3        ",
" uaaspit$;.o++444@o$;&.OoO++===4qrttyyuuuuuuyuytttrq4==+++OO..X%$x         ",
" uiiiuyt$;..O+==4t4r4+...O+++===4qrrttyyyyuyyyttrrq44=+=++oo.&             ",
" ryuuyyq<;.oO+==rrtrtrrt4+O+++4=44qrtrrtyttttttrrrq==+=++j                 ",
" qqrryt4$%&oO++4qryyytyytyttr4+=@=qqqtyuqtrrrthqqq==@@@                    ",
" ==44rr4$;&oO++44ryuipiyyyuytytyq-61xcvvvbvvvv 0l                          ",
" O+++rtq$;&oo++44rtyuipppuyyuyyth*61xcnmMMmnNB 0l                          ",
" .Oo+4rq<;&.O++=4qtyuuiiiiuuuuytt-z1xNVCMZZVNB 0zj@                        ",
" @o.&%q4O$%.oO++=4rryyuuuuyyrtuuy-61xNVCMMmVNBf02.&X%                      ",
" x$<<#=4+l;..OO+=4qqrtyyyttrtq44t-z1xcVCMZmnNB 0z..%;%$                    ",
"  3,,3&@=+;%..O++=44qrrtrrtq4==++*61xcVCMMmnNBf02o.&&;<$$*                 ",
"   5999=+++O&.oO++=+q44qqq44++++O*z1xNVCMMmnNBf02Oo.&%<$::#8               ",
"     www-+O.o&&oO++=+4+oOo.oOO+OO*z1xNVCMMmnNB 02OOOOOo.&;;887             ",
"      0w#Oo.o&OOO..<;&&..o.oOOOO+*z1xcVCMMmnNBf0z++OOOoO...&%;#79          ",
"        eoOOOOOl::l<%&...o.OO++++*z1xcVCMMmnNBf02++++OO.O..o&%;<$,,        ",
"           x78,::l<%&..ooO%&&oO++*61xcVCMZmnNBfl24++O&&&&Oo..&;;$$,,87     ",
"          9583,$$<;*..o6A8:<&oO+=*z1xNVCMMmnNBf02=++o.%$:99:.&&%<$:,3759   ",
"         9573,:$$;&&.5wwe7:$&oo++*z1xcVCMMmnNBf0z@++O.;$39wwe;&&;$$,,87591 ",
"         957,,$$<%&.9wwwe7,<&.O+jlz1xcVCMMmnNBf02+o+..%$87wgeg<&%<$$,3859e1",
"       w9973,:$$;&&9wgwwe7,<;,,:$l61xcVCMZmnNBflz$$:,,8,85wwwww;&;<$,,3799w",
"       w9983,$$;%&.wewwww9ee58,::#z1xNVCMMmnNBf0z$$$,82ewwwwwwww&%<$$33759e",
"       w678,::$%%..9wgwwwww953,$$#61xcVCMZSVNBf0#<$:,379wwwwwwwg*%;$$,,859e",
"       we733:$<%&&o&ewew6wwe53::$$z1xNVCMZmncBf0%$$$,359wwewwe6o.%%<$,,879w",
"       ww98::$<%&.oOjwwewwwe583:$$<*BcbmZMmnNBf%<$$$,859wwwe6eOo.&%<$$3,9ww",
"       wwwe8#$;&..oO+-Xwgwwe58,::$l;;*@@@@@@@.%;%$$:,859wwg#%+Oo*.%;$$89wew",
"       wwww97$;&&ooOO-++=l89973::$$;;%&X.X.&%&;<<<$:385A,+-++Ooo..&;$87ewww",
"       wwww973$<%.oOO++=+=jjrrr:$$rhr;%&%&&X&.ur$#$+4rq44==+++ooo.%<:87ewww",
"       wwww97#$<&..Oo++==@4jruqttuuippppppappiiiuutttqrq4=@++++oo.%<:87ewww",
"       wwww973$l&&%<%..ooO++4rtyyiuippaaassaiiuuuuytyurtq44=+++Oo.%<:87ewww",
"       wwww97,$,,:$;&..oO+++=@44rtq@rissddaj==raaipuuyyrrq=+=+OO..&<:859www",
"       wwww67338,$l%..oO+++==44qqrtrtqrrqjjj+=@+4upiuyttr44=+++oo.&$:35ewww",
"       wwww9777,:$;&.oOO++==444qrrtttttttrrq44=++++huuyhq4=++++Oo.%<:87ewww",
"       wwww9788,$$&..oO++===4qqrtyyyyyyyttrrq4===+-Oo-ttqq==+++Oo.&<:859wew",
"       wwww928,:$<..oOO++=444qryyyuyuuuyyyttqq4=+++Ooo..444+=+O+&.&$:35ewww",
"       wwww973,$$;&.oO++===qqryyyuuiiiiiuyytrqq=4+++O..&;;.=+;858,%<:859www",
"       wwww673:#<%&.oO++==q4rtyyuiiipiiiuuyytrq4==++Oo..%$:#$$,376e9,88ewww",
"       wwww97,:$<%&.oO++=44rttyuiippapppiiuytrrq==++Ooo&%*..%;$$335ege8ewwe",
"        zww92,:$;&..OO++=44rtyuiipaaaaaapiuuytrq==+++oo.&OOo.&%<;&qq$3+,we ",
"         ww67,$<;&.oo+++4=4rtyuuppasssaapiuuytrq4=+++ooO+++OOo*rtq4=+=++w  ",
"          698,$<%&.oO++==4qrtyuipaassssappiuyttq===++oO=4+=+++yyrq===++O@  ",
"            l#$$%&.oO++==4qqtyuuppsssssspiiyytrq4=++++4q4q4=rytqq4=+++Ooo  ",
"               *%*.-O-+==4qryyuipaassssappuuyttq===++4rtrrrryyrrq===++Ooo  ",
"                  .oo++==4qttuuipassssaapiuuytrq==++qryyuuyyytrr4=+++Ooo&  ",
"                    +++=44qryuuipaasssspiiuyyrrq==++tyiiiuuuttrq4=+++Oo.&  ",
"                       =+4qryyuippasssaapiuytrrq=+=4yuppaiyytrq4=+=+Ooo&X  ",
"                         =@ttyuiipaaaaappiuyyrq===+tyipssiytrr44+=+Ooo&.*  ",
"                           ktyuuiippappiiuuyttr4=+=aaiasayytrq4=+++Oo..&<  ",
"                             khyuiupiiiiiuyytrq4=+rpsaapyyttqq==++OO..&;<  ",
"                                uuuiuuiuuyytrq4==+asdsaiyytrq==+++Oo.&%;$  ",
"                                  Ouyuyuyttrrq==+=iasspuytrq44+=+Ooo&&;$$  ",
"                                    htuqrqtrq4==++yiaiiuttrq==+++oo.&%;$*  ",
"                                       rtrrq===+++yuuuuytrq4==++Ooo&&;$$   ",
"                                         @q=4+=++-jttttttrq==+++oo.&;<$:   ",
"                                            -=+-+o=qq4rtrq4=+++Oo..%;$$    ",
"                                              ++jo++==4rrq=+=+OO..&;<:#    ",
"                                                ooOOO+Orq4=+++Oo.&%;$$     ",
"                                                  .&oo.rq=+=+Ooo.%%$$*     ",
"                                                   ;;%;q==+++oo.&%<$:      ",
"                                                   $:$,==+++Ooo&&;$:       ",
"                                                    757:@=-+O..*%<$        ",
"                                                     9w6j++Ooo.%<<         ",
"                                                      zwe$ooo.%l;          ",
"                                                        zwoo..%            "};
