/* XPM */
static char * 23VPMAG_xpm[] = {
"75 152 60 1",
" 	c #71C671C671C6",
".	c #965869A6A699",
"X	c #514400006185",
"o	c #5144082071C6",
"O	c #5144000071C6",
"+	c #5965000079E7",
"@	c #618500008617",
"#	c #6185041079E7",
"$	c #618530C271C6",
"%	c #492400005965",
"&	c #410300006185",
"*	c #618500008E38",
"=	c #492400004924",
"-	c #38E300005965",
";	c #30C200004103",
":	c #410338E34103",
">	c #30C2000038E3",
",	c #30C200004924",
"<	c #38E300004924",
"1	c #69A600008617",
"2	c #69A600008E38",
"3	c #4924000069A6",
"4	c #492400006185",
"5	c #410300005144",
"6	c #30C2000030C2",
"7	c #186100002081",
"8	c #186110401861",
"9	c #2081000030C2",
"0	c #186100001861",
"q	c #1861000028A2",
"w	c #69A600009658",
"e	c #082000000820",
"r	c #082000001040",
"t	c #71C600009658",
"y	c #69A600009E79",
"u	c #082000000000",
"i	c #71C600009E79",
"p	c #000000000820",
"a	c #79E700009E79",
"s	c #79E70000A699",
"d	c #86170000AEBA",
"f	c #86170000B6DA",
"g	c #8E380000B6DA",
"h	c #8E380000BEFB",
"j	c #9E790000CF3C",
"k	c #96580000C71B",
"l	c #96580000CF3C",
"z	c #104000002081",
"x	c #B6DAA289B6DA",
"c	c #79E771C671C6",
"v	c #C71BBEFBC71B",
"b	c #DF7DD75CE79D",
"n	c #FFFFFBEEFFFF",
"m	c #F7DEF3CEF7DE",
"M	c #38E308204103",
"N	c #5965000069A6",
"B	c #4103000038E3",
"V	c #208100001861",
"C	c #000008200000",
"Z	c #79E700009658",
"                      ..XooOOoOO+++++@+@+@+@++++++O+oOO#X$                 ",
"                    %%&OOOOoO++++@+@@@@@@@*@@@@@+@++OoOO###X =-;           ",
"              :>>,<<X&XXooOO++++@@@@*1*1*2@2@@1@@@+++++O#3OX&455,;6:       ",
"            786>,<5%&###ooO+++@@@@2*12*2*2*2*2*2@@@@+++OoooX#%-5<,6980     ",
"         880q8>><5%&X#O#+o+++@@@*2*22ww2ww2w22w2@2@@@+++OooOX#&%,<>68q0e8  ",
"        :rr789><<5&X#O#o+O+@@@@22w2wwttwttytwt2w22*1@@+++OOo##X&5<,>9q70ru ",
"       urr8766;<5%&##Ooo++@@@@2*2wwtwtitiititytw2w22@@@@++OoO#&X%<,,68q7reu",
"       prr8866,<%%X##Oo+++@@@22wwtwiiiiiaiaiiiittww22*@@++OOoOX3&5<,6688rep",
"       prr78>,<5%33#OoO++@@*22wwwitaiaisasisaiaiiww2w1*@+@+OoO##&%5,,9870re",
"       ur889>><5&X##OO++@@@2*wwtitisssssssssaisiiittw2@2@++++OOX#%-<;>887ru",
"       ur789>,5%&##OoO++@@22wwtiiisassssdsssssssaitwtw2@@@++OoO##&55,;9q7ru",
"       uur8>><-%X3#oo++@@*22wtiiisssdsfddddddsssssitww22*@++++OOXX&5,;68ruu",
"       uuur8<<%&X#Oo+++@@22wwtiisssddddfdfdfdddsssiiitw22@@++OOO#&45,,9euuu",
"       uuuur7,5#3#oo++@@@2*wtiaissdsfdfgfggfdfddssiaitw22@@@+ooOX#%-<90puuu",
"       uuupr76;<X3oO++@@@2wttissssfdfgfhghghfdgssdisiiww2@@+++OOOX&5>q7euuu",
"       upuur79>5&XOOO++*22wtiisasfdfgfhhhhhhgfgddsssiit22*1@+++OOXX,>90ppup",
"       uuupr7>>5&XOOO+@@@2wtiissdddfghhhhhhhghhffdsdssiiw22*@++oOX&<,q0euuu",
"       uuupr79>5&XOOO+@@2*wtisssdffhhhhjkkjkjkkkhhffdssitww1+@oOOXX5>87ppuu",
"       puuurq6;5%##oO++@22wtissdsgfhhkkljjkjjljkhhffdssitw2*@+OoOX&,>80ruuu",
"       uuupr76>5&XOoO++*12wtiassffghhkkjjljjjjkkhhgfdsaiiw21@++oOX&5;80puuu",
"       uupur76>5&##o+++@22wyiasddfghhkkjkjjjkjjkhhgfdssitw2@@@oOOXX,;87euuu",
"       uuup076>5&XOOO++@2*wtiassffghhkkljjjkjjlkhhgddsiswt*2@+oOoX&5>9rppup",
"        uupr76;<X&oOO++*12wtissdsgfhhkkjljjjljjhkhffdssitw2*+@oOoX&<>80ruu$",
"         per86;<XXOOO++@22wyaissffghhkkjjkjjjkjkhhfgsssiiw21@@oOoXX5>90ep  ",
"           $76;=-##Oo+@@*22itssdsgfhhhkjjjljjjlhhhgdfssitw2@@++ooX%<69zp   ",
"            u09%%3#oO++@22wtiasddfhhhkkjkjjjljjkhhgfdsaitw22@++oO#%<>0uu   ",
"            uupr>3oOO++*12wyiassffghhhkljjjkjjkkhhgfdsiswt*2@+oOoX-7puuu   ",
"            uuup79>%Oo+@2*2iiassfdghhlkljjljjjlkhhgfdssitw2@@+oO=>q8uuuu   ",
"            uuue09>5&OOO+@2wtsssdfghhlkjkjjjkljhhhgdssaiw2@OOoX&<>80uuuu   ",
"            uuuer9>5X#OO@+*2wiassffghlkjljjkjkkhhfdssii22@@+ooO4<,70puuu   ",
"            upup7q,5&OOO+@1w2iissfdhhhkjjkjjljkhgfsdsii22@@OOOX&<,80uupu   ",
"            uuue09>5X#OO+@@t2iasddfhhhjkjjjljkkhffdssiiw2@@+OoXX5>q0puuu   ",
"            uuup7q,5&OOO+@12wiissfgghkkjjljjkjhhhfdssitw2@@O+o#&<>80uuuu   ",
"            uuue09>5X##++@@w2isssfdhhhljljjkjlkhgfdssii22@@+Oo#&5>q0puuu   ",
"            upuer9,<##Oo@+22wtsssffghkkjjjkjljhhgfdssiit*1@+oo#&<,70puuu   ",
"            uuup78,5&OOo@+*2wiassfdhhkljjkjjlkkhhfdssitw2@@O+OXX5>q0puuu   ",
"            uuuer9>5&OOO+@@2wtsssfdhhhkjjjljjkkhffdssii#*1@+oo#&<>80puuu   ",
"            uuue09>5X#Oo+@@w2iassfgghkljkjjkjlkhhgdssitw2*++OoO%5>q0uuuu   ",
"            upup7q,5&OOO+@*2wiassfdhhkkjjjjljkjhgfdssii#*1@+ooX&5>q0puuu   ",
"            uuuer9,<##Oo+@@2wtsssfgghhjljkjjljhhgfdssiiw2@@+OoO4<,77uupu   ",
"            uuup78,=&OOO+@@w2isssfdhhkkjjjljkjkhhfdssitt*1@O+OX&5>q0puuu   ",
"            uuue09>5&OOO+@@2wiassfdhhhjkjjjkjkkhffdssii22@@+ooXX<>80uuuu   ",
"            upuer9>5X#Oo+@*2wtsssfgghhjjkjjljlkhhfdssitt*2++Oo#&5>q0puuu   ",
"            uuup7q,5&OOO+@@2wiassfdhhkkjjljjkjhhhfdssii22@@+Oo#&<,70puuu   ",
"            uuue09>5X##++@@t2iassfgghkkjjjkjlkkhffdssitt*2+++OXX<>q0puuu   ",
"            uuuer9>5&oOo@+*2wiassffghkljkjjljkkhhfdssii22@@+Oo#&<,80uupu   ",
"            upup7q,5X#Oo+@@2wtsssfgghhjjljjjljkhhfdssitt*2++Oo#X<>q0puuu   ",
"            uuue09>53#Oo@+22wiassffghkkjjkjkjkkhffdssii22@@+Oo#&<,70puuu   ",
"            uuup7q,=&#oO+@@2wiassfgghkkjjjjljkkhhfdssiiw2@@+Oo#&<,80uuuu   ",
"            uuue09>5&OOO@+22wtsssfdhhhljjljjljkhgfdssitw2@@O+OXX5>q0puuu   ",
"            upuer9,<##Oo+@@w2iassfgghhjkjjkjkkkhffdssii22@@+Oo#&<>80uupu   ",
"            uuup78,5&OOO+@12wiassffghkljjkjjljkhhgdssiiw2@@+Oo#&5>q0puuu   ",
"            uuuer9>5X##++@@w2isssfdhhhjkjjjljkkhffdssitt*1@O+OX&5>80puuu   ",
"            uuue09>5&oOO+@22wtsssfgghkljjljjkjhhhfdssitw2@@+Oo#&<,70uuuu   ",
"            upup7q,5X#Oo@+12wiassfdhhkkjjjkjljkhgfdssitt*1@+oo#X<>q0puuu   ",
"            uuuer9,<##Oo+@*2wiassgfghkkjkjjljkkhhfdssitw2@@+OoX&5>87uuuu   ",
"            uuup78,<X#O++@@2wtsssfdhhkkjjjjkjkkhffdssii#*1@+oo#&5>q0puuu   ",
"            uuue09>53#Oo@+22wiassfgghhjljljjljkhhgdssitw2*++OoO4<,70uupu   ",
"            upuer9>5X#Oo+@@2wiassfdhhkjjkjjkjkkhhfsssii#*1@+ooX&5>q0puuu   ",
"            uuup7q,5&oOo@+22wtsssfgghkkjljjjljhhgfdssiiw2@@+OoO4<,77uuuu   ",
"            uuue09>5X#Oo+@@w2iassffghkkjjjljkkkhffdssii#*1@+ooXX,,80uuuu   ",
"            uuuer9>53#O++@@2wiasddfhhhljjkjjljkhhfdssitw2*++Oo#&<;70pupu   ",
"            upup7q,5&OOO+@22wiassffghkkjjjkjljhhhfdssii#*1@+ooO4<,80uuuu   ",
"            uuue09>5X##++@@2wtsssfdhhkjljkjjkkkhffdssiiw2@@+OoXX<>q0puuu   ",
"            uuup7q,5&oOo+@@w2isssfgghkkjjjljjlkhhfdssitt*1@O+OX&5>q0uuuu   ",
"            uuue09>5X#oO@+22wtsasfdhhhljjkjjljhhhfdssii22@@+oo#&<,77upuu   ",
"            upuer9,<##Oo+@@#wiassfgghhjkjjljkjkhgfdssitw2*++OoO4<,80uuuu   ",
"            uuup78,5&OOO@+22wiassffghkkjjjjljkkhffdssii22@@+OoX&5>q0puuu   ",
"            uuuer9>5&OOO+@@w2iassfgghkkjjkjjljhhhgsdiaiw2@@+OoO4<>80uuuu   ",
"            uuue09>5X#Oo+@@2wiassffhhkkjljjkjkkhgfdssitw2@@O+OX&=>q0pupu   ",
"            upup7q,5&OOO+@*2wiassfgghhjjljjljkkhffdssiiw2@@+OoX&5>q0puuu   ",
"            uuuer9,<##Oo+@@2wtsssffghkkjjkjjljkhhgdssii22@@+OoO4<>q0uuuu   ",
"            uuup78,=&OOO+@@w2isssfdhhhjljjjkjkkhffdssitt*2++OoX&5>q0puuu   ",
"            uuue09>5&OOO+@@2wiassfgghkkjjkjjljhhhfdssii22@@+OoO4<,80puuu   ",
"            ppuer9>5X#Oo+@*2wtsssfdhhkljkjjljkkhhfsssiit*1@+OoX&5>q0uuuu   ",
"            puup7q,5&OOO+@@2wiassffghkkjjjljkjkhgfdssii22@@+Oo#&<,70puuu   ",
"            uuue09>5X##++@1w2iassfdhhkkjjljjlkkhffdssitt*2++OoO4<;80puuu   ",
"        . #&uuuer9>5&oOo@+22wiassfgghkkjjjkjjkkhhfdssii22@@+OoX&5>q0uupu   ",
"        OoOouuup7q,5X#Oo+@@2wtsssffhhkkjkjjkjlkhgfdssiit*1@+Oo#X,,70puuu   ",
"      .$@+@ouuue09>5&oOO@+22wiassfgghkjjljjjljhhffdssii22@@+Oo#&<,80uuuu   ",
"     .2**2O@uuuer9,<###++@@2wiassffghhkjjljkjkkhhfdssitt*2++Oo#&=>q0puuu   ",
"     2iit22yuuuer9>5X#Oo+@@w2iassfgghkljjjjljkkhhfddsii22@@+Oo#&<>80uuuu   ",
"    iaaiaiw@uuuer9>53#Oo@+22wtsssffghkkjjkjjljkhgfdssitw2@@+OoO4<,70pupu   ",
"    asdsdss%uerq9>5-XOOo++@*2tiissddfhhhkljkhhhdfdaiii222@++OoXX%,,8qreu   ",
"   ssfdgfdi@upr79><%3#OO++@2*wtisssfgghhkkkkhhhfddsiitw2*@++ooX&%,>q8ruu   ",
"  isfghhfd++upr79>,%&OOO++@@2wtiisdsfhghhkhhhhgfsdisit2*1@+OooO45,>87ru:   ",
"  dsghhjfiO+$ue7965-X#OOO+@1*twiassdfgfhhhhhhgfddssiiw22*+++oOX%5,>9rer    ",
"  fhhhhssO++@5rrq>,%&OXOO@+2*2wiiasddffghghhfgfdssiai222@@+oOOX&5>>q0:     ",
" .hkkhfsi++@@*+q8;,5%##o++@@@wwtiissdddffgffgsfsssiitw2*@++OoO4%5>>q8      ",
" .hjhhfsO5O+*1*259><&X##o++@1*wwtiasssddfsfddfsssaitw22@@++O#O45,,9        ",
" fdhhhdi,5#O+@*22.O<%&#oO++@@222tiiisssdsfsdsdssiiiw22*@++OoOX%&,$         ",
" ddgfdss<%X#o+222y#i*+OOOOO@+*22wtiiasssssdsssaiiitw2*1@++O#oX$            ",
" tsssds25-#oO@@*iaiiaiai1@++@+**2wwtiiaissasisiitw2w2@@+++.                ",
" *tiaisw,%XOo+@wtissssisssiit*22*2wwtyiiaiaitiytww12.$$                    ",
" @#w*isw;5XOo+@2wisdfgfsssdsssiis#8:.x..xx....c::                          ",
" +++@tat<-X#o+@2wiasdfhggsdsssssi$8:.xvbnnbvv.c::                          ",
" OOOO2ya5-&OoO@*2tissffgffddssdas#8$.xvbnmbvxxc:MO$                        ",
" %3X&Xw*O<%#Oo+@*wtissdsdsssissss$8:.xvbmnbvxxc:8OXX%                      ",
" .5-5>t22,%&OO++*2wiisssssaiiw22s$8:.xvbnnbvxxc:MOXM-5,                    ",
"  966M&2@@&4X#+++*2wtitiiiitw*@@+M8:.xvbnnbvx.c:8O#&X-5,,:                 ",
"   80rew$++O###++@@@2wwti2w22@+++M8:.xvbnnbvxxc:8OO#&%<,,>6q               ",
"    uuuu@+oOX&Xo ++@2*+oOoOXoO+O+M8:.xvbnnbvvx$:M++ooooO4%-878             ",
"     :ue9oOOO4   XX55%&OXOOOOO+++M8:.xvbnmbvxxc:8++++ooNX##&4=<7r          ",
"        pOoO . M;5<-&XX##oOO+++++M8$.xvbmnbvxxc:M@+++O+OoOOX&%,5<66        ",
"           c876M,,=5X3#O#o4%XOo+@M8:.xvbnnbvxx$:8w@+oO44XO#X#&X<,,>977     ",
"          r8886;,=5#3&&Or8>5&oO+1M8:.xvbnnbvx.c:M*@oO#%,677O#&%5-<>>q80r   ",
"        ce0789>,<5&#X9pee7><&OO+@M8:.xvbnmbvvxc:M1@+o#-,90eu7X3&5<,>9q7rr: ",
"        rr7766,<<%&#ruupe7><%#o+@M8:.xvbnnbvxxc:8oO+OX%,8ruupu,O55,>6970re:",
"       urr8866,<5&X0upuue06<-#;BBM8:.xvbnnbvvx$:8BB>697670puuuuM%5,,66q70pe",
"       prr88>;<5%&#upuuupreerV9>>M8$.xvbnnbvxxc:8B;696reuuuuuupC&%5,;6870ru",
"       u00q66;<5&X#ppuuuuuup086B>M8:.xvbnmbvvxc:M<6B9V7euuuuuuuuO%-<,6978ee",
"       ur786;;=-XX#Muppuuuuer69>6B8:.xvbnnbvx.c:=BB;66reuuppup7OX%-<,69770u",
"       uur96;<5%&#O4+upupuup0V9>>BB:.xvbnmmvxx:=B<>>6V8eupuuerOX3&4<<;680uu",
"      cuuueq,<5&X#O++@3Cruup0766BBB=M$$$$$$$$M=BBB;6980euupM4OOOO445,;8euuu",
"      cuuupr8;5X3#OOO++*@99prV96BB<B=M%MMMMMMM==<B6>6Vr885*+++OOXX%-;88euuu",
"      cuuupr89><&#ooO@+@22*t#t#;;B%#X5=MMMMM==B=>;B+Ziw#**@++OOOOX&=>87epuu",
"      cupuur7>>5&X#o+++@@22wiiissdsffghhhhghfhdfssssiiw2*1@@@+oOOX&<>87euuu",
"      cuuupr79>5%3#5%&OOOo++*iasdffdghhhhhhhhfhfdsssaisitw2*@++oOXX5>9reuuu",
"      cuuupr76,<>>,5&OXoO++@@@*2wstwifhjkjhi1@thhggddssitw21@++OOX&<>80ppuu",
"      cuuupr76686>5-OXoO++@@22wwwtwitiiyty222@@@*fffsssitww@@++oOX&<,80ruuu",
"      cupuur7879><-X##o++@@22wtttiaisiisitwtw22@@+Oidssii#*2@+OOoXX5>q7euuu",
"      cuuupr787>>5&X#oo+@@@2wwtiissssssssiitww2@@+$$o@iaww21@++oOX&,,80puuu",
"      cuuupr886>,5&#Oo++@@2wttisssdsdsdsssaiiw22@@+++OXO*t*1@@+oOX%5>90euup",
"      cuuupr786,,5X#Oo++@*2wtisssddfdfsfdssiitw2*@++oOX&55o2+5q079&<6q0ppuu",
"      cupuur78>,<%&##++@*22tiissdfdffgfddsdsiitw2@@+OOXX-<>,5>>q77ur99reuuu",
"       puupr89>,5&X#Oo+@@2wiisdsfgfhhghffdsssti22*+++OOX&%#M-%,,97quupruuup",
"        uuur76,,5&XOoO+@*2wiassfgfhhhhhhgddssii222@++OX#XO#O#35<5&t2>6+epu ",
"         uu07>>=5&##+++@2*#iisddfhhhkhhhgffdistww1@@ooOo+++ooO&2sww2*+@Ou  ",
"           r7>,<%&OOo++@*2wisssfghhklkkhhfddsiiww2@++OO2*@@@+2sitw22@@oo.  ",
"             M>5%3XoO+@@2wtiasddfhhkkkkhhffssiitw2@+++w2t22*@aiitw2@+@OOO  ",
"               $MX#+o@+2*wtissdfghhklkkhhgdsssiw22@++2iiiiitisiiw2*@@+o+X  ",
"                  #o+@+222iissdfghhkjkhhffdssitw2@@+2isdssssssit22@@+ooOO. ",
"                    $+@@2wiissdfhhhkljhhgfsdaiiw22@+isddfsdssitw2@@@o+OX4  ",
"                      $*@2taidsfghhkkhkhgfdsiitw2@+2sdfhhgssaiw22@@+OoOX%  ",
"                        $2yissddfghhhhhhgddssiw2@@@ssfhhhfssitw2@@++oOXX-  ",
"                           aisdsfghghhhgdsdsiai2@@*hgghjhssiit*2@+++OX#-5  ",
"                             .idsdfhfgffddssiiw22@ighhhfsssitw2@@++oOX&%,  ",
"                                ssddfdddssssiww2@@ghllhfssitw2*@++oOXX&5,  ",
"                                  ssdsdsssiii#w2@@fhhkhsssitw2@@+OoOX&55,  ",
"                                    sfisiya#tw2@@+shhhfdiay222@++OoXX&5,$  ",
"                                       iiiwt2*2@++sdsfsssiww2@+++OOX&5,,   ",
"                                         w$.*1@@++2aisisitw2@@++OOX&%5,;   ",
"                                           w1@@++o*twwiittw@@@++OX#%<,>    ",
"                                              @o+O+@*@2ay22@@++OOX&-5>;    ",
"                                                O#oO+++it2*@@+ooO4%5,,     ",
"                                                  X#OOXy22@@++OOX%-56$     ",
"                                                    %&%w*1@++OOX&%5,,      ",
"                                                    >,6$2*@+ooOX&-<,.      ",
"                                                    q78>.+@oOOXX%<,$       ",
"                                                     epuOo1OoOX-5,.        ",
"                                                      8up<OoOX%%$          ",
"                                                        :uOoX#             "};
