/* XPM */
static char * 00FLTWHT_xpm[] = {
"75 93 48 1",
" 	c #71C675D671C6",
".	c #E79DE79DE79D",
"X	c #C71BC71BC71B",
"o	c #C71BBEFBC71B",
"O	c #D75CD75CD75C",
"+	c #D75CCF3CD75C",
"@	c #CF3CCF3CCF3C",
"#	c #BEFBBEFBBEFB",
"$	c #BEFBB6DABEFB",
"%	c #AEBAA699AEBA",
"&	c #AEBAAEBAAEBA",
"*	c #B6DAB6DAB6DA",
"=	c #71C671C671C6",
"-	c #69A669A669A6",
";	c #69A6618569A6",
":	c #618561856185",
">	c #596559655965",
",	c #410341034103",
"<	c #514451445144",
"1	c #618559656185",
"2	c #965896589658",
"3	c #B6DAAEBAB6DA",
"4	c #A699A699A699",
"5	c #9E7996589E79",
"6	c #9E799E799E79",
"7	c #30C230C230C2",
"8	c #28A228A228A2",
"9	c #186118611861",
"0	c #79E779E779E7",
"q	c #A6999E79A699",
"w	c #8E388E388E38",
"e	c #410338E34103",
"r	c #492449244924",
"t	c #208120812081",
"y	c #186110401861",
"u	c #71C669A671C6",
"i	c #596551445965",
"p	c #861786178617",
"a	c #79E771C679E7",
"s	c #DF7DD75CDF7D",
"d	c #E79DDF7DE79D",
"f	c #EFBEE79DEFBE",
"g	c #EFBEEFBEEFBE",
"h	c #DF7DDF7DDF7D",
"j	c #FFFFFFFFFFFF",
"k	c #FFFFF7DEFFFF",
"l	c #F7DEF7DEF7DE",
"z	c #F7DEEFBEF7DE",
"                        .XXoXXO+OXX+O+OO+@XXO+@+XX#X                       ",
"                    X$%&*$o*=-;;:>,>>>>>>>><1;::-2#o*3&4o#                 ",
"                 %4564&2777899999999999999999999988770&%666q#              ",
"               26526w09999999999999999999999999999999997w252264            ",
"             425266=8999999999999999999999999999999999999<56526qX          ",
"            452665we999999999999999999999999999999999999995265262*         ",
"            5266522r9999999999999t9t99t99ty9t9ty99999999y956566266         ",
"            5652665-,99999t9tyt999y999y99y999y99t9t9ty997u56526565         ",
"            562656265uit99y999y9ty9tyt9tyt9ty9ty99y999eupq52665266         ",
"            565266264%4%&p7y99ty9ty999y999y99999y9ti%%%%q656526656         ",
"            52665265443*#oo++o5>eeereerereerera$++oX$$&%4665265266         ",
"            652652666%&&##XX+Ossd...fgfgff.ddds++XXoo*&%4652665626         ",
"            5266644q64&3*#XX+XsOhhdd...f..ddhOO+X+Xo**&%64&4656266         ",
"            2652643*XX3&##oXXO+Oshhh.d..ddhhsO+@XXXo**3XX#*%426565         ",
"            56266%&#XXXOOOO++OOshh.hd.hhdhhdhhOhOXOOO+XXXo*&q26626         ",
"            56266%*$XXO+OOshhd...ggggggggffgff.h.hssO@O+XX*%426565         ",
"            6526643*XX+@OOshhd..ffggjkkjgjfggf..hhsOOOX+X#*&q62656         ",
"65265       q26564&#oXOXsOshhd...gggkgjgkgggf...hhsOO+OXXo*442656*         ",
"56626        652643*XX+O+OOhhh...fgggkgkfgggf...hhsOO+XXXo*4q626X    265626",
"464q6          264&$#X+XOOsOdh.d.ffggggggggff..hhshOOXOXX#3&66&      64q64q",
"*3*&*            4**#X+XOOOOhhhd..fgfgggggff..h.sOsO+OX+o*#&         3&*3&*",
"o#o#X              *33XXO+OOshhd....gfffff...h.hsOOOX+X#*4           #o#X#o",
"XOXOX              *52%*#oXsOhhdh.....f.f....hhhOs@Xo*&662           X+XXOX",
"hOsOO              $26643*XXOsh..fgjggf..glff.hhOXXo*44256           sOhhOs",
"dh.hd              &626%&#XXOsh..gjkjjjjjjlgg..OO+X#*&6526           hdhh.h",
"f.f.f.&665266656665626643*XXOsh..gkjjjjjjjggg.dh+XXo*4q26656656266656d.f.f.",
"ggggggX*****3***3**#o4643*X++Oh..gkgjjjjjjjgg.dOOOXo*%66*o**3*****3**fggggg",
"jjjjjjsO+O+O+O+OO+@O+X4q&#XXOsh..gkjjjjjjkkgf..sOXX#*%6o@OO+@OO+O+O+Ogjjjjj",
"jjjjjkf.............hO*%&#oXOsh..gkjjjjjkjggg.dOO+Xo*44Xd............jjjjjj",
"jjjjjjjkgjkgjkgjkgjgfh#43*X+OOhdfgkljjjjjjjgf..sOXXo*44O.fjgjjkjgjjgjjjjjjj",
"jjjjjkjjjjjjjjjjjjjkfh#4&$XXOOd..gkjjjjkjjggg.dOOOX#*%6h.gjjjjjjjjjjjkjjjkj",
"jjkjkjgkgkgjgkgkgkgg.h$4&$XXOsh..gkljjjjjjkgg.dhOXXo*44Odflgjgkgkgkgkljkjkj",
"gggggg.dh.hhdh.hdh.hs@*43*XXOsh..gkjjjjjjkgkf.hh++X#*%6Xhh.hdhdhh.hdhgggggg",
"ffffffOXXXXXXXXXXXX+XXq4&#XXsOh..gkljjjjkjjff.hhOXXo*4q&X+XXXXXXXXXXXffffff",
".h.h.h*&%&%&&%&%&&%&*2643*X+Xhhdfgkjjjjjjjgggfhh+OX#*%664*4&%&&%&&%&&sh.h.h",
"sOOhOO*3*&***3***3&26564&#XXshh..gkljjjjkjjgf..sOXXo*4425263**3****3*OOOhOO",
"XOXOX              &26643*X+XhhdfgljjjjjjjgggfhhOXXo*4q626           +XOX+X",
"XXoXo              *65643*XXshh..gkjjjjkjjkgg.dOOOX#*%6662           XXoXXX",
"*3*&*              $26643*X+Xhhdfggjjjkjjjggg.dhOXXo*44256           3&*3&*",
"4q64q              #526%&#XXsOd..gjjjkjjjjkgg.dOO+X#*%6652           q644q6",
"52665              326643*XXOsh..gkgjjjjjjkgf..sOXXo*%6665           265266",
"65262              *65643*X+OOh..gkjjjjjjklgffhhOXXo*44262           256262",
"                   $26643*XXOsh..gkjjjjjjjggg..OO+X#*&6565                 ",
"                   $626%&#XXOsh..gkgjjjjkjjgg.dsOXXo*4q265                 ",
"                   *25643*X++Oh..gkjjjjjjjkgf.dOOOXo*%6662                 ",
"                   *56643*XXOsh..zkjjjjkjjggg.dhOXX#*%6652                 ",
"                   $2654**X++Oh..gkljjjjjjkgffhhOXXo*44265                 ",
"                   *526%&#XXOOd..gkjjjjjjkggg..OO+Xo*4q626                 ",
"                   $26643*XXOsh..gkljjjjkjjgg.dh+XXo*44265                 ",
"                   $26643*X++Od..gkjjjjkjjgkf.hhO+X#*&6562                 ",
"                   *65643*XXOsh..gkgjjjjjjkgf..OOXXo*4q265                 ",
"                   $26643*X++Oh..gkjjjjjjjggffhh+OX#*%6662                 ",
"                   $626%&$XXOOd..gkjjjjjkjkgg..OOXXo*44265                 ",
"                   *56643*XXOsh..gkljjjjjjggg.dhO+X#*%6652                 ",
"                   $2654&#XXOsh..gkjjjjkjjkgg.dOOXXo*%6656                 ",
"                   $626%&#oXOsh..gkgjjjjjkjfffhhO+X#*%6662                 ",
"                   *26643*X+OOh..gkjjjjjjjggg..OOXXo*44256                 ",
"                   $26543*XXOsh..gkjjjjjkjkgg..sO+X#*&6562                 ",
"                   $626%&#XXOsh..gkkjjjkjjggg.dOOXXo*4q265                 ",
"                   *2564**X++Oh..gkjjjjjjjjgg.dhO+X#*%4265                 ",
"                   *56643*XXOsh..zkgjjjjjkgk..dOOXXo*4q626                 ",
"                   $2664&$XXOsh..gkjjjjjkjjff..OO+X#*&6652                 ",
"                   *526%&#XXsOh..gkjjjjkjjgggfhhOXXo*4q266                 ",
"                   $26643*X+Xhhdggkgjjjjjjkgf..OO+Xo*%6652                 ",
"                   $26643*XXshh..gkjjjjjjjkgf..OO+X#*44265                 ",
"                   *26643*X+Xhhdfggjjjjjkjgggfhh+XXo*%6652                 ",
"                   $26543*XXshh..gjkjjjkjjjgf..OOOX#*%6662                 ",
"                   $626%&#XXOshdfggjjjjjjjkgf.dOO+X#*%6656                 ",
"                   *26643*X++Oh.fgjkjjjjjkgggfhhOXXo*44262                 ",
"                   *55643*XXOsh..ggjjjjjkjjgf..OO+X#*&6565                 ",
"                   $2664&#XXOsh..gjkjjjjjjgggfhhOXXo*4q265                 ",
"                   *526%&#oXsOh..gkjjjjjkjkgg.dOO+X#*%6662                 ",
"                   $26643*X+@hhdfgkljjjjjjgkf.hhOXXo*&6652                 ",
"                   $26643*XXOsh.fggjjjjjkjkgf.hhO+Xo*4q265                 ",
"                   *26643*X++Oh..gjjjjjkjjgggfhhOXX#*%6662                 ",
"                   $26543*XXOhh..gkkjjjjjjkgf..sO+Xo*44265                 ",
"                   $626%&#XXOshdfgkljjjjjklggfhOOXX#*&6562                 ",
"                   *26643*X++Oh.fgljjjjjkjlgg..hO+Xo*4q265                 ",
"                   *55643*XXOsh..gkjjjjjjjgkf.hh+XXo*44526                 ",
"                   32664&#XXOsh..gkljjjjkjkgf.hhO+X#*&6652                 ",
"                   2626q&*oX+Osh..ggjkjgjggf..hOXXX$*q6626                 ",
"                   &5266&3#XXOOOd..ggkgjgggfhhO+OXo*&42656                 ",
"                   *652q4*$XX+Osh...ggjggg..dhO+XXo*&66526                 ",
"                   o265643*XXO+Ohh..gggggf.dhhOX+X#3442664                 ",
"                    45264&##X+Xhsh...fgf..ddhOOXXX$&&6562                  ",
"                    36654%*#X++OOhhd....d.dhOO++XX*&4656$                  ",
"                     32664**oXXOOsshhdhd.hhsO+XXX#3&q62$                   ",
"                      #564%*#XX+@OOhshhhsOsOXOXXo*&%66#                    ",
"                       h26%&$#XX+@O+OOhOsOOXOXXX$*%66X                     ",
"                         &4%&##oXXOXOO+OXO+X+XX$*&4&*                      ",
"                           XX&$#XXX+X+XOX+XXXo**3XX                        ",
"                              X$#oXXXX+XXXXX$*#d                           ",
"                                  ##oXXoX##.                               "};
