/* XPM */
static char * 23FLTWHT_xpm[] = {
"75 86 51 1",
" 	c #71C671C671C6",
".	c #861779E78617",
"X	c #79E779E779E7",
"o	c #861786178617",
"O	c #8E388E388E38",
"+	c #96588E389658",
"@	c #965896589658",
"#	c #9E799E799E79",
"$	c #A6999E79A699",
"%	c #A699A699A699",
"&	c #9E7996589E79",
"*	c #79E771C679E7",
"=	c #618561856185",
"-	c #596559655965",
";	c #69A669A669A6",
":	c #AEBAA699AEBA",
">	c #AEBAAEBAAEBA",
",	c #596551445965",
"<	c #28A2208128A2",
"1	c #38E338E338E3",
"2	c #492441034924",
"3	c #B6DAAEBAB6DA",
"4	c #30C230C230C2",
"5	c #104008201040",
"6	c #208120812081",
"7	c #30C228A230C2",
"8	c #514451445144",
"9	c #71C669A671C6",
"0	c #8E3886178E38",
"q	c #B6DAB6DAB6DA",
"w	c #BEFBB6DABEFB",
"e	c #000000000000",
"r	c #186118611861",
"t	c #C71BC71BC71B",
"y	c #BEFBBEFBBEFB",
"u	c #618559656185",
"i	c #082008200820",
"p	c #CF3CCF3CCF3C",
"a	c #CF3CC71BCF3C",
"s	c #410341034103",
"d	c #492449244924",
"f	c #D75CD75CD75C",
"g	c #DF7DD75CDF7D",
"h	c #E79DDF7DE79D",
"j	c #E79DE79DE79D",
"k	c #DF7DDF7DDF7D",
"l	c #104010401040",
"z	c #F7DEEFBEF7DE",
"x	c #FFFFFFFFFFFF",
"c	c #EFBEEFBEEFBE",
"v	c #F7DEF7DEF7DE",
"                      .XoO+O@###$#%$#%##&@@OO.Xo                           ",
"                 *=-; ooO+@#&#%%%:%>%%%$$#&@OOo. ;,=X                      ",
"               <12-= .oO+@##%%:>>3>3>3>>%%##@+Oo. =,24<                    ",
"             56718-9Xo0O@#$%%>3qqqwqwqq>>:%##@O0oX --1465                  ",
"            er<12-=*XOO@#$%>>3qwwtwtwwwqq>:%##@O0o ;-24<re                 ",
"            56718- XoO@&#%>3qwyttttttttwwq>>%$@@OoX u8176i=                ",
"            5642-=X.0O@#%:>qwyttpppppattwwq>:%#@O0o*=-s465X                ",
"            er4d-;XoO@&$%>qwytpppffffppptwwq>%$#+OoX9-24reX                ",
"            ee58- X0O@#%:>wytapffgggggfpptww>>$#@Oo. --5eeX                ",
"            ee5<1;X0O&#%>qwttpffhhhjhkgfpttwq>%#&+Oo987leeX                ",
"            ee5<s-Xo+@#%3qwtppfhhjjjjhkffpywq3>%#@Oo 84reeX                ",
"            ee5<s-XoO&#:>wyppghjzxxzzcxzjhfptwq%$@Oo 84leeX                ",
"            ee5<s-Xo+@$%qqttpghjzxxxxxxjjhfptwq%$@Oo 84leeX                ",
"            ee5<s-XoO@$%qqyppgkjzxxxxxxzjhfptwq%%@Oo 84leeX                ",
"            ee5<s-X0O&#:>wttpghczxxxxxxzjhfptwq:#@Oo 84lee                 ",
"             2i6s-Xo+@$%qqyppghjzxxxxxvzjhfptwq%$@Oo 84l4                  ",
"               5s-XoO@%%3qtapgkjzxxxxxxzjhfptwq%%@Oo 84e                   ",
"               eel .O&#:>wwppghczxxxxxvzjhfptwq:#&O.;5ee                   ",
"               eee<8=0@#>wyppgkjzxxxxxxcjhfptwq$@O 875ee                   ",
"               eei<2;.O@%>qwpfgjzxxxxxcchgptq>%#Oo 87iee                   ",
"               eee<d=oO@%:qttfgjzxxxxxzjhfpyw>%&Oo 875ee                   ",
"               eei<2;oO@$>qwpphjzxxxxxzjhfptw>%&Oo 87iee                   ",
"               eee<d=oO&%:qtafgjzxxxxxzjhfpyw>%@Oo 875ee                   ",
"               eei<2;oO@%:qwpphjzxxxxxzjhfptw>%&Oo 87iee                   ",
"               eee<d=oO@$>qtafgjzxxxxxzjhfpyw>%&Oo 875ee                   ",
"               eei<2;oO@%:qwpphjzxxxxxzjhfptw>%&Oo 87iee                   ",
"               eee<d=oO&%:qtafgjzxxxxxzjhfpyw>%@+o 875ee                   ",
"               eei<2;oO@$>qwpfgjzxxxxxzjhfptw>%&Oo 87iee                   ",
"               eee<d=oO@%:qttfgjzxxxxxzjhfpyw>%&Oo 875ee                   ",
"               eei<2;oO@%:qwpphjzxxxxxzjhfptw>%@Oo 87iee                   ",
"               eee<d=oO&$>qtafgjzxxxxxzjhfpyw>%&Oo 875ee                   ",
"               eei<2;oO@%:qwpphjzxxxxxzjhfptw>%&Oo 87iee                   ",
"               eee<d=oO@%:qtafgjzxxxxxzjhfpyw>%&Oo 875ee                   ",
"               eei<2;oO@$>qwpfgjzxxxxxzjhfptw>%@+o 87iee                   ",
"               eee<d=oO&%:qttfgjzxxxxxzjhfpyw>%&Oo 875ee                   ",
"               eei<2;oO@%:qwpphjzxxxxxzjhfptw>%&Oo 87iee                   ",
"               eee<d=oO@$>qtafgjzxxxxxzjhfpyw>%@Oo 875ee                   ",
"               eei<2;oO@%:qwpphjzxxxxxzjhfptw>%&Oo 87iee                   ",
"               eee<d=oO&%:qtafgjzxxxxxzjhfpyw>%&Oo 875eer<4188             ",
"               eei<2;oO@$>qwpfgjzxxxxxzjhfptw>%&Oo 87iee<1d--9             ",
"               eee<d=oO@%:qttfgjzxxxxxzjhfpyw>%@+o 875ee3=-9 .oO           ",
"               eei<2;oO@%:qwpphjzxxxxxzjhfptw>%&Oo 87ieewtaooO+@@@         ",
"               eee<d=oO&$>qtafgjzxxxxxzjhfpyw>%&Oo 875eewwtp>@#%$%         ",
"               eei<2;oO@%:qwpphjzxxxxxzjhfptw>%@Oo 87ieeqwttpt:>>3>        ",
"               eee<d=oO@%:qtafgjzxxxxxzjhfpyw>%&Oo 875eeqqwtppwwwwqw       ",
"               eei<2;oO@$>qwpfgjzxxxxxzjhfptw>%&Oo 87iee;qwttpftptttp      ",
"               eee<d=oO&%:qttfgjzxxxxxzjhfpyw>%&Oo 875ee289wttfffffpt      ",
"               eei<2;oO@%:qwpphjzxxxxxzjhfptw>%@+o 87iee=  @ytppghgfpa     ",
"               eee<d=oO@$>qtafgjzxxxxxzjhfpyw>%&Oo 875eeo0O0#ttpfcjhfp     ",
"               eei<2;oO@%:qwpphjzxxxxxzjhfptw>%&Oo 87iee@####3tpphcghkj    ",
"               eee<d=oO&%:qtafgjzxxxxxzjhfpyw>%@Oo 875ee%>3>>%yapfgjzcj    ",
"               eei<2;oO@$>qwpfgjzxxxxxzjhfptw>%&Oo 87ieeqwtww3wtapgcxzh    ",
"               eee<d=oO@%:qttfgjzxxxxxzjhfpyw>%&Oo 875eetpfgpq>wtpfjjjg    ",
"               eei<2;oO@%:qwpphjzxxxxxzjhfptw>%&Oo 87ieefvzkpq%wttpfhgf    ",
"               eee<d=oO&$>qtafgjzxxxxxzjhfpyw>%@+o 875eehjjgpq#wytpappt    ",
"               eei<2;oO@%:qwpphjzxxxxxzjhfptw>%&Oo 87ieefggpw>$qwttwwwq    ",
"               eee<d=oO@%:qtafgjzxxxxxzjhfpyw>%&Oo 875eewttw>%Oqqwtq>>>    ",
"               eei<2;oO@$>qwpfgjzxxxxxzjhfptw>%@Oo 87iee>3>%%@@>qwtq##&    ",
"       rr<4s-  eee<d=oO&%:qttfgjzxxxxxzjhfpyw>%&Oo 875ee@#&@O.%:>ww>OO0    ",
"    @e56<188u9o5ee<d;.O@%:qwpphjzxxxxxzjhfptw>%&Oo 87ieeo0o.X@%%>qwXX*     ",
"   :9#w>o8-9XXoore<2;oO@%:qtafgjzxxxxxzjhfpyw>%&Oo 875eeu=9o@@#%:>w--,X    ",
"  ##%>qqyt%.oO+@@s41,oO@$>qwpfgjzxxxxxzjhfptw>%@+o 87iee2 ooO@&#%>-111     ",
" @@#$>>qwttp+@#%$#--= 0@%:qttfgjzxxxxxzjhfpyw>%&Oo 875ee= *o0O@#%%rlr      ",
" 0@@#%:qqwtaf%:>>3%Xooo@%:qwpphjzxxxxxzjhfptw>%&Oo 87iee ; XoO+##6ee       ",
" 0O&#$%>qwttppqwwww%&@@@%:qtafgjzxxxxxzjhfpyw>%@Oo 875ee  9*o0O@ie         ",
"Xo0O&#%:>wwttpptptpw>>%$%:qwpfgjzxxxxxzjhfptw>%&Oo 87iee                   ",
"*XOO@&#%>qwwtppfffppwwq3#>qtafgjzxxxxxzjhfpyw>%&Oo 875ee                   ",
" Xo0O##%:>qwtapfhhgftppq:>qwpphjzxxxxxzjhfptw>%&Oo 87iee                   ",
"9 XoO+##%>qqytaphcjgppfw>:qttfgjzxxxxxzjhfpyw>%@+o 875ee                   ",
"=9*ooO@#$>>qwyapfzjgkgfw>%qypphjzxxxxxzjhfptw>%&Oo 87iee                   ",
"-= X0O+@#%:qqwtppfhjzjpw%>qypphjzxxxxxzjhfpyw>%&Oo 875ee                   ",
"o-9 ooO@#$%>qwttpphzvzf>#%qyafgjzxxxxxzjhfptw>%@Oo 87iee                   ",
" ,= Xo0+@#%:>qwttphjzjf#+%wypphjzxxxxxzjhfpyw>%&Oo 875ee                   ",
" 8-9 o0O@#$%>qwwapfgkgfOo>qypphjzxxxxxzjhfptw>%&Oo 87iee                   ",
"  -- *oOO&#%:>qwttpfpptX%:qypphjzxxxxxzjhfpyw>%&Oo 875ee                   ",
"  8-; .oO@&#%>qqwtpwtww@%:qtafgjzxxxxxzjhfptw>%@+o 87iee                   ",
"  .--9Xo0O@#%:>qwtt>3>>@$>qwpphjzxxxxxzjhfpyw>%&Oo 875ee                   ",
"   d,; XoO+@#%:qqwt#$##O##>qwtpfhhjcjhgfpwwq%#@0X984ree.                   ",
"   ,--9 ooO@#$%>qwtOO+OO@$%qqtapgkhhhgfptwq>%&+o.=87ree                    ",
"    d,= XoO+@#%:>qwoX.X0@#%>qwtpffggffppwwq%$@OOX-275e                     ",
"     -,9 o0O@&#%>q>-=-;o+@$%3qytapffppaywq>%#@O. -1<r                      ",
"      ,=9Xoo+@#%:>11ss9XO+#%%3qwttttatwwq>%$@OoX;84r                       ",
"       ,= X0O@@$%@6r6d=XoO@#%:qqqwwwwwqq>%$@@0o -s                         ",
"        ;;*o0O@##ee5    X0O&#%%>3qqqqq>>%##@0oX*                           ",
"         X XoO+@<r        +O@&#%%:>:>%%$#&@O@                              ",
"                               ##%$#%$##                                   "};
