/* XPM */
static char * HAND_xpm[] = {
"48 96 64 1",
" 	c #71C671C671C6",
".	c #F7DEFBEE0000",
"X	c #FFFFFBEE0000",
"o	c #C71BC71B38E3",
"O	c #CF3CCB2B30C2",
"+	c #CF3CCB2B2081",
"@	c #FFFFFBEE2081",
"#	c #CF3CCB2B4103",
"$	c #C71BC71B2081",
"%	c #FFFFF3CE0000",
"&	c #CF3CC30B28A2",
"*	c #D75CCF3C30C2",
"=	c #D75CCF3C38E3",
"-	c #F7DEEFBE0820",
";	c #FFFFFBEE0820",
":	c #CF3CCF3C2081",
">	c #CF3CC30B38E3",
",	c #CF3CC71B38E3",
"<	c #C71BC71B4103",
"1	c #F7DEF3CE1040",
"2	c #FFFFFFFF0000",
"3	c #CF3CD34C30C2",
"4	c #C71BC71B30C2",
"5	c #CF3CCF3C38E3",
"6	c #F7DEEFBEAEBA",
"7	c #E79DEBAD1040",
"8	c #DF7DDB6C2081",
"9	c #E79DE79D0000",
"0	c #DF7DD75C1861",
"q	c #D75CD34C28A2",
"w	c #EFBEEFBE4924",
"e	c #F7DEF3CED75C",
"r	c #FFFFEBADFFFF",
"t	c #EFBEEBAD8E38",
"y	c #F7DEF3CE69A6",
"u	c #FFFFF7DEEFBE",
"i	c #FFFFFBEEFFFF",
"p	c #FFFFFBEEF7DE",
"a	c #F7DEEFBEEFBE",
"s	c #000000001861",
"d	c #000000004103",
"f	c #000000005144",
"g	c #0000000069A6",
"h	c #0000000079E7",
"j	c #000000009658",
"k	c #000000009E79",
"l	c #00000000BEFB",
"z	c #00000000CF3C",
"x	c #00000000D75C",
"c	c #00000000E79D",
"v	c #00000000EFBE",
"b	c #00000000F7DE",
"n	c #00000000FFFF",
"m	c #00000000AEBA",
"M	c #00000000A699",
"N	c #000000008617",
"B	c #000000006185",
"V	c #0000000038E3",
"C	c #000000000820",
"Z	c #49244D341861",
"A	c #000000008E38",
"S	c #00000000B6DA",
"D	c #00000000C71B",
"F	c #000000000000",
"                       .XXoO+                   ",
"                      X@XX#o$O                  ",
"                     XXX%@o&*o&                 ",
"                     XX%X.oO=$&                 ",
"                     X-;XXo:&*O                 ",
"                     .XXXXO>o=,   .<o$          ",
"                     XXX1X&>>&O  X.#&O&         ",
"             22&&&   XXXX-O3&&O X%;4OOo>        ",
"            222&&&&  XXXXXoo&>O XXXoOO&O        ",
"           22.X#&o&& XXXXXo3&5o XXX4O>OO        ",
"           2X.X&Oo4& XXXXXoOO>O XXXoO>&>        ",
"           ;X@X&OOOO XXXXXoo&>O XXX4O>3O        ",
"           X1XX#&o&> XXXXXo44*O XXXoO>&>        ",
"           XX.XoOOOO XXXXXoO&>O XXX4O5o3        ",
"           X%XX&Oo&> XXXXXoOO>O XXXoOO&O        ",
"           X1XXoOOOO XXXXXoO&>O XXX4O>OO        ",
"           %XXXo&o&> XXXXXoo&>O XXXoO>&>   o4O  ",
"           %XXXOOo&> XXXXXo44,O XXX4O>4O  XoOO# ",
"           %XX;o&>43 XXXXX43&>O XXXoO5&> X.$,&&>",
"           %XXXOOoOO XXXXXoOO>O XXX4O>OO XXO,OOo",
"           %XXXo&OOO XXXXXoo&>O XXXoO>&> XX>&4OO",
"           %XXXOOo&> XXXXXo44,O XXX4O>4O X1Oo$o>",
"           %XX;o&>&> XXXXXoO&>O XXXoO5&> ;;O<4&#",
"           %XXXOOo43 XXXXXoO&>O XXX4O>OO XX&O&<:",
"           X1XX>oO&# ;XX.1*o>o# XXXoO>&> XXo+O>O",
"           XX.X&o$+> X1X.XO4>4: XXX4O>4O ;.<o>OO",
"           XXXXo3$oO XXXXX>4&$$ XXXoO5&> X.*+$<o",
"           X1XX#4,O* @%XXX#o&,* XXX4O>OO X1O+>oO",
"           ;X1X&4o*> XXX;Xoo>,: XXXoO>&> XXoo*5$",
"           XX.XO#&Oo .1;;&&4>$& %X&*OoOO @X4<=oo",
"           ;;.&#+O4& XXX&&&o:3& X&&oO>&> ;&>:o+:",
"           6X&&>oOO& &&&&&&&&&& &&&&&&&& &&&&&&&",
"           &&&&&4&&& &&&&&&&&&& &&&&&&&& &&&&&&&",
"           &&&&&&&&& &&&&&&&&&& &&&&&&&& &&&&&&&",
"           &&&&&&&&& &&&&&&&&&& &&&&&&&& &&&&&&&",
" 67.=o                                          ",
"6.X1&=4    X%X@XX..X..;;XXXXX.XXX@...;-XXX.;.XX.",
"XXX;*&<4   .XX1.%;1;X%XX;XX1X-XX%;;XX;;%X;%%XXX1",
";X;-$4oO4  @.%X.8X.X;XX-X;X.@X;.XXXXX.98.XX;XX%X",
"XXX-><&&&  7;XX8&o:7.XXXXX1XX%XX.X;78O&47X.XX;1X",
"XXX.*OOO3& XXX7*o>>O+00-.XXXXX.988:OO>OO#9;X%X;X",
"XXXXOoOOo& X@-=&&4&Oo&O:**qqq***:$&O>>OO&,7XX%XX",
"XXXXo&>Oo> XX0OOOO><>>>>o&OO&Ooo&OOo*OO&3oo8--;-",
"XXXX*OOO4& X9*4<o>OOO3O4&3&3&3OO>>>*oOoOo+*&3*XX",
"XXXXOoOO>> ;8oO$&O&4&4OO>o>>>O>>OOOo&OO>:&<>&oX1",
"XXXXo&>O4* X.8Oo*3OOOOo>OOOOOOOOOo&3OOO>o>3O>0X;",
"XXXX*OOOo: %@.w,o>>>>o&OOOOOOOOOOOOOOOOo=+&,8X@X",
"XXXXOoOO#& XXXX0OOOOOOOOOoO>O>OoOO>>>OO&>&q-XX9X",
"X;XXo&3,&$ X.X@%7+&OOO&>>OO>OOOOo>4$,>o>+0-XXXXX",
".XX9*o<$&= XX%XX99*4>OO>O>OO>O>O>+4o,O&:71XXXX;X",
"w;%X5=<+q6 %;1.;X;7*oO>4OO>OO>O>+>o&OO89XXXX1;;X",
"26XX-&&&&  .XXXXXXX0>O=4OO>O>OOOOOOo*8.@XXX%X;XX",
"22222&&&&&eXX%XXX-;X0o4OO>OO>O>O#&4O0XXX;XXXXXXX",
"X2XXX1   X.1X1@X1XXX-:$,OO>OO>OOOoO7XXXXX%XXXXX;",
";X@XXX;;%X;XXX.%XXXX;9o*O>O>OO>OoO7X;XXXXXXXXX;;",
"XXX1XXX%X;-%X@.%XXXX;98<oOOO>OO>O0.XX%;XXX;;XXXX",
"XXX;XX@XXXXXXXXXXXX1;X-4&O>>4o*O+-XX1;XXXXXXXXXX",
"@X;XXXXXXXXXXXXXX%XX%X.qO>O&>>&O0;XXXXXXXXXXXXXX",
"@XX@1XXXXXXXXXXX;XXXXXX7>OO4O4O:.XXXXXX;XXXXXXXX",
"w@%XXXXXXXXXXXXX;XXX;XXX*&&3o&=9XXX%XXX;XXXXXXXX",
"wX%XX;X;XXXXXXXX;XXXXXXX0OO>>>8;XX;XXXXXXXXXXXXX",
"eXXXX;XXXXXXXXXXXXX;X;XX7=&4>59XX;1;XXXXXXXXXXXX",
"r;X1X-XXXXXXXXXXXXX1XX;X.8&&>8.XX;;XXXXXXXXXXXXX",
" t;XX.X1XXXXXXXXXX@XXXXX@7&OO0XXXXXXX1;XXXXXXXXX",
" 6X%X1X1XXXXXXXXXXXXXXXX%-,O>9@XXXXXXXXX%XXX;X1;",
" r@XX.;XXXXXXXXXXXXXXXXXX-&4OX;%XXXXXXXX;;;X;X;X",
"  @.X1XXXXXXXXXXXXXXXXXXXX>>OX;XXXXXXXXXX;XXXXXw",
"   1X%;XXXXXXXXXXXXXXXXXX.*<&XXXXXXXXXXX%;X;X1Xw",
"   6@%X;XXXXXXXXXXXXXXXXXX:*qXXXXXXXXXXXXX@XX.@e",
"    tX-XXXXXXXXXXXXXXXXXXX:4=X;XXXXXXXXXXXX%X.w ",
"     w.;XXXXXXXXXXXXXXXXX-0q81;XXXXXXXXXXXX.;wr ",
"      y;XXXXXXXXXXXXXXXX1XX.XXXXXXXXXXXX1;X@tu  ",
"       itwX11X;XX;;XXXXXXXXXXXXXXXXXX;X%-w@ui   ",
"        preteaiippiiiiiiriiiiiiipirpirt6puei    ",
"        sdfghjjkllzxxcvbnbbbcxxxlmMMjNNBVs      ",
"       CsZfNAjkMmSlzxcbbnnnvcxxDDSkkjNNgdss     ",
"      ZFZVffANjmmSDzxcbnnnnbvxxzllSkMjfBfZsF    ",
"      FZsVdhAkAMSlzxxvbnnnnnvvxxlmkmAhNfdZFF    ",
"      FFsddBNkAMSSDzxcvbnnbbvxxzDlmmkNNfdZsF    ",
"      FCsdfghjkMmSDzxcvnnnnbvxxDDmkMANNgdssZ    ",
"      FFsVfgNAkMSSDxxcbbnnnbvxxzSlmkjAhBdZCF    ",
"      FFsVfgNAkMmlDzxcvnnnnbvcxDllmkjAhBdZCF    ",
"      FCsZfgNAkMSSDxxcbbnnnbvxxzllmkjAhBdZCF    ",
"      FFsVfgNAkMmlDzxcvnnnnbvczzlSmkjAhBdZCF    ",
"      FFsVfgNAkMSSDxxcbbnnnbvxxzSlmkjAhBdZCF    ",
"      FCsZfgNAkMmlDzxcvnnnnbvczzllmkjAhBdZCF    ",
"      FFsVfgNAkMSSDxxcbbnnnbvxxzlSmkjAhBdZCF    ",
"      FFsVfgNAkMmlDzxcvnnnnbvczzllmkjAhBdZCF    ",
"      FCsZfgNAkMSSDxxcbbnnnbvxxzlSmkjAhBdZCF    ",
"      FFsVfgNAkMmlDzxcvnnnnbvczzllmkjAhBdZCF    ",
"      FFsVfgNAkMSSDxxcbbnnnbvxxzlSmkjAhBdZCF    ",
"      FCsZfgNAkMmlDzxcvnnnnbvczzllmkjAhBdZCF    ",
"      FFsVfgNAkMSSDxxcbbnnnbvxxzlSmkjAhBdZCF    ",
"      FFsVfgNAkMmlDzxcvnnnnbvczzllmkjAhBdZCF    ",
"      FCsZfgNAkMSSDxxcbbnnnbvxxzlSmkjAhBdZCF    ",
"      FFsVfgNAkMmlDzxcvnnnnbvczzllmkjAhBdZCF    "};
