/* XPM */
static char * KEY_xpm[] = {
"16 40 24 1",
" 	c #71C671C671C6",
".	c #F7DEEFBE0820",
"X	c #FFFFFFFF0000",
"o	c #F7DEF7DE0000",
"O	c #EFBEEFBE0820",
"+	c #EFBEE79D0820",
"@	c #E79DE79D0820",
"#	c #E79DE79D1040",
"$	c #E79DDF7D1040",
"%	c #FFFFF7DE30C2",
"&	c #DF7DDF7D0820",
"*	c #DF7DDF7D1040",
"=	c #C71BCF3C1040",
"-	c #D75CD75C1040",
";	c #D75CD75C1861",
":	c #DF7DDF7D1861",
">	c #D75CD75C28A2",
",	c #DF7DD75C38E3",
"<	c #D75CCF3C1861",
"1	c #DF7DDF7D4924",
"2	c #CF3CD75C1040",
"3	c #CF3CCF3C1040",
"4	c #EFBEEFBE8617",
"5	c #F7DEF7DE0820",
"   .XoooOO+@#X  ",
"  XX.XoOo++@#X$ ",
" %oX         X&&",
" oX           $*",
" oo           &&",
" oo           $*",
" +o           **",
" oO           **",
" OO=         =**",
" OO++++++@#&&***",
" @+@+@+@###&**-*",
" +@+##+@##&&*--*",
" ###@@###*&*----",
" &##&#&#*&$-*---",
" #*&#*****-*----",
" *&$**-***-;;;--",
"  :;*---;;--;>, ",
"     -=<<<<;    ",
"     1=<<2-1    ",
"      =<-;;     ",
"      =3;*-     ",
"      =<$**     ",
"      =-$**     ",
"      ==&#&     ",
"      ==#&#     ",
"      =*###     ",
"      -#O#O     ",
"     4-#OOO     ",
"      -#o++     ",
"      =#oOo     ",
"      =+5o+     ",
"      =OoO5     ",
"      =+55o     ",
"      #+55o     ",
"     4&+5o+     ",
"     4&+5OO     ",
"      *#OOO     ",
"      =#OO+     ",
"       #OO      ",
"        +       "};
