/* XPM */
static char * STAR_xpm[] = {
"126 126 52 1",
" 	c #71C671C671C6",
".	c #B6DA00000820",
"X	c #C71B00000000",
"o	c #A69904100000",
"O	c #C71B00000820",
"+	c #C71B0C300000",
"@	c #D75C08200000",
"#	c #CF3C00000820",
"$	c #DF7D00000000",
"%	c #C71B08200000",
"&	c #CF3C00001040",
"*	c #DF7D00000820",
"=	c #E79D00000000",
"-	c #E79D04100000",
";	c #F7DE00000000",
":	c #F7DE08200820",
">	c #F7DE00000820",
",	c #EFBE04100820",
"<	c #DF7D08200820",
"1	c #DF7D00001040",
"2	c #A69900000000",
"3	c #9E7900000000",
"4	c #A69900000820",
"5	c #965800000000",
"6	c #965800000820",
"7	c #8E3808200820",
"8	c #CF3C00001861",
"9	c #861700000000",
"0	c #861704100820",
"q	c #79E708200000",
"w	c #861708200000",
"e	c #8E3800000000",
"r	c #F7DE00001861",
"t	c #71C600000000",
"y	c #69A600000000",
"u	c #618500000000",
"i	c #596500000820",
"p	c #410304100000",
"a	c #596500000000",
"s	c #514408200000",
"d	c #410304100820",
"f	c #28A200000820",
"g	c #410300000000",
"h	c #38E300000000",
"j	c #28A200000000",
"k	c #082000000820",
"l	c #104000000000",
"z	c #BEFB00001040",
"x	c #B6DA08200000",
"c	c #CF3C08200820",
"v	c #596508200000",
"b	c #208100000000",
"                                                             ..X.                                                             ",
"                                                             oX..                                                             ",
"                                                             XO+.                                                             ",
"                                                            X@#.$@                                                            ",
"                                                            %X#$&#                                                            ",
"                                                            #$#$&@                                                            ",
"                                                            *@@$@@                                                            ",
"                                                            =$$**-                                                            ",
"                                                           =;==*;=*                                                           ",
"                                                           *;*;=*;=                                                           ",
"                                                           =:=;;;-=                                                           ",
"                                                           ;;>;;;;;                                                           ",
"                                                           :;;;;;:;                                                           ",
"                                                           ;;;;;;;;                                                           ",
"                                                          ;;;;;;;:;;                                                          ",
"                                                          ;;;;;>;:;;                                                          ",
"                                                          >;;>;;;;;>                                                          ",
"                                                          ;;=,-;=:==                                                          ",
"                                                          @:=;*;=<>;                                                          ",
"                                                         1$=;1=*==-*@                                                         ",
"                                                         $1=*-;1*;@*-                                                         ",
"                                                         @$1**@&#*$$@                                                         ",
"                                                         $1.-@$**@##$                                                         ",
"                                                         &X$@&##&@$XX                                                         ",
"                                                        XX#X##X#X##X##                                                        ",
"                                                        .XXXXXX.XX.#.X                                                        ",
"                                                        ...X....X..#.X                                                        ",
"                            .O                          ........#XX2.X                          ..                            ",
"                          .&.XX                         o.......2ooXoo                         &O+.                           ",
"                           .X@+#&                      o2oooooooo..2o23                      &#OX#X                           ",
"                            .X@$@@                     2322222222oo3o42                     =@&##X                            ",
"                             $##$@*=                   5333232334336353                   <=@#@$#                             ",
"                             &$1*@=:-                  55533353553255o7                  ;;$$1#@8                             ",
"                              @@@*=-*:                 9555535555650q35                =;,-$<=$$                              ",
"                               *==;;;;;;               weee5e5eee555096               ;;:1*>;=*                               ",
"                               ;=-;$:;r;;             te999eee999e7eeqyq            ;;;>;;>**=*                               ",
"                                1=;:*;;::;;           tqqq99999q99ttq99t           ;;::*;;;;=;                                ",
"                                 :;;;r:;;>>;          yyttqqqqttt9t0tttt          *;;;;;;>>>>                                 ",
"                                 ;;r;;;:;;:;-$        yquuyyyyuuyituuiiu        *r;--;;;:;;;;                                 ",
"                                  ;;:;;:=;;-*:@       ipaaauuuaauyasaada       ==*=;;8=;;;;r                                  ",
"                                   ;:>;:====***$X    fdpgppapppppaappghpg    $$1===;;*;;;;r                                   ",
"                                   :;;;=====**$$&@   fjgggjgpdphddhhdpgjj   &X*@#**$@;;;>;>                                   ",
"                                    ;;:;==***$$@@##X jjfffjhghjjhhjjjjkjj .X%@$@$@=-==;;;:                                    ",
"                                     ;;:==**$@@@#X4.lklllgzz.#o@.oX3hlkfklx.@.@@&*@X8;=-;                                     ",
"                                     $:$***$@###XXXOkl&X#####.Xz....2323kl.##o@&&@**$*;*                                      ",
"                                      *:$*$@###XXX..k$#$&X$#%#..Xo..ox.22l..&#&X@#@$@-;<                                      ",
"                                       @$$@@#XXXX.x#$$X@$@##@@@@XX....32o66....XO*#$**c                                       ",
"                                       $$@@##XX...@$#$1$@$@$1##.##....2o0335zX&+.@@&X-                                        ",
"                                        X&$#XXX.##@$$$******$@@@XX.....o223552.#.@&X$#                                        ",
"                                         @XXXX..@@$**====****$@@#XXX...o223553o.x.#&@                                         ",
"                                          @zX+x@@$*===;=====*$$@@#XXX...2233e532X.%.                                          ",
"                                          ...XX$$*=;;=;;;=;*=*$$@##X....22335eeeo#.X                                          ",
"                                           lkl@1$*=;=;;;;;;===$$@#XXX..o22335eeqlkk                                           ",
"                                        ffhkl$$@$*=;;;;;;;;;==*$@##X...oo2335599tkkkjh                                        ",
"                                   ttiiidjjl&##1*==;;;;;;;;;==**$@XX#....23335e9q7kjjddvty0                                   ",
"                             o235eqeqttpphflX$$$*=;;;;;;;;;;;***$@##XX...22355ee9qljhppyt99eee3                               ",
"                        X...oo3355e9qtuaphfl@&@@**==;;;>;;;;==**@##XX...o2235ee9qiljjduatq9e5532oo.X                          ",
"                   *$@*&XX...22355e9qtuaphkg##@$*==;;;;;;;;===*$@@XXX...22235ee9qqjhjpautq9e5532o.2..%11$                     ",
"              ;;;;$-1$@.#X...o2335e99tyaphj.%*@&**==;;;;;;;===*$@##X.X..22335ee9qtphhpuytqee55222..X$X%@$$==;;                ",
"        ===;;;;;;;8*=8X$#X...o22555e9tyuaghz@@@$$*==;=;;;==;***$@#XXX...22335ee9ttihppatq99553222..oXX#%$<$=:;;;;;>           ",
"   X#c1-;;;;;;;:;=;;*$@@#XX...22355e9qyuagh.@X#$$$*====;===*=*$@@#X.X..o2233ee99qyihpiutq9e55322.o.X.-@*-$;=;-:;;>::;;@       ",
"..X@%@#-=*;=;;;;>-;1-$$&#X...o2255ee9tyupphXXX@#@$$$*======**$@@##X....o22355e99tyijppatqqee5322..##XXX$$@=;;;;>;;:**;$$@@#.  ",
".XXX#@1&==;;;;;;>==-=#@#XX...o2355eeqtuappjoX.@#@@$$$*******$@@@#X.X..oo23355999tyajgpaytqee55223..xO&@@*@1@:r;;:;;;;=$@&#XxX.",
"X..X$@$=-*;;;:;;;;;**#*@XX...o2355e99yuaphk@zX@.@@@$$$***$$$@@@#XXX...o22335ee99typjgpautq9e55324o...#X$$*;==;-;;;;**=*1$##...",
".Xx$X&@==;;;;;;;;;*;*@$z#XXXoo2430ee9ytupdh...####@@@@$$@@@@@##XX....oo23355eeqqtuujgaaiqee95546o...@.@@$@=;:>;>;;;;=;*@@#%.X.",
"   X$@$-*=-;:;>r;-8=;*@@#..Xx.o33559q90uadh...##XX####@@#@####XX.....o22335ee99qyuihgautiqe33o2o.+.#.*$@@*:*;;;;;:;=;;$<@##1  ",
"        =;=;;;;;;*;-@$@*@..#2..5335e7qyaafjX.....XX#XX###X#XXX.X.X..oo23355ee9qtyudhgaayq9eee5o2oo..@X#1-**:;=>>;;><=-8       ",
"              ;>:;==*@1#XXX2X234e75eqyuvpgj6.....XXXXXX#XXXX.X.....oo22355ee9qqtaapjgpayq9000744...XXX#@@@;*;;;;;             ",
"                   #$$@&#....oo55q9eq0uapgjh2o....X.X.XXX.X.X.X...oo22335ee99qyyaajjgpauyqe9e456o2o.xX@#=#-*                  ",
"                        X#XX223642909tuaghjl3o.....X..XX...X....oo2223355e99qtuuapkjggaat00973oo6..XXO8                       ",
"                             2237e5tqtiphhkj3.22o..............o22223355ee9qtyuapgljggpuiqqeee642.                            ",
"                                   qtquaphkf52222o.o.o....oo.oo222333555e99qtyappgljggautyq5                                  ",
"                                        hjhlk2o722222oo.2o2o2222333555ee97iiyapphklfjfd                                       ",
"                                           lll742222222o222222233535eeeeeu0yypdhkll                                           ",
"                                          .x..63333333232323333355eee999tqutappp.#..                                          ",
"                                          #+#..655533333333353355eee99qqtyyuipp4Xo##                                          ",
"                                         &.##..z55e5553355555e5eeee99qqtyyaaih.XXXOz@                                         ",
"                                        $X@X+@.X33eee553eeeeeeeee99qqtyyaapghz.X.@&@@@                                        ",
"                                        $$1X@#XO.o3ee0e59ee9999999qqyyaaappp4.x#X.$&@@                                        ",
"                                       8-X@1&XXz#.2e999e99999999qqttyaapdhg4###+$O#@$@=                                       ",
"                                      *=1$*@#@.#X..Xl090qqqtqtttyyyuaappgl..X#X.#@@$$*==                                      ",
"                                      ;=*@*##$@#X@x.ll0qqqqittyyuyuappfgklX.O##@#@@$*==;                                      ",
"                                     ;::====@@#@@..XlklkkhpuyuaaaiipjklllkoX@+X$@@$$*=;=;                                     ",
"                                    ;:===*=$$1$$%.&..khfjjhgghjbhjhjjkjjl  .&$##@$$*==;;8=                                    ",
"                                    ;;>>=,-$@**+$&@  jghfhhgggghgggggggff    #*$$**==;=;>>r                                   ",
"                                   ;:;;;=;*;;@*$#    fpppppaapdpaaapppggh     #**===;=;;;;;                                   ",
"                                  ;:;;;;;>=:**=8     ppdaaaaaaaaaaaaapaa       1==;=;;;;;:*;                                  ",
"                                  ;>;;>;;=;;@;8       yuaaytttyiyttyuuau         ;=;;;;;;;;;;                                 ",
"                                 ;=;;;>;;;;;-         tyttqqqqttqqqyqttt          ;-r;=;;;;;:                                 ",
"                                =:::=r;;:;;:          u9qqq99q9qeq0q9qtt            ;:;;;;;:$:                                ",
"                                ;*;:;;>;;;>           7e99e9ee995qe9et9e             ::;-*;;=$:                               ",
"                               1*=-$;:;;>             79eee55eeeee97e960              ;;;1=;1;*                               ",
"                              @&*;=$-;;:               7e5555555533e33q                 ;;=1$;$&                              ",
"                              @$$*;,-;1                5553335355237336                  ;*@@1@@&                             ",
"                             $&*@*;$,                  3333232333237636                    *&$1@&                             ",
"                            ####$&@=                   2322222224oo4236                     $@X@#O                            ",
"                            X.##$&                     4oo22o.24ooo24.                       &&#..z                           ",
"                           .X$.@&                      62.....x2...o.7                         z.#X                           ",
"                          o...X                         ...o.X.X.....+                          @.                            ",
"                            zO                          ..XoXXo..#X.X4                                                        ",
"                            +                           x.@X.&%.X#.Xx8                                                        ",
"                                                        #%.@@X@X.@##X                                                         ",
"                                                        &1%X$.#%@$X#@                                                         ",
"                                                         &$%=$@@#=&@@                                                         ",
"                                                         *$*1$*$@$$*                                                          ",
"                                                         $@**%@*=$=*                                                          ",
"                                                         =;$;=,=*=1=                                                          ",
"                                                         =*;=;&;;=;=                                                          ",
"                                                          ;:;;--;>:=                                                          ",
"                                                          ;=<;>;;;;                                                           ",
"                                                          ;;;;;:;>;                                                           ",
"                                                          ;;;>;;;;r                                                           ",
"                                                          ;;;;;>;r;                                                           ",
"                                                           ;>;;;;;;                                                           ",
"                                                           >>:;;;;                                                            ",
"                                                           =:*;-<=                                                            ",
"                                                           ;;*;*=;                                                            ",
"                                                           1;-==;=                                                            ",
"                                                           r$$@=$8                                                            ",
"                                                            **@<*                                                             ",
"                                                            $@&$#                                                             ",
"                                                            #@&#X                                                             ",
"                                                            @@.@#                                                             ",
"                                                            &X.X&                                                             ",
"                                                             .#.                                                              ",
"                                                             o..                                                              "};
