/* XPM */
static char * 00CVRED_xpm[] = {
"53 75 43 1",
" 	c #71C675D671C6",
".	c #69A669A669A6",
"X	c #9E799E799E79",
"o	c #D75CCF3CD75C",
"O	c #FFFFFFFFFFFF",
"+	c #F7DEF7DEF7DE",
"@	c #C71BC71BC71B",
"#	c #965896589658",
"$	c #618561856185",
"%	c #B6DA41034103",
"&	c #BEFB41034103",
"*	c #C71B41034103",
"=	c #CF3C41034103",
"-	c #DF7D41034103",
";	c #BEFB18611861",
":	c #D75C28A228A2",
">	c #DF7D30C230C2",
",	c #E79D41034103",
"<	c #CF3C20812081",
"1	c #B6DA20812081",
"2	c #9E7900000000",
"3	c #AEBA00000000",
"4	c #BEFB00000000",
"5	c #C71B00000000",
"6	c #CF3C00000000",
"7	c #DF7D00000000",
"8	c #D75C00000000",
"9	c #B6DA00000000",
"0	c #A69900000000",
"q	c #8E3800000000",
"w	c #965800000000",
"e	c #861700000000",
"r	c #E79D00000000",
"t	c #8E3800000820",
"y	c #F7DEFFFFFFFF",
"u	c #5965618569A6",
"i	c #FFFFF7DEFFFF",
"p	c #F7DEE79DE79D",
"a	c #BEFB51445965",
"s	c #EFBE00000000",
"d	c #F7DE00000000",
"f	c #A69938E34103",
"g	c #A69920812081",
"                       .XoO+@#$                      ",
"            %&**====---;:>,,><1--=-*=***&&           ",
"           22334445566787777777675555593022          ",
"          q22339455566767777777666554493322w         ",
"         eww003944555767777r777666554499022wq        ",
"qqqqw202www009944556667777r777776665544330222w22wwqqq",
"qwqww2000999445556586777777r777778865555449933022wwqw",
"wqqqw2203394445556888777777rr77778666564594933022wqwq",
"qwqww20009994545566888877r7rr7r876866554449933022qwqq",
"wqqqw220339444555668887777rr777788666555449990022wqwq",
"qwqq2220339444555668677777r7r77788666554594933022wtqw",
"        qqww0099445568887r7r77886655449300wwtq       ",
"         qw223394456668777r777786655449332wwq        ",
"          q223394555668777r7777866554493002t         ",
"           w00394455688877777776665;5493322          ",
"                       .XoOy@#u                      ",
"                       .Xo+y@#u                      ",
"                       .Xo+i@#$                      ",
"                       .XoOy@#$                      ",
"                       .Xoyp@#$                      ",
"                       .Xoiy@#$                      ",
"                       .Xoi+@#$                      ",
"                       .XoOp@#$                      ",
"                       .XoOy@#$                      ",
"                       .Xoip@#$                      ",
"                       .XoOy@#$                      ",
"                       .Xoi+@#$                      ",
"                       .XoOp@#$                      ",
"                       .Xoi+@#$                      ",
"                       .XoO+@#$                      ",
"                       .Xoi+@#$                      ",
"                       .XoOp@#$                      ",
"                       .Xoi+@#$                      ",
"                       .XoO+@#$                      ",
"                       .Xoi+@#$                      ",
"                       .XoOp@#$                      ",
"                       .Xoi+@#$                      ",
"                       .XoO+@#$                      ",
"                       .Xoi+@#$                      ",
"                       .Xo+y@#u                      ",
"qqqqqqqq       qqw234456777776655932wq        qqqqqqq",
"wqwqqwqw       qqw034456777777555932ww        qqqqwqq",
"w2ww2www       qq2299556777776655930wq        w2w2ww2",
"02002020       qq2034556777777655932wq        2020202",
"30030300       qq2299556777776655930wq        0303030",
"93939393       qqw034556777777655932ww        3939393",
"49494949       qww034458877777555932wq        9494949",
"45444445       qq2299558877778855930wt        4445444",
"55555554       qq2034558877r78664932ww        5554555",
"55555555       qqw03445887r778655932wt        5555555",
"66666668wqqwqqwtw2299566877r78654432wwqwqwtwqq6666666",
"6767867600000000e203446687r778655932ww003000306786767",
"7776777794949499tw03446687r778654400wt494949497777776",
"7777777765555554q2299558877r78655932wt555555557777777",
"7777777786666685tw034556777778654432ww566666667777777",
"777777r777777775ww034466877r78655932ww777777777777777",
"7r7rr77r77777776ww034466877778654400tw77777777r7r7r7r",
"7777777777777778t22995668777r666;432wt777777777777777",
"7677878766666665qw034556777777654400wt586666667878787",
"6766886854545544t2299558877776855932ww554554556868866",
"6566866639999393tw034466877777654400wt999399938666668",
"5556555522222222t2299566877r7666;932ww222022225556555",
"55555554twttwtwtww034556777777655932twtqttqttw5554555",
"44544444       tqw034466877776664930ww        4444444",
"49949499       qqw03455677777766;432wt        9994949",
"39333393       qqw034466877r76655932ww        3393339",
"00000300       qq2299558877777664932ww        0000000",
"22022222       qqw0345567777776;5930tt        2222222",
"wwwwww2w       qq2299558877776664432ww        www2www",
"qqqwtqtq       qq2034466877777655932ww        qqqttwt",
"wqtqtwtq       wt2299556877r776;5932tt        qqtqqtq",
"               a2w209468rsddr766490222               ",
"                fw2094587rsrr766930t2                ",
"                  g03946877776659321                 ",
"                      556688666;                     "};
