/* XPM */
static char * 00CVYEL_xpm[] = {
"75 107 62 1",
" 	c #71C671C671C6",
".	c #208120812081",
"X	c #410341034103",
"o	c #965892489658",
"O	c #BEFBBEFBC71B",
"+	c #F7DEF3CEF7DE",
"@	c #FFFFFBEEFFFF",
"#	c #E79DE38DE79D",
"$	c #8E388E3879E7",
"%	c #FFFFF3CEF7DE",
"&	c #69A66DB62081",
"*	c #8617820728A2",
"=	c #8E388E382081",
"-	c #9E799A692081",
";	c #A699A2892081",
":	c #B6DAB2CA1861",
">	c #BEFBBAEA1861",
",	c #C71BBEFB0820",
"<	c #C71BC30B1040",
"1	c #D75CCB2B1040",
"2	c #D75CCF3C0820",
"3	c #DF7DD34C1040",
"4	c #DF7DDB6C1040",
"5	c #EFBEEBAD0820",
"6	c #F7DEEBAD0820",
"7	c #F7DEF3CE0820",
"8	c #FFFFF3CE0000",
"9	c #EFBEE38D0820",
"0	c #DF7DDB6C0820",
"q	c #BEFBB2CA1861",
"w	c #9E79A2891861",
"e	c #8E388A2828A2",
"r	c #79E779E738E3",
"t	c #8E3886172081",
"y	c #AEBAA2892081",
"u	c #BEFBC30B1040",
"i	c #CF3CCB2B1040",
"p	c #E79DE38D0820",
"a	c #EFBEEBAD0000",
"s	c #C71BCB2B1040",
"d	c #C71BBAEA1861",
"f	c #965896582081",
"g	c #71C671C630C2",
"h	c #69A669A630C2",
"j	c #6185618530C2",
"k	c #79E779E728A2",
"l	c #965896584924",
"z	c #D75CD34C1040",
"x	c #C71BC30B1861",
"c	c #AEBAB2CA1861",
"v	c #6185659530C2",
"b	c #69A6618530C2",
"n	c #E79DE38D1040",
"m	c #CF3CD34C1040",
"M	c #CF3CC30B1040",
"N	c #B6DABAEA1040",
"B	c #AEBAAEBA1040",
"V	c #861779E72081",
"C	c #6185618538E3",
"Z	c #E79DEBAD0000",
"A	c #5965596528A2",
"S	c #E79DE38D0000",
"                                .XoO+@#O$X                                 ",
"                                .XoO+%#O$X                                 ",
"               &*=-;::>,<,123445678887888785490322<<,q:w;-er&              ",
"              &rtt-y::>u<ii030pp77888888877a500311s<dq::;f=*gh             ",
"             jhk*l-;::>u<ii3z0p5a788878788a7p000z1sxuqqc;-e*&vb            ",
"            vj&r*=-;:>><<i220n05a7788888787app03zmMMu>Nw;-e*ghbv           ",
"bbjbbhkrttwwyB:>>NxxMm22200ppp678788878888877a5pp0002i1sxu,q:Ncw;lttr&&bbjb",
"brbrvhkV*=-;;::B>u<ssi31z00pp677788888788887a55p000011is<<d>>:cy--tt*ggbrbC",
"bCjbvgg*et-;w::Bdddsii1z00pn6p7a87888887888777Zppn03zm1sxud>:::;;==**khvCbC",
"brbCvg&**=--w:wdqxxsii3zz00np7577888788878877a5pp00021ii<x,>q:cw;lt**ggbCvC",
"bCvChhr*tll;w:q:dNxsM11z00pp55577888878888877a5ppn031m1idud>:::y--terr&rbCb",
"brbChgkrtt-;y::>qxx<s1zzz00npa777888887878877a5pp0001ziixud>>:cw;==**khbCvC",
"bbjbvhrV*=fwy:::NdxMs11z000pp5a77888788888777apppn021zis<<d>:::;;=et*ghrbbb",
"           bbbhrt=-y::>dxm2300p5a7888878887app002Ms<dq>yy-=rghbbC          ",
"            vb&k*l-;:q>xssi300pp77788887887app001iixd>:c;-e*&hCh           ",
"             Ahr*=-ycq>NsM1z04p5a7888788877app001is<uqqcyfe*rhb            ",
"               r*e-y::>u<i1z044aa7888878887a5p0zz2sMd>qc;-e*&$             ",
"                *e;;::>uxi1z00pp77888887887Zp000z1sxd>:cy-eV               ",
"                                .XoO+@#OoX                                 ",
"                                .XoO+@#O$X                                 ",
"                                .XoO+%#O$X                                 ",
"                                .XoO+%#OoX                                 ",
"                                .XoO+%#O$X                                 ",
"                                .XoO+%#OoX                                 ",
"                                .XoO+%#O$X                                 ",
"                                .XoO+%#OoX                                 ",
"                                .XoO+%#O$X                                 ",
"                                .XoO+%#OoX                                 ",
"                                .XoO+%#O$X                                 ",
"                                .XoO+%#OoX                                 ",
"                                .XoO+%#O$X                                 ",
"                                .XoO+%#OoX                                 ",
"                                .XoO+%#O$X                                 ",
"                                .XoO+%#OoX                                 ",
"                                .XoO+%#O$X                                 ",
"                                .XoO+%#OoX                                 ",
"                                .XoO+%#O$X                                 ",
"                                .XoO+%#OoX                                 ",
"                                .XoO+%#O$X                                 ",
"                                .XoO+%#OoX                                 ",
"                                .XoO+%#O$X                                 ",
"                                .XoO+%#OoX                                 ",
"                                .XoO+%#O$X                                 ",
"                                .XoO+%#OoX                                 ",
"                                .XoO+%#O$X                                 ",
"                                .XoO+%#OoX                                 ",
"                                .XoO+%#O$X                                 ",
"                                .XoO+%#OoX                                 ",
"                                .XoO+%#O$X                                 ",
"                                .XoO+%#OoX                                 ",
"                                .XoO+%#O$X                                 ",
"                                .XoO+%#OoX                                 ",
"                                .XoO+%#O$X                                 ",
"                                .XoO+%#OoX                                 ",
"                                .XoO+%#O$X                                 ",
"                                .XoO+%#OoX                                 ",
"                                .XoO+%#O$X                                 ",
" vjjjjbjjjC          Cbr*wwqqsi30p68888885S01s<,:yf*&bC          bbjjbbjbj ",
" bbbbbjbCbb          vb&t-:q>si00p78887877000i<d:yw*kbC          jbCbrjbjb ",
" bjjrjvbrbj          jbre-::ds130p7788888ap0z1xd:c-*gbb          vjbjjrjrj ",
" gggggggg&g          bjr*;y>uii30p7788887ap03iiq>;-tkCb          hggggggg& ",
" *r*r**r*V*          vbrt-wqdis30p77887885pnm1x>>y-*gbr          r**r**r** ",
" t=t=t=====          vjrtw:q>ii3ppa8888877p0zisd>;-*kbb          t=t=t=t=t ",
" --w-------          jbrt-wqxx1z0p7788887ap0z1x>qyfekCb          -------w- ",
" ywywywwwyy          vjrtwc>dx2zppa888788ap0z1xNqcl*kjC          yywwwywyy ",
" ::::N::B:N          jh&e-cqdx2z0p77888877p0z1x>>yf*kjv          :N:::::N: ",
" B,qNqq>qNq          jjrtwB>dx1zppa888887a50zixu>y-*gbb          >qqNqN>q> ",
" udNduxNxNx          bbrt-c>dx2z0p7788788an0zmsd:y-*&vv          >uuddxNuu ",
" <<ss<s<ss<          vbr*-B>>s1zppa8888877p0z1x>qy-*kCb          <<<s<s<sM ",
" iii11i11si          bjrt-c>dis00p7788887ap0zisd:c-*gbb          sii1ii1ii ",
" 3231z1z131          bjre-B>qii30p7788788ap0z1x>qy-*rbC          3313131z3 ",
" 03z03434z0vbbbbbbCbjvbr*wc>dx1zppa8888877p0zmsd:cl*kbjbbbbbbCbbj030z3033z ",
" 00n0n0p00nkhkgggkgk&Cbrt-B>>ii00p7788887a50z1x>>y-*kCb&rggkgkgkv00n00nnn0 ",
" 45S450pppp--=--=-=-=bjre-B>>is30p7788788an0zixd:y-*kCj-flflffflf45Spppppp ",
" a655a65565:q::q:q:q:vbrt-yq>ii3npa7888877p0zisd:c-*gbj::qNq::q:>75p65655a ",
" 77a77a77a7xxxxxxxsu<bCrew:>>ii30p7788887ap0z1x>qy-*kCbxxsu<<<u<u7777a7a77 ",
" 8788788787023z023331bvrt-:>>ii30p7788788ap0zzxNqcltgbr2313333332878788787 ",
" 8888888888pppp0pppppbbr*;y:dis3npa7888877p0z1x>>y-*kjbpppppppnpp888888888 ",
" 88888888887777877877vbrt-cqxx1zSpa888887a50zixu>yfegbj7777787777888888888 ",
" 88888888888888888888vbr*;yN>s1z0p7788887ap0zzxd:y-*kjj8888888888888888888 ",
" 88888888888888888888vbrt-cqds1zppa8887885p0z1xNqc-*gbr8888888888888888888 ",
" 8887878788777777777abCrt-w>dii00p77888877p0zisd>;-*kCj777777777a888787878 ",
" 8778878877p00000000pvbre-:q>iiz0p7788887ap0z1x>>yftgvb000000000p778788787 ",
" 77a777777am2zz2zz2zmbbr*;y>Nii3ppa888788ap0zzx>qy-*kbCm22mzz2mzza77777777 ",
" p55pZ5ppZ5uuuuuuuuu,rbrtwcqdx1z0p77888877p0zisd:cftgjjuduuuuuu<up5p5pZpZp ",
" 450pppppp4:wqwqwBqw:Cbr*;y>Nii00p7788887a50z1x>qy-*kbCc:wqwqwB:w45S0ppppp ",
" S000000000=ee=eel=eebbrewcqdx1znpa788788an0zmxu>y-*gvbe=leee=ee=000000000 ",
" 1333z33z02vhhhrhrhr&brk*-:qxxzz0p77888877p0zisdcy-*kbjhrhhrhvhhv03333333z ",
" 11i1iz1i11          rbrt-:>>s1zppa788888ap0z1xdqy-*kbj          2s11m1m1i ",
" siiiiiiiis          vbrt-wq>s1zppa888887an0z1xNqcftgbC          iissis1si ",
" <xsuidxxxx          vj&ewc>dsi00p7788788550zixd>;-*kbb          ux<x<xuxu ",
" ,>dd>d>NdN          jvrt-:qdii30p7788887ap0zzxN>;-egbC          ,ddddddd> ",
" qq:qq>>>:>          jb&ewB>>ii30p77888877p0zisd>;-*kbC          :q:q:>:qq ",
" ::::c:c:c:          bbre-c>dx1znpa788788ap0z1x>:y-ekCb          ::::::::c ",
" ;;y;;;y;;;          jbr*;yqdx2z0p7788887ap4zzxNqc-*hbb          y;;;;;;;y ",
" -lfw-lflw=          vjkew::xx2z0p77888877p0z1x>>yftkbC          =-lw-lw-= ",
" t*tte*tttt          bbr*;y>Ns1zppa888887a50zixu>y-*gbv          t*te*e*et ",
" rVrVrVrVrV          jbr*w:q>i1z0p7788788ap0zmsdcBltgbC          rVrrVrVrr ",
" &ghghghghh          vbrt-::diizppa8888877p0z1xd>y-*kbC          &hghghghg ",
" brbvbCvbbb          bjr*;y>>ii00p7788887ap0z1xN>;-*gvb          bbrbvbbvb ",
" bCbCbvCbrj          brk*-::dx1z0p77887885p4z1xN>yfegbj          CbjbCvCbC ",
"                     jjhr=w:>Ns220pa7887ap0zmsN:ywt&hbj                    ",
"                     &bvrt-w>>ss3005777a500mM<>Ny-*rbjj                    ",
"                      jv&e-w:duM100p5555S0z1x<>:;-*rCj                     ",
"                       rk*l;:quM120005S0001is>>y;=Vg                       ",
"                          t;y>,usi30000031isu,:ywl                         ",
"                               ><ii1333z11iuu                              "};
