/* XPM */
static char * 00CVGRN_xpm[] = {
"53 75 59 1",
" 	c #71C675D671C6",
".	c #61857DF769A6",
"X	c #9E799A699E79",
"o	c #D75CCB2BD75C",
"O	c #FFFFFBEEFFFF",
"+	c #F7DEF3CEF7DE",
"@	c #C71BC30BC71B",
"#	c #965892489658",
"$	c #618561856185",
"%	c #49248E3838E3",
"&	c #8617CB2B30C2",
"*	c #9658D34C4924",
"=	c #186161850000",
"-	c #28A279E70000",
";	c #38E382070000",
":	c #49249A690000",
">	c #5144AAAA0000",
",	c #5965AAAA0000",
"<	c #6185BAEA0000",
"1	c #69A6CB2B0000",
"2	c #69A6D34C0000",
"3	c #79E7DB6C0000",
"4	c #8617E38D0000",
"5	c #8E38F3CE0000",
"6	c #9E79F3CE0000",
"7	c #9658FBEE0000",
"8	c #9658F3CE0000",
"9	c #8E38E38D0000",
"0	c #79E7DF7D0000",
"q	c #5144A2890000",
"w	c #410392480000",
"e	c #38E38A280000",
"r	c #208171C60000",
"t	c #186159650000",
"y	c #082055550000",
"u	c #5965B2CA0000",
"i	c #71C6CB2B0000",
"p	c #79E7D34C0000",
"a	c #9E79FBEE0000",
"s	c #69A6C30B0000",
"d	c #30C282070000",
"f	c #28A271C60000",
"g	c #000051440000",
"h	c #000041030000",
"j	c #8E38EBAD0000",
"k	c #000041030820",
"l	c #41039A690000",
"z	c #208182070000",
"x	c #4103A6990000",
"c	c #4924B2CA0000",
"v	c #08205D750000",
"b	c #69A669A669A6",
"n	c #CF3CCB2BD75C",
"m	c #F7DEFBEEFFFF",
"M	c #208179E70000",
"N	c #5965BAEA0000",
"B	c #104071C60000",
"V	c #5965C71B0000",
"C	c #30C292480000",
"                       .XoO+@#$                      ",
"            %%&&*******&&&**&&&*******&&*            ",
"           =-;:>,<<1234567677890321<<>qwert          ",
"          y=-e:qu<<ip3958aa7679932ssu,>:df=g         ",
"         hy=-d:>,<<ip34jaaaa78j40ii<<,qwdf=yh        ",
"hghht=f-yy=fdw:,u<1ip49567aaa8843p1s<u,:w-rtyg-rtthhh",
"hhggt=fde:q>u<<sipp349887aajaajj9402iis<uuqq:edr=yghg",
"ghhgy=fde:q>,<<sii304958aaaaaa78940p2ss<<,qq:e-f=tghh",
"hghgt=fde:q>u<<siip4495jaaa7aajj943piis<u,,qwedr=yghh",
"hhgkt=fde:q>,<<sspi40987aaaa7a6j940pii<<<,>qwedr=yghg",
"ghhgy=fde:q>,<<sii30495jaaaa678j9433iis<uuqqlezf=yghh",
"        hhy=-e:q,<sii44jaa7667j93pss,,,wdf=gkg       ",
"         hy=-elq,<sii448ja6677j93ii<<,x:df=gh        ",
"          g=-d:,c<<ii39966666794&2i<<,,wdfvg         ",
"           =fe:q,<ssp498766666993pssu,q:;fv          ",
"                       bXnOm@#.                      ",
"                       .XnO+@#$                      ",
"                       bXoO+@#$                      ",
"                       bXoO+@#$                      ",
"                       .XoO+@#$                      ",
"                       .XoO+@#$                      ",
"                       .XoO+@#$                      ",
"                       .XoO+@#$                      ",
"                       .XoO+@#$                      ",
"                       .XoO+@#$                      ",
"                       bXoO+@#$                      ",
"                       .XoO+@#$                      ",
"                       bXoO+@#$                      ",
"                       .XoO+@#$                      ",
"                       bXoO+@#$                      ",
"                       .XoO+@#$                      ",
"                       bXoO+@#$                      ",
"                       .XoO+@#$                      ",
"                       bXoO+@#$                      ",
"                       .XoO+@#$                      ",
"                       bXoO+@#$                      ",
"                       .XoO+@#$                      ",
"                       bXoO+@#$                      ",
"                       .XoO+@#$                      ",
"                       bXoO+@#$                      ",
"hghhhghh       hgt-q><i39778j4ps<q:-yg        hhghhhh",
"ghhghhgh       hh=d:,<i3976679pi<>w-th        hhhghgh",
"tt=tttty       hgtzq><i39766793s<q:-tg        t=tttt=",
"ffrfr-f-       hk=d:><i3976674pi<>w-th        ffrfMff",
"eeeeeeee       hgtzq><i39a76793s<,w-tg        eeeeeee",
"qq:qq:q:       hh=d:u<i397aa74pi<q:-th        q:q:q:q",
">>>,x,,>       hgtzq><i397aa893s<,w-tg        >>>,,,>",
"<u<,<,Nu       hk=dl,<i39a7aj93iu,l-th        <<u,N,<",
"ss<sss<s       hgtzq,<1397aaj93i<qlftk        s<ssss<",
"iiiiiiis       ghtd:c<i39a7aa43s<,w-tg        1siiiii",
"3pp3ppp3gyyyyyyghtd:,<i39aa7j93iu,l-vhyyyyyygyp0pp3pp",
"44404440eeeeeee-h=d:,si397aaj8pi<q:-vkeeeeeeee4444044",
"5jjj89jj,c,,>,>qhvzq,Ni397aaj93s<,w-vg,>,,>u>,959j895",
"67667676isisisiuh=zq,<i39766793i<q:-vksisi1sii7676767",
"667aa7aa3404043ik=-q,Ni39766743s<,w-tk4404040366667aa",
"6667aa7ajaajaj64htd:c<i39766793s<,w-vk67676767667aaa7",
"667aaaaaaa7aaaa0k=d:,<i39676743s<,w-vk666676667aaa7aa",
"778jaj7jjjjjjjj3k=zq,<i3976679&1<,w-vg88588588887jaj6",
"999j9j9j0030030<k=d:c<i39766743iNq:-vk3p3p3p3p999j9j9",
"44444040s<s<s<s,h=-q,<i39767793s<,w-tkss<s<s<s4440444",
"p2ppipppqqqxqqqwk=d:,<i3976a893s<,w-vk>qqqqq,qipi3pip",
"isiisisi--f--f-fk=d:,si3976a74&1<,w-vk--f--f-fiiisiis",
"<s<<s<<skkkkgkkgh=zq,Ni3467a843iN,w-tkghghghkgs<<<s<<",
"uuu,,<,N       kh=dl,<i3976a893iu,:-vk        ,,Nu,,N",
">q,>,x,q       hgtzq,si397aa843s<,w-vg        q>,q,,,",
"::::l::l       hh=d:c<i3468a893s<,:-vk        :::l:ll",
"dd;d;dd;       hk=zq,<i397aa8&2i<,w-vk        dd;d;d;",
"frrrrBf=       hgtd:,<i397aa743iu,w-vg        rrrrrBf",
"yytyyyvv       hh=zq,Ni398a8793s<,:-vk        tgtgtyy",
"ghhghkgh       hh=dl,si398aa843i<q:-vk        hhhhhkg",
"hhkhkgkh       hk=z:,<i397a879&Vu,w-vk        hhkgkgh",
"               %yvvzzxqV245532NcCzBvvv               ",
"                %vvBzCxV1p0&2VcxCzBvv                ",
"                  %BzCxcuV22VNcCCzB%                 ",
"                      CxcNVNNxxC                     "};
