/* XPM */
static char * 00CVMAG_xpm[] = {
"53 75 61 1",
" 	c #71C675D671C6",
".	c #69A669A669A6",
"X	c #B6DA9248BEFB",
"o	c #D75CCB2BD75C",
"O	c #FFFFFBEEFFFF",
"+	c #F7DEEBADF7DE",
"@	c #C71BC30BC71B",
"#	c #965892489658",
"$	c #618561856185",
"%	c #DF7DAAAAEFBE",
"&	c #BEFB5144DF7D",
"*	c #C71B6185E79D",
"=	c #C71B6595EFBE",
"-	c #CF3C71C6EFBE",
";	c #CF3C71C6F7DE",
":	c #CF3C8207F7DE",
">	c #B6DA6595DF7D",
",	c #CF3C79E7EFBE",
"<	c #E79DC30BEFBE",
"1	c #9E791040D75C",
"2	c #AEBA2081DF7D",
"3	c #A6992081DF7D",
"4	c #B6DA30C2E79D",
"5	c #B6DA38E3EFBE",
"6	c #B6DA4103EFBE",
"7	c #BEFB4924EFBE",
"8	c #BEFB5144F7DE",
"9	c #C71B5965EFBE",
"0	c #C71B5965FFFF",
"q	c #CF3C69A6F7DE",
"w	c #B6DA38E3E79D",
"e	c #AEBA30C2E79D",
"r	c #AEBA2081D75C",
"t	c #A6991861D75C",
"y	c #A6991040D75C",
"u	c #96580820CF3C",
"i	c #AEBA28A2DF7D",
"p	c #C71B5965F7DE",
"a	c #CF3C5965FFFF",
"s	c #BEFB4103EFBE",
"d	c #A6991861DF7D",
"f	c #A6990820CF3C",
"g	c #9E790000D75C",
"h	c #9E790000CF3C",
"j	c #9E790000C71B",
"k	c #9E792081D75C",
"l	c #9E790820CF3C",
"z	c #96580000C71B",
"x	c #CF3C6185FFFF",
"c	c #C71B5144F7DE",
"v	c #BEFB38E3EFBE",
"b	c #C71B5144FFFF",
"n	c #BEFB4924F7DE",
"m	c #FFFFF3CEFFFF",
"M	c #F7DEFBEEF7DE",
"N	c #618561855965",
"B	c #BEFB30C2EFBE",
"V	c #C71B4103EFBE",
"C	c #A6990820D75C",
"Z	c #96580000CF3C",
"A	c #AEBA38E3C71B",
"                       .XoO+@#$                      ",
"           %&**==-;-:::>>,::,>>,::--;==*&&           ",
"          <1234456678890q0;qq0098876ww4erty          ",
"         <u123i5w7w77ppp0;qaq0q8878sw64irdfg         ",
"        <uhy1ii45w77p8ppqqaqqppap7s7ww4erd1hj        ",
"ujuhh1tklultri4w6w777pppqaqqa0q88ps7swweirtlfu21l1hzu",
"hhuhl1rdi4ww567w7p7ppapqax0qqqpqp8c777s75ww4er211fuhh",
"hhhhl12rii45ww7777p7a9pq0;qqa0qpa8pccss6sw44errd1fuhh",
"huhhl12ti4eww7s7787p8ap0;aqa;qpappp8s87s5ww4iiiy1hhhh",
"hhhhl1r2re4w5w7s7spc8a0;a;aqpqpq8pc777s75ww44idd1lhhz",
"hhuhf12di4ewsw77787ppa=aqqaqqa0q8ap87ss7s4w4iidt1fuhh",
"        jgh1tii45s7778a00qqpq0q8pc6vsseiiy1huh       ",
"         uh1r344w7577p80;aqqa0q8bs8sw544dt1lg        ",
"          uy1iiw5w7sp7a=qqpqq0app87swwwiid1g         ",
"           yr3iww67sc8pppq0qq009cnsss4we3ty          ",
"                       .XoO+@#$                      ",
"                        XoO+@#$                      ",
"                        XoO+@#$                      ",
"                        XoO+@#$                      ",
"                        XoO+@#$                      ",
"                        XoO+@#$                      ",
"                        XoO+@#$                      ",
"                        XoO+@#$                      ",
"                        XoO+@#$                      ",
"                        XoO+@#$                      ",
"                        XoO+@#$                      ",
"                        Xom+@#$                      ",
"                        XoO+@#$                      ",
"                        XomM@#$                      ",
"                        XoO+@#$                      ",
"                        Xom+@#$                      ",
"                        XoO+@#$                      ",
"                        XomM@#$                      ",
"                        XoO+@#$                      ",
"                        Xom+@#$                      ",
"                        XoO+@#$                      ",
"                        XomM@#$                      ",
"                        XoO+@#$                      ",
"                        Xom+@#$                      ",
"                        XoO+@#N                      ",
"huhuhuhu       ju1t44677aqp;p887w4i2lu        huhuhuh",
"hhhhjhuj       uhyt4w67ca0;a0pps74id1h        hjhhjhu",
"y1hy1hy1       uh1ri5wp7a0;qap88s4etyz        ly1ly1f",
"1r1dtttd       huyt45w7ppqaq0pp754i2lh        1t1r11t",
"42riiiir       uh1ri677p8qqa0pps5w4t1h        2iiiiii",
"4e4e4i4e       uhydeww7ppaqq0p78s4idlh        4444i44",
"w4www5w5       uuyt4w777aqaq0p87s4et1h        4www54w",
"sw7wswsw       huyt4w77ppqqa00ps74ir1h        wswsww7",
"7757s757       zg1rew777aqaxxp87s4edlh        77s677s",
"87s87777       zjf3i5w78a0;00=88s4idfu        s77s877",
"7p77p77pghhghhguh1rew77caqqq0p8s74ir1hhhhghhgh87p77p7",
"p8a98app3riii3r2uyt4w777a0qa00p7s4id1hriiriir3a98a98a",
"aa9a0pq8s455ws4ehytew77ppqa;0pps55ir1hww555w559q8q8qp",
"qpq0;a0qs8777774h1rew777aqqa0988s4idyuw78777770qaqaqp",
"qqa;ax;a888888p8uyd4w777a0qq0p8s74i3lh9ppp788pqqaqqaq",
"qa;axx0;qqxxxxq7gyt4ww78aqqa00p7s4erghqqaqqqxqaqqa0;a",
"qqa;0;qaqaqqxxq8hytew77ca0qq00p75wid1hqa0qaqaqqaqqqa;",
"qpqpqpqpp0apqpa8h1rew777a;aq09ps5w4tfua000qp0pqpqpqp0",
"pppapppp8p87cn87uyd4w77p8qqa0p88s4idlh898p8788appppp0",
"8p8p8p88ssss6ss5hyt4w677aqa;0p8s74i3fu7s57s7s7888p8pp",
"pnccn888B4w4544ih1reww7caqa0;8pss4etyu44444444p788ccn",
"s87s8s772y2dtdryuyt4w77p8qqqpp87s4etyut212tdry8s777s8",
"7ss57ssVuhujujuhuyt4w777aqaqpp87v5idfhzzhjujuh7ssvss7",
"s45s4sws       huytew77p8qqa0ppss5ir1u        w5w745s",
"45w4we4w       zh12i5w7ppaqqpp87s4etyh        4w445w4",
"4i4i4ei4       uuyt4w777aqaqpp87s4ergu        i4i4i4i",
"r3r3rrid       juC34w67ca0;a0ppss5idfh        dr3ri3r",
"ydt1d1dt       uh1ri5w7ppqqqpp87v5ir1u        1ttd1t1",
"1hlf1ll1       uhytew77p8qaqpppnv5idlh        fl1hfly",
"hhhuhhhz       jZy34w777aqaqpp8s74er1h        uhhhuhh",
"hujujujh       Zuydi577p8qqqpp87v5idfu        zhzhzhz",
"               &uhti4w77c8app8ns5er1hu               ",
"                Auliew577pap87s74ii1j                ",
"                  irew6w77p877s45i2i                 ",
"                      47s78ss75w                     "};
