/* XPM */
static char * 00CVCYN_xpm[] = {
"75 107 63 1",
" 	c #71C675D671C6",
".	c #208120812081",
"X	c #410341034103",
"o	c #96589658AEBA",
"O	c #C71BC30BC71B",
"+	c #F7DEF3CEF7DE",
"@	c #FFFFFBEEFFFF",
"#	c #DF7DDF7DE79D",
"$	c #AEBAAEBABEFB",
"%	c #96588A289658",
"&	c #FFFFF3CEFFFF",
"*	c #0000249279E7",
"=	c #000030C28617",
"-	c #000045148E38",
";	c #000059659E79",
":	c #000069A6A699",
">	c #000079E7AEBA",
",	c #00008A28BEFB",
"<	c #00009A69BEFB",
"1	c #00009A69C71B",
"2	c #0000AAAACF3C",
"3	c #0000B2CAD75C",
"4	c #0000C30BD75C",
"5	c #0000CB2BE79D",
"6	c #0000D34CE79D",
"7	c #0000DB6CE79D",
"8	c #0000EBADF7DE",
"9	c #0000E38DF7DE",
"0	c #0000F3CEFFFF",
"q	c #0000F3CEF7DE",
"w	c #0000E38DEFBE",
"e	c #0000CB2BDF7D",
"r	c #0000BAEAD75C",
"t	c #00008207B6DA",
"y	c #000051449658",
"u	c #00002CB279E7",
"i	c #0000186171C6",
"p	c #0000082069A6",
"a	c #0000208179E7",
"s	c #000071C6AEBA",
"d	c #00009248BEFB",
"f	c #0000A289CF3C",
"g	c #8617FBEEF7DE",
"h	c #0000DB6CEFBE",
"j	c #0000AEBACF3C",
"k	c #00009248C71B",
"l	c #000000006185",
"z	c #000000005144",
"x	c #000045149658",
"c	c #0000A289C71B",
"v	c #000061859E79",
"b	c #000079E7B6DA",
"n	c #000038E38E38",
"m	c #00008617B6DA",
"M	c #0820D34CE79D",
"N	c #0820082071C6",
"B	c #38E351449658",
"V	c #0000186179E7",
"C	c #000004106185",
"Z	c #71C66DB6A699",
"A	c #9E79D34CE79D",
"S	c #FFFFFFFFFFFF",
"D	c #00009A69CF3C",
"                                .XoO+@#$%X                                 ",
"                                .XoO+&#$%X                                 ",
"               *=-;:>,,<12334567890000q00qww75err22<<,t>:y-ui              ",
"              pa=-;sttddf22r4567980gg000gqqh765rrj21<kt>:;-=ap             ",
"             lpa=-;sttddf22r4567w8ggggggg8ww76e4332<1kt>:;-=azp            ",
"            zppa=x;:ttd<f2244567988gggggg88wh65rr3fcd,,>:;-=apll           ",
"llplliiu=x;vs>t,ddfcfjrrr5567h9w8gggggggggg99wh7654rr322<<ddttbsvy-=uipllll",
"plplppi=nx;vs>t,ddf<223r44567998qggggggggg88qww7654rr33ff<kdmtbs;;-nuappppl",
"plplppi=nx;vs>,,kk<f233r44567h998gggggg0ggq89wwM65443r2fc<1kmtbs;;-nuiilplp",
"lplpliau=x;vs>t,dkcff233446679w8qggggg000gqq8wwM654rr33cc<kd,tb:v;-=uaNlplp",
"plplppi=nx;vs>,,,11cc334ree67h988ggggg000gqq99h765443r22111,,t>s;;-nuiilplp",
"lplpppau=x;vs>t,kd1c223rreeM7h98qgggg00000qq9wwM6544r3j211ddmtb:vyx=uapplpl",
"plpplia==xyvstt,ddccc333erM67h988gggg00000qq9wwM65er3r2fc1<,,tbs;yx=uaNlppl",
"BBBBBBBBBBBlllpa=x;:tmd<c2334ehMw8qgg00ggqqMMMe43221d,m>:y-=VNllCBBBBBBBBBB",
"            llNa=x;sbmdkc22r4M6798gg000ggqq9MMe4rj2<1d,>:;x=VClC           ",
"             ppa=x;sttdkc22rr667988gg0gggq9wM7e433fckdm>:;x=aCN            ",
"              Ban-;sttdkc233ee6h99qgg0gggq9wwM4433211,mb:;x=VZ             ",
"                =-;stmddc22rrM6798qgg0gggq8wMM5rr3cckdtb:;x=               ",
"                                .Xo++@#A%X                                 ",
"                                .Xo++@#$%X                                 ",
"                                .Xo++&#$%X                                 ",
"                                .XoS+&#$%X                                 ",
"                                .Xo++&#$%X                                 ",
"                                .XoS+&#$%X                                 ",
"                                .Xo++&#$%X                                 ",
"                                .Xo++&#$%X                                 ",
"                                .Xo++&#$%X                                 ",
"                                .XoS+&#$%X                                 ",
"                                .Xo++&#$%X                                 ",
"                                .XoS+&#$%X                                 ",
"                                .Xo++&#$%X                                 ",
"                                .XoS+&#$%X                                 ",
"                                .Xo++&#$%X                                 ",
"                                .XoS+&#$%X                                 ",
"                                .Xo++&#$%X                                 ",
"                                .XoS+&#$%X                                 ",
"                                .Xo++&#$%X                                 ",
"                                .XoS+&#$%X                                 ",
"                                .Xo++&#$%X                                 ",
"                                .XoS+&#$%X                                 ",
"                                .Xo++&#$%X                                 ",
"                                .XoS+&#$%X                                 ",
"                                .Xo++&#$%X                                 ",
"                                .XoS+&#$%X                                 ",
"                                .Xo++&#$%X                                 ",
"                                .XoS+&#$%X                                 ",
"                                .Xo++&#$%X                                 ",
"                                .Xo++&#$%X                                 ",
"                                .Xo++&#$%X                                 ",
"                                .Xo++&#$%X                                 ",
"                                .Xo++&#$%X                                 ",
"                                .XoS+&#$%X                                 ",
"                                .Xo++&#$%X                                 ",
"                                .Xo++&#$%X                                 ",
"                                .Xo++&#$%X                                 ",
"                                .XoS+&#$%X                                 ",
"                                .Xo++&#$%X                                 ",
" lllllllllp          lla=vs,df2r5798000qqh74r2<dtsy=ilp          lllllllll ",
" lllplllpll          lla-;>,df2456w00000q96erjcdts;=all          llplllpll ",
" llllllllll          llan;>,<f3r56w00000qh75r2<d,s;=ilp          lllllllll ",
" iiiiiiiiii          lpa-;>,df24579q0gg00w74rjcdts;=all          piiiiiiii ",
" uuuuuuuuuu          llanvs,<c3r569q0gggq965r2cdts;=alp          uuu=uuuuu ",
" x-x--x-x-x          lla-;>,kc3re6980ggg8974rjcdmsynipl          --x--x-x- ",
" ;;v;;v;;v;          llan;b,<c2re79qgggg8974r2cd,:;nVll          ;;;v;;v;; ",
" ssssssssss          zpa-;>,kc3rM698gggg896erjcdts;=Vll          sssssssss ",
" tttttttttt          llan;>,kc3re69ggggg89Mer2cdm:;nVll          ttttttttt ",
" ,ddddddd,d          lla-;bm11jrM698gggg897er21dms;=all          ,,ddddd,d ",
" <<d<d<d<d1          lpa=;b,dcjreh98gggg89Mer2ckts;=Vll          d<<d<d<<d ",
" fcfffffffc          lla-;s,<cjreh98ggggqwM5r2<kms;=iCl          1ffffffff ",
" 222j22j22j          llan;b,dcjrehw8gggg896er2cdms;=iNz          322j22222 ",
" 3rr3rr3r33          lla-;bmkcjrMM9qgggg89Merjcdts;=ilC          3r3rr3r3r ",
" 44r4rr4r44ppppppppppzlan;bmkcjreMw8gggg89Mer2c,,sy=iClCpppppppppr44rrr4rr ",
" 55565eM5eMiiiiiiiiiilpa=;bm1cjreh9qgggg89Mer2ckts;=iNlViiiiiiiiae556eMeMe ",
" 766676766M;;y;;y;;y;lla-;bm<DjrMMhggggg897er2cdts;=ill;y;;;y;;yx766766767 ",
" hh9hhhh9hwmtttt,ttmtlpan;bmkc3rehw8gggg89Mer21dmsy=VNz,tmtt,ttm,hhhhh9hhh ",
" wqwqqwqwqwf<fc1c1f<fllan;>m1cjrMMwggggg89Mer2ckts;=iNzc1c1f<f<f<qwqqwqwqw ",
" 00q0q0q00qrrrrrrrrrrlla-;s,113reh98gggg89Mer2cdms;=illrrrrrrrrrr00q00q00q ",
" 00000000007676766766plan;bmkc3rMMhqgggg8974rjcdts;=NClhM6h66766700000000g ",
" 00000ggg00qq80880w00lpa=;bm1cjrehwggggg89M5r2cdts;=Vll88888080800gggggggg ",
" 00gggggggg0000000000lla-;bmkc3rMMw8gggg89Mer2c,ms;=iNlggggg000000gggggggg ",
" 00ggggggggggg0000000lpan;bmkc3reMwggggg89Mer2cdms;=ilCggggggg000ggggggggg ",
" 00gggggggg9w8qwqwqw8llan;bmkc3rM6w8gggg8974rjcdts;=VNz99w99w8qwqggggggg8g ",
" q08888888qeMeeMeMe6eCla-;bmkc3rM698gggg8wM5r2cdms;=ilCMeMeMeMeMe9888qq888 ",
" ww988qw99wr333333333llan;bmkc3r4hw8gggg8wh4rjcdts;=iNl3333j33332898w999qw ",
" 97hwhMwMwM11<k<1d1<1lCa-;>mkc3rMM9qgggg8wM5r2cdms;=iNz1<1<1<1<1<whMwwMwMw ",
" 667M6hM7M7b>tb>tb>t>lCan;bmkc3rM6w8gggg8whr421kms;=iNzb>t>bb>tb>hM7MM7M7M ",
" e45454545r-x-x-x-x-xlla-ybmkc3rMM98gggg8whe3jcdts;=azC-x-x-x-x-xeree45454 ",
" rrrrr4rrrrNpNCNNpNpNzCa=v>mkc3r4hw8gggg8whe3j1kms;=iNNlNNpNCNNpp43r4rrrr4 ",
" 333r33333rBBBBBBBBBBCCan;bmkc3rMM98gggg8wMer2cdms;=izzBBBBBBBBBB33j333r33 ",
" f2jfj22f22          lla-v>m1c3rM6w8gggg89hrrj1dm:y=aNz          22222j2f2 ",
" <f<1c<1c11          llanv>m113rM698gggg8whe3j1dmsy=iNz          <1c11c<1c ",
" dd<dd<ddk1          llanv>m1c3rrhwqgggg8wMer2ckts;=iNz          d<kd1dk1d ",
" ,,tkt,,,,m          zpa=;b,dcjrMM98gggg8wher2cdms;=all          ,t,mmmmm, ",
" >tt>tt>t>t          lla-;>m1c3rMMwggggg8wMer2Ddms;=iNl          tt>ttbttb ",
" ::::::::::          llan;bmkc3r4hw8gggg8wh4r21<ms;=azC          ::::::::: ",
" ;y;y;y;;xy          lla-;>m1cjrMMw8gggg8wMer2ckms;=iNz          y;y;;x;;y ",
" nnnnnnn=-n          llan;bmkc3r4h9qgggg8wh4r2ckts;=azC          =nnnnnnn= ",
" aua*a*a*au          lla-;>mkc3rMMw8gggg8wMer2cdts;=iNl          auaa**a*= ",
" ppppNipNpp          llan;bmkc3rMMwggggg8wh4r2ckts;=azC          ppipNiNpN ",
" llpllplpll          lla-;>m1c3rM698gggg8wMer2ckts;=iNl          zplplllll ",
" lllplllllC          plan;>mkc3r4hw8gggg8wMer2ckms;=iNl          pllllplpl ",
"                     plpa-;tmkc2reMw8gq9Mhr331kts;=aNzN                    ",
"                     llpanvsmkc2rrM798qwwee3ccdmsy=iNzC                    ",
"                      lpan;btd12jrehMwwMMer321,t:y=iNz                     ",
"                       Bi=;vtm1cjree7M76e432cd,>:-=N                       ",
"                          -vbmk12j3re5e4433c1dt>vZ                         ",
"                               <cc33rrrr33cck                              "};
