/* XPM */
static char * 00CVWHT_xpm[] = {
"53 75 24 1",
" 	c #71C675D671C6",
".	c #69A669A669A6",
"X	c #9E799E799E79",
"o	c #D75CCF3CD75C",
"O	c #FFFFFFFFFFFF",
"+	c #F7DEEFBEF7DE",
"@	c #C71BC71BC71B",
"#	c #965896589658",
"$	c #618561856185",
"%	c #D75CD75CD75C",
"&	c #E79DDF7DE79D",
"*	c #DF7DDF7DDF7D",
"=	c #E79DE79DE79D",
"-	c #F7DEF7DEF7DE",
";	c #CF3CCF3CCF3C",
":	c #FFFFF7DEFFFF",
">	c #EFBEEFBEEFBE",
",	c #EFBEE79DEFBE",
"<	c #B6DAB6DAB6DA",
"1	c #BEFBBEFBBEFB",
"2	c #C71BBEFBC71B",
"3	c #B6DAAEBAB6DA",
"4	c #BEFBB6DABEFB",
"5	c #CF3CC71BCF3C",
"                       .XoO+@#$                      ",
"            o%%&*==+++-%*+OO=&;:+>==,*&%%;           ",
"           <1@o%*&*==+-OOOOOOO:>+>=***%;21<          ",
"          <<1@;%%*==++-OOOOO:O--+==,**%@@1<3         ",
"         33<1@o%*&*+=+--OOOOOO:+>>=***o;@<<33        ",
"<3<33<1@<<<1@@%%&&*=+--OOOO:OO+-->==*&%o@@41<<2<<<333",
"<3<3<<12;;o%*&&*==++--OOOOOOOOOO+-+>==,*&*%o;@21<3<3<",
"<3<3<<12@;%%*&*==+>+-OOOOOOOO:OO--+>===***%%@@@1<3<3<",
"<3<3<<11;;o%***=+=+>-O:OOOO:OOO:-+>+>==***%oo@21<3<3<",
"<3<33<1@@;o*%*,*=+>+--OOOO:OOOO:--+>===,**%o;@21<3<3<",
"<3<33<11;;o%*&*===+>-OOOOOOOOOO:-->+>==***%%@@@1<3<33",
"        333<1@o%&*==>++-OOOOOO:+>==**&%;@<<33<       ",
"         <3<1@;%**,==+-OOOOO:O+-+>==**%;21<<3        ",
"          3<1@o%*&*=+>O+OOOOOOO+>>=***%@@23<         ",
"           <1@;%%*==+>-OOOO:OO+->>=,**%5@1<          ",
"                        X;:+@#$                      ",
"                        XoO+@#$                      ",
"                        XoO+@#$                      ",
"                        XoO+1#$                      ",
"                        Xo:-@#$                      ",
"                        XoO+@#$                      ",
"                        Xo:+@#$                      ",
"                        XoO+@#$                      ",
"                        XoO+@#$                      ",
"                        Xo:+@#$                      ",
"                        XoO+@#$                      ",
"                        XoO+@#$                      ",
"                        Xo:-@#$                      ",
"                        XoO+@#$                      ",
"                        XoO+@#$                      ",
"                        XoO+@#$                      ",
"                        XoO+@#$                      ",
"                        Xo:+@#$                      ",
"                        XoO+@#$                      ",
"                        Xo:-@#$                      ",
"                        XoO+@#$                      ",
"                        Xo:+@#$                      ",
"                        XoO+@#$                      ",
"                        Xo:-@#$                      ",
"                        XoO+1#$                      ",
"<33<33<3        3<1;%&*++OOOO+>,*%@233        3<3333<",
"<3<3<3<3        <<1;%*+=OOOOO+>***@13<        <3<3<3<",
"<3<3<3<3        3<1;&&=+-OOOO++=*%o13<        3<3<<3<",
"11111111        <<1;%&=+-OOOO+>=**@23<        <111111",
"@@@@@@@@        3<1;%*=+-OOOO:>=*%;13<        @@@@@@@",
"o;o;;o;;        3<1;**=+-OOOO++=**@23<        o;o;;;o",
"*%%*%%*%        <<1;%,=+-OOOO:==*%;13<        %*%%*%%",
"*&**&**&        3<1;*&=+-OOOO++=**@13<        &**&**&",
"**,**,**        3<1;**=+-OOOO+>=*%;23<        **,**,*",
"+===+===        <<1;%*=+-OOOO:>=**@13<        +===+==",
"=++>=+>+<3<3<<<3<<1;%,,>OOOOO+>,*%;13<3<3<<3<3=+>+=+>",
"O+----+-1@@@1@21<<1o%*=+-OOOO+>***@23<1@1@1@21O+----+",
"O:-OO:-O%*%%*%*%3<1;*&=+-OOOO++=*%;13<%%%*%%**-O-OO:-",
"OOOOOOOO*,*,*,*&3<1;%*=+-OOOO:==**@23<*,*,*,**OOOOOOO",
"OOOOOOOO+++>+++=<<1;*,,>OOOOO++=*%;13<=+++++++OOOOOOO",
"OOOOO:OOOOOOOOO><<1;%&=+-OOOO+>=**@23<OOOOOOOOOOOOOOO",
"OOOOOOOOOOOOOOO=<<1o%*=+-OOOO+>=*%;13<OOOOOOOOOOOOOO:",
"OOOO:OO:O::O:-O+<31o**=+-OOOO++=**@23<+O:O+OO+OOOO:OO",
"O+O+O+O+=+==+=+*<<1;*&=+-OOOO:>=*%;13<==+=+==+-O+:-O+",
"+++-+++-**=*****<<2;%*=+-OOOO+>,**@23<***=*=**O+++++-",
"+>>>>>>=%%%%%%%;3<1o*&=+-OOOO:==&%;13<;%%%o%%%=+>>>>>",
"========211<11<13<2;%*=+-OOOO++=*%;13311<11<11,======",
"*,*=*=,*<3<33<3<3<1;**=+-OOOO:==&%;13<3<3<33<3***=*=*",
"&***&***       33<1;%*+>OOOOO++=*%;133        ***&*&*",
"%*%%%%%%       33<1;*&=+-OOOO+>=**@13<        %*%%%*%",
";@;;5o;;       33<1;*&=+-OOOO+>=*%;13<        @;o@o@;",
"@@2@@2@2       33<1;%*=+-OOOO++=**@23<        2@2@@2@",
"1<<1<<1<       33<1;**=+-OOOO:==*%;13<        1<1<<1<",
"3<33<33<       <3<1;*&=+-OOOO++=**@23<        33<33<3",
"<3<3<3<3       33<1;**=+-OOOO:>=*%;13<        <3<3<3<",
"<3<3<3<3       33<1;%*=+OOOOO+==**@133        3<3<3<3",
"               @<3<<@@%%&=++=**;@2<3<3               ",
"                1<<<1@;o**>==*o;21<33                ",
"                  1<12@o%****%;@2131                 ",
"                      @@o%%%o;@@                     "};
