/* XPM */
static char * drip_xpm[] = {
"85 87 58 1",
" 	c #9E799A699E79",
".	c #618565956185",
"X	c #30C230C230C2",
"o	c #618530C230C2",
"O	c #30C265956185",
"+	c #6185659530C2",
"@	c #618530C26185",
"#	c #8E3892488E38",
"$	c #618565959E79",
"%	c #9E799A696185",
"&	c #61859A696185",
"*	c #9E7965959E79",
"=	c #61859A699E79",
"-	c #9E7965956185",
";	c #0000000030C2",
":	c #CF3CCF3CCF3C",
">	c #FFFFFFFFFFFF",
",	c #FFFFFFFFCF3C",
"<	c #CF3CCF3CFFFF",
"1	c #FFFFCF3CFFFF",
"2	c #CF3CFFFFCF3C",
"3	c #CF3C9A699E79",
"4	c #9E79CF3CCF3C",
"5	c #CF3C9A69CF3C",
"6	c #CF3CCF3C9E79",
"7	c #000030C230C2",
"8	c #CF3CFFFFFFFF",
"9	c #FFFFCF3CCF3C",
"0	c #30C200000000",
"q	c #9E799A69CF3C",
"w	c #30C2659530C2",
"e	c #30C230C26185",
"r	c #9E79CF3C9E79",
"t	c #30C2000030C2",
"y	c #000030C20000",
"u	c #30C230C20000",
"i	c #000000000000",
"p	c #30C265959E79",
"a	c #000030C29E79",
"s	c #000000006185",
"d	c #000030C26185",
"f	c #000000009E79",
"g	c #000065959E79",
"h	c #00006595CF3C",
"j	c #30C26595CF3C",
"k	c #00009A69CF3C",
"l	c #30C29A69CF3C",
"z	c #61859A69CF3C",
"x	c #00009A699E79",
"c	c #00009A69FFFF",
"v	c #30C2CF3CCF3C",
"b	c #0000CF3CFFFF",
"n	c #0000CF3CCF3C",
"m	c #6185CF3CCF3C",
"M	c #30C29A699E79",
"N	c #000065956185",
"B	c #30C2CF3CFFFF",
"V	c #30C29A69FFFF",
" .X...X...X......X....X...oO..oO..oO..oO..oO..oO..oO..oO..+...+@.O+@.O+@.O+@.O+@.O+@ ",
".###################################################################################.",
".##############XXXXXXXXXXXXXX.$%$ . &*=-=%=*%$  %$ %.=..XX;#########################.",
".##########.  ::::>:::>::>:>::,<,:>:>:>:>:12<>::::34:3:5:46   X7####################.",
".########.:::::::::::>::>::8981<2121:21212>:,::::   -= & -    :3 .X#################.",
".######X : :::::::::::::::>:9:,:,<2121:,<9<:::  ......-$. . *=   : .0###############.",
".###### :::: :::::::::::::::<2<:>:9:89812::: ..oO....... .&*& %    :4.##############.",
".##### :: :::::: ::::::::::::::::<21292::: .oO...@....... . $%$      : X############.",
".####. : :: :: :::q:6::::::::::::::::<:: .wX.X.X.w.w......*&.  .      :3O###########.",
".###X  : : : ::: :6:q:6:q:6:::::::::::: @w@X.X.X.@........&-$ .        ::.##########.",
".###  : : : : : ::q:6q::::::3::::::::5&XXXX.Xw@w@w.X.......*&-=%$%     q65%#########.",
".##X   : :  : : : : ::: : ::4:::6:::6.XXXXXXX@Xw@w@.+e.....&.*&* *     r34:.########.",
".##.      : :  : : : : ::: ::3:45:45&XXXXXXXXX.X.X.X.......$-=-=%=-     q6q:X#######.",
".##           : :  :  : : : :43:::: XtXXXXXXXXXew@w@w@Oo....&.*&* =     6q64:X######.",
".##               : : : : : :346q3 XXXytXXXXXXXXoXOoO+.......*&*&* %     q6q6q######.",
".#X                  :   : : 43q64XXu;XX7tyXXXXXX.X.X.e.+....&$-=%$      6 :5:.#####.",
".##.  .                 : :  : :r*XytXu;uXXXuXXXXXX@w@+.O@...$%. . &*    qr5r: X####.",
".##                         : : :Xyt7070X;uX;XXXXX.Xw@w@+.....&*&*       6 : ::.####.",
".## . .  .                     :.XiXiu;u;u;XXu7XXXXw@w@O......*. . .     q : :: X###.",
".##. .  .   .                 : Xty0707i070XiXtXXXXoe+e+O@+...&. .       6 : :::.###.",
".##X . .  .    .  .             Xii;iiiu;ytyXXXXXXXewoO@+.....-$%$ &*    q : : : ###.",
".### ... . . .  .     .       :.iytyity;i0707tyXXXXw@X.X.e....$&-=-      6 : ::::X##.",
".###X. . .. . .  .  .   .     :Xitiiiiii07070XXXXXXXX.X.+.....&-=-=%*=    q6q343:$##.",
".###X..... . . . . .  .  . .   Xiyiiiiii7iiXiu7tXXXe+XOoO@.....*. -=      6q6:::: ##.",
".####X....... .. . . . .    .: iitiiiiiii0707tXuXXXXX.X..w.....&$%$ %*    q6qr5r::y#.",
".#####X........ . . . .  . . :.u;yiiiii0i707tu7XXXXw@X.@w@....-$%$ .     43r5::5:6;#.",
".######X........... . . . .   .;0i0yiiii7i07070XXXX@Xw@w......=.%$%      3 q6 :r::X#.",
".#######X..X.......... .. . .:.u;y;iiityi0707XXXXXXXw@w@.X.....-=-=-=     46q:::5:X#.",
".#########.............. .. .:.iXiu;0yiitytyX0XXXXXw@X@w...... . .       : 5 : :::X#.",
".##########X.X............ . 4.07ity;070707ut7XXXX@Xw@w.oO......=-= -      :r:::::e#.",
".###########X.X............. 3.70Xy;ui7070X;XXXXXXwX@w.e......*&*&*=     : : 546::X#.",
".#############.X.X...........:.XXiXtytXiXX7uXXXXeXoOoOo.+....$&-=- %      : :6:5::X#.",
".##############XX..X...X.....:.X07tyXXyt70XXXXXXwXX.XO+e....%.-=-= =    :  :r5:4::X#.",
".###############X.X..X....X..  XXuXX07tuXXXXXXXXoe+e+@.......$&*&*%*      : :q:6::##.",
".#################X.X.X.X.... pXXXXXXXXXXXXXXowXe+XOoO.X....$%.*&*=     : : :6::: X#.",
".##################XX.X.X.X.. :aXXXXXXXXXXXXXXeowe+@Oo......%.*&  %      43454::: ##.",
".###################XX.X.X.X.. aasXXXXXXXXXeX+Xw@X.w@......$.=*&*&     6q6q6:65::+##.",
".#####################X.X.X.X. adadeXXweXOX+Xe.X@w.@w......-&-&* *    q 34345:46q###.",
".######################XXX.XX.. asasdXXoXoXXe+XoO+@w..... .=-$  &     3rq6q6:::: ###.",
".#######################XXXX.X. asdssaeXOX.X.XO..e.........-=%$%*      4343:r5::X###.",
".#########################XXXX..6fsasdsdow@w@w@+e+.....&.$%$&*%=     : 34345::: ####.",
".##########################XXXXXqesssfdsae@w.@+O......*..%$%$%$        : :4:r::X####.",
".###########################XXXX  esssasadd.@w.@........ .$% *     34 : :565:: #####.",
".#############################XXX: 7sssadaadO......=.&-$&*%&*&       343464:::X#####.",
".##############################XX.: edsfddaaap......-.$%. $       4 : : :5:::.######.",
".################################X  ..ddfaaaagap..-.=. . . .       3 : :46:: #######.",
".#################################X   .eadaaagagp$&$-&-=*&      r3qrq6q65:: ########.",
".##################################X   ..adagagghgp%$%$ %*      q r56q64:::#########.",
".###################################X   .$gaagahghgj=*=-=      3 r5 465:: X#########.",
".####################################X   ..paghgghgkg=       qr q6q6: :: X##########.",
".###################################### :  .pgaghkhhkkl=       343q6q:: ############.",
".#######################################.::  =ghhgkhkhkkz    6qr5r:::: #############.",
".########################################X.:   pghxhkkkckvq rq3 : :: X##############.",
".##########################################X : :lkhkkkkkkbkz 34::: X################.",
".############################################X. :qkkkkckccnbm:: .X##################.",
".################################################X.ppMzmlM $.O0#####################.",
".###################################################################################.",
".###################################################################################.",
".###################################################################################.",
".###################################################################################.",
".###################################################################################.",
".###################################################################################.",
".###################################################################################.",
".###################################################################################.",
".###################################################################################.",
".###################################################################################.",
".###################################################################################.",
".###################################################################################.",
".###################################################################################.",
".###################################################################################.",
".###################################################################################.",
".###################################################################################.",
".###################################################################################.",
".##############################################77dgg7777777gNd77;###################.",
".#########################################;7gglklklknckncnclklkkMgge################.",
".########################################NplhMklkkbkBkbVncvkbklklkMkpg;#############.",
".######################################gphMklklkkklbkbbnbcncnlnclklhMlgp7###########.",
".#####################################ppplxjxlkklcncncncncnVkcklklkMlgpjg7##########.",
".####################################pgMjxjlklklkncvcbbbbbbkbnlkklkjkpkppp##########.",
".####################################pppxjMhlkklclbkbbbbbncnclkklklxjMjMpg;#########.",
".####################################7pplglxlklkkncnbbkbcbnVbkblkklkplgppO##########.",
".#####################################dMppkjxlkklclbkbbbbbkbkklklklglhMpg###########.",
".######################################;gMlMhlklkkncnVnbkbkbkBkklklkMpp7############.",
".#########################################dgMklkklclbkblbkBklkklklxpd7##############.",
".############################################;NpxkkkkkkkkkkkkklgN;##################.",
".#################################################77iiiiiii77#######################.",
" ..X...X...X...X...X...X...X...X...X...X...X...X...X...X...X...X...X...X...X...X...X "};
