/* XPM */
static char * 00BVMAG_xpm[] = {
"52 74 60 1",
" 	c #71C671C671C6",
".	c #71C618619658",
"X	c #96580000CF3C",
"o	c #96580410CF3C",
"O	c #9E791861D75C",
"+	c #AEBA28A2E79D",
"@	c #B6DA30C2E79D",
"#	c #B6DA38E3E79D",
"$	c #BEFB4103F7DE",
"%	c #C71B5144F7DE",
"&	c #C71B5965F7DE",
"*	c #CF3C5965FFFF",
"=	c #CF3C6185FFFF",
"-	c #BEFB4103EFBE",
";	c #BEFB30C2EFBE",
":	c #AEBA2081D75C",
">	c #A6991861DF7D",
",	c #86170C30AEBA",
"<	c #71C620818E38",
"1	c #A6991040D75C",
"2	c #AEBA2081E79D",
"3	c #BEFB4924F7DE",
"4	c #8E381040AEBA",
"5	c #BEFB38E3E79D",
"6	c #AEBA28A2DF7D",
"7	c #96580000C71B",
"8	c #9E790C30CF3C",
"9	c #B6DA4103F7DE",
"0	c #CF3C4D34FFFF",
"q	c #C71B6185EFBE",
"w	c #59652CB271C6",
"e	c #9E790000CF3C",
"r	c #CF3C5965F7DE",
"t	c #BEFB5965F7DE",
"y	c #8E380000CF3C",
"u	c #DF7D6185FFFF",
"i	c #C71B4103F7DE",
"p	c #A6990C30DF7D",
"a	c #B6DA28A2E79D",
"s	c #B6DA38E3EFBE",
"d	c #AEBA30C2E79D",
"f	c #B6DA4924E79D",
"g	c #AEBA2CB2DF7D",
"h	c #BEFB4D34E79D",
"j	c #D75C9A69E79D",
"k	c #D75C5965FFFF",
"l	c #AEBA38E3DF7D",
"z	c #861738E39E79",
"x	c #9E794103BEFB",
"c	c #A69930C2CF3C",
"v	c #A69979E7B6DA",
"b	c #96585965A699",
"n	c #E79D9658FFFF",
"m	c #FFFFDF7DFFFF",
"M	c #BEFBB6DABEFB",
"N	c #FFFFFBEEFFFF",
"B	c #AEBA4924D75C",
"V	c #AEBA2081DF7D",
"C	c #8E380000C71B",
"Z	c #8E380820BEFB",
"             .XoO+@#$$%&&*==%%%$-@;:>o,             ",
"             <X1>2#@$$%&&*==%*$3-@;:>o4             ",
"             .X1>25@$3%&*===%*3$--66>o4             ",
"             .71825@93&0qq=*=%33-@;>>o4             ",
"             we1>6@#$$&3r=*==q33#-;>>o,             ",
"             wee>6@-$$&%*=*=qt33-@->>o,             ",
"             .X1>6@@$$*%q==*=r3$5-66>o4             ",
"             .y1>6@@$3&&*tu=&%3i-@@6po,             ",
"             <718a@#3i%%**=*=r$3--66>o,             ",
"             .X1>+@@$3%*%==*=q33-@@6>o4             ",
"             .oe:66is3&%**==qt$$5-6d>o,             ",
"             .X1>+a;f3fr*====q$$-s@>>o4             ",
"             w71>2@#$$&&%=*==t3$55@g>o,             ",
"             .X18a#@$3hr*=u*jt$3-5d6>y4             ",
"             <X1>2##$$%%===*=h%3$-+:>14             ",
"             wee>2#@$3%*t=u==t3$-@d6>o,             ",
"             .X1>6@-s3%%r=*u&r$$-@56>o,             ",
"             .X8>6-d$$*&*u=*=t3i#-+6>o,             ",
"             w7>82;@-3%&===u%%33-#5:>o4             ",
"             <71O2;#$$*&%q=q%*33#-;6>y4             ",
"             .oe:66$-3fr%==*=&3is-2:>1,             ",
"             <X1>+a@ff&0%==*&&i3#$;:>o,             ",
"             .X1>2@#$$%%=*===t33$f+6>o4             ",
"             we182##9$*%*=k==t3$#-+6>1,             ",
"             .71>6@@$3f=*==*=q$--l;6>X4             ",
"             .XX>6@#$$r%t*==qt335-5:>o4             ",
"             we1>2@#9$t&%=*==f%3-@;>>o4             ",
"             .X1>6@@$3%*&k=urtr$-@@6po4             ",
"             w<zxcas$$&%r==*=%i$;-s2zww             ",
"                 .O>6-f$===**f$@#O77                ",
"                 .o26$#*%q=u%33ld>8e                ",
"                 .o>##$3qt=q%33#a>ee                ",
"                 wzzzxxvvvvvvvxbzz<<                ",
"                       vjnmnjb                      ",
"                       vMjNMMv                      ",
"                       vMjNMMv                      ",
"                       vMjNMMv                      ",
"                       vMMNMMv                      ",
"                       vMjNMMv                      ",
"                       vMjNMMv                      ",
"oeXXeeee       .op6+;-$3jnnuqh$@#;>1eX       <eXeXee",
"oeXXeoee       <op>a--f&qqqqjB33;#>8eo       <Xee7oe",
"X>e1Xo8e       .X>:6$-$%r===&*$$@6+Xee       .1Xe>7o",
">>p8>11p       .y>6a#9f*==t=%%i#-@68eX       z1>11>1",
"2:>6:266       wX>V6$-f%&*==%*9-@d6Xeo       z:>66VV",
":a6+@g++       .y>>@@-%*%===%*3s$66Xee       z6@dagg",
"-;#5@#-@       .X>>6$--%&=*==t-i@daoee       b@;@###",
"-@@-@$@5       <X16d;-%%*=*u=r$-@d28eX       x@-#@$#",
"$$$-$$$-       .7>V2f-$&=%===f$$@daeeo       x--$---",
"ii9-3-$i       .op>a5-33t===&r$$#@>>ee       x--$$-$",
"%%%&3%*f8e87OC17o16a#$s=&*=*&%3$5628Xe7O7OZ88i*%f%%3",
"%%*%&%%%aVa2222eX>>##ff%&kuk=%$-@+28X>22222260%t%*%%",
"**t*%==t5##$5$;7716d$-f&&*===r-$-66eX>5@#f5-l%*&*t*=",
"=*==*r==$$$$-3sZ7>>+@$h&*===qh$-@g+eX2-$-$-$$**==*==",
"=*=*==*=rr%rt&0Ze>:d--$%r=*==*3-;62Ze2&&*q0%r=*===k=",
"==k=u=*=*==*=kkZX16@#$-*=&*=&t-$@g2O72=*r*=*=*==*==k",
"=k============kZe1>d@$%%t===%*-$;6aZeVu*===*===q===*",
"=%===*qr=r=t=&kZX>g@#$f&==k=%*i$@d2Zeg&%*&&&&*q==q=*",
"%*%*%*%*33-i$3iCe866$-$%*====&--@6aZe>$0$$rifr%%%%**",
"%3*f33%3@3@#$5aXX>Va@-$*%=*=r%--@$V8X>#@$@#9Br33%33%",
"i3f%-33%a6++2+2XX>>g--3%====%*$s#6>87>6a2+2a6$333%3-",
"$s-#-3--o>X>o>eXX>6@#-3%t==k*%3#36+87oOZOZVXO-$#ff$-",
"$$---;-$bbbbbbB.X>:6$-$*tq*==t-$@@2Zoebbbbbbxx$;-@fa",
"@@@;@##d       .e>>+--$%==u*jf$$;d2Zoe       x@##5;5",
";#6#+;a2       we166@$3%**==*r$-##>V7e       zad;+;5",
"6>:6:>:+       <X>>d--$*%==*r&i9#6aoXe       z:>6:>:",
">>>>>>>>       .C>:;#$%*%===%*-$@d2OX7       z>>>>>>",
"o>oe1opo       <7>:6$-f%&*===%$-@-V7eo       <88oo8o",
"oeeXooee       .X>>;#--%===k=*--@6>OeX       <eeXeXe",
"oe7eXeee       .y>:6--3&%===&f$-##>8eX       .Xoe7oe",
"               we1>6@@$%*%=r%3#$@6Oo.4              ",
"                71>6a$$-$*tt3h$la:>e4               ",
"                  zzxx#h33r$3-Bxzzw                 ",
"                     B5s3--$5sx                     "};
