/* XPM */
static char * 00BVGRN_xpm[] = {
"52 74 63 1",
" 	c #71C675D671C6",
".	c #104034D30820",
"X	c #000041030000",
"o	c #18615D750820",
"O	c #208169A60000",
"+	c #38E38A280820",
"@	c #5144AAAA0000",
"#	c #5144AEBA0820",
"$	c #6185BAEA0000",
"%	c #71C6CB2B0820",
"&	c #79E7D75C0000",
"*	c #8617DB6C0000",
"=	c #9658F3CE0000",
"-	c #9E79FBEE0820",
";	c #9658FBEE0000",
":	c #8E38E38D1040",
">	c #71C6CF3C0820",
",	c #5965B6DA0000",
"<	c #5965AAAA0000",
"1	c #5144A2891040",
"2	c #38E38A280000",
"3	c #208169A61040",
"4	c #082059650000",
"5	c #082045140000",
"6	c #208165950820",
"7	c #4924A6990000",
"8	c #69A6C30B0000",
"9	c #9E79F3CE0000",
"0	c #8617E38D0820",
"q	c #8617E38D0000",
"w	c #71C6C30B1040",
"e	c #28A271C61040",
"r	c #186128A21861",
"t	c #69A6C71B0000",
"y	c #9658F3CE1040",
"u	c #79E7D75C1040",
"i	c #082049240000",
"p	c #20817DF70000",
"a	c #6185BAEA0820",
"s	c #8617EBAD0000",
"d	c #6185B2CA0820",
"f	c #49249E790820",
"g	c #79E7DB6C0820",
"h	c #38E39E790000",
"j	c #28A25D751861",
"k	c #30C265952081",
"l	c #5144AAAA1040",
"z	c #69A69E794924",
"x	c #6185C30B0000",
"c	c #8E38CB2B4103",
"v	c #514479E738E3",
"b	c #104061850000",
"n	c #DF7DF7DEBEFB",
"m	c #8E38A2899658",
"M	c #CF3CC71BCF3C",
"N	c #FFFFFBEEFFFF",
"B	c #EFBEE38DEFBE",
"V	c #FFFFF3CEFFFF",
"C	c #30C27DF70820",
"Z	c #5144AAAA0820",
"A	c #6185CB2B0000",
"S	c #082065950000",
"D	c #5144BAEA0820",
"             .XoO+@#$%&*=-;;:*>%,<1234.             ",
"             .56O+7#88**9;;90q>8w<1234.             ",
"             .XoO+@<$wq0=-9-0q*8,<12e4.             ",
"             rX6O+7#8t>q999=yqu8w<12ei.             ",
"             .X6O+7#8w>*=-9-0q*8$<12ei.             ",
"             .Xop+@#$8q*=9-==qu8a<1234.             ",
"             rX6O+7#8%*0=-99squ8d<1234.             ",
"             rXoO+7#8%>*s--=yqu8$<12e4.             ",
"             rXop+7#8%&u=-=9y**%$<1234.             ",
"             rXoO+7#8t>:=9--*qu8w#f2e4.             ",
"             rX6O+7#8%>q99=-yqu88<12ei.             ",
"             rXoO+7#8%>q99-90q*ta<12e4.             ",
"             rXop+7#8t&u=-=9y*u8d<1234.             ",
"             rXoO+7#8%&:s-99:*u%8<12ei.             ",
"             rXoO+7#8tgg9-=-=qu%<,1234.             ",
"             rXop+7d8t>q=-9-qq*8w<12e4.             ",
"             rX6O+7#8%&:s-=9:qu%<,12ei.             ",
"             rXoO+7#8tgu;9-9:**8w#f2ei.             ",
"             rXoO+7#8%>q=-=-:qu8a<1234.             ",
"             rX6O+7<8t>q=9-90q>td<123i.             ",
"             rXoO+@#8wg0=-s-yqu%$<12e4.             ",
"             rX6O+7#8%>:=9-9sq*8w#1234.             ",
"             rXop+7#8%>qs-=9:qu%d<126i.             ",
"             rX6O+7<8%>q=9-9:q&8$<12e4.             ",
"             r5oO+@#8%&u9-:;y*u8ad12ei.             ",
"             rXoO+7#8w>:=9-90qu8ad123i.             ",
"             rX6O+@#8%>q=-=-=qu8w#h264.             ",
"             r5oO+7<8%>q=-9-qqut<<12ei.             ",
"             rrjkklz8wu:=---:*uxc7vkvir             ",
"                 5bph<8*q-==*t8#hOi5                ",
"                 r4p@<8*qy990*w@fOoX                ",
"                 jbph#%>*-9-q&adfOiX                ",
"                 rivzzzccccccczzvkj.                ",
"                       zcnnncl                      ",
"                       mMnNMMv                      ",
"                       mMBVMmv                      ",
"                       mMMVMMv                      ",
"                       mMMNMmv                      ",
"                       mMMVMmv                      ",
"                       mMMVMmv                      ",
"XXX5X555       .X6Cf<,t>:cc:ct8dhhp455       r5.X5.5",
"5XXXXXX.       .X6hf<t%::cyyuuw$lhpoXX       rXX.55.",
"b444Oi44       .X621$$*>=-99:>%8#hpO55       .b44o4i",
"be33be36       r5321<w8:0-990q%8#hpbi5       k3b6b36",
"2C2C2C2C       rX621d$>*=---**t8#hC6XX       kC2C+C2",
"1ff1+1ff       r5621<w8:0-=9:*t8l7pbX5       vf1f1f1",
"@7<@<7@@       rio+1#x*>s---**%8#fObi5       v#7<7#7",
"d<d<dda#       rX621,d>qs-9=:*%8#hkb55       z#d<d<d",
"8x8x$,8$       r56+Z<w8*=-9-s>%8f7p6XX       z88$%$$",
"%tw*xu8w       r562f<w>*0---**%ddhp6XX       ctw%%w%",
">*>t**u&4o4445iX5321,$&u0--9:*%8#hjbXo44o444bc****>>",
"*q00**uuj++jkjkX562Z#a%*=;990>%877p6Xokj+kjjhc&*u*qq",
"==00;0==<,<<,<z553+1#$&*=-9=0q%tl7pbX3<$<,d<<:0==0=0",
"-9;-=--=www%wwc5532f<a**0---*>>%7fpbXkw%8wwwty=-;-=-",
"-9---9-9qqq0qqci53+1<w8*99=-:>t,#7pbXkq*0q0s*--9-9-9",
"99--s9--9y---yc55321#xu*=-9=:q88lhpb5k9y;--9y-99-99-",
"-----=9-=y-9--c55321<w%*0---**%8#hjoXky--9y=----s---",
"=s0;0===q0q0q0c55621<8t*=-=90>%8#7ebXkq0q0q0q=0=0==0",
"q*q:q*:*ww%wu%c55e21#x%:0---0q%8#hCbXk%8uwwtu:**q:**",
"**&g*>q&<,<,<,z55ep1<w8q=-9=0q%$#hpbi3<x<,$,du**>q*&",
"w8%%%%8%jfjljkkX5e21@wtu=9=9:*t817jb5ok+jjCkhc%%%t%%",
"8888%888o44o444X5ep1<w&u==-90*w$#7p6Xoi464bb4l8%8$88",
"$dd,<d$<vvvvvvvi5321<wA:s9--0>t8#7pbX.vvvvvvCz,<<xl<",
"@<#<7#@<       .532f<wtg=-9=y>t8#hCb.5       v,@,<7d",
"1f1f11h1       r53Cl<w>qsy-=*q%t#7eb5X       vf1fff1",
"22222222       .i3+1#x%*=-s-:*%%17p6XX       v222222",
"e6e33ee6       r532f<w&u9-9=:*w$#hCbX5       keeee33",
"b4Oio444       .53Cl#x%*=9=-**t8lhCbi.       kO544Oi",
"X55XXXX5       ri6+1#$*&s-9-:>%87hpbXX       r5Xi555",
"X5Xii5iX       r5621@w%&s-9s0q%8#7C6Xi       r55X5iX",
"               jSSSphh#ags:s%8#hppSS4o              ",
"                4SSphh@,tgq&%,l2ppSS4               ",
"                  kkkk7l,u>tl#vjkkj                 ",
"                     zh7#,,,Dhk                     "};
