/* XPM */
static char * 00BVWHT_xpm[] = {
"52 74 59 1",
" 	c #6B6B61616363",
".	c #4A4A41414A4A",
"X	c #525249495252",
"o	c #63635D5D6363",
"O	c #84847D7D8484",
"+	c #9C9C92929C9C",
"@	c #B5B5AEAEB5B5",
"#	c #BDBDBABABDBD",
"$	c #CECEC3C3CECE",
"%	c #DEDED7D7DEDE",
"&	c #EFEFE3E3EFEF",
"*	c #FFFFFBFBFFFF",
"=	c #FFFFF3F3FFFF",
"-	c #E7E7DBDBE7E7",
";	c #C6C6C3C3CECE",
":	c #BDBDB2B2BDBD",
">	c #ADADAAAAADAD",
",	c #7B7B71717B7B",
"<	c #6B6B61616B6B",
"1	c #4A4A49495252",
"2	c #737369697373",
"3	c #848479798484",
"4	c #EFEFEBEBEFEF",
"5	c #F7F7EFEFF7F7",
"6	c #DEDED3D3D6D6",
"7	c #ADADA2A2ADAD",
"8	c #7B7B79797B7B",
"9	c #9C9C9A9A9C9C",
"0	c #CECECBCBCECE",
"q	c #D6D6C3C3CECE",
"w	c #94948E8E9494",
"e	c #636361616B6B",
"r	c #525241415252",
"t	c #4A4A45454A4A",
"y	c #6B6B65656B6B",
"u	c #A5A5A2A2A5A5",
"i	c #7B7B79798484",
"p	c #636359596363",
"a	c #CECECBCBD6D6",
"s	c #848475757B7B",
"d	c #CECEC3C3D6D6",
"f	c #E7E7E3E3E7E7",
"g	c #B5B5B2B2BDBD",
"h	c #F7F7F3F3F7F7",
"j	c #BDBDAAAABDBD",
"k	c #94948A8A9494",
"l	c #4A4A49494242",
"z	c #8C8C86868C8C",
"x	c #A5A59A9A9C9C",
"c	c #A5A59A9AADAD",
"v	c #73736D6D7373",
"b	c #5A5A51515A5A",
"n	c #F7F7EBEBF7F7",
"m	c #C6C6BABAC6C6",
"M	c #ADADA2A2A5A5",
"N	c #525251515252",
"B	c #D6D6CFCFD6D6",
"V	c #EFEFE3E3F7F7",
"C	c #BDBDB2B2C6C6",
"             ..XoO+@#$%&****=--;:>+,<.1             ",
"             X.X23+:@$%4*=**5&6;#7+8oX1             ",
"             X.1o39>#0%4=*==*--q:@w,e.X             ",
"             r1ty,u>:0%4=*=*=-%;:>9ipX.             ",
"             1t.<3+::a%4==*==--$:>wset.             ",
"             tt.y3+@#d%4=**==f%;:>wOo.1             ",
"             r1XeO9>#d%4=*==*--;#>9,ett             ",
"             Xttes9g:d%4==**=--;:>9,e1t             ",
"             11teO+@#$%4***h=--;:>wsot1             ",
"             Xt.<s9j#0%4**=*=--$:>w3et.             ",
"             X.X<O9j#0%&=**=*--;:>+8p.X             ",
"             rX1pO+@#0%&**=*=--;:>9,<11             ",
"             1ttys+g#d%4*=*==--$:>k8pX.             ",
"             Xlt<s9g:0%&==*==--;:>+8<1t             ",
"             r.1<39@:0%4=*==*--;:>+3pXt             ",
"             XX.<O+@:0%4*=**=--;#>wipXt             ",
"             rtt<39j#0--*=*==--q:>z8p1X             ",
"             rtt<39@:06&**=*=--dg>+iett             ",
"             ...y3+::$%4***==--;:>+sp1.             ",
"             XX.<3x>:0%4**==*--;#7w3pXX             ",
"             .11y3wg#0%4==**=--qg>9,<Xt             ",
"             r1t<39>#$%&==**=&6d#>k8o.1             ",
"             .X.y3+@#0%&***==--;:>+soX.             ",
"             XX.oO+::0%4**==*-6;:>w8oXX             ",
"             X.1y3+@#$-4=*=**--q#7w8p1t             ",
"             r1t<39j#$%&*=*==--;:>+8et1             ",
"             rtt<39@#0-&*=***--;#>+,o11             ",
"             r1.<O9@g$%&***==--;:>wipX.             ",
"             .tt<39>:d%&**==*--;#>k8p1X             ",
"                 rto+>;6&***-6:>Oe1r                ",
"                 1tyk@#%4*==--@>zpr1                ",
"                 ttyw@#%4*=*&6#>OeXX                ",
"                 1tyw@;6-***-%:@Oe..                ",
"                       s:-*%cv                      ",
"                       3>-*-x,                      ",
"                       3>f*67i                      ",
"                       O@-*-xv                      ",
"                       sg-*67v                      ",
"                       3>f*%x,                      ",
"                       ,>f*672                      ",
"...r.r1r       ttb,w>#d0-*=&-;d#7k2XXX       r.X....",
"1X.XX.X.       1tb,+@@%-**=*5%a:>zvbXr       r.X.1XX",
".X1t1XrX       t1bsw>g%-&***&-0#7w,1.1       tlt1Xtl",
"<peobopp       ttb3w>#%-==**&%6#7zvbtl       ooobeoo",
",i2,8v8v       11b,9>#a-*=**n-q:>k,bXX       2,v,82,",
"kOkzkzkO       t1b8+>:-%&***&-am7wyXXr       zzwzzzk",
"u>cucu7u       rtb,9@#6-=*5*n%0:>k,XXt       xMxuc>c",
">g>#>j>>       .1Nsw@#B&=***&%a#>kybXX       >j:>:>>",
"##:#:###       X.b,9@:%%n**=n%0#7+2X1.       ::##:#:",
"ad$%0a0;       .1bswj#a-h=**&-a#7k,X1t       da;dB00",
"%%66%%%%X..X.1t1tb8+>#B45*=*&f;:@kvbXX1Xtlt.1%%-%6%%",
"%4VV--4f8s383,811bs+>:B-n***&-6m>kyNrbs,883i,f&f--nf",
"*n*&**&*u7@7c@>.rb,9g:6-=*h*h-0:>kvbX,>x@>7c@=&*h*&*",
"****=***m;q;$d$.Xb8+>#a-*=**&-d#7w2XXOm$m;q;$=**==*=",
"**=***==-&&-&&-1.b3wg#af&***&-0#7wvNXzf-4%-&-**=***=",
"****==*=*=*5*5*1Xb8+>#6-=*=*&-a:>kvbr+****5*******=*",
"*=*=**==*******t1bs+>g%-=***&-;m7w2X1w**=*****==**==",
"*==&*==&------&X1b3w>g6V&***&%6:>k2pXO%4f&%f&5==n*h=",
"---=%%&na$$a$0$Xtb8+g#a-*=**5-0:>w2Nts$mq;00;-&f4%--",
"-%--%f%%u7>>>u@rXb3wc#6-5***&-6@>w2bXv>>>7@77%-%%%f%",
"a$da$0a$O3i,33,1tNswg:6-h**=n-$#>k2Nre,,O3,3,6;606;0",
"#m;$mmm:XX.1.X.Xte2+@#B-*=**&-a#7w2bXtt1rXXttm$m$:$$",
"#:g@@g::       tXb,9@:%-n***n-d#7kvX1r       #>g::>g",
"c7c7ux@x       ttb8+jga-*=**V-a:>k,XXt       x>cx>c7",
"kwkkwwww       X.b3kg#B4V***&-0:>k2bX.       kkwkwkk",
"s3,i,isi       r.b,x>Ca-V***&-a:>k,1r1       ,,83s8,",
"p<<<eoep       X1b8+ggBVn***n-0:>w2NXX       opype<<",
"XX.Xlt1r       Xlb,9>#6-n***&-a#>z2bXr       XXr1t1.",
"X.XXXtr.       .1b8wgg6-n***V&$#7w2X1t       Xtl.X.1",
".XX.XX.X       rtb8+>#dfn***&-a#7zvX1t       .11XX.X",
"               .1eo83+u@;6-a;>xz3,ybXt              ",
"                .eovOOw>j#$m:ukz8v<b1               ",
"                  22vOk+c@>>xwk3,<e                 ",
"                     +OO+w9kwzO                     "};
