/* XPM */
static char * 00BVCYN_xpm[] = {
"75 108 66 1",
" 	c #71C675D671C6",
".	c #000000006185",
"X	c #0000082069A6",
"o	c #0000208179E7",
"O	c #000030C28E38",
"+	c #000041039E79",
"@	c #00005965AEBA",
"#	c #000069A6B6DA",
"$	c #000079E7C71B",
"%	c #00008207C71B",
"&	c #00008A28CF3C",
"*	c #00009248D75C",
"=	c #00009A69DF7D",
"-	c #0000A289DF7D",
";	c #0000AAAAEFBE",
":	c #0000B6DAEFBE",
">	c #0000BAEAF7DE",
",	c #0000C30BFFFF",
"<	c #0000CB2BFFFF",
"1	c #0000AAAAE79D",
"2	c #00009248DF7D",
"3	c #00006185B6DA",
"4	c #00005144A699",
"5	c #00003CF39658",
"6	c #0000186171C6",
"7	c #0000C30BF7DE",
"8	c #000020818617",
"9	c #00005965A699",
"0	c #0000B2CAEFBE",
"q	c #0000186179E7",
"w	c #0000082071C6",
"e	c #000071C6BEFB",
"r	c #082069A6B6DA",
"t	c #000024928617",
"y	c #00008207CF3C",
"u	c #000038E39658",
"i	c #00006185AEBA",
"p	c #00005144AEBA",
"a	c #0000208171C6",
"s	c #0000000069A6",
"d	c #0000CB2BF7DE",
"f	c #00009A69D75C",
"g	c #00008A28D75C",
"h	c #0000A289E79D",
"j	c #000034D38E38",
"k	c #000049249E79",
"l	c #30C230C279E7",
"z	c #000028A28E38",
"x	c #0000A289D75C",
"c	c #08200C3028A2",
"v	c #492449244924",
"b	c #9E799A699E79",
"n	c #D75CD75CD75C",
"m	c #FFFFFBEEEFBE",
"M	c #FFFFF3CEFFFF",
"N	c #71C6B6DAD75C",
"B	c #F7DEF3CEF7DE",
"V	c #79E77DF79E79",
"C	c #FFFFFFFFFFFF",
"Z	c #FFFFFBEEFFFF",
"A	c #FFFFFBEEF7DE",
"S	c #BEFBCB2BD75C",
"D	c #514449249658",
"F	c #0000104079E7",
"G	c #61859248C71B",
"H	c #0000104071C6",
"                 ..XoO+@##$%&*=-;:>,<<<<,>;1-2*&$$#345O6XX.                ",
"                 .XXoO+@##$%&*=-;:>,<<<,77;1-=&&%$#345O6XX.                ",
"                 ..X8O+9##$%&*=110,,<<,<7>:1-2*&%$#345OqX.X                ",
"                 ..woO+@##$%&2=-1>>,<<<<7>;1-2*&$$#345O6XX.                ",
"                 ..XoO+@#e$$**=-;:>,<7<,<>;1-=&&%$r34+toX.X                ",
"                 .XXoO+@##$%&*=-;:>,<<<<7>:1-2*&y$#39uO6XX.                ",
"                 ..X8O+9##$%&*=11;7,<<7<7>01==*&$$r345OqX.X                ",
"                 ..woO+9##$%&*=-;:><<7<<7>01-2*&$$ei95toX.X                ",
"                 ..XoO+9r$e%&2=-;:>7<<<<7>0;==*&yee39uO6XX.                ",
"                 .XXoO+@3#$%&*=110><<7<7<>0;-2*&$eei9uO6XX.                ",
"                 ..X8O+9#e$$**=-1:><7<<<7>01==*&%eeipuOoX.X                ",
"                 ..woO+9##$%&*=-;:>7<<7<7>0;-2*&$$rip5O6XX.                ",
"                 ..XoO+9r$e%&2==;:>7<<,,<:0;-2*&%eeip5tqX.X                ",
"                 .XXoO+@3#$%&*--0::7<<,<,>01-2*&$$rr95tqX.X                ",
"                 ..X8O+9#e$$**==00><<,<,,>:1==*&$$eipuOasX.                ",
"                 ..woO+9##$%&*=110777,<<,>01-2*&%eei9uOasX.                ",
"                 ..XoO+9r$e%&2=-;:>7<,<<,>:1-2*&$$rip5Oqs.X                ",
"                 .XXoO+@3#$%&*==00><,<,<,>01==*&%reip5O6ss.                ",
"                 ..X8O+9#e$$**=11::<,<<<,>:1==*&$$eip5tqX.X                ",
"                 ..woO+9##$%&*==00><,<,<,>01==*&$$rip5Oass.                ",
"                 ..XoO+9r$e%&2-=00><,,<<d>01==&&%eei@uO6ss.                ",
"                 .XXoO+@3#$%&*=11::7<<<,,>01==f&$$ri@uOass.                ",
"                 ..X8O+9#e$$**=-;:>,,<,<,>:1==*&%eerpuO6ss.                ",
"                 ..woO+9##$%&*==00>,<<<<d>01-=*&$$rip5tqXs.                ",
"                 ..XoO+9r$e%&2-=00>,<,<<>>01-2*&%eeip5Oass.                ",
"                 .XXoO+@3#$%&*=11::,<<<<<>01-=g&%rerpuO6ss.                ",
"                 ..X8O+9#e$$**==007,,<<<7>01-2*&%$rr4uOass.                ",
"                 ..woO+9##$%&*=110>,<,<<7701h2&g%eeip5O6ss.                ",
"                 ..XoO+9r$e%&2=-;::,<<<<7>01h**&%r$ipuOass.                ",
"                 .XXoO+@3#$%&*==007,,<<<7>01-2*&%$rrp5O6ss.                ",
"                 ..X8O+9#e$$**=11::,<<<<7>01-2*&$$rip5O6ss.                ",
"                 ..woO+9##$%&*==00>,,<<<7>01-2*&%rerpuOass.                ",
"                 ..XoO+9r$e%&2-=00>,<<<<7>01h2*&%$rr4uOqs.s                ",
"                 .XXoO+@3#$%&*=11::,<<<<7>01h2*&$$rrpuOass.                ",
"                 ..X8O+9#e$$**=-;:>,,<<<7>01h**&%reip5O6ss.                ",
"                 ..woO+9##$%&*==00>,<<<<7>01h2*&%$rrpuOass.                ",
"                 ..XoO+9r$e%&2-=00>,<<<<7>01h**&$$rr45O6ss.                ",
"                 .XXoO+@3#$%&*=11::,<<<7<>01h**&%reip5Oqs.X                ",
"                 ..X8O+9#e$$**==007,,<<<7>01h**&yr$ipuOass.                ",
"                 ..woO+9##$%&*=110>,<<<<7>:1h**&yreip5O6ss.                ",
"                 ..XoO+9r$e%&2=-;::,,<<<7>:1==*&$$erputqX.X                ",
"                 .Xwoj+9r#$$**=-;::,<,<<7>01h**&$$ri9+Oqss.                ",
"                 ..woO6qtu4#ey&f=0:,<<<7>;-=&%rrkl8qk5z6Xs.                ",
"                      ..6O+3e%&*=0:,,<<701h&y$rru8Xs                       ",
"                      X.6tkie$&*=00,<,<>>1=*y$r@u8X.                       ",
"                      .XwOkrr$&f=0:,<<<701=*y$r@+oss                       ",
"                      X.6O+ie$&*=00,,<,701-*yrr@58Xs                       ",
"                      ..68kr#$&*x00,<<<<0112%%r@utXs                       ",
"                                cvbnmMnNbv                                 ",
"                                cvbnBMnNV                                  ",
"                                cvbCMZnNV                                  ",
"                                cvbnBMnNV                                  ",
"                                cvbCMAnN                                   ",
"                                cvbnmMnN                                   ",
"                                cvbCMMnN                                   ",
"                                cvbnBZnN                                   ",
"                                cvbSBZnNVv                                 ",
"...X...X..D         .XX8j43#$%**-1>7<,<,7;;-2*%e#3kjoXXl         ..X...X...",
"X.X.XX.X.XD         ..w8u4##$%*=-;:<<<,<7:1-2&%$ei4OoXXl         .X.X.X.X.X",
"XXXXXXXXXXD         ..6ou4#e$%*=-1>7<,<<>:1h2&%$#3kOoXXl         XXXXXXXXXX",
"q6qF6qwqq6V         ..w8u4##$&*2-;:,<<<,7;1-=&%$ei4OoXXl         6qwq6qwqq6",
"O8O8O8OttOG         ..68u4##$%*=-1>7<<,<7:1h2*%$#34OoXXl         8tOtO8OttO",
"uuu5uuuuuuG         ..wou4#r%%2f-1>,<7<<7;1==&%$#i4OoXXl         uuuuuuuu5u",
"4444k44444G         ..68u4#r$%*=-1>7<<<7,;;1**%eei4OoXXl         k44444444k",
"3iii3i3iiiG         .XX8u4#r%%2=-10<7<7<>>1==&%$r3kOoXXl         @3iii@ii3i",
"##########G         .Xwo54ie$%*=-1>,<<<<>:;==*%$ri4O8X.D         3#########",
"$e$e$e$e$eG         ..wtu4##$&*2-1>,<7<<>:;=f*$ee34OoXXl         eee$e$e$e$",
"$$$$$$$$$$N         ..68u4##$%*=-1>7<<7<>:;==*%eerkOoXXl         $$$$$$$$$$",
"%%%%%%%%%%N         ..w8u4#r$&*2-1>7<7<<70;1*&%$ri4OoXsD         $%%%%%%%%%",
"&&*&&*&*&&N         ..6ou4#r$&*f-;>7<<<<>:;=fg%$eikjoXXl         &&*&*&*&&*",
"=**f****=*N         ..w8u4#r%%*2-1>7<7<770;-=&%$ri4joXXl         *******f2*",
"========f=.X...X.X..X.wtu4#r$%2=-1>7<<<<>:;-2*%eei4OoXs..X.X..X..@==-====f=",
"----1----=ow6q6w666FX.6ou4##%%*=-1>7<7<770;-2&%$ri4OqXXH6w66qw666#---------",
"1111111111++++5+++5+w.w8u4##$%2f-1>77<,,,:1-2&%$erkO8X.+5+++5k+5+%11;111111",
"0000000000r#########o.wtu4##%%*=-;0<<<,<>>1h2&%$ri4OosXr#r#######=000000000",
">>>>>>>>>>$%$y$%%$y%q.6ou4##$%2==;>><<,<>:1-2*%$r34OoXs%$%$%%$%%$->>>>>>>>>",
",,7,,>,,,,&22*2*2*2*oXwou4##%%*==;:<<<,<>:1h2&%$erkOoss****22*2*2;,7,,>,,,,",
"<<,<,<<<7<1=0=111=118.H8u4##$%2f11>><<,<d01-2&%$ri4OoX.1-1=0-11=1><<<,<<<7<",
"<<<<<<<,<<>:7:7:>7::t.H8u4##%%2f=0:7<<,<>>1-2*%$r3kO8ss:>:7::>:7:7<<,<<<7<<",
"<<,<,<,<<<7<7<7<<7<<t.Hou4#r$%*==00<<<,<>:1h2&%$rrkuoX.d,,<<<7<<<<7<<<7<<<,",
"<<<,<<<<<7<<<<<<7<<<8.H8u4##%%2=-;:77<,<d01-2*%rei4OqXsd<<<7<<<7<7<<7<<<7<<",
"<<,<<<7<7<:7:>:7>7:>O.H8u9ie$y*f=0:7<<,<>>1h2&%%ri4OoXs:>>>>>>>>><<7<<<7<<<",
",77,7,>777;;1;;1;1;18.H8u4ie$y*=-;:7<<,<>>1-2&%$ri4O8s.1111111011:7777>7777",
">7>:>:>>7>2f*=*f*f2fqsXtu4r#$y*f=0:7<7,<d01-2*%$ri9OqXsfff=ff2f*f;:>>>7>>>:",
";:;:;:0000%y%%%$y%%%qs6ou9ie$%*==00<7<<,>>1-2&%$ri4O8X.%%y$%%%y%%=0000000:0",
"111111;11;rrererererq.H8u9r#$&*f=0:7<,<<d01h2*%$ri4jqXsrrerererer*;1;1;1;1;",
"--h-h-=1=-4kk4+4+kk4XsX8u4i#$y*==007<,<,>>1-2&%$ri4OoXskkkk4+kkk4$-=1==1==1",
"=======-==qqoqoqooqqss6ou9ie$y*f=0:7,<,<d01h2*%r$rkjossoqoooqoqoqr=-=-==-==",
"*=**f****2..ss.X.X.s..H8u9ir$&*=-;:7,<<<>>1-2*%$ri4OoXs...s.XX.s.92********",
"&&&&&g&g*&N         .sXtu9i$ey*f=00<,<<,d01h*&%$ri4OqXsD         &g&&g*&&*&",
"%y%y%yy%y%N         ..68u4ir$&*==0:7,<<<>>1-2*%$ri4O8X.D         %%yy%y%y%y",
"$$$$$$$e%$G         ..H8u9i$ey*=-;:7,<,<>>1-2*$r$rkOoXsD         $$$e$e%$e$",
"eee$r$r$erG         ..Hou9ir$&*2-;:7,<<<d01-2*%%rrkO8s.D         #$eeeeeeee",
"####rrrrrrG         ..H8u43e$y*f=0:7,<<<>>1h2&%$ri4OoXXl         #3##rrrrrr",
"3i3ii3#ii3G         ..H8u9r#$y*=-00<,<,<>:1-2*%rei4OqXsD         @3i3i#i3i3",
"4444444444G         ..wou43ee&**=00<,<<<>01h=&%$ri4O8X.D         4444444444",
"uu5juuj5ujG         ..68u9ie$y*=-007,<,<7>1-2*%$ri4OqXsD         jjuuju5ju5",
"tO8OttOttOG         ..w8u93r$&*f=0:7,<<<>01-=&%$ri4OoXsl         OtOtOttOtt",
"o6qq6oq6qqV         ..6ou43ee&*f=00<,<<<7>1-2*%r$rkjqXsD         6q6qq6qqqq",
"XXXXXXXXXXD         ..w8u4#r%y*==00<,,<<>01h=&y$rrkOoXsD         XXXXXXXXXX",
"X.XX.XX.X.D         ..68u4#r$%*=-;:7,<<<>>1-2*%rr34OoXsl         .X.XX.X.X.",
"X.X.X.X.X.D         ..w854ie$&**=00<<,,<>01-=&%$eikOqXs.         ..X.X.X.X.",
"                    wX.68u43r$%**-10:,,>01=*&yrri9jtXs..                   ",
"                    l.Xwtj93e$%&f=10:,:>11=*&%$ri4OoHs.                    ",
"                     DcX8u4@#$$&*=-;;0011=f*%%re@kjqXs                     ",
"                       XaOkr3e$%g*=-1111==f&%$rr95OqD                      ",
"                          j4#e$%%*f==-===f&%%rei95                         ",
"                              r$%&&**=*f*&&$$                              "};
