/* XPM */
static char * 00BVYEL_xpm[] = {
"75 108 64 1",
" 	c #71C675D671C6",
".	c #6185618530C2",
"X	c #71C669A630C2",
"o	c #79E779E728A2",
"O	c #8E388A2828A2",
"+	c #9E799A692081",
"@	c #A699A2892081",
"#	c #B6DAB2CA1861",
"$	c #BEFBB2CA1861",
"%	c #BEFBBAEA1040",
"&	c #CF3CC30B1040",
"*	c #CF3CCB2B1040",
"=	c #D75CD34C1040",
"-	c #DF7DD34C0820",
";	c #DF7DDB6C0820",
":	c #EFBEEBAD0820",
">	c #F7DEF3CE0000",
",	c #FFFFF3CE0000",
"<	c #F7DEFBEE0000",
"1	c #E79DE38D0820",
"2	c #C71BC30B1040",
"3	c #BEFBBAEA1861",
"4	c #AEBAAAAA1861",
"5	c #965892482081",
"6	c #71C671C628A2",
"7	c #69A6618538E3",
"8	c #514451441861",
"9	c #C71BCB2B1040",
"0	c #8617861728A2",
"q	c #79E779E730C2",
"w	c #618569A630C2",
"e	c #69A669A630C2",
"r	c #FFFFFBEE0820",
"t	c #C71BBAEA1861",
"y	c #6185618538E3",
"u	c #69A6618530C2",
"i	c #B6DABAEA1861",
"p	c #EFBEE38D0820",
"a	c #8E388A282081",
"s	c #E79DDB6C0820",
"d	c #965896581861",
"f	c #79E771C628A2",
"g	c #EFBEF3CE0820",
"h	c #861779E728A2",
"j	c #E79DEBAD0820",
"k	c #D75CCB2B1040",
"l	c #8617820728A2",
"z	c #71C671C630C2",
"x	c #9E799E791861",
"c	c #9658924828A2",
"v	c #B6DAAAAA1861",
"b	c #79E77DF769A6",
"n	c #A699A6998617",
"m	c #DF7DD75CCF3C",
"M	c #F7DEF3CEF7DE",
"N	c #FFFFFBEEFFFF",
"B	c #CF3CCB2B79E7",
"V	c #38E338E338E3",
"C	c #96588A282081",
"Z	c #D75CCB2B0820",
"A	c #E79DE38D0000",
"S	c #AEBAA2891861",
"D	c #C71BC30B0820",
"F	c #861782075965",
"                 ..XoO+@#$%&*=-;::>,,,,,<>:1;-=&2%34@5O6X..                ",
"                 .78oO+@#$22*=-11:<,,,,,,>:1;-=&9334@50qw.7                ",
"                 .7eoO+@$#22*=;;::>,,r,r<>:;;;=*t2##@5O6Xy.                ",
"                 u.XoO+@#$%**==11:,,r,,,<>:1;;***334@5O6X.y                ",
"                 u.XoO+@$it2*=;;p:<,,,r,<::1;==*t2##@50qwy7                ",
"                 u.Xqa+@#$%&**;;p:>,r,,,,<:1s-=*tti4@d0fX..                ",
"                 uywoa+@#$%**=;spg:,,,r,<>:1;==*&%3#@50qw.y                ",
"                 u.ehO+@$i2t**;sj:,,r,,,<::1;-=*tti4@5O6Xy.                ",
"                 u.Xqa+@#$%**==1pg:,,,r,,,:1;;***%3#@50qw7.                ",
"                 uyeoa+@#$%**=;sj:,,r,,,<:>;1==*tti4@5O6X.y                ",
"                 u.XoO+@#$t9**s=p:g,,,r,,<:1;-=*t234@5O6Xyw                ",
"                 uyeoO+@$i%**==pj:,,r,,,<::11=k**334@+lqw.7                ",
"                 u.XoO+@#$2t*=;sj:g,,,r,,<:1;==*t2##@50qe..                ",
"                 uyeoO+@#$%&**s=p:,,r,,,<::1;;k*tt34@5O6Xy.                ",
"                 uyeoa+@$#29*==pj:g,,,r,,,:1;==k22##@50qw7.                ",
"                 uyeoO+@#$%**=;;p:,,,r,,<:>;1-=*t33#@5lqe..                ",
"                 uyeoa+@$it2*==pj:g,,,,r,<:1;==kt2i4@5O6X.y                ",
"                 u.ehO+@#$%&*=;sj:>,r,r,,>:1;==&&334@50qw.7                ",
"                 u.XoO+@#$2t*=;sj:>,,,,,<::1;;=&92##@5O6X.y                ",
"                 uyeoO+@$#22*=;ss:r,r,r,,<:1;==*tti4@d0fw7.                ",
"                 u.XoO+@#$%***=sj:r<,,,r<>:1s-=*t2i4@5Oq7w.                ",
"                 uyeoO+@#$%**=;sj::,,r,,,<:1;==kt%34@dloX.y                ",
"                 uyeoa+@$i2t*==sp:,,,,,,<::1;-=&2t3#@5O6Xy.                ",
"                 uyeoO+@#$%&*=;sj:g,r,r,,<:1;==**3i4@5OzXy.                ",
"                 uyeoa+@$#29*=;sj:r,,,,r<>:1;-=*t2##@50qw..                ",
"                 u.ehO+@#$%t*==spg>,,r,,<>:1;==kt33#@5O6X.y                ",
"                 u.XoO+@#$2&*=;sjg:,,,,r,::1s-=*22##@5lo.7w                ",
"                 uyeoO+@$it2**;sj:>,r,r,,<:1;==*tti#x5O6Xy.                ",
"                 u.XoO+@#$%&*==sj:>r,,,,,<:1;-=&*$34@d0qw7.                ",
"                 uyeoO+@#$%**=;sj:>r,,r,,>:1;==*t2i#@50qe..                ",
"                 uyeoa+@$i2t*=;sj:>r,,,r,g:1;-=&*334@5O6X.y                ",
"                 uyeoO+@#$%&**=sp:r,,r,,<>:1;==kt%3#@50qe..                ",
"                 uyeoa+@$#29*=1sj::,,,r,,<:1;-=&2ti#x506Xy.                ",
"                 u.ehO+@#$%t*=;sj:,,r,,,<>:;;;=*9334@d0o..7                ",
"                 u.XoO+@#$2&*==sj:g,,,r,,:::;==*t2##@50qw7w                ",
"                 uyeoO+@$it2*=;sj:>,r,,,,<:1;-=*tti#@50qw.7                ",
"                 u.XoO+@#$%&*=;sj:>r,,r,,g:1;==*&%34@5O6X..                ",
"                 uyeoO+@#$%&*==sj:>r,,,r,<:1;-=*tti#@50qw7.                ",
"                 uyeoa+@$i29**1=p:r>,r,,,>:1;==*t2i4@5O6X.y                ",
"                 uyeoO+@#$%t*=;1p:>,,,,,,<:;;;k**334@dlowy7                ",
"                 uyeoa+@$#2&*==1pg:,r,r,,:::;==*t2##@5O6X..                ",
"                 u.eoO+@#$%&*=ssj:>,,,,,,<:;;;kkt%34@5aze.y                ",
"                 u.woO8fld@it9*=1;:,,r,,g1;-=&34@cqox50qw7w                ",
"                      .yza+43t&=;p>r,,,g>1;=*3#4coX.                       ",
"                      ..z0+43t*=;p:,,r,,:1;=9t#4coX.                       ",
"                      u.zO+#3t*=;g:,,,,g::;*tt3@5l7w                       ",
"                      uy6l+##2*=;j:,r,,,:1;=*ti@doe.                       ",
"                      u.zl+v3t*=;j:r,r,r:j;=2ti@dlXy                       ",
"                                8bnmMNmBbV                                 ",
"                                8bnmMNmBbV                                 ",
"                                8bnmMNmBbV                                 ",
"                                8bnmmNmBbV                                 ",
"                                8bnmMNmBbV                                 ",
"                                8bnBMNmBbV                                 ",
"                                8bnmmNmBbV                                 ",
"                                8bnmMNmBbV                                 ",
"                                8bbmMNmBbV                                 ",
"..7eu.u7.u          7yXhCx4$t2kZ;:>>>>>>>:;;Zk&$$4dafXu          uuuuuuuu.u",
"7w...7.w7.          uuXoc@432&==A;>>,,,,r:ps=k&334@ahXy          uy..y..y7.",
"XXwXXwXXwX          uyXoc@#33&==A:>>r,,,,:1;;*&ti#xaoXw          .7XXwX7XwX",
"zqzqzqzqzq          uuXo5@##2*=-;::,,r,,g>1;-*t234@aoXy          6qzzqzqqq6",
"llalll0lll          uyXoc@#$t2*;;::,,,,,<:1;==tt34@aoXw          hl00l00lll",
"5c5Cc555c5          uuel5@#it**;11><r,,,g>1s==&t34@aoXw          a55cC55C5c",
"@@@+@@+@@@          uyelcxv$29=;;p:,,,,,r:p;=k*ti#+OoXy          +@@x+@@x@@",
"4v44444444          uyzo5@#33**;;p>g,r,,<:1;=ktt34@aoew          S#4v444444",
"#3#3#3#3#3          u.Xlc@vi2t==1p:,,,,,g>p;==&ti#+5oXw          v##3433##3",
"3333t3t3t3          uyXo5@##t**;1::,,,,,,:p1=kt9##+aoX.          $333t3t3t3",
"2t23t3t3tt          u.zlc@v$29=;;1><r,,rg>1;=k*334@aoey          tt2t%t3t3t",
"&2&2&*2*2*          uyXla@#it**;sp>:,,,,,:p1=*tt34@ahew          D&2&9&*2*2",
"********=*          u.Xoc@#33**=1p:,,r,,g::;=k*t34@aoXw          Dk********",
"==========          uyel5@##t&=;;pg,,,,,,:;1=*tt34@aoXy          k=========",
"-;;;;;;;;=7...7uuuyuy.zlcx#$29*;1p:,,r,,g>p1=k&t34@aoXw...7.uyuuu@-;;;;;;;;",
";1;1;s=1;1zfz6z6zz6ee.zh5+#33**;;pg,,,,,<:p;=**ti#+CqXwzzz6z6zz6zi;1;;;1=1;",
":11sjspj11cc++cddc++X.zlc@#it&==1::,,,,,g::;s*tt34@aoXwc+c++cdd+5&1p1psjp11",
"::::::g:::#3##3#3###fyzhO@#$29*;11><r,,r,:11*=t9##+OoXw#i###3##3#=:::p:::::",
":>>:::::>:&2&2222229z78l5@#i3*==;p:,,,,,<:1;s*tt3#xOlw.&222&22222;:>:r::::>",
",,r>r,r,r>==========o7elc@v$2**;p1>g,r,,r:1;==t9#4@OoeX*=========:,,r>,r,r,",
",r,,,r,,,r;1;1;1;1;;ly6lcx#it**;;p>,,,,,<:1s=k*3t4@aoXw;1A;;A;1;A:,,,,r,,,,",
",,,,,,,,,,>>>>>>>>>>0yzh5+#329*=1p:<r,,r>::;=ktt34@aoXw>>>>>>>>>:,,,,,,,,,,",
",,,r,,,r,,,,,,,,,,,,l.zlc@#$3*=-11>r,,,,<:1;==t9##xOoXwr,,,,,,,,,,,,r,,,,r,",
",,,,,,,,,,r,,,,,,,,,0yzhO@#i2t=;;p:,,r,,g>p;=k*33v+Olw.,,,,,,,,,,,,,,,,r,,,",
",,,,,,,,,,,g,g,g,g,gl.zl5@43t&*;;p<<,,,,,:p1=ktt34@OoeX<:g,gr<gr<<,,,,,,,,,",
",<,<,<,<,<1:;::1:11jl.zhc@#$%*=;1p:r,r,,g::;=k*t34@aoXw11::;:;:;::,<,<,<,<,",
">>:<:<:<:>=;=;====;=q78lcxv$99*=11>>,,,,<:1;s*tt34@aoXw====;=;=;=1>:<:<:<>:",
"::::::::::t2*t2&2&92fXXo5@#33*=-1p:,r,,,g>p;=k*ti#+5oX.9t&2*t&9t&;:::::::::",
"11111111113#3i#3i#3#zyelc@vit&*=11>g,,,r,:11=*tt34@aow7iii#3#i#3#=;:;:;:;:;",
";1;;1;1;1;x+++x+++++678l5@43t*=;11>,,r,,<:1;=k*ti#+ahXwddx+++x++d&;;1;1;1;1",
"-;;;;-;;-;qqqoqoqoqoXyzhc@#$%**;;p:,r,,,g>p;=k*334@aqXwfqqqooqoqq#;1;;-;;;=",
"=======k==7e.7e...7y..zla@#it**;1p:<,,,,,:11=ktt34@aoXw.w...Xy..w@-=*====k=",
"k*********          w7elc@v3t**=1::,,,,r<:1;=k*t34@aoX.          **********",
"&9t**t**t*          ..zlC@#it2=;11><r,,,g::;=ktti#+Ooew          2&2**t*t**",
"232tt93t9t          .78hc@4$2**;;p:,,r,,,:11=k&t34@alX.          %23t39ttt3",
"333333t333          .7el5@#33**=p1<:,,,,g>p;=k*334@aoXy          $$%3t33333",
"i##3#i#3##          u.zlcd#3t**;1j:,,r,,,::;=ktt34@aoXw          ##3ii#3i#i",
"4#v4444v44          u.Xoc@#33&=;;p><,,,,g:11=k&ti#+aoXw          4444v4v4#4",
"@x@@@@@@@x          uyel5@43t&*=pj:,r,,,,::;=k*334@aoXy          x@x@@@@x+@",
"5555C5cC55          u.zhc@#$29=;1;>g,,,r,:11=ktt34@aoew          a5555COd55",
"l0ll0ll0ll          uyel5+#33**;;:>,,r,,g>1;==&ti#+5oX.          hll0lal0ll",
"oqoqqfqoqf          u.Xoc@#$2**=p1:,r,,,,::;=k*334@aoXy          6ooqqqqqqo",
"Xw7Xw7XyXw          uy8lc@v$3**;11>r,,,,g:11=ktt34@aoXw          .7XwXwXwXw",
"y7wyXywyw7          uyXl5x#i2**=;p:,,,,,,::;=k*ti#+aoXw          u.yy.y..y7",
"w.wyw.yX.w          uyel5@#$t2=;;:><,,,r<:;1=kt2i4@aqXy          ...w7w7w.w",
"                    ..76la@#33**=;1:>,<>1;;=k2$i4@coXw.                    ",
"                    Fuy8h5@#3$&*=;1::<>::;;=&&334+OoXwy                    ",
"                     buXoc@4#t2*=;-1:::;:;==&23#4+coXy                     ",
"                       .qO+4#322==;-11;:--=k2t3445Ozb                      ",
"                          5@##2t&*=;;;;;;=&&23i#@O                         ",
"                              #22**==;===k*9tm                             "};
