/* XPM */
static char * 00BVRED_xpm[] = {
"52 75 53 1",
" 	c #71C671C671C6",
".	c #596510401040",
"X	c #965800000000",
"o	c #8E3800000000",
"O	c #A69900000000",
"+	c #AEBA00000820",
"@	c #B6DA00000000",
"#	c #BEFB00000820",
"$	c #C71B00000000",
"%	c #D75C00000000",
"&	c #CF3C00000000",
"*	c #DF7D00000000",
"=	c #E79D00000000",
"-	c #DF7D00000820",
";	c #79E708201040",
":	c #69A60C301040",
">	c #EFBE00000000",
",	c #9E7900000000",
"<	c #596510401861",
"1	c #D75C00000820",
"2	c #9E7900000820",
"3	c #71C610401861",
"4	c #BEFB08200820",
"5	c #CF3C00000820",
"6	c #69A618611861",
"7	c #D75C08200820",
"8	c #A69900000820",
"9	c #B6DA08200820",
"0	c #E79D00000820",
"q	c #AEBA08201040",
"w	c #410318612081",
"e	c #79E718611861",
"r	c #79E718612081",
"t	c #861718612081",
"y	c #69A620812081",
"u	c #96581C712081",
"i	c #71C618611861",
"p	c #B6DA4D345144",
"a	c #F7DE92489658",
"s	c #FFFFCB2BD75C",
"d	c #FFFFDB6CDF7D",
"f	c #B6DAB2CAB6DA",
"g	c #DF7DDB6CDF7D",
"h	c #FFFFFBEEFFFF",
"j	c #AEBAAAAAAEBA",
"k	c #EFBEE38DE79D",
"l	c #71C671C669A6",
"z	c #79E779E78617",
"x	c #FFFFF3CEFFFF",
"c	c #410318611861",
"v	c #C71B08200820",
"b	c #69A618611040",
"n	c #8E380C300820",
"             .XoO+@#$$%&***=-%&&$#++XX;             ",
"             :XXOO@#$&&%**>*%%&&#$+O,X;             ",
"             <XXOO#@&$1%-***-&1&#@@+2X3             ",
"             <XXOO#@$$%1****-&&%4#++XX;             ",
"             <Xo++@#$$51-***--&&#@@+,,:             ",
"             6oXO+@#$$15**---%&&##++,,3             ",
"             <oXOO#@$$&--*****&&$#@+,X;             ",
"             .XX,+@#$$%&--**-*5&#$+@X,3             ",
"             <Xo+O@#$&$7--*=--&&##++,X;             ",
"             <XXO8#@&$&%--**-%&&#@@+,,3             ",
"             <Xo8O@#$$1&--****&$#$9+XX;             ",
"             <XXOO@#$&&---****5$#$++X,3             ",
"             .oXO+@#$$&1-**=--&&#$9O,X;             ",
"             <XXOO#@$$11-***-%&&5$++X,;             ",
"             <Xo8O@#$$%&-****-%$4#++,X3             ",
"             <XX,O#@$$%1--***-&&#$++XX:             ",
"             .Xo+O#@$$1&***=7-&$$#+@X,3             ",
"             <XXO+@#$$1&****-%&&4#@O,X;             ",
"             <XXOO@#$&&1*****-$&$#+@,X;             ",
"             <XoO8@#$&5%--*=--&$4#@+,,3             ",
"             .oXO+@#$$%&-**0-%&&##@+,X;             ",
"             :oo9O@#$$%7-*0*-%&$$#@+X,:             ",
"             <XoO,4@&$1&--***-&&4#+@,X;             ",
"             <XX,8#@&$&-----*%&&4#@+X,3             ",
"             <Xo++@#$$1&--*=-7&&#$++,,:             ",
"             <XXOO#@$$15--==%&&&##@+,X;             ",
"             <XX8O@#$$&1--**-%5&##@+,X;             ",
"             .XX,q@#$$1&--0*-%&&##++,,3             ",
"             <X,OO@#$$1%---*--$&4#++X,;             ",
"             .XXOO@#$$1%------$$$@@OXX;             ",
"                 <,O@9&&%---7&$$8Ooo                ",
"                 <,O99&&1--*%%##+OXo                ",
"                 w:6erttyuyutyteii<<                ",
"                       pasdaap                      ",
"                        fghgj                       ",
"                        fkhgjl                      ",
"                        fghgjl                      ",
"                        fghgjl                      ",
"                       zfgxgjl                      ",
"                        fghgj                       ",
"                       paadaap                      ",
"<<<<<<<<       c<:i6rtrtuuuyuyteiii<<.       c<<<.<<",
",X,,X,XX       <XX+@#$&&****%&&&99O,oo       6oX,XXX",
",X,X,XXX       <X,++$$5&--=*%%&$@@2Ooo       <XXX2XX",
"+OO8O,+,       .X,+9#$&$***=1&&$@@2,Xo       6O+O,+O",
"++O2qO+O       <XX+@#$&$****-&&$@@2,Xo       iOOO8O+",
"#@+@@#@@       <XX@+#$&7****-%#&@@2,oo       i@@#@@@",
"#@@@#@@@       .XX+@##&%-***-%&$9@2,oo       r49@#@#",
"$$#$$$$$       <,X+9#$&$****-%$$@@8XXo       t#$$$#$",
"$$#$$#$$       .o,++$$$&*-**-%$$9@2,oX       t$#$#$$",
"&%&5&&&1oXX,XXooXX+@##&%-*=*-%#&9@2,ooXXXXXXO4&&%&&%",
"&5&&$5&&,X,XX,oXoX+@##&1--**--&$9@2,oo2X,XXX+4&&&&5&",
"--%%**--@@@9@48XX2+@#$&&-----%$$@@OXXX9+##+@$&-%---%",
"--%--*--@49#44q,X,++$$$7-----%$$@@2OX29@#$@4$7%--*--",
"**=*-***%&%5%&9,X2+9##&&-----%$&9@2,X2%5%&&&%-----**",
"*>*****=1111&1qO2X+@#$&5----%-$$@@2,,21%1111%-----**",
"=*******-****>v+XX++#$&&--**-%$$@#,,2q**0--------***",
"*>***=-***>***v+XX++#$&&---*--$$#@,,,q-***----****>-",
"-%-*----%151&5q+X,++$$15--**-%$$@@8X,2&11&&%%%-----%",
"%1%%%1-%5&&&$&9O,X+9$$&&--**-%$&@92,,2&$&55$&%1-%-%%",
"&&&&5&&v@9@q@+8,oX++#$&&--**-&v$9@2,XX99q@+9#4&&&&&&",
"&&&&&&%&++++O+8XXX8+#$$7--**7%$$9#,,XX++++++#$&&&&&&",
"$#5$44$$<6<<6<;bX,+9#$$5---*--$$@@2,oo:.6<.6on4#$$$$",
"$$$#$#$$       ;o,++$#&&-----%&$9#,,oo       X##$$##",
"#@@@4@@9       <oX+@#$&5****-%$$@@2,Xo       i9#@9@@",
"@@9@@4+@       <X,++$$5%****-%$##@2,oX       i@@@@@@",
"O8,8OOO,       <XX+@#4&7%-**--$$@+,2oo       i8OO8O,",
",O,2,O,O       .XX+@$$&&--**-%&$498XXo       :O,,O,O",
"XXXXXXXX       <XX@+$#&1--*--1$$@#,,Xo       <2XXXXX",
"XXoXXoXX       .XX+@#$&%-----%$$9#,2oo       <XXoXXo",
"<<<<<<<<       .X,Oq#$&%-*==-%$&+@2,Xo       c<6<<<<",
"               6XX8+#$&7*0>>*7&$@+,OXX              ",
"                :6OO##&--*0*7-$#+On;y               ",
"                  OO@#&%%7=0*%4#+Oe                 ",
"                     p#$%---4&r                     "};
