/* XPM */
static char * 23HPRED_xpm[] = {
"110 85 60 1",
" 	c #71C671C671C6",
".	c #30C214511861",
"X	c #71C600000000",
"o	c #8E3800000820",
"O	c #A69900000000",
"+	c #AEBA00000000",
"@	c #BEFB00000000",
"#	c #9E7900000000",
"$	c #69A600000000",
"%	c #492420812081",
"&	c #082004100000",
"*	c #618500000000",
"=	c #965800000000",
"-	c #CF3C00000000",
";	c #D75C00000000",
":	c #B6DA00000000",
">	c #79E700000000",
",	c #514400000000",
"<	c #000000000000",
"1	c #208100000000",
"2	c #DF7D00000000",
"3	c #EFBE00000000",
"4	c #FFFF00000000",
"5	c #F7DE00000000",
"6	c #861700000000",
"7	c #965859655965",
"8	c #596500000000",
"9	c #79E720812081",
"0	c #38E300000000",
"q	c #96580C301040",
"w	c #B6DA14511861",
"e	c #B6DA69A669A6",
"r	c #618541034103",
"t	c #71C65D756185",
"y	c #79E779E779E7",
"u	c #861782078617",
"i	c #8E388A288E38",
"p	c #8E3892489658",
"a	c #965892489658",
"s	c #9E799A699E79",
"d	c #9E799E79A699",
"f	c #A699A289A699",
"g	c #AEBAAEBAAEBA",
"h	c #B6DAB2CAB6DA",
"j	c #AEBAA699AEBA",
"k	c #BEFBAAAAAEBA",
"l	c #BEFBB6DAB6DA",
"z	c #D75CB2CAAEBA",
"x	c #BEFBBAEABEFB",
"c	c #B6DAB6DABEFB",
"v	c #C71BC71BCF3C",
"b	c #D75CD34CD75C",
"n	c #DF7DDB6CDF7D",
"m	c #E79DE38DDF7D",
"M	c #F7DEF3CEF7DE",
"N	c #DF7DD34CDF7D",
"B	c #8E3808200000",
"V	c #EFBEE79DE79D",
"C	c #FFFFF3CEFFFF",
"Z	c #FFFFFBEEFFFF",
"              .XoO+@@@@+#o$%                                                                                  ",
"             &*o=+@-;;-:+=>,<                                                                                 ",
"             <1>#:-2322-:O>1<                                                                                 ",
"             <1>#:;2445;@#61<                                                                                 ",
"              1>#:-3445;:O>1                                                                                  ",
"              7X#:-2445;@#X7                                                                                  ",
"               <8=@2442@#*&                                                                                   ",
"               <*#@2442@#*<                                                                                   ",
"               &8=@2442@#*<                                                                                   ",
"               &*#@2442@#*<                                                                                   ",
"              *<8#@2442@#*<&                                                                                  ",
"            999&8#@2442@O8<&&<                                                                                ",
"           99=61>O@2332@#601&&<<&<                                                                            ",
"          qooooo6=:@2;@+#*00@@+@@@w                                                                           ",
"         7#====ooo6ooo>88O@w@::OOO##                                                                          ",
"        wO##O##=#=oo66X+-@@@@:+O:#O#o                                                                         ",
"        OOOOOOO###=ooo-@-@@@::+O+O##=7                                                                        ",
"       +++++++OOOO#=O;-@@@@::+O+O##==ow                                                                       ",
"      :w:::::++++OO+;-@-@8&&<<<8+##==o7                                                                       ",
"      ::@:@@:@::++:;;-@8&&&&<<&<&#==oo6                                                                       ",
"     :@@@@@@@@@@:+;;-@1.111&&&&<11=ooo6                                                                       ",
"    e@@-@----@@@@;;@w0101111.1&&1.06o667                                                                      ",
"    @@@-;-;-;;-@;-;@...%...00..1100oo6>6                                                                      ",
"   ww;-;;;2;;;;-;-;0,,%,%,%%..1.0%,$66>7            X>66o6>                                                   ",
"   @@;;;222222@;-;.%,,88,,,,,%00,88*66X9         9X>>6>666o66q                                                ",
"  e@-;;22232322;2,88888**888,,%.**$$>>X9        >X>6666oo6oo=o=q                                              ",
"  w;;;22335332;-6,88***$****8,,%XXX>6>X9       XX6666o6ooo=o===o6=                                            ",
"  -22223355552;;,8***$$$X$$*8*,,6>66>X$*      X>6666o6oo==o===#=#=qo                                          ",
"  ;2333223443-;8*8*$$X>X$X$X$*8,>6o6XX$8     >>666oooo=====#=#####OO#Oq                                       ",
" w2255552222-;-%8*$XX>>6%%%r$**8>ooo>$*r    >>66o6ooo====#=###O#O#OOOOOO#                                     ",
" ;23555532;-;;-,$$$X>>o%.%rty9$8=o=#X$89   >>666ooo====######OOO#OOOOOO#O##                                   ",
" -235455222-;-.8*$X>>o%.rryuipitq=#=$*89  >>66o6oo===####OOOOOOO+O+O+OO+OOOOO#                                ",
" -23335322;;--,,*$X>69.%tuiasdfffew=**,  >>>6ooo====###O#OOO+O+++++++++O+O+OOO#O                              ",
";;22233222;;;w,**XX>6%%ryisdghhhhjdar8,  >>6o6o====###OOOO+++++++:++:++:++++OOOO##q                           ",
"--;;22222;---%,8$$X>6&.r7sdklzzzxcffp7r >666oo===###O#O+O+++:+:::::::::+:+:++++OOOO==                         ",
"@@-;;2;;---@;,,**$X>>r.ruijcvbbbbzljsiy6966ooo==###OOO+O++:+:::@:@:@:@:::::+:+++OOOO###=                      ",
"@@@------@-;@,,8**XX6.%rupfjbnmmnvzhsitXX6oooo=###OOOO+++:+::@:@@:@@@:@@:@:::++++OOO####oq                    ",
"::@@@@@@@@;@-%%8**$XX%.ryidhxbmMmbzhsp>6o6oo===##OOO++++::::@@@@@@@@@@@@@@:@::::++OOOO###==                   ",
"++:@@@@@@:-@:.%,8**$XX%ry7sglzbnmNvcf7>66ooo==##O#O+++::::@@@@@@@@@-@@@@@@@@@::::++OOO###==oo6w               ",
"OO+++:+++:-@:0%,,8**$$X>ruedgzzbbbvkf6>6o6o==##OOOO++::::@@@@@-@---@---@-@@@@@@::+++OOOO##==oo666             ",
"##OOO+OOO+-@+00%,88**$*$**9afhcxzxchf$66oo===##OOO++:::@@@@@-@--@-------@-@-@@@@:::++OOO###==o=66>>e          ",
"==#######@-::.0.%,,88*8**88w:egglggf7XX66o==##O#O+++::@@@@@-@---;-;-;------@-@@@@::+:OOOO#===ooo669$X7        ",
"ooo======@@@@1.0.%,,,8888,+:@:@9eddarX6>o6==##OO+++::@@@@-@---;;-;;;;;;-;---@@@@@@::+++OO##==oo6o#:#oo+>      ",
"e6oooooo6-@@w&1100%%,,%,,O+:@@X8,%t7$>66ooo=##OO++:::@@@-@--;-;;;;;;;;;;;;----@@@@:::++OOO##==6:-@@@@:+OOw    ",
" $X6>66>>=@@:*&1.100.%%%OO+:@X88%%  X>66ooo=##OO+:::@@@-@--;-;;22222;2;;;;;----@@@@::+++OO###+--@@@@:++OOO#   ",
" *X$XX$X$$@:::<&&1.1000#OO::$r8,,   X>66o===##OO++:@@@-@--;;;;22222222222;;;----@@@@::++OOO#--@-@@@::++O###q  ",
" 9,*8*8888@:++1<&&111oo#OO:$$88,   $X66ooo=###O+++:@@@----;;;2222222222222;;;--@-@@@@:+++O:;--@@@@@:++OOO#==w ",
"  .%.%%%%.w:+++&<&&ooo##O:X**88%   $>66oo==##OO+++:@@@-@;;;;222223232322222;;;---@@@@:+++@;---@@@@:+++OO##==o ",
"   0000001,:+O#q$$>o6==#=$$$88%    X>66oo==##OO++::@@@---;;22223233333232222;;---@@@@::+:;;--@-@@@:++OO###=oBq",
"    ......&:#wOO#=o6oo66>$$*8,     >>6ooo=###O+++:@@@-@;-;;22232333333323222;;;--@@@@:::;;;-@-@@@:+++OO##===o6",
"      &&&&&1#qO##=ooo6>>>$**,      >>6ooo==#OO++::@@@@--;;2222333355353323222;;---@@@@:2;;--@@@@::++OO##===o66",
"        <<<<.####==o666X$$88       X666o==#O#O++:@@@@---;;2223333555553332222;;---@@@:;;;--@-@@@:+++O###==oo66",
"          <<<%===ooo66>$X$         >>6oo==##OO++::@@@---;2;232335554555332322;;;-@@-@@2;;--@@@@::++OO###=ooo6>",
"            <<&==oo66>>$e          X66oo==##OO++::@@@--;;;22233355444553332222;---@@@22;--@-@@@:++OOO##=ooo66>",
"              <q=oo6>>e            >>6oo==#OOO++::@@-@;-;22233355444555332222;;;-@-@2;;;--@@@@::+OOO##==oo66>>",
"                                   X66oo==##OO++:@@@@--;;22223355445453333222;;---@@2;;--@-@@@:++OOO#===oo66>X",
"                                   >66oo==#OOO++:@@@-@;;;;2232535554533232222;;---@;2;---@@@@:+++OO##==oo66>XX",
"                                   >>6oo=6==O#++::@@@---;;2223333555333322222;;--@@2;;--@-@@::++OO###=ooo6>>X$",
"                                   X666o=qoO#=O+::@@@---;;22232533335322222;;;-;-@2;;---@@@@:++OOO##==oo66>X$$",
"                                    >6oo==qwqOO+::@@@---;;;2223233333232222;;--@@-2;;-@-@@@::++OO##==ooo6>>X$*",
"                                    6o>=qoffdf+:+:@:@@---;;222232332323222;;;-@-@-;;---@@@@:++OOO##==oo6>>>$*8",
"                                    >>o6qfgjfjgfe+@:@@-@;-;;2222222322222;;---@@@;;;--@@@@::+OOO###=oo666>$$*8",
"                                     66qgjjhhkhhggew@@-@--;;;22222222222;;;--@-@@2;--@-@@@:++OOO##=ooo66>X$*88",
"                                      7gkclclccllchgfe@--@;-;;;22222222;;;--@-@@-;;--@@@@::++O#O===ooo6>>X$88r",
"                                      hkcxxxxxxcxxkcgjjew@--;;;;;2;;;;;;---@-@@@-;--@-@@::++OO###==oo6>>X$**% ",
"                                     jccxxzzzzzzzxxclhjjdde----;;;;;;;----@-@@@@;--@-@@@::+OOO##==oo66>X$**,% ",
"                                    hcxxzzzvvvvvvzzxclhjffdaew--;--;----@-@@@@@@;-@-@@@::++OO###o=oo6>>X$*8,% ",
"                                   jcxzzzvvbbbbbvvvzxckhjfdapiiw-----@-@-@@@@@:@;-@-@@@:++OOO#===oo66>X$*88,7 ",
"                                  jlcxzvvvbNNNNbbbvvzxxhjjfsapi7ytw@-w@@@@@@@::@--@@@@::++OO##==ooo6>>X$88,%  ",
"                                 jllxzzvbbnnmNmNNbbvvzclhgfdspi7utrrw@-@@@@@:+:--@-@@@:++OOO#===o6o>>X$*8,,9  ",
"                                 ijxzzvbbnnmmVmmmNbbvzzckgjdspiiuyrr%@@@@@:::++@-@@@@::++OO##==ooo6>>X**8,.   ",
"                                 iadhzbbnnmmVVVmmnNbbzzxlgfdsaiiuytrp@@::::+:+++@-@@::++OO###=ooo66>X$*8,,t   ",
"                                 issjgxNnmmVVCVVmmNNvvzclhjfdapiuyrpiw::+:+++OO:@@@@:+++OO##==oo66>>$**,%.    ",
"                                 isdjhczvmVCMCMMVmNNbvzxchffdapiuyppi:++++++OOO+@@@::+++O###=ooo6>6X$*88%t    ",
"                                  sdghxzbbmVCZCMVmmbbvzzlkjfsspiuiiiuu+O++OOOO#@@@@:+++OO##==oo66>>$**,,0     ",
"                                    vhczvNnVVZMVVmNNbvzxchjddpp7piiuuttOOOO####+@@::++OO##==oo66>>X$*8,%      ",
"                                      mzvbnVVVVVmmNbbzzxckjddappii7uyttqOO####=O@@:++OOO##==oo66>X$*8,,7      ",
"                                        ZvNmmmmmnNNbvzzxlgfdsappi7uyttrr9####===@+:++OO##==oo66>>X$88,t       ",
"                                           mNnnnbbvzvzzckgfdsapiiuyttrrrr#====ooO:+++O###=ooo66>X$*88t        ",
"                                             Vbbvvvxcghlhjfssiiiuyttrrra e===o=oo:+OOO##==oo66>>$**8,         ",
"                                               Cbzcckfdsdjdspiiuyyttta      wo6o>#+OOO#==ooo6>>X*$,t          ",
"                                                  zkjfssiuuaiiuyytp           eo6>+OO##==ooo6>X$**9           ",
"                                                    jssaiutpiiyyi                >$#O#OooooX6X>*$             ",
"                                                       s7uriiu                     9#=oooo6oX>$               ",
"                                                         r.i                          #ooo6>9                 "};
