/* XPM */
static char * 23MVRED_xpm[] = {
"80 107 63 1",
" 	c #71C675D671C6",
".	c #69A655555965",
"X	c #A699A699A699",
"o	c #DF7DD75CD75C",
"O	c #FFFFFBEEFFFF",
"+	c #CF3CC30BBEFB",
"@	c #9E799A699E79",
"#	c #492445144924",
"$	c #B6DAAEBAB6DA",
"%	c #596559655965",
"&	c #86176DB671C6",
"*	c #208120812081",
"=	c #000000000000",
"-	c #EFBEEBADEFBE",
";	c #F7DEF3CEF7DE",
":	c #186118611861",
">	c #AEBAAAAAAEBA",
",	c #BEFB5D755965",
"<	c #C71B10401040",
"1	c #618528A22081",
"2	c #C71B28A228A2",
"3	c #BEFB10401040",
"4	c #C71B18611861",
"5	c #BEFB0C300000",
"6	c #D75C10401040",
"7	c #AEBA18612081",
"8	c #B6DA18611861",
"9	c #B6DA1C711861",
"0	c #C71B10401861",
"q	c #DF7D10401040",
"w	c #D75C08200820",
"e	c #E79D08200820",
"r	c #CF3C10401861",
"t	c #CF3C10401040",
"y	c #DF7D08200820",
"u	c #9E7918612081",
"i	c #A69920812081",
"p	c #AEBA20811861",
"a	c #A6991C711040",
"s	c #965820812081",
"d	c #BEFB10401861",
"f	c #8E3828A228A2",
"g	c #9E7920812081",
"h	c #AEBA18611861",
"j	c #EFBE08200820",
"k	c #D75C10400820",
"l	c #69A630C230C2",
"z	c #79E728A22081",
"x	c #E79D00000820",
"c	c #71C628A230C2",
"v	c #618530C230C2",
"b	c #E79D00001040",
"n	c #861728A228A2",
"m	c #CF3C08201040",
"M	c #F7DE00000000",
"N	c #DF7D08201040",
"B	c #8E3824922081",
"V	c #DF7D10400820",
"C	c #FFFF00000000",
"Z	c #596530C230C2",
"A	c #8E3820812081",
"S	c #9E7928A228A2",
"D	c #CF3C08201861",
"                                    .XoO+.                                      ",
"                             +@+++++#@oO$%+++++X                                ",
"                          &&&&&&&&&&#XoO$%&&&&&++&&                             ",
"                        ..&&@*%&=   *@oO$%    @&##&&.                           ",
"                      %..&&    &$+= *@oO$%    @.= &...%                         ",
"                     %%..       Xoo  @-O$= o+$&     ..%%                        ",
"                    #%%=          o;#XoO$%Oo@         %%#                       ",
"                    #%=            =#@oO+%==           %#                       ",
"                    #**##%%&&++++++o#+o;+&++++++@&%##*#*#                       ",
"                    ##***##%%...&&&o-O.&O;o+++..%%##**:##                       ",
"                    #%%          X+ooo++$Oo+$         %%#                       ",
"                     %%%       .&X+&=@o-$%=+$@&      %%%                        ",
"                      %..*    #.@=== @o-+%>  .&#   =..%                         ",
"                        .&&&#:====   @$+$=>>   *%&&&.                           ",
"                         $&&&@XX&.%..%%&..%.&$@@&&&                             ",
"                            oX@X$X+$++++$+$$X@@@                                ",
"                                ,,,<1@oO+%                                      ",
"                              23334<1@oO$%56,                                   ",
"              778,         ,389344<01@oO+#6qwer                                 ",
"            ,8988888,    ,8938434<tt1@-O$%qqwq6y6,                              ",
"           ,394338989uuipa899939t4t01X-O+%qweyyewey,                            ",
"          ,44<<44<39isuip8899d44<0661XoO+#yyyyyyyyyqyr                          ",
"          t4ttt0<0sfsguhh889d4<<46t61@oO+%yjjjejyjyyyqkq,                       ",
"          t066twlzfsggih8889344<0t5q1XoO$%yjxjejjeeeyyqq6t2                     ",
"         5t6wqwycv1fguuh88899<<0t6ww1@-O$%xxjxjxjjbyjqqy66tt0                   ",
"         t6yyeeqvlllnsp78889<90ttt6e*XoO+%ejxjjjjxjjyyyyqw6m5ic                 ",
"         66eejxxllllzffu9843905t6t5q6@++$jjMMMMMjjjxjyyetq6ssnc                 ",
"         56qyxjjvllczfagh88940ttttq6qyyjyjjjMMMMMMjjjjyyq87usfn                 ",
"         4t6wjyx1llznfsiu883440tt66yyeeejxjMMMMMMjjjxj69988ugfn                 ",
"         dt66yqqvllcnfsup8884<06twtNqyejeMjMMMMMMjjxqtt4388igfc                 ",
"          4<t6twlvlcnfsiu8884<t066yqyyeejjjMMMMMjjxy664<998igBn                 ",
"          20t<<0llllnBsgi8894<t56yqyweqeejxMMMMjjxyV6t<4d87ugfn                 ",
"           ,4344vll1nnsghh8843ttttqyebqexxjjjjjjxjyq9<8839hugfn                 ",
"             833lvllnfsgi78939ttttqyqyxjyMyjjjjjxyk8888887higfz                 ",
"               pvlllcnfga78889400q6wqeyyjyyjyjxjyy8939999887inz                 ",
"                vlvlcnfgghh84340t6ty6yqeyqyyyyyyy44440<4<988h7a,                ",
"                vlvl1nBsgip78844<ttt6wqmqq6qqyyqttt<06<t4<998higfz              ",
"                vlvllnnfgg78884d<4tt6t6qw06wtqttttt66t66t<4d378guzc1l           ",
"                vlvll1nnsgih88934<4tt0w066t066tt0tqmqqwt60t4488iunCCCC          ",
"                vllZllcffgguh888334<<06tt4<t<0066ewyeyyyq6ttd39uuCCCCCC         ",
"                vvvlvlczfAggp78884394<<t<434<4<t6yejejeeqy0t5993CCCCCCC         ",
"                clvvll1czffgui8888433944<8399d346yyjjMjeeN66048CCCCCCCCC        ",
"                llvvvll1cnfsagup8888893948889880t6yeeeeyytyt0<CCCCCCCCCC        ",
"                vvvllZlllcBfsgg7i88888898a78h789066yyyNNttt905CCCCCCCCCC        ",
"                lvvlvlvlvllBffsaii7h87888giiiuhh4<6tmtqt60438CCCCCCCCCCC        ",
"                lvllvvvlvllllzfsggii7878hfgsggsSd34t06t0t4d8pCCCCCCCCCC         ",
"                vlvvvvlvvvvvvllBssgggiiiizfzfffff8<4<<4d338hgCCCCCCCCCC         ",
"                vllZlllllvvlvvllnfsssgsggzcncnnzz1f339983hpisCCCCCCCCCC         ",
"                vvlcllcnlllllvvvhfzsBfsfslllll111l   p88iiguBCCCCCCCCC          ",
"                v1lcnnffzcl1lllviteDBffBnllvvlllv      uguBnczCCCCCCCC          ",
"                11nnfsggnfnnnlllp9tyMjfznvvvvhglv    llllzc1lv4CCCCCC           ",
"                czffsgiisgguBufchttjxMMMz11438scv   l<066yhnvvv4CCCh8           ",
"                zfsagh78i7iiigsf8ttyjMMMjyj547sclszz54t6<6t6t77u978838          ",
"                nssi78888888h7ii8t6jxMMMMjqt39scvgBclst<66wqwyt8983943d         ",
"                   9889993993cfh8t6yjMMMMj6t37gzlgfcllzttt66ye6q394<4<0<        ",
"                     9d34d4zllnh846exMMMMjwt87gcvSscllv3t6tq6yqew4<<006tt       ",
"                       44l1nllfu9<6yjMMMMj6548glliBcllvr5tt6wqyyye0t66t6tD      ",
"                        vlcnsfBa346yjMMMMyVt39fn8sfclvvtt060qwqyyyyt6y6wtq      ",
"                        lvlnfip39ttyyjjjjjq60t387gfcllv44t66w66yqbjqyqyqyqw     ",
"                        vlncBg733tttyyyjVqwtt488usfc1lvl1nnz<66yqyyjyyeNeNmD    ",
"                        llcshhh8844t6qq6qw0t438hp7ifllvzfnfgfa6yqyeyeejeeeqy    ",
"                        vlnBp88ttqyjjMMMMMMxq6t488gBcllfsgiuuh9wqyqeeejjeeeyq   ",
"                        llnsi89066eejMMMMMjjV6<<97gfzc1gihh88889yqyyeejjjjeb6   ",
"                        vlnsu834tqwMjMMMMMjxqw043hgBcl1ih7888499<yqNeexMjjxjj,  ",
"                        llcsi93tt6yxMMMMMMjxy6t488gBclvp8990t44<9mqyqeeMMMMMMj  ",
"                        vlnsi93066yjjMMMMMMjV60<97gfzll8940ttt4<0t6yybyjxjMMMM  ",
"                        llcsu93ttqyjMMMMMMjjV6t388gfzll94<066666t0yqyqeeyMMMMj, ",
"                        vlnsi93tt6yjjMMMMMjxV60438gBclv34666yyytyttyqyyeyxjjjyV ",
"           lllcn        vlnsu934tqyjMMMMMMjjV6td37gBzlv4ttyyeeejyq0qweqeeyjyjyy ",
"         ccclznfsg,     vcnBh834tyyjjMMMMMjxy6043hiBclv4t6wjjjxeyttytNyqeyyyyyq ",
"      lcvllnnfsgggii,   vlnsi88t0qyxMMMMMMMjV6t<88gfclv46yjxjjxyqt0tqyqyeteqqqm ",
"     1lh6wnfzagguhh87,  vlnsi93t5qyjMMMMMMjjV6<497gfcllt6yeeejyyq0t66mqyyN066tt ",
"   946<066wqtshhp88898,,lcnfu9306qyjjMMMMMjxV60<88gBcll466yqyytq064tmqwqyttt0tq ",
"  ,0t4tt6t6ywe9889893998znffa84<0qyjjMMMMMMjVw043hgBc1v4tt6wtqtt00<4t66ye000t04 ",
"  3444<06twtqyeN999904<r3sgggh9<6yqxMMMMMMjjq6td37ifcvv44<060600548<6w6wqb44<39 ",
" 8994<055ttqwNqyy340t0tt4<u87p8<0qyjjMMMMMjxV6t488gfclv934<4<<<438806twtNN39899 ",
" 89339ttt6ttqmqyyet06t6t6t3888896yyjMMMMMMjjVw<<97gfzllh899d3989873t0666y88887h ",
" 8899t4<tttt6y6yeye666w666t38499t6yjjMMMMMjxyt043hgfzlvih8888887hi4tttt6w8h7hhi ",
"pa99d94<90ttmtqyqyeewqy6ywqtt4<4<yyjjMMMMMMjq6t437if1llsgiuhi7ui39<t4ttw6gggggl ",
"888839<90tt666wqwbqeyeyyqe6wt0t0ttejjMMMMMjjV6td9hgBclvnfssgsg8884<90t6t0usuun  ",
"h78999900ttt066wqqweeeeeeeeNq6q6ttejjMMMMMjxV6<<9hgBzlvccnnfh88899<r5t06wnnnzn  ",
"h88889<34t4tttwtyqyeyjejjeeyyqyyyteyMMMMMMMjV60<97ufcllllzgh7888494<406<1lclc   ",
"p7h79899<90ttt66mqyyeNMMxjxyyejyqttjjMMMMMjjVtt<88gBzlv# giih7888939<t4<clll    ",
"ii888899<90tt06wtNqyqeyMMjxjMjxyqt0xMMMMMMjxV60<97gfcll   ughp8889399<ycvll     ",
"uuh888999<4<0tt666yNyeexMMMMMMjq66txMMMMMMjjVw043hgBclv    uih7888494dcl#       ",
"giphh88399<90ttt6wq6yeyjjjMMMMj6tt<xjMMMMMjxytt497ufzlv      7p799930v&         ",
"ggi7h88899<0t4tt66wteqyejxMMMjj6t<3jjMMMMMMjq6t<88gfclv                         ",
" suih888994<4<0tt6wtyNyeyjjjjjx5439xjMMMMMjjV6t39hgBcvl                         ",
" ggup78889394<0tt6tyqNqyeyjyjyyt388MjMMMMMjxV6<097ifcvv                         ",
" ugiup889939<905t066wqyyeqwjyjq588qjjMMMMMMjV60<97gfzll                         ",
" ssighh8889990ttt0666wqyNyqyqqwq8hejjMMMMMjjVmt488gAcll                         ",
"  sguih888894d44ttt6wtyqyb66w66tgqyjjMMMMMjyV6t<37gfcvl                         ",
"  ssgihph889344<4ttttytyqy06t06<6wyexMMMMMjyV6<988gBcvl                         ",
"  ,sgii778899334<<06t6wqyN0t0t<<<tqyxjMMMjyyq<4d8hsfzll                         ",
"   Asgiuh8888994<406t66wqy4<44d4<tqyyjjjjjyk6t438igf1lv                         ",
"    sgguh7889939<<0tttwtyN8393384066eeexjqq6t<388iunll                          ",
"    sggiuph7899d90t4tt6mqN8888883t066yqyqqwt04387gBn1                           ",
"     fsgihh888994<4<ttt6t6a778hp93ttt6wq6mtt4387uSz.                            ",
"      sgii7888894d4<<066mqguuaii89340tt0tt<4398hin                              ",
"      uggiuh88893344<0tt6msssBS  a934<<t<d3488u                                 ",
"       ggiuhh88999<4<tt06aBnfnn                                                 ",
"        igii7h8899394<066zcc1.                                                  ",
"         uguh7888994<90tgll.l                                                   ",
"          giuph889393044vlll                                                    ",
"           uup788889443lll                                                      ",
"             aa7888939cl                                                        ",
"                                                                                "};
