/* XPM */
static char * 23MVGRN_xpm[] = {
"80 107 59 1",
" 	c #71C675D671C6",
".	c #596571C65965",
"X	c #AEBAA289AEBA",
"o	c #DF7DE38DD75C",
"O	c #FFFFFBEEFFFF",
"+	c #C71BCB2BC71B",
"@	c #861779E78617",
"#	c #A699BAEA8E38",
"$	c #B6DAC30BAEBA",
"%	c #4103596530C2",
"&	c #F7DEF3CEF7DE",
"*	c #208120812081",
"=	c #30C238E330C2",
"-	c #000000000000",
";	c #104008201040",
":	c #186118611861",
">	c #71C6BAEA28A2",
",	c #5965B2CA0820",
"<	c #5965AAAA0000",
"1	c #5965B2CA0000",
"2	c #6185B2CA0000",
"3	c #6185BAEA0000",
"4	c #69A6CB2B0820",
"5	c #71C6CB2B0000",
"6	c #410392480820",
"7	c #49249A690000",
"8	c #4924A2890000",
"9	c #5144A2890820",
"0	c #71C6D34C0820",
"q	c #5144A2890000",
"w	c #69A6C30B0000",
"e	c #79E7D34C0000",
"r	c #79E7DB6C0000",
"t	c #30C279E70000",
"y	c #38E38A280000",
"u	c #410392480000",
"i	c #8617DB6C0000",
"p	c #28A271C60000",
"a	c #000049240000",
"s	c #208169A60820",
"d	c #492492480000",
"f	c #8617E38D0000",
"g	c #71C6D34C0000",
"h	c #000041030000",
"j	c #30C282070820",
"k	c #8E38E38D0000",
"l	c #082051440000",
"z	c #186161850000",
"x	c #38E38A280820",
"c	c #8E38EBAD0000",
"v	c #8617EBAD0000",
"b	c #9658F3CE0000",
"n	c #208161850000",
"m	c #9E79FBEE0000",
"M	c #208171C60000",
"N	c #4924A2890820",
"B	c #8E38F3CE0000",
"V	c #8617CB2B0000",
"C	c #38E392480000",
"                                    .XoO+@                                      ",
"                             OOOOOOOO#oO$%OOOOO#                                ",
"                          O@@@@@@@@@%#o&+%$XX#OOOOO                             ",
"                       O@@@@@ .OOO  *#oO$    OO@=%OO%                           ",
"                      O@@@@   %@XOO *#oOX%  O$#@*-@OOO*                         ",
"                    O@@@@       X++O=#o&+%%OO$@    -%%=O                        ",
"                    O@@@@         +&=XoO$%Oo#;       ;**O                       ",
"                   O@@              =#oO$%$;;         :*O                       ",
"                   OOOOOOOOOOOOOOOOO%+o&+@OOOOOOOOO%OO=*O                       ",
"                   OO  **=%%..@@@@OOoO@@O&OO@@@..%%OO**=O                       ",
"                    OO          :O++o+$+$OO+O%        =*O                       ",
"                     OO        @OX+@ #o&$% +$OO*     ==O                        ",
"                      OO      %O@.   #+&X%   .OO   *%OO                         ",
"                       OOO   :O;-    #$$$%     *O@@OO#                          ",
"                         OOOOOOO@@%.@.%#.@%OOOOOOOOO                            ",
"                           O XOOOOOOOOOOOOOO####+O                              ",
"                                >>>,=XoO$%o                                     ",
"                               <1,23=#oO$%45>                                   ",
"              678>          9 <1,233=XoO$%5505>                                 ",
"            >q<8qq87>     7q<911,33w=#oO$%5e55ee>#                              ",
"           ><<1<,<<8q76668q<911,33ww=#oO$%rerrer5r5>                            ",
"          >,2,33,,,,6tyu78q<<11,3w34=XoO$%rrririrreee>                          ",
"          ,333w3w3pptyy77q9911,33www=XoO$%riiii0i0ir5r50#                       ",
"          334545aspptyud8q<1<1,33ww4=#o&+%00fffffi0irr5555>                     ",
"         ,w555g5ahajtyu87<8<1,33www5=#oO$%fkfkkfkfii0re5554w3                   ",
"         w5rei0ihaalzxu7q8<<1,33ww0g=XoOX.kfccckckff0ir5g54w36l                 ",
"         35rikffahalzppu8q<11,3w3545>#+++ivkcbcbkcfki0rre44yppz                 ",
"         355rfckahalnpjyu8q,,2334455rri0fkccbbbbcccffirr5q8yjpz                 ",
"         ,w5gi0iaaalnpjy67<<,,3ww54e5riifkcbbbbbbcckf043<<6utpn                 ",
"         >3455grhaazzpjyu891<33w3555rriifccbbbmbbccf543,,q8utpz                 ",
"          23w454ahalnpjyu8<9,,345455rerifkcbbbbbbc0r4433<<8uypn                 ",
"          >,333whaalzppyu88<1,3w45er5rrifkccbbbbfire543,,q8utpz                 ",
"           >,,,3hhalzMjt67<<<,3ww55rririifcccbkkfi0583<<<98ujpz                 ",
"             <<qahalzMpyy88q1,33w555rriififikfkfi05<8<88877utpz                 ",
"               8haaaznpty78q<,,3ww555rri0rriiff00r<1<<1<q987usz                 ",
"                hhaaznppy67<91,33w455e5rr5errrri5,,,3,,,,,<87uj                 ",
"                hahalzMpyy78<<1,33w4555ee4555r05w,3w3w333,1<87utpz              ",
"                ahaalznptyu88<<,233w45455w455455234w4wwww3,,<86ypszah           ",
"                hahhazzppyy7q8<<,,33www4w3wwwww335555e554w3,,q8uymmmmm          ",
"                hahaalznptyu7q8<1,2,33www,33333355errree55w3,,q6mmmmmmm         ",
"                hahahalnspjyu8qq<<1,2,333<,2,3,w4rikfii0r54w3<<mmmmmmmm         ",
"                haahaaaznpptuu788<<<1,,23<<<<1<34ericccfre5w3,<mmmmmmmmm        ",
"                haahhhaazzpjtyu788q<<<<1,78<8<83w5e0fk00e5543,mmmmmmmmmm        ",
"                hahahahaaznpptyu77888<9<<66688q,,45erre5543,3,mmmmmmmmmm        ",
"                hahhaahhahanpptyyu7787q88yyuuuuu,ww4554533,<<mmmmmmmmmmm        ",
"                haaahahahaahappjtjuuu7777ptttttt2,33ww333,,q6mmmmmmmmmmm        ",
"                haaahahahahahaappttjyuuuusppppppp<1,2,3,,<88ummmmmmmmmm         ",
"                hhhaaallahaahahazpppttttylzzznzzzltq1<<<987ytmmmmmmmmmm         ",
"                haallzznahahaaal6pnppppptlllallaa%---8887uypMmmmmmmmmm          ",
"                halzsnpphahaalzz73g4Msspnhhhlahnh------jyppslmmmmmmmmm          ",
"                alzsppjjahaazzpp834rkcslnahla%tlh----%aaazzlahmmmmmmm           ",
"                zzMpjtyuhalznppy9,5rkmmblha><8tzh---a33w4>7phlhmmmmm8           ",
"                zMptyu78alnpptuu<,5rkmmmc05w<8tzhjnp3w3www>5r6ut9N89<9          ",
"                ppy6688qlzMpyu87<34rcmbmbi5w,8tzhyplln34w545er,8q<<111,         ",
"                   78q<<zppy6zs69,5rkmmbbigw<8tzhypzaaswww555e>r<,1,3,3,        ",
"                     ><,spyshapu<340kmmmBf5w,7tlh6pzala<www55r5r>33333w33       ",
"                       >palsaapu<,50cmbmcfe3,qtzhxpzaha,www555rer0w344w5,w      ",
"                        hhastpp6<,grkmmmci0w<8tz6ypzahh3w344555reir5555555      ",
"                        haaspu8<,ww5rifkf0g533,86yplahh333ww455ereir5e5ee55     ",
"                        hanzpj8q,2355rrrrr5w33<8utnnlahptxu74555rerirrrree5V    ",
"                        hazju97q<,33555555ww,,q8u8yplahyu8q<8,555rei0iiiirr5    ",
"                        hanpu8<335rkcmmmmbkfe4w,<7yplah68<<<,,355reriffkfiir5   ",
"                        hanpuq13w5rkcbmmbbk0rww,<7yplaaq<,,3w33w55rrribccfir5   ",
"                        hanpu8<3w5rfbbmmmbcig53,<8jpzhh<,3w4545w35rerifbccibcm  ",
"                        hanpuq<3w5rkcmbmbmcig533<7yplaa,3w55ree545e5ri0mmbbmBm  ",
"                        hanpuq1,45ribbmmmbkfg5w,<7ypzha3w5e0iiir455r5riifcbmbcm ",
"                        hanpuq<3w5ifcmmbmbcig533<6yplah34erkcbfig555rrrifccbkkm ",
"                        hanpuq<,45rfbbmmmbk0r532<7ypzha35eicbbbigw35e5ri0ikfkf0 ",
"           .alzn        hanpuq13w5iicmbmmmkig53398yplahw4ricbbk05435greri0ffi00 ",
"         aalzzsptj%     hanpuq<,45rkcmmbmbc0r533<6yplaa3werkbbv0g4355e5irrerrr> ",
"      .haalznpptjuyu>   hanpuq13w5rfbbmmmbkig533<6ypzhh3wekBmck0553w55rer555555 ",
"     haaaannppyyu67q8>  hazju8<3w5rkcbmmbbcfg5w,<6yplaawerkkccfi54,4555re45544w ",
"   2,3w4ww553yuu88qq<<> npnpu8<3w5ribbmmmmkig533<6yplahw5rriffigg334455erw3ww33 ",
"  >,333www550e,qq<<<1<,qyu687q<3w5rkcmbmmbvir4w,<6ypzha345er0r5543,35455rw3333, ",
"  ,1,333ww555ere<<11,,3,,qq<<91,45ribbmmmbkig5w,<6yplaa33w4555543,<ww555r0,,,,< ",
" ><1,,33www555re01,3333w33,,3,,3w5ifcmmbmbc0r532<7yplah,23ww4ww3,<934w555r<<<q< ",
" q<<,,333ww545e5rr3wwww4ww3www33w50kcmbmmmkig533<6ypzha<<,,33,3<<9,3ww54e<7q8q9 ",
" q<<1,233www555reriw45455545555wweribbmmmbkfg5w,<7yplah88<<<1<<<7733www54866u6u ",
"989<11,333www55egrir5e5e55550re545rfcmmbmbc0r532<7yMzhayd788q8761,333ww45tjyytp ",
"8q8<<<1,333ww555erei0rrrrr55kk0r45ifbbmmmbkig53,<7Cplahptyuuuu<<<,,33wwwwpptpp  ",
"78q<911,233www555reriiiii00r5bfi53ribbmmbmcig5w,<8yplaansppt7q8<1<,,33wwwnznzn  ",
"678q9<1,,333345555rei0kcffirr>kr43ifcmbmmbkfg533<7yplahlzzyu8q8<911,333>aallz   ",
"u78q991<,333ww4555rericcbkfir5fr5w3>cmmbmbcig5w,<7yplaa% jyu77q<9<1,,333haaa    ",
"uu78<991,,233www555rri0mckkicbir5w,fbbmmbbkir4w,<7ypzhh   juu688<911,,3hhlh     ",
"yu788<<<1,2,3www55geerikbcbbmcfr5w,fcmbmmmcig533<6yplah    yy778q<91<>ah%       ",
"yy6688q<1<,333ww4555rer0icbbbbfr4w,kcmmbmbkfg5w,<7yplah      66qq81<9a%         ",
"tyu67q991<,,33www455egriifcbbcf543,fbbmmmbc0r532<6ypzhh                         ",
" tyu78q9<11,3333w4555reriffkkff533<icmbmmbkig53,<7yplah                         ",
" tuy678<991,,233ww545erri0ifff043<9fcmmbmmc0r5w,<8yplah                         ",
" ttuu66891<<,333www555eerg0irig5,q0icmmmbbkir43,<8tplah                         ",
" ptyy66899911,333www555rree5r555<6gkBmbmmbc0r533<7ypzha                         ",
"  pjyu668<91<,,333ww455eer4554546gricbmmbbkig5w,<6yplah                         ",
"  ttyuu688<911,233ww4555rewwwww334eikmbmbck0543,q7ypzah.                        ",
"   ptyuu88q<91,,333ww455er33333,3w50fccbck0r4w,,q6jnlah                         ",
"   pttuu78q81<1,233ww4555r,,2,,,3w5erkfcffr5g3,<8utplha                         ",
"    ttyuu7qq<91<,333ww545e<<1<<82345rrii0re4w3,<7upnla                          ",
"    ptjyu688q<<1,,33www555<8q98q,3ww5erre54433<87ypna                           ",
"     pjyyu7q8<91,,233www55667776<1,ww45545w33<98ytpl                            ",
"      ttuu668q<<1,,33w3455yuyuyu91,,3w33w33,,<8dyp                              ",
"      pjyyu78q8<<1,233ww4wpptpp 79<<,,3333<1986                                 ",
"       ttyu678q<91,,333wwyspspz                                                 ",
"        tyyu778<91<,233wwlzlzl                                                  ",
"         jyuu8q8<91,,333taaaa                                                   ",
"          tyu778<<<<,,,3hhhh                                                    ",
"           jy6688q<<1,3haa                                                      ",
"             y678<81<1ha                                                        ",
"                                                                                "};
